<svg xmlns="http://www.w3.org/2000/svg" width="535.212" height="137.931" viewBox="0 0 535.212 137.931">
  <g id="Group_392" data-name="Group 392" transform="translate(9962.712 -10634.029)">
    <path id="Exclusion_1" data-name="Exclusion 1" d="M513.266,137.93a4.421,4.421,0,0,1-4.5-4.64,4.712,4.712,0,0,1,1.294-3.34,4.6,4.6,0,1,1,3.2,7.98Zm0-8.475a3.477,3.477,0,0,0-2.537,1.025,4.371,4.371,0,0,0,0,5.626,3.635,3.635,0,0,0,5.074,0,4.37,4.37,0,0,0,0-5.626A3.477,3.477,0,0,0,513.266,129.455ZM497.55,137.93a4.421,4.421,0,0,1-4.5-4.64,4.712,4.712,0,0,1,1.294-3.34,4.6,4.6,0,1,1,3.2,7.98Zm0-8.475a3.477,3.477,0,0,0-2.537,1.025,4.37,4.37,0,0,0,0,5.626,3.634,3.634,0,0,0,5.073,0,4.372,4.372,0,0,0,0-5.626A3.476,3.476,0,0,0,497.55,129.455ZM377.856,137.93a4.421,4.421,0,0,1-4.5-4.641,4.712,4.712,0,0,1,1.293-3.339,4.438,4.438,0,0,1,3.2-1.3,4.227,4.227,0,0,1,4.135,2.758h-1.066a3.219,3.219,0,0,0-3.069-1.924,3.486,3.486,0,0,0-2.536,1.022,3.9,3.9,0,0,0-1.025,2.786,3.538,3.538,0,0,0,3.561,3.822,3.386,3.386,0,0,0,2.393-.9,3.653,3.653,0,0,0,1.066-2.452h-3.822v-.741h4.785v.663A4.374,4.374,0,0,1,377.856,137.93Zm-11.738,0c-1.754,0-3.015-1-3.067-2.43h.961a1.886,1.886,0,0,0,2.106,1.664c1.2,0,2-.675,2-1.679,0-1.257-1.1-1.551-2.267-1.863-1.34-.358-2.724-.728-2.724-2.542,0-1.432,1.2-2.433,2.912-2.433a2.665,2.665,0,0,1,2.925,2.211h-.989a1.848,1.848,0,0,0-1.975-1.43h-.032a1.706,1.706,0,0,0-1.919,1.625c0,1.231,1.1,1.532,2.26,1.85,1.343.368,2.731.748,2.731,2.545A2.63,2.63,0,0,1,366.118,137.93Zm-129.1,0c-2.068,0-3.3-1.3-3.3-3.471v-5.706h.909v5.719c0,1.21.417,2.652,2.406,2.652,1.557,0,2.38-.917,2.38-2.652v-5.719h.909v5.706C240.321,136.633,239.087,137.93,237.02,137.93Zm-18.6,0a4.421,4.421,0,0,1-4.5-4.641,4.712,4.712,0,0,1,1.293-3.339,4.6,4.6,0,0,1,6.414,0,4.715,4.715,0,0,1,1.289,3.339A4.422,4.422,0,0,1,218.417,137.93Zm0-8.474a3.477,3.477,0,0,0-2.536,1.025,4.371,4.371,0,0,0,0,5.626,3.634,3.634,0,0,0,5.074,0,4.37,4.37,0,0,0,0-5.626A3.479,3.479,0,0,0,218.417,129.456Zm269.058,8.462a4.639,4.639,0,0,1,0-9.269,4.206,4.206,0,0,1,4.186,2.756h-1.066a3.165,3.165,0,0,0-3.12-1.963,3.393,3.393,0,0,0-2.5,1.032,4.419,4.419,0,0,0,0,5.621,3.4,3.4,0,0,0,2.5,1.03,3.176,3.176,0,0,0,3.12-1.937h1.066A4.212,4.212,0,0,1,487.474,137.918Zm-241.1,0a4.639,4.639,0,0,1,0-9.269,4.211,4.211,0,0,1,4.188,2.758H249.5a3.166,3.166,0,0,0-3.121-1.963,3.392,3.392,0,0,0-2.5,1.032,4.419,4.419,0,0,0,0,5.621,3.4,3.4,0,0,0,2.5,1.03,3.18,3.18,0,0,0,3.121-1.936h1.066A4.216,4.216,0,0,1,246.379,137.917Zm273.96-.076h-.91v-9.086h2.73c1.937,0,3.094.986,3.094,2.639a2.5,2.5,0,0,1-2.236,2.587l2.339,3.859-1.091,0-2.249-3.8h-1.677v3.8Zm0-8.321h0V133.3h1.833c1.364,0,2.146-.7,2.146-1.911,0-1.242-.726-1.872-2.158-1.872h-1.82ZM384.85,137.841h-.908v-9.086h.908l5.033,7.631v-7.631h.909v9.085h-.909l-5.033-7.645v7.645Zm-177.236,0H206.7v-9.086h2.731c1.937,0,3.094.986,3.094,2.639a2.5,2.5,0,0,1-2.236,2.587l2.338,3.859-1.091,0-2.247-3.8h-1.678v3.8Zm0-8.321V133.3h1.833c1.363,0,2.145-.7,2.145-1.912,0-1.242-.726-1.872-2.158-1.872Zm300.271,8.32h-4.173v-9.086h.91V137.1h3.263v.74Zm-136.175,0H370.8v-9.086h.911v9.085Zm-10.141,0h-4.744v-9.1h4.744v.753h-3.836v3.394h3.447v.752h-3.447v3.447h3.836v.752Zm-11.232,0h-2.692v-9.086h2.692c3.012,0,4.81,1.706,4.81,4.564C355.146,136.149,353.348,137.84,350.336,137.84Zm-1.781-8.333h0v7.58h1.781a3.957,3.957,0,0,0,2.909-1.007,3.75,3.75,0,0,0,.979-2.762,3.814,3.814,0,0,0-.979-2.788,3.926,3.926,0,0,0-2.909-1.022h-1.781Zm-93.388,8.333h-.909v-8.333h-2.536v-.753h5.967v.753h-2.522v8.332Zm-27.9,0h-2.69v-9.086h2.69c3.012,0,4.81,1.706,4.81,4.564C232.079,136.149,230.281,137.84,227.269,137.84Zm-1.781-8.333v7.58h1.781a3.957,3.957,0,0,0,2.909-1.007,3.75,3.75,0,0,0,.979-2.762,3.814,3.814,0,0,0-.979-2.788,3.926,3.926,0,0,0-2.909-1.022Zm-25.206,8.333h-.911v-9.086h2.744a3.316,3.316,0,0,1,2.323.745,2.706,2.706,0,0,1,.01,3.718,3.314,3.314,0,0,1-2.334.75h-1.833v3.872Zm0-8.32v3.667h1.833c1.415,0,2.132-.613,2.132-1.822,0-1.241-.7-1.845-2.132-1.845ZM385.64,111.84H357.176v-1H385.64v1Zm-151.781,0h-11.3v-1h11.3v1Zm138.533-1.951a3.583,3.583,0,0,1-3.38-1.676,8.133,8.133,0,0,1-.812-4.149,8.183,8.183,0,0,1,.934-4.323,3.457,3.457,0,0,1,3.129-1.6,3.242,3.242,0,0,1,3.456,3.024h-1.04a2.236,2.236,0,0,0-2.417-2.08,2.62,2.62,0,0,0-1.98.738c-.781.8-1.138,2.257-1.091,4.462a3.3,3.3,0,0,1,3.295-2.066c2.25,0,3.649,1.484,3.649,3.873A3.506,3.506,0,0,1,372.392,109.889Zm-.112-6.7a2.734,2.734,0,0,0-2.944,2.735,2.8,2.8,0,0,0,3.007,3.025,2.666,2.666,0,0,0,1.97-.752,2.865,2.865,0,0,0,.734-2.048C375.048,104.264,374.039,103.185,372.281,103.185Zm-10.033,6.7a3.632,3.632,0,0,1-3.92-3.169h1.1a2.965,2.965,0,0,0,4.95,1.351,3.241,3.241,0,0,0,.682-2.151,2.548,2.548,0,0,0-2.783-2.815,2.838,2.838,0,0,0-2.672,1.6h-1.057V98.353h6.9v.975h-5.855v4.1a3.566,3.566,0,0,1,2.831-1.28,3.529,3.529,0,0,1,2.893,1.2,4.042,4.042,0,0,1,.818,2.558,4.183,4.183,0,0,1-.93,2.8A3.78,3.78,0,0,1,362.247,109.889Zm18.3-.049h-1.137l4.513-10.5h-6.4v-.959h7.488v.864l-4.464,10.591Zm-153.4,0h-3.312V98.656h3.312c3.707,0,5.92,2.1,5.92,5.616C233.076,107.758,230.863,109.84,227.156,109.84Zm-2.191-10.256v9.328h2.191a4.867,4.867,0,0,0,3.58-1.24,4.617,4.617,0,0,0,1.2-3.4,4.692,4.692,0,0,0-1.2-3.43,4.83,4.83,0,0,0-3.58-1.258ZM55.224,46.888a3.583,3.583,0,0,1-3.38-1.676,8.133,8.133,0,0,1-.812-4.149,8.182,8.182,0,0,1,.934-4.321,3.458,3.458,0,0,1,3.13-1.6,3.242,3.242,0,0,1,3.456,3.024h-1.04a2.236,2.236,0,0,0-2.416-2.08,2.623,2.623,0,0,0-1.981.739c-.781.8-1.138,2.257-1.092,4.46a3.3,3.3,0,0,1,3.3-2.064c2.25,0,3.648,1.484,3.648,3.872A3.505,3.505,0,0,1,55.224,46.888Zm-.112-6.7a2.735,2.735,0,0,0-2.944,2.736,2.8,2.8,0,0,0,3.009,3.024,2.664,2.664,0,0,0,1.97-.752,2.864,2.864,0,0,0,.734-2.048C57.88,41.263,56.871,40.184,55.112,40.184Zm-10.031,6.7a3.632,3.632,0,0,1-3.92-3.168h1.1a2.964,2.964,0,0,0,4.95,1.352A3.243,3.243,0,0,0,47.9,42.92,2.549,2.549,0,0,0,45.112,40.1a2.841,2.841,0,0,0-2.672,1.6H41.384V35.352h6.9v.976H42.424v4.1a3.569,3.569,0,0,1,2.831-1.28,3.531,3.531,0,0,1,2.894,1.2,4.042,4.042,0,0,1,.818,2.558,4.18,4.18,0,0,1-.93,2.8A3.781,3.781,0,0,1,45.08,46.888Zm18.3-.049H62.248l4.513-10.5h-6.4v-.96h7.488v.864L63.385,46.839Zm-30.081,0H29.992V35.656H33.3c3.707,0,5.92,2.1,5.92,5.616C39.224,44.758,37.011,46.84,33.3,46.84ZM31.112,36.584v9.328H33.3a4.869,4.869,0,0,0,3.58-1.24,4.617,4.617,0,0,0,1.2-3.4,4.692,4.692,0,0,0-1.2-3.43,4.832,4.832,0,0,0-3.58-1.258H31.112ZM73.9,15.968H72.8V3.1h1.1v1.92a3.708,3.708,0,0,1,3.472-2.048A4.049,4.049,0,0,1,80.35,4.19a4.617,4.617,0,0,1,1.186,3.266c0,2.657-1.711,4.513-4.16,4.513A3.726,3.726,0,0,1,73.9,9.92v6.047ZM77.152,3.952a3.155,3.155,0,0,0-2.29.944A3.605,3.605,0,0,0,73.9,7.472a3.605,3.605,0,0,0,.958,2.576,3.284,3.284,0,0,0,4.6,0,3.661,3.661,0,0,0,.934-2.6,3.612,3.612,0,0,0-.934-2.586A3.141,3.141,0,0,0,77.152,3.952Zm19.44,10.224h-.784l1.184-4.192H98.24l-1.648,4.192ZM91.04,11.968a4.161,4.161,0,0,1-4.288-4.5,4.589,4.589,0,0,1,1.2-3.292,4.191,4.191,0,0,1,3.086-1.2,4.094,4.094,0,0,1,3.024,1.19,4.063,4.063,0,0,1,1.1,2.858,7.823,7.823,0,0,1-.032.88H87.888a3.276,3.276,0,0,0,1,2.328,3.161,3.161,0,0,0,2.152.792,2.705,2.705,0,0,0,2.816-1.952H95.04A3.853,3.853,0,0,1,91.04,11.968Zm-.048-8.033a3.1,3.1,0,0,0-2.1.766,3.284,3.284,0,0,0-1.006,2.29h6.144a2.931,2.931,0,0,0-.779-2.178A3.112,3.112,0,0,0,90.992,3.936ZM49.3,11.968c-2.449,0-4.16-1.856-4.16-4.513A4.609,4.609,0,0,1,46.324,4.19a4.073,4.073,0,0,1,2.988-1.214,3.653,3.653,0,0,1,3.456,2.048V3.1h1.12V11.84h-1.12V9.9A3.7,3.7,0,0,1,49.3,11.968Zm.224-8.016a3.182,3.182,0,0,0-2.314.918,3.612,3.612,0,0,0-.934,2.586,3.661,3.661,0,0,0,.934,2.6,3.291,3.291,0,0,0,4.61,0,3.612,3.612,0,0,0,.952-2.576A3.612,3.612,0,0,0,51.816,4.9,3.155,3.155,0,0,0,49.52,3.952ZM32.112,11.968a4.162,4.162,0,0,1-4.288-4.5,4.588,4.588,0,0,1,1.2-3.292,4.193,4.193,0,0,1,3.086-1.2,4.094,4.094,0,0,1,3.024,1.19,4.062,4.062,0,0,1,1.1,2.858,7.615,7.615,0,0,1-.032.88H28.96a3.274,3.274,0,0,0,1,2.328,3.162,3.162,0,0,0,2.152.792,2.707,2.707,0,0,0,2.816-1.952h1.183A3.851,3.851,0,0,1,32.112,11.968Zm-.048-8.033a3.1,3.1,0,0,0-2.1.766,3.284,3.284,0,0,0-1.006,2.29H35.1a2.929,2.929,0,0,0-.778-2.177A3.111,3.111,0,0,0,32.064,3.936ZM11.712,11.968a4.311,4.311,0,0,1-3.092-1.21A4.528,4.528,0,0,1,7.376,7.472,4.5,4.5,0,0,1,8.642,4.18a4.364,4.364,0,0,1,3.1-1.2,4.364,4.364,0,0,1,3.108,1.2,4.5,4.5,0,0,1,1.26,3.292A4.257,4.257,0,0,1,11.712,11.968Zm.016-8.016a3.166,3.166,0,0,0-2.232.86,3.6,3.6,0,0,0-.984,2.66,3.617,3.617,0,0,0,.976,2.66,3.142,3.142,0,0,0,2.224.86,3.206,3.206,0,0,0,3.248-3.52,3.589,3.589,0,0,0-.992-2.66A3.19,3.19,0,0,0,11.728,3.952Zm52.224,7.889h-1.1V6.848a3.137,3.137,0,0,0-.706-2.19,2.454,2.454,0,0,0-1.87-.738,2.534,2.534,0,0,0-1.952.794,3.473,3.473,0,0,0-.752,2.39V11.84h-1.12V3.1h1.12v1.5a3.105,3.105,0,0,1,2.9-1.664A3.228,3.228,0,0,1,63.7,5.088a3.19,3.19,0,0,1,3.152-2.144,3.393,3.393,0,0,1,2.462.928,3.912,3.912,0,0,1,1.01,2.848v5.119h-1.1V6.848c0-1.861-.933-2.929-2.561-2.929-1.693,0-2.7,1.19-2.7,3.184V11.84Zm-25.521,0H37.248l2.815-4.368L37.28,3.1h1.265l2.224,3.471L42.928,3.1H44.1l-2.784,4.32,2.815,4.414-1.263,0L40.608,8.32l-2.176,3.52Zm46.288,0H83.6V0h1.12V11.839Zm-65.44,0H18.16V3.1h1.12V4.656a3,3,0,0,1,2.993-1.712V4.112h-.3c-1.784,0-2.688.958-2.688,2.848v4.879Zm-18.16,0H0V.656H6.048v.928H1.12V5.76H5.28v.928H1.12v5.151Z" transform="translate(-9962.712 10634.029)"/>
    <rect id="Rectangle_187" data-name="Rectangle 187" width="12" height="12" transform="translate(-9891 10668.869)" fill="red"/>
    <circle id="Ellipse_80" data-name="Ellipse 80" cx="6" cy="6" r="6" transform="translate(-9876 10668.869)" fill="#bebebe"/>
    <path id="Path_2701" data-name="Path 2701" d="M7.5,0,15,13H0Z" transform="translate(-9862 10667.869)"/>
    <g id="Group_360" data-name="Group 360" transform="translate(-10534 3050.869)">
      <g id="Group_142" data-name="Group 142" transform="translate(0 2)">
        <rect id="Rectangle_83" data-name="Rectangle 83" width="14" height="14" transform="translate(1043 7676)" fill="red"/>
        <circle id="Ellipse_12" data-name="Ellipse 12" cx="7" cy="7" r="7" transform="translate(1066 7676)" fill="#bebebe"/>
        <path id="Polygon_1" data-name="Polygon 1" d="M8.5,0,17,15H0Z" transform="translate(1089 7675)"/>
      </g>
      <line id="Line_17" data-name="Line 17" x2="63" transform="translate(1043.5 7693.5)" fill="none"/>
    </g>
  </g>
</svg>
