<svg xmlns="http://www.w3.org/2000/svg" width="366" height="117" viewBox="0 0 366 117">
  <g id="Group_440" data-name="Group 440" transform="translate(-778.5 -2791.5)">
    <line id="Line_119" data-name="Line 119" x2="363" transform="translate(780.5 2899.5)" fill="none" stroke="#707070" stroke-linecap="round" stroke-width="2"/>
    <line id="Line_120" data-name="Line 120" x2="364" transform="translate(779.5 2802.5)" fill="none" stroke="#707070" stroke-linecap="round" stroke-width="2"/>
    <line id="Line_121" data-name="Line 121" y2="115" transform="translate(789.5 2792.5)" fill="none" stroke="#707070" stroke-linecap="round" stroke-width="2"/>
    <line id="Line_122" data-name="Line 122" y2="115" transform="translate(1134.5 2792.5)" fill="none" stroke="#707070" stroke-linecap="round" stroke-width="2"/>
    <line id="Line_123" data-name="Line 123" x2="364" transform="translate(779.5 2824.5)" fill="none" stroke="#707070" stroke-linecap="round" stroke-width="1" opacity="0.259"/>
    <path id="Path_1362" data-name="Path 1362" d="M2651.576,3874.174q-1.124-.7-2.246-1.385c3.236.678,6.011,1.171,8.082,1.387,1.183.106,2.365.212,3.466.228,6.935.1,15.152-2.021,15.276-10.566.017-1.246-.225-2.052-1.156-2.065a3.984,3.984,0,0,0-1.271.251,35.256,35.256,0,0,1-9.383.591,60.424,60.424,0,0,1-16.264-4.238v.088l-2.347-1.458.085,0c-7.794-5.008-29.506-18.673-29.416-25.08.01-.622.437-.885,1.537-.78,2.277.3,7.239,2.419,13.292,4.909,8.746,3.6,20.522,8.306,29.214,9.588a24.062,24.062,0,0,0,2.535.124c6.681.1,13.54-2.5,13.658-10.689.085-5.877-8.368-12.1-16.405-17.744.346.012.682.018.955.023,7.7.11,15.42-2.821,15.554-12.166.143-9.967-10.7-19.278-20.678-25.831a5.033,5.033,0,0,0,.846.1c5.653.974,19.857.451,19.977-8.006a16.008,16.008,0,0,0-3.169-9.212c-3.879-5.137-13.765-11.093-22.235-16.113,3.161.657,5.828,1.128,7.748,1.331,1.351.107,2.618.215,3.8.232,8.882.127,14.173-3.358,14.326-13.947.146-10.381-7.948-19.208-18.941-26.361,9.861-1.37,18.1-8.225,18.321-23.833.336-23.515-13.059-36.518-23.756-45.768a44.8,44.8,0,0,0,5.964,1.336,23.048,23.048,0,0,0,2.45.124c7.7.111,14.418-2.818,14.554-12.166.143-9.968-9.7-19.276-19.676-25.83a5.318,5.318,0,0,0,.844.1c9.85,2.039,17.775-2.542,18.977-8.006.92-4.181-4.737-14.571-5.794-14.944-1.93-.684-5.15,1.3-5.15,1.3a41.513,41.513,0,0,0,1.934,4.8c.635,1.41.672,1.485.616,1.642-.771,2.124-10.477.284-12.394-.12-3.625-.674-8-2.339-11.642-2.036-3.557.305-6.3,2.581-6.99,9.6.06,1.78.458,3.656,1.982,3.5,2.032-.15,3.708.943,4.971,1.318,8.221,4.567,24.239,14.233,24.135,21.709-.062,4.183-4.463,4.475-7.674,4.162-9.88-1.03-40.381-15.267-40.2-27.815.093-6.5,7.317-8.8,13.063-8.447a16.212,16.212,0,0,1,3.457.852,2.478,2.478,0,0,0,1.042-1.857,4.933,4.933,0,0,0-.73-2.233l-.083-.09a18.99,18.99,0,0,0-4.552-1.134c-9.376-.849-19.863,4.967-20.013,15.379-.184,12.755,11.791,24.438,24.912,31.944.591.5,1.165.974,1.673,1.37,3.676,2.881,8.446,6.546,13.039,10.725l-.085,0c7.1,6.66,15.182,17.512,18.429,30.213,1.888,7.382-.52,18.493-5.423,18.424-.846-.012-6.851-.1-7.693-.238-1.54-.294-5.454-1.144-8.292-1.857a4.109,4.109,0,0,1-3.089-3.566c-1.925-18.142-2.626-50.43-14.635-52.678-8.953-.9-20.489,13.381-21.772,28.5-2.429,28.582,6.95,38.144,18.928,42a4.474,4.474,0,0,0-1.1,2.895c-.073,5.046,6.741,9.129,12.514,9.729h-.025a11.4,11.4,0,0,0,1.346.074c3.578.052,6.865-1.3,6.919-5.085a8.06,8.06,0,0,0-1.275-4.477c1.123.131,2.229.271,3.313.427h-.085c.377.07.736.084,1.1.127,7.175,4.249,12.038,10.64,17.15,17.613,2.318,3.414,2.876,5.916,2.1,6.971-.953,1.412-3.58,1.82-6.793,1.773-9.386-.135-24.886-4.541-30.7-6.225l-1.1-.284-6.4-1.783c-5.222-1.5-10.359-3-15.334-4.228l.033-2.224c.118-8.276,1.5-15.823,6.3-20.651a1.407,1.407,0,0,0-1.749-1.982l0-.089c-8.684,3.971-10.845,13.018-10.908,23.434a92.683,92.683,0,0,0-10.124-1.926c-5.827-.617-11.77.81-11.9,10.066-.025,1.692.293,3.12,1.9,3.321a11.23,11.23,0,0,0,1.524-.154,17.852,17.852,0,0,1,4.233-.3c2.365.3,8.1,1.717,15.091,3.421.357,4.635.792,9.714.73,13.986a33.507,33.507,0,0,1-2.121,12.343l.085-.089c-1.3,2.208.811,2.326,2,1.809,4.685-2.156,6.121-8.01,6.225-15.221.048-3.47-.155-7.124-.435-11.132l4.805,1.315c7.222,1.892,15.178,3.969,22.472,5.766.871.476,1.777.96,2.712,1.439,8.308,4.747,20.885,12.315,26.3,18.179,3.738,4.506-9.505,2-11.783,1.522-3.626-.674-8-2.34-11.643-2.037a6.316,6.316,0,0,0-4.392,2.091l-.614-.323a19.378,19.378,0,0,0-6.527-2.193l-.05-.006c-9.376-.848-19.863,4.967-20.014,15.379-.232,16.366,19.541,30.972,36.081,37.241,9.219,5.66,19.958,12.955,19.912,16.25-.029,1.959-4.258,2.075-6.54,1.954-4.983-.6-12.388-3.292-19.7-6.158-7.657-2.869-15.9-5.925-22.066-6.636-6-.709-10.589,1.182-10.684,7.68-.133,9.436,10.5,16.975,19.88,23.43,2.176,1.634,4.357,2.912,6.279,4.451l-13.146-3.3c-12.052-3.111-27.052-6.977-30.431-7.38-5.659-.525-11.772,1.078-11.9,10.066-.025,1.693.378,3.211,1.9,3.323a11.009,11.009,0,0,0,1.524-.158,17.805,17.805,0,0,1,4.233-.294c3.97.412,15.682,3.518,28.575,6.909,6.8,1.8,13.924,3.683,20.47,5.319.535.313,1.055.61,1.518.863,3.692,2.009,8.479,4.571,13.088,7.487l-.085,0c7.377,4.735,18.689,12.2,18.554,21.542-.075,5.34-4.751,6.965-10.077,6.887-.932-.014-2.031-.118-2.958-.22-16.032-2.635-37.671-15.5-37.568-22.616.044-3.114,4.967-4.469,9.7-4.045a22.267,22.267,0,0,1,4.215.953,2.84,2.84,0,0,0,.957-1.766c.042-3.025-3.336-3.342-5.363-3.549-9.544-.848-19.7,5.146-19.848,15.649-.236,16.465,21.989,29.778,40.822,31.739h-.083a36.5,36.5,0,0,0,4.394.242c11.669.168,22.39-4.219,22.568-16.588C2676.306,3889.752,2662.4,3880.65,2651.576,3874.174Zm-32.232-222.8c.167-1.662.771-6.48,2.369-8.051,3.7-3.644,6.217-4.567,8.325-4.148,8.425,1.188,10.106,26.123,10.921,41.139a6.047,6.047,0,0,1-6.447,6.56C2626.278,3685.986,2616.2,3682.921,2619.344,3651.37Zm26.3,57.958c-.023,1.638-1.457,2.135-3.089,2.111-.286,0-.623-.036-.908-.067-4.916-.81-11.548-4.749-11.517-6.932,0-.024.012-.042.014-.066a101.2,101.2,0,0,0,14.521,2.32l.022,0A4.432,4.432,0,0,1,2645.644,3709.328Zm-25.968,65.24c.083-5.887,5.978-5.313,11.36-4.894a12.315,12.315,0,0,1,3.791.9c.518.214,1.1.464,1.688.723-.016.135-.035.26-.051.4.06,1.78.455,3.658,1.979,3.5,2.035-.148,3.71.945,4.974,1.318,8.222,4.569,24.241,14.235,24.132,21.71-.06,4.183-4.461,4.477-7.672,4.164C2650,3801.352,2619.5,3787.117,2619.676,3774.569Z" transform="translate(4712.398 221.965) rotate(90)" fill="none" stroke="#000" stroke-linecap="round" stroke-linejoin="round" stroke-width="1"/>
    <line id="Line_124" data-name="Line 124" x2="364" transform="translate(779.5 2830.5)" fill="none" stroke="#707070" stroke-linecap="round" stroke-width="1" opacity="0.259"/>
    <line id="Line_125" data-name="Line 125" x2="364" transform="translate(779.5 2833.5)" fill="none" stroke="#707070" stroke-linecap="round" stroke-width="1" opacity="0.259"/>
  </g>
</svg>
