<svg xmlns="http://www.w3.org/2000/svg" width="526" height="202.378" viewBox="0 0 526 202.378">
  <g id="Group_439" data-name="Group 439" transform="translate(-697 -4278)">
    <circle id="Ellipse_41" data-name="Ellipse 41" cx="77" cy="77" r="77" transform="translate(697 4278)" fill="#2c382a"/>
    <circle id="Ellipse_42" data-name="Ellipse 42" cx="77" cy="77" r="77" transform="translate(883 4278)" fill="#89a386"/>
    <circle id="Ellipse_43" data-name="Ellipse 43" cx="77" cy="77" r="77" transform="translate(1069 4278)" fill="#acbb9c"/>
    <path id="Path_4341" data-name="Path 4341" d="M-32.364-4.968h-4l.7-3.33h4ZM-33.426,0h1.206l.828-3.852h2.808V-4.968h-2.574l.7-3.33h2.862V-9.414H-30.2l.828-3.906h-1.206l-.828,3.906h-4l.828-3.906h-1.206l-.828,3.906h-3.06V-8.3h2.808l-.7,3.33h-3.1v1.116H-37.8L-38.628,0h1.206l.828-3.852h4Zm7.668-.09h8.586V-1.152h-6.66c2.538-1.872,6.264-4.914,6.264-8.208,0-2.484-1.656-3.762-3.906-3.762-2.376,0-4.032,1.494-4.176,4.212h1.224c.108-1.8,1.044-3.132,2.952-3.132a2.411,2.411,0,0,1,2.646,2.736c0,2.754-3.222,5.544-6.93,8.316ZM-15.516-6.3A6.084,6.084,0,0,0-9.36.108a5.827,5.827,0,0,0,5.8-3.78H-5.04A4.4,4.4,0,0,1-9.36-.99c-2.754,0-4.86-2.034-4.86-5.31,0-3.294,2.106-5.328,4.86-5.328A4.378,4.378,0,0,1-5.04-8.91h1.476a5.81,5.81,0,0,0-5.8-3.816A6.1,6.1,0,0,0-15.516-6.3Zm14.13-3.312H-.162a2.73,2.73,0,0,1,2.97-2.43c1.71,0,2.628.954,2.628,2.322,0,1.584-1.206,2.394-3.672,2.394H1.35v1.062h.4c2.5,0,3.942.828,3.942,2.736A2.5,2.5,0,0,1,2.862-.972a3.043,3.043,0,0,1-3.24-2.7H-1.6C-1.35-1.224.432.09,2.862.09,5.58.09,6.894-1.458,6.894-3.42A3.21,3.21,0,0,0,4.1-6.768v-.09A2.888,2.888,0,0,0,6.66-9.846c0-1.836-1.332-3.294-3.816-3.294C.432-13.14-1.206-11.808-1.386-9.612ZM11.7-6.7A3.267,3.267,0,0,0,9.072-3.42c0,2.322,1.8,3.8,4.572,3.8s4.572-1.476,4.572-3.8A3.267,3.267,0,0,0,15.588-6.7,3.02,3.02,0,0,0,17.874-9.7c0-1.908-1.476-3.384-4.23-3.384S9.414-11.61,9.414-9.7A3,3,0,0,0,11.7-6.7Zm1.944-.414c-1.8,0-3.006-.954-3.006-2.448,0-1.638,1.206-2.484,3.006-2.484,1.818,0,3.006.864,3.006,2.484C16.65-8.064,15.444-7.11,13.644-7.11Zm0,.972c1.854,0,3.33.828,3.33,2.682,0,1.71-1.3,2.772-3.33,2.772-2.052,0-3.348-1.044-3.348-2.772C10.3-5.346,11.808-6.138,13.644-6.138ZM20.178-.09h8.586V-1.152H22.1c2.538-1.872,6.264-4.914,6.264-8.208,0-2.484-1.656-3.762-3.906-3.762-2.376,0-4.032,1.494-4.176,4.212H21.51c.108-1.8,1.044-3.132,2.952-3.132a2.411,2.411,0,0,1,2.646,2.736c0,2.754-3.222,5.544-6.93,8.316ZM39.384,0h1.332L36.144-12.42H34.722L30.132,0h1.332l1.1-2.988h5.724ZM37.908-4.032H32.94l2.484-6.8Z" transform="translate(774 4480)"/>
    <path id="Path_4342" data-name="Path 4342" d="M-32.031-4.968h-4l.7-3.33h4ZM-33.093,0h1.206l.828-3.852h2.808V-4.968h-2.574l.7-3.33h2.862V-9.414h-2.61l.828-3.906h-1.206l-.828,3.906h-4l.828-3.906h-1.206l-.828,3.906h-3.06V-8.3h2.808l-.7,3.33h-3.1v1.116h2.862L-38.295,0h1.206l.828-3.852h4Zm10.422-6.7A3.267,3.267,0,0,0-25.3-3.42c0,2.322,1.8,3.8,4.572,3.8s4.572-1.476,4.572-3.8A3.267,3.267,0,0,0-18.783-6.7,3.02,3.02,0,0,0-16.5-9.7c0-1.908-1.476-3.384-4.23-3.384s-4.23,1.476-4.23,3.384A3,3,0,0,0-22.671-6.7Zm1.944-.414c-1.8,0-3.006-.954-3.006-2.448,0-1.638,1.206-2.484,3.006-2.484,1.818,0,3.006.864,3.006,2.484C-17.721-8.064-18.927-7.11-20.727-7.11Zm0,.972c1.854,0,3.33.828,3.33,2.682,0,1.71-1.3,2.772-3.33,2.772-2.052,0-3.348-1.044-3.348-2.772C-24.075-5.346-22.563-6.138-20.727-6.138Zm7.29,2.7A3.65,3.65,0,0,0-9.495.054c3.384,0,4.428-2.5,4.428-6.75,0-3.78-.936-6.444-4.572-6.444a3.937,3.937,0,0,0-4.23,4.266A3.924,3.924,0,0,0-9.693-4.59a3.55,3.55,0,0,0,3.51-2.124c.108,4.23-1.1,5.706-3.258,5.706a2.62,2.62,0,0,1-2.826-2.43ZM-9.495-5.67a2.935,2.935,0,0,1-3.168-3.24A2.921,2.921,0,0,1-9.6-12.078a3.087,3.087,0,0,1,3.24,3.384A2.945,2.945,0,0,1-9.495-5.67ZM5.967,0H7.3L2.727-12.42H1.3L-3.285,0h1.332l1.1-2.988H4.869ZM4.491-4.032H-.477l2.484-6.8Zm4.5-5.58h1.224a2.73,2.73,0,0,1,2.97-2.43c1.71,0,2.628.954,2.628,2.322,0,1.584-1.206,2.394-3.672,2.394h-.414v1.062h.4c2.5,0,3.942.828,3.942,2.736A2.5,2.5,0,0,1,13.239-.972,3.043,3.043,0,0,1,10-3.672H8.775C9.027-1.224,10.809.09,13.239.09c2.718,0,4.032-1.548,4.032-3.51a3.21,3.21,0,0,0-2.79-3.348v-.09a2.888,2.888,0,0,0,2.556-2.988c0-1.836-1.332-3.294-3.816-3.294C10.809-13.14,9.171-11.808,8.991-9.612ZM22.077-6.7A3.267,3.267,0,0,0,19.449-3.42c0,2.322,1.8,3.8,4.572,3.8s4.572-1.476,4.572-3.8A3.267,3.267,0,0,0,25.965-6.7,3.02,3.02,0,0,0,28.251-9.7c0-1.908-1.476-3.384-4.23-3.384s-4.23,1.476-4.23,3.384A3,3,0,0,0,22.077-6.7Zm1.944-.414c-1.8,0-3.006-.954-3.006-2.448,0-1.638,1.206-2.484,3.006-2.484,1.818,0,3.006.864,3.006,2.484C27.027-8.064,25.821-7.11,24.021-7.11Zm0,.972c1.854,0,3.33.828,3.33,2.682,0,1.71-1.3,2.772-3.33,2.772-2.052,0-3.348-1.044-3.348-2.772C20.673-5.346,22.185-6.138,24.021-6.138ZM39.393-9.756a3.643,3.643,0,0,0-3.888-3.4c-3.294,0-4.572,2.574-4.572,6.66,0,3.708.864,6.552,4.716,6.552a3.939,3.939,0,0,0,4.212-4.266c0-2.718-1.584-4.356-4.1-4.356a3.708,3.708,0,0,0-3.708,2.322c-.09-4.284,1.188-5.85,3.456-5.85a2.521,2.521,0,0,1,2.718,2.34Zm-3.87,2.268c2,0,3.114,1.242,3.114,3.33A2.884,2.884,0,0,1,35.6-1.008a3.156,3.156,0,0,1-3.384-3.4A3.068,3.068,0,0,1,35.523-7.488Z" transform="translate(960 4480)"/>
    <path id="Path_4343" data-name="Path 4343" d="M-34.5-4.968h-4l.7-3.33h4ZM-35.559,0h1.206l.828-3.852h2.808V-4.968h-2.574l.7-3.33h2.862V-9.414h-2.61l.828-3.906h-1.206l-.828,3.906h-4l.828-3.906h-1.206l-.828,3.906h-3.06V-8.3H-39l-.7,3.33h-3.1v1.116h2.862L-40.761,0h1.206l.828-3.852h4Zm16.578,0h1.332l-4.572-12.42h-1.422L-28.233,0H-26.9l1.1-2.988h5.724Zm-1.476-4.032h-4.968l2.484-6.8ZM-16.209-6.3A6.084,6.084,0,0,0-10.053.108a5.827,5.827,0,0,0,5.8-3.78H-5.733A4.4,4.4,0,0,1-10.053-.99c-2.754,0-4.86-2.034-4.86-5.31,0-3.294,2.106-5.328,4.86-5.328A4.378,4.378,0,0,1-5.733-8.91h1.476a5.81,5.81,0,0,0-5.8-3.816A6.1,6.1,0,0,0-16.209-6.3ZM5.409-3.492c0,1.512-1.08,2.43-2.9,2.43H-.495V-5.976H2.457C4.257-5.976,5.409-5,5.409-3.492ZM5.1-9.288c0,1.4-.954,2.268-2.664,2.268H-.495v-4.5h2.88C4.2-11.52,5.1-10.638,5.1-9.288ZM6.669-3.366A3.168,3.168,0,0,0,4.131-6.5a2.9,2.9,0,0,0,2.25-2.916c0-1.764-1.26-3.168-3.906-3.168h-4.23V0H2.6C5.247,0,6.669-1.476,6.669-3.366Zm9.486-.126c0,1.512-1.08,2.43-2.9,2.43H10.251V-5.976H13.2C15-5.976,16.155-5,16.155-3.492Zm-.306-5.8c0,1.4-.954,2.268-2.664,2.268H10.251v-4.5h2.88C14.949-11.52,15.849-10.638,15.849-9.288Zm1.566,5.922A3.168,3.168,0,0,0,14.877-6.5a2.9,2.9,0,0,0,2.25-2.916c0-1.764-1.26-3.168-3.906-3.168H8.991V0h4.356C15.993,0,17.415-1.476,17.415-3.366Zm2.556-.072A3.65,3.65,0,0,0,23.913.054c3.384,0,4.428-2.5,4.428-6.75,0-3.78-.936-6.444-4.572-6.444a3.937,3.937,0,0,0-4.23,4.266A3.924,3.924,0,0,0,23.715-4.59a3.55,3.55,0,0,0,3.51-2.124c.108,4.23-1.1,5.706-3.258,5.706a2.62,2.62,0,0,1-2.826-2.43ZM23.913-5.67a2.935,2.935,0,0,1-3.168-3.24,2.921,2.921,0,0,1,3.06-3.168,3.087,3.087,0,0,1,3.24,3.384A2.945,2.945,0,0,1,23.913-5.67Zm6.5-.63A6.084,6.084,0,0,0,36.567.108a5.827,5.827,0,0,0,5.8-3.78H40.887A4.4,4.4,0,0,1,36.567-.99c-2.754,0-4.86-2.034-4.86-5.31,0-3.294,2.106-5.328,4.86-5.328a4.378,4.378,0,0,1,4.32,2.718h1.476a5.81,5.81,0,0,0-5.8-3.816A6.1,6.1,0,0,0,30.411-6.3Z" transform="translate(1146 4480)"/>
  </g>
</svg>
