<svg id="Layer_1" data-name="Layer 1" xmlns="http://www.w3.org/2000/svg" viewBox="0 0 152.63 103.29"><defs><style>.cls-1{fill:#c22126;stroke:#fff;}</style></defs><g id="Group_4" data-name="Group 4"><path id="Path_20" data-name="Path 20" class="cls-1" d="M152.09,43.09a39.72,39.72,0,0,0-1.28-8.61,4.86,4.86,0,0,0-5.14-3.84c-5.82-.1-11.64-.4-17.46-.46-9.84-.1-19.68-.28-29.51,0-1,0-1.3-.28-1.24-1.28.3-5.48-.07-11-.08-16.44A45.43,45.43,0,0,0,97,5.56c-.41-2.6-1.07-3.38-3.61-4A56.07,56.07,0,0,0,82.47,0C70-.59,57.43-.48,44.91-.51h-8.4Q21.71-.51,6.9.2A4.13,4.13,0,0,0,3,2.45a16.69,16.69,0,0,0-1.6,5.06A119.28,119.28,0,0,0,.26,20.72C.09,31,0,41.29,0,51.57a7.58,7.58,0,0,0,4.5,7.18A16.26,16.26,0,0,0,11,60.34c4.2.26,8.4,0,12.6.08.47,0,1.14-.26,1.36.2s-.36.85-.6,1.26C19.86,69.27,15,76.36,10.18,83.53c-.59.89-.9,1.8-.12,2.7s1.72.55,2.65.06A271.36,271.36,0,0,0,44.12,66.61a30.69,30.69,0,0,1,13.19-5.74,70.55,70.55,0,0,1,10.87-.6c.94,0,1.24.34,1.26,1.24a41.74,41.74,0,0,0,.49,6.32c.66,3.79,1.08,7.64,3.16,11a4.43,4.43,0,0,0,3.62,2.38c1.28.09,2.57.08,3.85.07,5.79,0,11.58-.07,17.37-.08a28.61,28.61,0,0,1,17.38,5.64c5,3.68,10.32,7,15.69,10.19,3.45,2.05,7,4,10.52,5.83.88.47,1.74.65,2.47-.19a1.9,1.9,0,0,0,0-2.51c-.1-.16-.21-.31-.32-.47-3.91-5.75-7.95-11.41-11.57-17.35-.15-.25-.49-.5-.35-.79s.61-.19.92-.19c2.12,0,4.23,0,6.35,0a27,27,0,0,0,8.3-.93c3.55-1.13,5.38-3.54,5.33-7.25C152.52,63.19,152.85,53.13,152.09,43.09Zm-57.3-8.71c-.2,4.42-.66,8.82-1.08,13.22a27.24,27.24,0,0,1-2.39,7.77,2.58,2.58,0,0,1-2.45,1.57c-4.73,0-9.46,0-14.18,0C74,56.91,74,56.5,74,56c-.26-2.65-.1-5.29-.17-8.56.19-3.27.42-7.15.62-11,0-1,.58-1.38,1.48-1.5A179.11,179.11,0,0,1,94,33.46C94.69,33.45,94.83,33.69,94.79,34.38Zm-25.32,2.4c-.39,6.23-.53,12.46-.32,18.7,0,1.1-.21,1.43-1.34,1.42A53.28,53.28,0,0,0,53.4,58.18,32.66,32.66,0,0,0,44,62.63L18.47,79.1c-.52.33-1,.83-1.83.68L22,72.13a68,68,0,0,0,6.72-11.68c1.26-2.86.64-3.75-2.5-3.77-4.54,0-9.07.37-13.61,0a49.71,49.71,0,0,1-6-.72,3.77,3.77,0,0,1-3.21-3.84q.12-11.85.33-23.7c.07-4.57.23-9.14.33-13.72.08-3.46,1-6.78,1.66-10.15.17-.89.94-1,1.7-1L27,3.13c12.29-.3,24.58-.47,36.88-.42a210.46,210.46,0,0,1,27,1.82c2,.26,2.34.6,2.47,2.64.44,6.87.83,13.73.65,20.62,0,.19,0,.38,0,.57-.08,1.84-.08,1.83-1.88,1.88-6,.16-12,.12-17.85,1.3C70.39,32.3,69.71,32.92,69.47,36.78Zm76.79,40.4c-5.15.93-10.33.6-15.5.52a12.42,12.42,0,0,0-1.93,0c-1.5.21-2,1.06-1.51,2.5A31.67,31.67,0,0,0,130.19,86c1.8,3,3.85,5.88,5.92,8.72.29.4.54.82.8,1.23.19.12.44.39.34.48-.26.24-.41-.08-.58-.25-3.23-1.8-6.31-3.85-9.45-5.81-3.79-2.36-7.62-4.65-11.29-7.19a31.3,31.3,0,0,0-18-5.36c-6.28-.07-12.56.09-18.84.15-2.51,0-2.85-.31-3.85-2.63-1.46-3.38-1.58-7-1.92-10.53-.11-1.13-.14-2.27-.28-3.39-.1-.86.18-1.12,1-1.11,4.5,0,9,0,13.5.06a5.72,5.72,0,0,0,5.6-3.4c1.83-3.38,2.35-7.06,3-10.73a86.9,86.9,0,0,0,1-11.73c0-.9.35-1.2,1.28-1.2q20.88,0,41.75.67c1.85,0,3.71.07,5.56.08.9,0,1.26.4,1.51,1.3C149,41.11,148.7,47,148.86,52.83c.18,7,.22,13.91.3,20.87,0,2.15-.77,3.09-2.91,3.48Z"/><path id="Path_21" data-name="Path 21" class="cls-1" d="M135.67,95.38l-.26.25C135.67,95.73,135.73,95.61,135.67,95.38Z"/><path id="Path_22" data-name="Path 22" class="cls-1" d="M62.29,26.78a4.66,4.66,0,0,0-4.72,4.61c0,.08,0,.17,0,.26a4.61,4.61,0,0,0,4.52,4.66,5.41,5.41,0,0,0,5.26-5C67.4,28.87,65,26.76,62.29,26.78Zm.1,5.56a.77.77,0,0,1-.89-.63.76.76,0,0,1,0-.15,1,1,0,0,1,1-.92c.44.11,1.07.16,1,.76s-.65.84-1.15.94Z"/><path id="Path_23" data-name="Path 23" class="cls-1" d="M34.62,26.78a4.82,4.82,0,0,0-4.79,4.85,4.73,4.73,0,0,0,4.79,4.68h0a5.26,5.26,0,0,0,5-5.08,4.71,4.71,0,0,0-5-4.45Zm0,5.87c-.45.12-.77-.48-.82-.88-.08-.62.4-1,.95-1.05s.74.24.91.66a1.77,1.77,0,0,1-1,1.27Z"/><path id="Path_24" data-name="Path 24" class="cls-1" d="M48.54,26.78a4.92,4.92,0,0,0-4.89,4.9,4.85,4.85,0,0,0,4.64,4.62,5.22,5.22,0,0,0,5.16-5A4.74,4.74,0,0,0,48.54,26.78Zm0,5.6c-.45-.23-1-.41-.91-.9a1,1,0,0,1,1-.86c.47.05,1.2.24,1.17.65,0,.59-.76.83-1.26,1.11Z"/><path id="Path_25" data-name="Path 25" class="cls-1" d="M116.48,39c-4.27-1.08-8.24-.42-11.53,2.8-.52.51-1,1-1.55,1.57A5.14,5.14,0,0,0,102,47.63a3.89,3.89,0,0,0,2.24,3.28,1.29,1.29,0,0,0,1.58-.26c.47-.5.28-1-.1-1.42-1-1.06-.61-2.16,0-3.16,2-3.15,4.92-4.48,8.5-4.69,1.43-.05,2.72.17,3.58,1.45a6.1,6.1,0,0,1-1,8c-1.42,1.29-2.92,2.49-4.39,3.72a12.57,12.57,0,0,0-3.24,3.79,4.89,4.89,0,0,0,.87,6c.87.9,1.91,1.14,2.61.55,1-.8.43-1.58-.07-2.37-.89-1.41-.84-2,.15-3.32a16.12,16.12,0,0,1,4.11-3.79c3.25-2.2,5.42-5,5.18-9.22C121.85,42.55,120,39.87,116.48,39Z"/><path id="Path_26" data-name="Path 26" class="cls-1" d="M112.35,66.69a3.52,3.52,0,0,0-3.44,3.16,2.68,2.68,0,0,0,2.85,2.42,3.32,3.32,0,0,0,3.33-3.07,2.58,2.58,0,0,0-2.63-2.51Z"/></g></svg>