<svg xmlns="http://www.w3.org/2000/svg" width="60.904" height="88.974" viewBox="0 0 60.904 88.974">
  <g id="Group_185" data-name="Group 185" transform="translate(2066.765 -3221.958)">
    <path id="Path_1042" data-name="Path 1042" d="M-2012.582,3341.408c3.343-.22,2.473-9.885,4.34-13.853,1.827-4.156-2.993-6.53-1.582-8.039,2.6-1.671,4.87,6.112,3.8,8.073-1.7,4.718-1.252,10.67-4.564,14.58-.639.8-3.147,1.423-3.24,2.542-1.544,14.3-10.37,28.775-26.723,24.478-11.729-2.353-16.041-14.634-16.758-16.55l-.5-1.906-2.287-8.054c-4.119-1.876-4.237-10.79-6.15-14.815-.893-1.839-.064-8.742,2.49-7.966a1.043,1.043,0,0,1,.394,1.5c-.9,1.893-1.514,3.9-.784,5.988,1.345,4.181,2.26,8.5,3.807,12.614l.316-.1a162.943,162.943,0,0,1-1.409-23.951c.761-1.516,2.363-.33,2.081,1.032.478,16.618.5,48.987,22.193,51.159,22.393.807,23.239-28.624,23.331-44.9.34-2.357-.986-5.316.4-7.337.848-.464,1.52.581,1.518,1.344C-2011.406,3325.148-2012.333,3333.569-2012.582,3341.408Z" transform="translate(-0.108 -59.025)" fill="#505050"/>
    <path id="Path_1043" data-name="Path 1043" d="M-2024.245,3329.074a12.16,12.16,0,0,1,5.892,1.436c2.918,1.609,4.077,4.122,3.191,7.6-.562,2.206-1.448,4.331-2.221,6.48a8.836,8.836,0,0,0-.789,4.089c.207,1.729,1.02,2.421,2.714,2.107,1.226-.228,2.413-.7,3.643-.863a6.992,6.992,0,0,1,2.491.259.937.937,0,0,1,.647,1.315c-.216.593-.7.719-1.336.683a12.9,12.9,0,0,0-2.583.116c-.96.14-1.891.489-2.852.619-3.407.461-4.651-1.884-4.885-4.245a10.338,10.338,0,0,1,.833-4.55c.812-2.264,1.708-4.512,2.309-6.834.653-2.52-.364-4.128-2.759-5.155a12.209,12.209,0,0,0-8.509-.2c-.732.213-1.454.46-2.178.7a1.075,1.075,0,0,1-1.505-.625c-.282-.719.118-1.183.765-1.42A20.849,20.849,0,0,1-2024.245,3329.074Z" transform="translate(-21.849 -67.778)" fill="#505050"/>
    <path id="Path_1044" data-name="Path 1044" d="M-2006.358,3418.027c-.987-.175-1.337-.712-1.162-1.419s.742-.94,1.7-.7a28.313,28.313,0,0,0,14.721.04,1.038,1.038,0,0,1,1.439.725c.221.736-.211,1.153-.887,1.332a27.9,27.9,0,0,1-7.952,1.027S-2003.757,3418.489-2006.358,3418.027Z" transform="translate(-37.46 -122.663)" fill="#505050"/>
    <path id="Path_1045" data-name="Path 1045" d="M-1960.823,3333.192c.012,1.02-.693,1.5-1.44,1.207a1.734,1.734,0,0,1-.4-.215c-3.307-2.477-6.832-2.144-10.436-.819-.114.042-.226.092-.339.138-.658.27-1.268.3-1.642-.437-.316-.621-.036-1.264.813-1.554a26.891,26.891,0,0,1,3.947-1.113,10.746,10.746,0,0,1,8.825,2A4.2,4.2,0,0,1-1960.823,3333.192Z" transform="translate(-57.933 -68.481)" fill="#505050"/>
    <path id="Path_1046" data-name="Path 1046" d="M-1956.739,3346.523a1.619,1.619,0,0,1,1.6,1.65,1.645,1.645,0,0,1-1.591,1.577,1.626,1.626,0,0,1-1.64-1.613A1.6,1.6,0,0,1-1956.739,3346.523Z" transform="translate(-68.588 -78.818)" fill="#505050"/>
    <path id="Path_1047" data-name="Path 1047" d="M-2014.631,3348.146a1.648,1.648,0,0,1-1.652,1.61,1.613,1.613,0,0,1-1.565-1.59,1.585,1.585,0,0,1,1.59-1.641A1.616,1.616,0,0,1-2014.631,3348.146Z" transform="translate(-30.952 -78.82)" fill="#505050"/>
    <path id="Path_1048" data-name="Path 1048" d="M-2033.839,3254.713c.269-.3.5-.769.811-.833a1.323,1.323,0,0,1,1.161.362,8.152,8.152,0,0,1,.747,2.413,1.158,1.158,0,0,1-.7.9,1.3,1.3,0,0,1-1.15-.4A15.85,15.85,0,0,1-2033.839,3254.713Z" transform="translate(-20.834 -20.188)" fill="#505050"/>
    <path id="Path_1049" data-name="Path 1049" d="M-2066.765,3292.184c.346-.364.6-.855.9-.889a1.584,1.584,0,0,1,1.237.448,4.161,4.161,0,0,1,.794,1.725,1.332,1.332,0,0,1-.393,1.146,1.246,1.246,0,0,1-1.2-.049A17.869,17.869,0,0,1-2066.765,3292.184Z" transform="translate(0 -43.868)" fill="#505050"/>
    <path id="Path_1050" data-name="Path 1050" d="M-2006.671,3257.776c-.256.257-.526.743-.9.837a1.261,1.261,0,0,1-1.12-.448,4.736,4.736,0,0,1-.52-1.988,1.218,1.218,0,0,1,.739-.939,1.4,1.4,0,0,1,1.175.518A8.7,8.7,0,0,1-2006.671,3257.776Z" transform="translate(-36.419 -21.052)" fill="#505050"/>
    <path id="Path_1051" data-name="Path 1051" d="M-1933.866,3267.783a3.132,3.132,0,0,1-2.1,2.035.989.989,0,0,1-.9-1.469,5.713,5.713,0,0,1,1.517-1.521A.987.987,0,0,1-1933.866,3267.783Z" transform="translate(-82.102 -28.292)" fill="#505050"/>
    <path id="Path_1052" data-name="Path 1052" d="M-1997.7,3244.437a8.432,8.432,0,0,1-.705,1.965,1.41,1.41,0,0,1-1.206.459,1.227,1.227,0,0,1-.668-.991,4.288,4.288,0,0,1,.577-1.884,1.3,1.3,0,0,1,1.15-.379C-1998.207,3243.693-1997.957,3244.17-1997.7,3244.437Z" transform="translate(-42.067 -13.685)" fill="#505050"/>
    <path id="Path_1053" data-name="Path 1053" d="M-2020.851,3264.92a3.038,3.038,0,0,1-.766-.442c-.61-.652.065-2.818.939-3.047.7-.183,1.285.2,1.26.806a7.439,7.439,0,0,1-.679,2.306C-2020.168,3264.725-2020.554,3264.781-2020.851,3264.92Z" transform="translate(-28.419 -24.947)" fill="#505050"/>
    <path id="Path_1054" data-name="Path 1054" d="M-2056.852,3259.227a.981.981,0,0,1-1.441.937,5.123,5.123,0,0,1-1.469-1.566c-.378-.634.293-1.464,1.029-1.408A3.075,3.075,0,0,1-2056.852,3259.227Z" transform="translate(-4.362 -22.291)" fill="#505050"/>
    <path id="Path_1055" data-name="Path 1055" d="M-2050.77,3303.935a2.925,2.925,0,0,1-1.826,2.074,1.1,1.1,0,0,1-1.123-1.086c.019-.673,1.273-2.01,1.892-2A.98.98,0,0,1-2050.77,3303.935Z" transform="translate(-8.254 -51.228)" fill="#505050"/>
    <path id="Path_1056" data-name="Path 1056" d="M-1923.393,3300.38a12.424,12.424,0,0,1-.3,1.337,1,1,0,0,1-1.266.759,1.006,1.006,0,0,1-.795-1.249,11.463,11.463,0,0,1,.276-1.25c.176-.6.625-1.019,1.22-.8.414.153.7.661,1.037,1.01Z" transform="translate(-89.209 -48.823)" fill="#505050"/>
    <path id="Path_1057" data-name="Path 1057" d="M-1937.531,3257.552a7.724,7.724,0,0,1,1.412-1.22,6.088,6.088,0,0,1,1.594-.311.091.091,0,0,1,.072.051c.118.43.448,1.138.31,1.246a7.976,7.976,0,0,1-2.212,1.232C-1936.556,3258.622-1936.995,3258.024-1937.531,3257.552Z" transform="translate(-81.773 -21.553)" fill="#505050"/>
    <path id="Path_1058" data-name="Path 1058" d="M-1962.36,3256.772c-.043-1.356.693-2.554,1.391-2.544a1.021,1.021,0,0,1,1.094,1.094c.025,1.054-.766,2.265-1.445,2.129A2.986,2.986,0,0,1-1962.36,3256.772Z" transform="translate(-66.061 -20.419)" fill="#505050"/>
    <path id="Path_1059" data-name="Path 1059" d="M-2010.995,3241.031a3.2,3.2,0,0,1,.279-1.219,1.411,1.411,0,0,1,1.071-.573c.333.048.714.5.865.856a2.42,2.42,0,0,1-.036,1.165c-.126.887-.6,1.364-1.257,1.231C-2010.862,3242.332-2011.041,3241.756-2010.995,3241.031Z" transform="translate(-35.284 -10.931)" fill="#505050"/>
    <path id="Path_1060" data-name="Path 1060" d="M-2043.979,3285.693c-.213.24-.506.8-.73.778a7.851,7.851,0,0,1-2.354-.653c-.181-.083-.118-.8-.075-1.209.015-.148.281-.311.465-.4a2.943,2.943,0,0,1,2.469.8A4.532,4.532,0,0,1-2043.979,3285.693Z" transform="translate(-12.389 -39.351)" fill="#505050"/>
    <path id="Path_1061" data-name="Path 1061" d="M-1909.72,3286.273c-.312-.344-.768-.639-.9-1.042a.931.931,0,0,1,.787-1.223,2.772,2.772,0,0,1,1.339-.178c.421.129.983.541,1.04.9.054.344-.383.893-.748,1.137a3.551,3.551,0,0,1-1.329.26Z" transform="translate(-98.763 -39.124)" fill="#505050"/>
    <path id="Path_1062" data-name="Path 1062" d="M-1913.318,3310.35c-.331-.361-.882-.7-.927-1.092-.04-.353.411-.861.772-1.128a1.669,1.669,0,0,1,1.215-.291,1.84,1.84,0,0,1,1.164.771c.274.557-.087,1.07-.691,1.275a13.2,13.2,0,0,1-1.333.313Z" transform="translate(-96.506 -54.325)" fill="#505050"/>
    <path id="Path_1063" data-name="Path 1063" d="M-2017.357,3228.471a4.779,4.779,0,0,1-.939,1.382c-.232.161-.885-.026-1.176-.266a2.284,2.284,0,0,1,.022-2.477c.307-.235,1.015-.416,1.2-.247A5.923,5.923,0,0,1-2017.357,3228.471Z" transform="translate(-29.701 -3.063)" fill="#505050"/>
    <path id="Path_1064" data-name="Path 1064" d="M-1912.593,3274.3c-.722.05-1.232-.235-1.313-.964-.077-.691.379-1.056,1.021-1.171a2.721,2.721,0,0,1,1.252-.11c.386.135.892.536.935.873a1.533,1.533,0,0,1-.666,1.1A3.209,3.209,0,0,1-1912.593,3274.3Z" transform="translate(-96.716 -31.669)" fill="#505050"/>
    <path id="Path_1065" data-name="Path 1065" d="M-1922.442,3270.393c-.035,1.066-1.456,2.229-2.173,1.955a1.466,1.466,0,0,1-.8-.938c-.151-.826,1.445-2.07,2.231-1.749C-1922.828,3269.805-1922.592,3270.237-1922.442,3270.393Z" transform="translate(-89.435 -30.151)" fill="#505050"/>
    <path id="Path_1066" data-name="Path 1066" d="M-1909.056,3297.464c.03,1.231-1.668,2.388-2.406,1.889-.312-.211-.624-1.047-.506-1.164a6.771,6.771,0,0,1,1.977-1.391C-1909.782,3296.706-1909.271,3297.3-1909.056,3297.464Z" transform="translate(-97.932 -47.349)" fill="#505050"/>
    <path id="Path_1067" data-name="Path 1067" d="M-2046.868,3259.675c1.14-.01,2.323.914,2.328,1.57a1,1,0,0,1-1,1.082c-.769.077-2.186-1.014-2.035-1.615A3.2,3.2,0,0,1-2046.868,3259.675Z" transform="translate(-12.133 -23.865)" fill="#505050"/>
    <path id="Path_1068" data-name="Path 1068" d="M-2022.009,3246.615c.955.032,2.1.949,2.052,1.6a.983.983,0,0,1-1.138,1.018c-.875-.042-1.955-.983-1.9-1.645A.95.95,0,0,1-2022.009,3246.615Z" transform="translate(-27.696 -15.601)" fill="#505050"/>
    <path id="Path_1069" data-name="Path 1069" d="M-2035.06,3273.251a.95.95,0,0,1-1.031.915c-.813.021-2.045-.891-2.027-1.535a1,1,0,0,1,1.092-1.081C-2036.224,3271.545-2035.056,3272.5-2035.06,3273.251Z" transform="translate(-18.127 -31.379)" fill="#505050"/>
    <path id="Path_1070" data-name="Path 1070" d="M-1983.832,3253c-.348.313-.647.767-1.054.9-.6.2-1.058-.173-1.212-.794a5.644,5.644,0,0,1-.157-1.175c-.021-.649.366-1.141.958-1.091a1.877,1.877,0,0,1,1.119.831c.2.288.132.764.183,1.156Z" transform="translate(-50.942 -18.277)" fill="#505050"/>
    <path id="Path_1071" data-name="Path 1071" d="M-1958.233,3243.093c.019,1.328-.733,2.365-1.464,2.345a1,1,0,0,1-1.043-1.041c-.056-.884.857-2.138,1.489-1.994A3,3,0,0,1-1958.233,3243.093Z" transform="translate(-67.086 -12.929)" fill="#505050"/>
    <path id="Path_1072" data-name="Path 1072" d="M-1973.582,3253.622c-.043,1.037-.434,1.607-1.2,1.533-.812-.079-1.114-.781-.9-2.036.117-.7.452-1.147,1.207-1.054S-1973.515,3252.7-1973.582,3253.622Z" transform="translate(-57.59 -19.042)" fill="#505050"/>
    <path id="Path_1073" data-name="Path 1073" d="M-1917.857,3288.562c-.385.3-.732.755-1.164.862a2.159,2.159,0,0,1-1.992-1.529.994.994,0,0,1,.979-1.1A2.708,2.708,0,0,1-1917.857,3288.562Z" transform="translate(-92.224 -41.022)" fill="#505050"/>
    <path id="Path_1074" data-name="Path 1074" d="M-2030.282,3236.787c-.27.274-.525.743-.871.824a1.288,1.288,0,0,1-1.137-.387,3.352,3.352,0,0,1-.428-1.713,1.172,1.172,0,0,1,.762-.82,1.259,1.259,0,0,1,1.069.41A6.9,6.9,0,0,1-2030.282,3236.787Z" transform="translate(-21.543 -8.047)" fill="#505050"/>
    <path id="Path_1075" data-name="Path 1075" d="M-2053.373,3291.827a3.32,3.32,0,0,1-1.021.758c-.583.176-1.744-1.035-1.739-1.724a1.02,1.02,0,0,1,1-1.1C-2054.5,3289.7-2053.407,3290.811-2053.373,3291.827Z" transform="translate(-6.727 -42.902)" fill="#505050"/>
    <path id="Path_1076" data-name="Path 1076" d="M-1996.876,3231.334c0,.471-.368.865-1.035.91-.71.047-1.267-.768-1.306-1.886a1.006,1.006,0,0,1,.988-1.17C-1997.445,3229.125-1996.906,3229.913-1996.876,3231.334Z" transform="translate(-42.74 -4.573)" fill="#505050"/>
    <path id="Path_1077" data-name="Path 1077" d="M-1971.226,3237.982c-.032,1.061-1.006,2.2-1.616,2.166a.987.987,0,0,1-1.038-1.116c.026-.794,1.023-1.933,1.634-1.767A3.229,3.229,0,0,1-1971.226,3237.982Z" transform="translate(-58.772 -9.675)" fill="#505050"/>
    <path id="Path_1078" data-name="Path 1078" d="M-1929.984,3280.958a2.235,2.235,0,0,1-1.926,1.628,1,1,0,0,1-1-1.087c0-.651,1.166-1.586,1.918-1.54A.972.972,0,0,1-1929.984,3280.958Z" transform="translate(-84.697 -36.699)" fill="#505050"/>
    <path id="Path_1079" data-name="Path 1079" d="M-2044.165,3247.559c-.394.276-.757.712-1.188.794a1.941,1.941,0,0,1-1.893-1.473,1.016,1.016,0,0,1,1.031-1.052A2.394,2.394,0,0,1-2044.165,3247.559Z" transform="translate(-12.35 -15.102)" fill="#505050"/>
    <path id="Path_1080" data-name="Path 1080" d="M-1921.679,3249.194a3.2,3.2,0,0,1,.7,1.041c.144.6-1.007,1.594-1.726,1.587a1.007,1.007,0,0,1-1.1-1.076C-1923.823,3250.125-1922.692,3249.182-1921.679,3249.194Z" transform="translate(-90.457 -17.233)" fill="#505050"/>
    <path id="Path_1081" data-name="Path 1081" d="M-1990.739,3224.036c.38-.545.6-1.1,1.009-1.356.236-.148,1.092.132,1.121.31a6.439,6.439,0,0,1-.032,2.256c-.034.173-.928.423-1.154.26A5.071,5.071,0,0,1-1990.739,3224.036Z" transform="translate(-48.105 -0.43)" fill="#505050"/>
    <path id="Path_1082" data-name="Path 1082" d="M-1946.426,3260.8a3.958,3.958,0,0,1,.69,1.273c.076.651-1.142,1.678-1.754,1.588a1,1,0,0,1-.939-1.139A2.492,2.492,0,0,1-1946.426,3260.8Z" transform="translate(-74.875 -24.575)" fill="#505050"/>
    <path id="Path_1083" data-name="Path 1083" d="M-2050.048,3274.639c-.972-.021-2.026-1.091-1.98-1.728a1.011,1.011,0,0,1,1.068-1.02c.647-.021,1.785,1.1,1.63,1.7A3.3,3.3,0,0,1-2050.048,3274.639Z" transform="translate(-9.324 -31.595)" fill="#505050"/>
    <path id="Path_1084" data-name="Path 1084" d="M-1914.583,3258.155c-.227.85-1.387,1.816-2.022,1.7a1.011,1.011,0,0,1-.942-1.14c.041-.639,1.219-1.662,1.84-1.463C-1915.279,3257.387-1914.953,3257.842-1914.583,3258.155Z" transform="translate(-94.416 -22.315)" fill="#505050"/>
    <path id="Path_1085" data-name="Path 1085" d="M-2005.238,3222.7c-.023,1.246-.761,2.193-1.453,2.147a.988.988,0,0,1-1.016-1.062c-.012-.908.785-1.966,1.437-1.807A3.113,3.113,0,0,1-2005.238,3222.7Z" transform="translate(-37.369)" fill="#505050"/>
    <path id="Path_1086" data-name="Path 1086" d="M-2064.172,3277a4.222,4.222,0,0,1,1.252-.745c.586-.109,1.614,1.061,1.555,1.681a1.008,1.008,0,0,1-1.154,1.025C-2063.151,3278.925-2064.068,3277.857-2064.172,3277Z" transform="translate(-1.641 -34.351)" fill="#505050"/>
    <path id="Path_1087" data-name="Path 1087" d="M-1946.953,3230.89c-.009.981-.552,1.756-1.251,1.716a1.029,1.029,0,0,1-1.054-1.126c0-.971.588-1.727,1.269-1.727A1.06,1.06,0,0,1-1946.953,3230.89Z" transform="translate(-74.352 -4.933)" fill="#505050"/>
    <path id="Path_1088" data-name="Path 1088" d="M-1929.951,3243.667c0-1.056.885-2.044,1.53-2a1,1,0,0,1,1.03,1.052c.021.719-.924,1.812-1.518,1.656A3.339,3.339,0,0,1-1929.951,3243.667Z" transform="translate(-86.569 -12.468)" fill="#505050"/>
    <path id="Path_1089" data-name="Path 1089" d="M-1976.29,3224.107c0,1.077-.838,2.011-1.522,1.991a.983.983,0,0,1-1.023-1.044c-.035-.7.939-1.816,1.516-1.659A3.318,3.318,0,0,1-1976.29,3224.107Z" transform="translate(-55.637 -0.901)" fill="#505050"/>
    <path id="Path_1090" data-name="Path 1090" d="M-1937.027,3235.582c-.131.806-1.083,1.836-1.694,1.837a1.046,1.046,0,0,1-1.118-.992c-.083-.632.946-1.76,1.573-1.627A4.235,4.235,0,0,1-1937.027,3235.582Z" transform="translate(-80.309 -8.119)" fill="#505050"/>
    <path id="Path_1091" data-name="Path 1091" d="M-1985.151,3239.7c0,.879-.426,1.417-1.12,1.361-.816-.066-1.037-.634-1.044-1.349-.008-.872.412-1.429,1.08-1.433S-1985.148,3238.825-1985.151,3239.7Z" transform="translate(-50.272 -10.33)" fill="#505050"/>
    <path id="Path_1092" data-name="Path 1092" d="M-1993.711,3255.56c-.006,1.015-.6,1.826-1.286,1.8a.988.988,0,0,1-1.038-1.124,1.517,1.517,0,0,1,1.335-1.663A.931.931,0,0,1-1993.711,3255.56Z" transform="translate(-44.755 -20.637)" fill="#505050"/>
    <path id="Path_1093" data-name="Path 1093" d="M-1946.057,3247.163c.293.383.728.727.844,1.158.167.618-.82,1.6-1.473,1.554a1.045,1.045,0,0,1-1.048-1.046C-1947.78,3248.225-1946.886,3247.341-1946.057,3247.163Z" transform="translate(-75.316 -15.948)" fill="#505050"/>
    <path id="Path_1094" data-name="Path 1094" d="M-2063.169,3315.332a2.091,2.091,0,0,1-1.588-1.757.977.977,0,0,1,1.043-1.031c.63-.016,1.581.98,1.41,1.618C-2062.421,3314.6-2062.869,3314.945-2063.169,3315.332Z" transform="translate(-1.27 -57.318)" fill="#505050"/>
    <path id="Path_1095" data-name="Path 1095" d="M-1961.823,3226.374c.02,1.15-.606,1.992-1.255,1.978a1.012,1.012,0,0,1-1.078-1.1c-.019-.846.648-1.692,1.3-1.551A3.061,3.061,0,0,1-1961.823,3226.374Z" transform="translate(-64.926 -2.36)" fill="#505050"/>
    <path id="Path_1096" data-name="Path 1096" d="M-1911.991,3319.184a1,1,0,0,1-.936-1.09c-.015-.644.668-1.147,1.521-1.144a1.038,1.038,0,0,1,1.147,1.046C-1910.214,3318.666-1910.955,3319.2-1911.991,3319.184Z" transform="translate(-97.341 -60.106)" fill="#505050"/>
  </g>
</svg>
