<svg xmlns="http://www.w3.org/2000/svg" width="160.999" height="160.997" viewBox="0 0 160.999 160.997">
  <g id="Group_282" data-name="Group 282" transform="translate(-149.128 -388.4)">
    <g id="Group_283" data-name="Group 283" transform="translate(149.628 388.901)">
      <path id="Path_1149" data-name="Path 1149" d="M229.174,548.872c-2.49,0-4.982.076-7.468-.018-4-.151-6.488-2.423-6.67-6.455a45.824,45.824,0,0,1,.568-7.963c.266-2.021-.364-3.1-2.308-3.84-4.531-1.73-9.023-3.581-13.442-5.581-2.128-.962-3.8-.669-5.256.983-6.824,7.743-11.9,7.109-18.621,1.089a107.765,107.765,0,0,1-9.427-9.687c-2.091-2.409-1.926-5.109.073-7.512,1.525-1.833,3.316-3.442,4.907-5.225,3.148-3.528,3.109-4.49,1.045-8.719a58.766,58.766,0,0,1-3.2-8.415c-.862-2.786-1.685-3.485-4.588-3.067-3.544.51-7.18,1.08-10.374-.968-1.346-.865-2.876-2.464-3.081-3.908a176.865,176.865,0,0,1-1.7-18.013c-.183-4.675,2.227-7.267,6.878-7.96a20.541,20.541,0,0,1,6.88-.006c2.967.586,4.258-.825,5.315-3.139q2.913-6.374,5.937-12.7c.8-1.675.915-3.087-.543-4.591a69.1,69.1,0,0,1-5.692-6.655,5.577,5.577,0,0,1,.094-7.365A97.146,97.146,0,0,1,178.8,408.474c4.39-3.694,9.322-2.99,13.285,1.124,4.983,5.174,4.945,5.1,11.4,1.682a39.474,39.474,0,0,1,6.917-2.716c3.283-1.008,4.452-2.3,4.45-5.667,0-2.4-.172-4.806-.106-7.2.076-2.751,1.566-4.688,4.225-5.016,5.992-.738,12-1.453,18.029-1.761,5.008-.257,7.879,2.793,8.055,7.852.052,1.51-.036,3.024-.025,4.536.031,3.752,1.907,6.037,5.418,7.325a65.067,65.067,0,0,1,10.47,4.525c2.482,1.451,3.694.382,5.211-1.131,1.938-1.934,3.883-3.868,5.943-5.666,2.709-2.365,5.576-2.224,8.146.167,4.475,4.16,9.043,8.256,13.151,12.764,3.175,3.485,2.31,6.94-1.779,9.933-1.215.889-2.491,1.7-3.736,2.547-2.991,2.042-3.35,4.092-1.862,7.323a69.273,69.273,0,0,1,3.618,9.638c1.036,3.581,2.2,4.656,5.926,4.771,2.927.09,5.864.266,8.77.623a5.273,5.273,0,0,1,5.014,5.3c.219,6.041.365,12.092.286,18.137-.051,3.947-1.829,5.574-5.839,5.776-2.659.134-5.331.081-7.994.013-3.895-.1-4.733.531-5.955,4.218-1.2,3.607-2.515,7.175-3.853,10.731-1.346,3.577-.9,5.745,1.873,8.324,1.3,1.211,2.636,2.39,3.885,3.654,2.732,2.764,2.866,6.076.624,9.367a41.188,41.188,0,0,1-11.72,11.838c-3.436,2.2-5.565,1.9-8.354-1.192-1.837-2.035-3.674-4.086-5.668-5.962-1.951-1.836-4.193-1.451-6.441-.406-3.921,1.823-7.817,3.72-11.822,5.338-3.8,1.537-4.822,2.922-4.378,7.1.16,1.5.465,2.991.631,4.493.469,4.233-2.123,7.6-6.359,7.915-3,.224-6.039.043-9.06.043Zm66.51-68.851c1.6,0,3.205.086,4.8-.017,3.829-.246,5.63-2.154,5.648-5.947.016-3.292-.015-6.585-.074-9.877-.073-3.988-2.13-6.353-6.06-6.751-2.649-.269-5.324-.316-7.989-.38A4.052,4.052,0,0,1,287.8,454.1c-2.1-5.822-4.481-11.547-6.468-17.405a4.86,4.86,0,0,1,.874-4.034c1.494-1.694,3.544-2.9,5.368-4.3,3.2-2.459,3.724-5.775,1.036-8.715s-5.629-5.665-8.536-8.4a5.5,5.5,0,0,0-7.914-.208,45.518,45.518,0,0,0-4.977,5.166c-1.809,2.185-3.755,2.211-6.161,1.136-4.513-2.016-9.032-4.055-13.675-5.733-4.683-1.693-6.309-3.89-5.67-8.756.07-.53.148-1.058.188-1.59.5-6.562-2.191-9.284-8.77-8.692-3.448.309-6.882.785-10.311,1.269a5.125,5.125,0,0,0-4.76,5.443c-.031,2.134.039,4.269.085,6.4s-.635,3.788-2.769,4.68c-4.568,1.909-9.187,3.725-13.639,5.88-5.976,2.891-5.917,3.012-10.358-1.809-3.731-4.052-8.514-4.506-12.794-1.071a42.345,42.345,0,0,0-4.808,4.576c-2.915,3.212-2.818,7.036.19,10.232,1.584,1.682,3.254,3.285,4.931,4.875,1.5,1.423,1.552,2.775.256,4.421-4.071,5.173-6.491,11.2-8.289,17.428-.658,2.277-1.7,2.791-3.743,2.607-2.74-.248-5.491-.516-8.237-.525-2.488-.01-3.949,1.241-4.649,3.856a29.548,29.548,0,0,0,.1,15.282c.882,3.458,1.878,4.53,5.433,4.583a47.534,47.534,0,0,0,7.444-.426c2.629-.38,3.983.765,4.839,3.056,1.914,5.12,3.909,10.211,5.833,15.329.734,1.952.773,3.8-.984,5.36-1.858,1.648-3.709,3.315-5.428,5.1-2.353,2.448-2.653,5.5-.339,7.889a120.846,120.846,0,0,0,10.414,9.489c2.42,1.976,5.408,1.687,7.789-.368a48.035,48.035,0,0,0,4.912-4.852c1.8-2.075,3.512-1.919,5.562-.434a36.644,36.644,0,0,0,16.573,6.685c2.175.306,3.234,1.381,3.2,3.477-.044,2.486-.195,4.971-.374,7.452-.335,4.613,1.566,6.892,6.138,7.048a72.09,72.09,0,0,0,8.262-.1c4.693-.379,7.218-3.176,7.285-7.859.036-2.49-.226-5-.014-7.466a3.285,3.285,0,0,1,1.8-2.389,66.891,66.891,0,0,0,16.711-7.4c4.487-2.735,7.248-2.118,10.6,2.052,1.169,1.453,2.375,2.88,3.624,4.264,2.156,2.388,4.693,2.751,6.992.548a105.43,105.43,0,0,0,8.475-9.185c1.954-2.375,1.524-4.778-.834-6.795-1.683-1.44-3.556-2.665-5.2-4.145-2.906-2.615-3.17-4.547-1.665-8.057,1.709-3.989,3.175-8.083,4.9-12.066C289.747,478.873,286.962,480.02,295.684,480.021Z" transform="translate(-149.628 -388.901)" fill="#6a6a6a" stroke="#707070" stroke-linecap="round" stroke-linejoin="round" stroke-width="1"/>
      <path id="Path_1150" data-name="Path 1150" d="M232.478,500.786c-18.12.943-33.545-14.719-33.489-32.049.058-17.948,14.521-31.5,33.687-31.4,17.332.1,29.2,12.984,29.373,32.51C262.214,488.174,250.789,501.3,232.478,500.786Zm-.393-3.973c16.607.26,26.453-11.545,26.165-26.827-.32-16.946-10.122-28.1-26.195-28.5-16.534-.42-28.926,12.627-29.082,26.908C202.812,483.113,216.365,497.66,232.085,496.813Z" transform="translate(-150.518 -389.78)" fill="#6a6a6a" stroke="#707070" stroke-linecap="round" stroke-linejoin="round" stroke-width="1"/>
      <path id="Path_1151" data-name="Path 1151" d="M193.98,487.6c-1.537.276-2.668.853-3.457.545-1.744-.675-5.179-7.975-4.788-9.9a3.424,3.424,0,0,1,1.335-1.849c.247-.181,1.3.212,1.512.6C190.3,480.195,191.9,483.458,193.98,487.6Z" transform="translate(-147.408 -383.791)" fill="#6a6a6a" stroke="#707070" stroke-linecap="round" stroke-linejoin="round" stroke-width="1"/>
      <path id="Path_1152" data-name="Path 1152" d="M241.057,423.576c2.731,1.742,5.511,3.4,8.127,5.286a2.417,2.417,0,0,1,.249,2.377,2.5,2.5,0,0,1-2.357.54,74.331,74.331,0,0,1-7.848-4.208,2.527,2.527,0,0,1-.763-2.309C238.684,424.643,239.8,424.341,241.057,423.576Z" transform="translate(-144.433 -386.748)" fill="#6a6a6a" stroke="#707070" stroke-linecap="round" stroke-linejoin="round" stroke-width="1"/>
      <path id="Path_1153" data-name="Path 1153" d="M203.009,432.115a10.01,10.01,0,0,1-1.283,2.31c-2.195,1.994-4.421,3.958-6.749,5.792a6.559,6.559,0,0,1-2.434.638,7.784,7.784,0,0,1-.421-2.589c.4-2.145,6.148-7.122,8.33-7.195C201.227,431.045,202.023,431.69,203.009,432.115Z" transform="translate(-147.13 -386.346)" fill="#6a6a6a" stroke="#707070" stroke-linecap="round" stroke-linejoin="round" stroke-width="1"/>
      <path id="Path_1154" data-name="Path 1154" d="M228.29,506.223l-2.668-2.087c1.015-.753,1.927-1.848,3.065-2.187a28.7,28.7,0,0,1,6.621-1.135c.97-.052,1.99.807,2.988,1.252-.7.844-1.254,2.15-2.139,2.441A74.65,74.65,0,0,1,228.29,506.223Z" transform="translate(-145.296 -381.634)" fill="#6a6a6a" stroke="#707070" stroke-linecap="round" stroke-linejoin="round" stroke-width="1"/>
      <path id="Path_1155" data-name="Path 1155" d="M226.747,423.178c-1.088.823-1.81,1.805-2.664,1.938-3.136.487-6.312.746-9.482.955-.58.038-1.653-.494-1.7-.871-.09-.677.333-2.015.693-2.068,3.866-.576,7.759-.981,11.652-1.338C225.567,421.764,225.956,422.427,226.747,423.178Z" transform="translate(-146.102 -386.729)" fill="#6a6a6a" stroke="#707070" stroke-linecap="round" stroke-linejoin="round" stroke-width="1"/>
      <path id="Path_1156" data-name="Path 1156" d="M266.008,448.951c-.967,1.13-1.429,2.161-2.053,2.27a2.7,2.7,0,0,1-2.245-.993,73.849,73.849,0,0,1-4.133-7.514,2.7,2.7,0,0,1,.363-2.384,2.206,2.206,0,0,1,2.149,0C262.129,443.08,263.988,445.96,266.008,448.951Z" transform="translate(-143.027 -385.875)" fill="#6a6a6a" stroke="#707070" stroke-linecap="round" stroke-linejoin="round" stroke-width="1"/>
      <path id="Path_1157" data-name="Path 1157" d="M183.014,459.759a46.427,46.427,0,0,1,1.224-5.97c.279-.835,1.44-1.377,2.2-2.052.511.971,1.478,1.962,1.442,2.912a48.959,48.959,0,0,1-1.041,7.884c-.156.762-1.121,1.358-1.716,2.03-.643-.669-1.533-1.238-1.859-2.037a7.7,7.7,0,0,1-.071-2.727Z" transform="translate(-147.462 -385.291)" fill="#6a6a6a" stroke="#707070" stroke-linecap="round" stroke-linejoin="round" stroke-width="1"/>
      <path id="Path_1158" data-name="Path 1158" d="M211.063,503.8c-2.882-1.532-5.789-2.965-8.553-4.637-.545-.33-.538-1.575-.786-2.4.817-.239,1.792-.891,2.425-.649a73.856,73.856,0,0,1,8.331,3.746,2.989,2.989,0,0,1,1.076,2.481C213.507,502.827,212.187,503.182,211.063,503.8Z" transform="translate(-146.612 -382.187)" fill="#6a6a6a" stroke="#707070" stroke-linecap="round" stroke-linejoin="round" stroke-width="1"/>
      <path id="Path_1159" data-name="Path 1159" d="M251.3,497.789c-.618-.393-1.584-.688-1.649-1.12a3.489,3.489,0,0,1,.517-2.477,55.538,55.538,0,0,1,5.119-5.631c.682-.644,1.875-.747,2.834-1.1.159,1,.722,2.162.4,2.979A13.61,13.61,0,0,1,251.3,497.789Z" transform="translate(-143.55 -382.983)" fill="#6a6a6a" stroke="#707070" stroke-linecap="round" stroke-linejoin="round" stroke-width="1"/>
      <path id="Path_1160" data-name="Path 1160" d="M262.235,474.5a64.607,64.607,0,0,1,1.4-7.8c.261-.849,1.658-1.349,2.538-2.009.4.946,1.183,1.912,1.135,2.834a30.651,30.651,0,0,1-1.043,6.649c-.326,1.161-1.4,2.112-2.14,3.157Z" transform="translate(-142.345 -384.532)" fill="#6a6a6a" stroke="#707070" stroke-linecap="round" stroke-linejoin="round" stroke-width="1"/>
    </g>
  </g>
</svg>
