<svg xmlns="http://www.w3.org/2000/svg" width="274.389" height="274.241" viewBox="0 0 274.389 274.241">
  <g id="Group_282" data-name="Group 282" transform="translate(-149.127 -388.4)">
    <g id="Group_283" data-name="Group 283">
      <path id="Path_1149" data-name="Path 1149" d="M285.549,662.1c-4.254,0-8.512.13-12.761-.031-6.836-.258-11.087-4.137-11.4-11.025a78.219,78.219,0,0,1,.97-13.6c.455-3.452-.621-5.29-3.944-6.558-7.743-2.955-15.418-6.116-22.968-9.532-3.636-1.643-6.493-1.142-8.982,1.679-11.66,13.223-20.331,12.141-31.818,1.86a184.08,184.08,0,0,1-16.108-16.543c-3.573-4.113-3.291-8.726.124-12.828,2.606-3.13,5.667-5.879,8.384-8.923,5.38-6.025,5.312-7.668,1.785-14.89a100.328,100.328,0,0,1-5.46-14.37c-1.473-4.758-2.88-5.952-7.839-5.237-6.056.872-12.269,1.844-17.726-1.654-2.3-1.477-4.914-4.208-5.265-6.674a301.891,301.891,0,0,1-2.9-30.762c-.312-7.984,3.8-12.41,11.752-13.594a35.117,35.117,0,0,1,11.756-.011c5.069,1,7.275-1.409,9.082-5.362q4.978-10.885,10.144-21.682c1.361-2.86,1.564-5.272-.928-7.841a118.022,118.022,0,0,1-9.725-11.365c-3.026-4.038-3.138-8.8.161-12.578,5.557-6.363,11.151-12.841,17.585-18.252,7.5-6.308,15.929-5.106,22.7,1.919,8.514,8.835,8.45,8.715,19.482,2.873a67.473,67.473,0,0,1,11.819-4.638c5.61-1.721,7.607-3.932,7.6-9.678,0-4.1-.294-8.207-.181-12.3.13-4.7,2.675-8.006,7.22-8.567,10.239-1.261,20.511-2.482,30.806-3.008,8.558-.439,13.462,4.769,13.764,13.409.09,2.578-.062,5.164-.042,7.746.053,6.407,3.258,10.31,9.258,12.51,6.1,2.239,12.318,4.475,17.89,7.728,4.241,2.478,6.312.652,8.9-1.931,3.311-3.3,6.635-6.606,10.155-9.676,4.629-4.039,9.528-3.8,13.919.285,7.646,7.1,15.452,14.1,22.471,21.8,5.425,5.952,3.947,11.852-3.039,16.964-2.076,1.518-4.256,2.9-6.383,4.349-5.111,3.487-5.723,6.988-3.181,12.507a118.266,118.266,0,0,1,6.182,16.459c1.771,6.116,3.761,7.951,10.126,8.148,5,.154,10.02.455,14.984,1.064,5.14.629,8.382,3.951,8.567,9.046.375,10.317.623,20.651.488,30.974-.088,6.741-3.125,9.519-9.977,9.864-4.543.228-9.11.139-13.66.022-6.655-.17-8.088.906-10.175,7.2-2.043,6.16-4.3,12.253-6.584,18.327-2.3,6.109-1.531,9.811,3.2,14.215,2.224,2.069,4.5,4.082,6.639,6.24,4.669,4.72,4.9,10.376,1.065,16-5.442,7.986-11.836,14.964-20.026,20.216-5.871,3.764-9.51,3.24-14.274-2.036-3.139-3.476-6.277-6.979-9.685-10.182-3.333-3.136-7.165-2.478-11.006-.693-6.7,3.114-13.356,6.352-20.2,9.117-6.494,2.624-8.24,4.991-7.481,12.13.274,2.568.795,5.108,1.078,7.673.8,7.229-3.627,12.978-10.866,13.517-5.133.382-10.319.073-15.482.073ZM399.193,544.515c2.734,0,5.477.146,8.2-.029,6.542-.42,9.619-3.678,9.65-10.156.027-5.623-.026-11.246-.126-16.869-.124-6.811-3.64-10.849-10.354-11.529-4.526-.459-9.1-.539-13.651-.649-3.578-.086-5.89-1.438-7.189-5.033-3.589-9.943-7.657-19.719-11.052-29.724a8.3,8.3,0,0,1,1.493-6.889c2.553-2.893,6.056-4.949,9.172-7.339,5.471-4.2,6.363-9.862,1.771-14.884s-9.617-9.674-14.586-14.345c-4.161-3.912-9.248-4.106-13.523-.354a77.751,77.751,0,0,0-8.5,8.823c-3.09,3.732-6.416,3.775-10.528,1.941-7.712-3.443-15.432-6.926-23.367-9.791-8-2.891-10.78-6.643-9.689-14.953.119-.9.252-1.807.322-2.716.861-11.207-3.744-15.854-14.984-14.844-5.891.528-11.759,1.341-17.618,2.167-5.168.727-8.057,4.06-8.134,9.3-.053,3.644.066,7.291.144,10.937s-1.085,6.469-4.731,7.993c-7.8,3.26-15.7,6.361-23.3,10.041-10.211,4.938-10.111,5.144-17.7-3.09-6.376-6.92-14.548-7.7-21.861-1.829a72.334,72.334,0,0,0-8.216,7.816c-4.981,5.486-4.815,12.017.325,17.473,2.706,2.873,5.561,5.61,8.426,8.326,2.564,2.43,2.651,4.738.437,7.551-6.957,8.834-11.09,19.124-14.164,29.763-1.124,3.889-2.911,4.766-6.4,4.451-4.682-.424-9.382-.881-14.074-.9-4.251-.016-6.748,2.12-7.944,6.586a50.436,50.436,0,0,0,.174,26.1c1.508,5.906,3.209,7.737,9.283,7.827a81.266,81.266,0,0,0,12.72-.727c4.492-.649,6.805,1.307,8.269,5.219,3.271,8.744,6.679,17.439,9.967,26.179,1.254,3.333,1.321,6.487-1.681,9.153-3.174,2.814-6.337,5.661-9.274,8.715-4.02,4.181-4.534,9.393-.579,13.473a206.427,206.427,0,0,0,17.8,16.205c4.135,3.375,9.241,2.882,13.309-.629a82.033,82.033,0,0,0,8.393-8.285c3.072-3.543,6-3.276,9.5-.742a62.633,62.633,0,0,0,28.319,11.417c3.717.523,5.526,2.359,5.466,5.937-.075,4.245-.333,8.49-.64,12.726-.572,7.878,2.675,11.77,10.487,12.037a123.26,123.26,0,0,0,14.117-.163c8.019-.647,12.333-5.424,12.448-13.422.062-4.252-.386-8.532-.024-12.75.126-1.482,1.729-3.7,3.081-4.081a114.33,114.33,0,0,0,28.555-12.631c7.668-4.671,12.384-3.616,18.12,3.5,2,2.482,4.059,4.918,6.193,7.282,3.684,4.079,8.018,4.7,11.947.935a180.092,180.092,0,0,0,14.482-15.686c3.339-4.057,2.6-8.159-1.425-11.6-2.876-2.46-6.076-4.552-8.888-7.079-4.965-4.466-5.416-7.765-2.845-13.76,2.92-6.812,5.425-13.8,8.375-20.606C389.05,542.554,384.291,544.513,399.193,544.515Z" fill="#6a6a6a" stroke="#707070" stroke-linecap="round" stroke-linejoin="round" stroke-width="1"/>
      <path id="Path_1150" data-name="Path 1150" d="M248.374,530.9c-26.722,1.391-49.467-21.706-49.385-47.262.086-26.468,21.413-46.457,49.677-46.3,25.56.141,43.057,19.147,43.316,47.941C292.226,512.3,275.377,531.653,248.374,530.9Zm-.579-5.859c24.491.384,39.009-17.026,38.585-39.561-.471-24.989-14.926-41.432-38.629-42.035-24.383-.619-42.657,18.621-42.887,39.68C204.627,504.84,224.613,526.292,247.795,525.044Z" transform="translate(40.84 40.077)" fill="#6a6a6a" stroke="#707070" stroke-linecap="round" stroke-linejoin="round" stroke-width="1"/>
      <path id="Path_1151" data-name="Path 1151" d="M197.909,492.935c-2.266.407-3.934,1.257-5.1.8-2.571-1-7.637-11.761-7.061-14.6a5.049,5.049,0,0,1,1.968-2.726c.364-.267,1.922.312,2.229.888C192.474,482.022,194.835,486.833,197.909,492.935Z" transform="translate(29.849 72.351)" fill="#6a6a6a" stroke="#707070" stroke-linecap="round" stroke-linejoin="round" stroke-width="1"/>
      <path id="Path_1152" data-name="Path 1152" d="M242.316,423.576c4.028,2.569,8.126,5.016,11.984,7.8.685.493.9,2.763.367,3.5a3.686,3.686,0,0,1-3.476.8,109.61,109.61,0,0,1-11.573-6.206,3.726,3.726,0,0,1-1.126-3.4C238.816,425.149,240.467,424.7,242.316,423.576Z" transform="translate(73.452 28.689)" fill="#6a6a6a" stroke="#707070" stroke-linecap="round" stroke-linejoin="round" stroke-width="1"/>
      <path id="Path_1153" data-name="Path 1153" d="M208.192,432.61c-.884,1.639-1.175,2.756-1.891,3.406-3.236,2.94-6.52,5.837-9.952,8.541-.89.7-2.376.649-3.589.941-.232-1.277-.846-2.626-.621-3.817.592-3.163,9.066-10.5,12.284-10.61C205.564,431.033,206.739,431.983,208.192,432.61Z" transform="translate(35.132 34.89)" fill="#6a6a6a" stroke="#707070" stroke-linecap="round" stroke-linejoin="round" stroke-width="1"/>
      <path id="Path_1154" data-name="Path 1154" d="M229.556,508.792l-3.934-3.077c1.5-1.111,2.842-2.725,4.519-3.225a42.327,42.327,0,0,1,9.764-1.674c1.431-.077,2.935,1.19,4.406,1.846-1.036,1.244-1.849,3.17-3.154,3.6C237.759,507.381,234.143,507.847,229.556,508.792Z" transform="translate(62.876 92.593)" fill="#6a6a6a" stroke="#707070" stroke-linecap="round" stroke-linejoin="round" stroke-width="1"/>
      <path id="Path_1155" data-name="Path 1155" d="M233.327,423.836c-1.6,1.213-2.67,2.662-3.929,2.858-4.625.718-9.309,1.1-13.983,1.409-.855.057-2.438-.729-2.513-1.285-.133-1,.492-2.971,1.022-3.05,5.7-.85,11.441-1.447,17.183-1.974C231.587,421.751,232.161,422.728,233.327,423.836Z" transform="translate(52.337 27.214)" fill="#6a6a6a" stroke="#707070" stroke-linecap="round" stroke-linejoin="round" stroke-width="1"/>
      <path id="Path_1156" data-name="Path 1156" d="M270.076,453.175c-1.425,1.667-2.107,3.187-3.028,3.348a3.979,3.979,0,0,1-3.311-1.464,108.91,108.91,0,0,1-6.094-11.081,3.977,3.977,0,0,1,.535-3.516c.455-.548,2.758-.543,3.169.007C264.357,444.517,267.1,448.764,270.076,453.175Z" transform="translate(89.198 42.323)" fill="#6a6a6a" stroke="#707070" stroke-linecap="round" stroke-linejoin="round" stroke-width="1"/>
      <path id="Path_1157" data-name="Path 1157" d="M183.014,463.567a68.457,68.457,0,0,1,1.805-8.8c.411-1.232,2.123-2.03,3.244-3.026.753,1.433,2.18,2.893,2.127,4.294a72.2,72.2,0,0,1-1.535,11.626c-.23,1.124-1.654,2-2.531,2.993-.948-.987-2.26-1.826-2.741-3-.473-1.162-.1-2.666-.1-4.022Z" transform="translate(27.623 51.989)" fill="#6a6a6a" stroke="#707070" stroke-linecap="round" stroke-linejoin="round" stroke-width="1"/>
      <path id="Path_1158" data-name="Path 1158" d="M215.5,507.474c-4.25-2.259-8.538-4.373-12.613-6.838-.8-.486-.793-2.323-1.159-3.536,1.2-.353,2.642-1.314,3.576-.958a108.907,108.907,0,0,1,12.285,5.524c.97.515,1.707,2.467,1.586,3.658C219.1,506.038,217.154,506.56,215.5,507.474Z" transform="translate(43.104 88.665)" fill="#6a6a6a" stroke="#707070" stroke-linecap="round" stroke-linejoin="round" stroke-width="1"/>
      <path id="Path_1159" data-name="Path 1159" d="M252.1,502.69c-.912-.579-2.335-1.014-2.432-1.652a5.145,5.145,0,0,1,.762-3.653,81.9,81.9,0,0,1,7.549-8.3c1.005-.95,2.765-1.1,4.179-1.617.234,1.478,1.065,3.189.6,4.393C260.821,496.817,257.146,500.243,252.1,502.69Z" transform="translate(82.723 81.549)" fill="#6a6a6a" stroke="#707070" stroke-linecap="round" stroke-linejoin="round" stroke-width="1"/>
      <path id="Path_1160" data-name="Path 1160" d="M262.235,479.157c.784-4.709,1.062-8.214,2.07-11.5.386-1.252,2.445-1.99,3.742-2.962.594,1.394,1.745,2.82,1.674,4.179a45.2,45.2,0,0,1-1.539,9.806c-.481,1.712-2.067,3.114-3.156,4.656Z" transform="translate(93.169 62.714)" fill="#6a6a6a" stroke="#707070" stroke-linecap="round" stroke-linejoin="round" stroke-width="1"/>
    </g>
  </g>
</svg>
