<svg xmlns="http://www.w3.org/2000/svg" width="160" height="160" viewBox="0 0 160 160">
  <path id="Path_1097" data-name="Path 1097" d="M-2332.343,3241.219c-3.709,0-7.244.015-10.78-.007-1.436-.009-2.037-.589-2.1-1.886a2.331,2.331,0,0,1,1.873-2.6,5.328,5.328,0,0,1,.824-.051q4.412-.117,8.823-.233c.4-.011.809-.045,1.184-.068.385-3.295.641-6.528,1.158-9.715a62.939,62.939,0,0,1,13-29.759c10.917-13.625,25.2-20.972,41.828-23.832,1.269-.218,2.542-.414,3.821-.544.748-.075,1.019-.39,1.013-1.174-.017-2.2.028-4.393.062-6.59a6.644,6.644,0,0,1,.116-1.421,2.092,2.092,0,0,1,2.352-1.738,1.823,1.823,0,0,1,1.857,2.038c0,2.34-.042,4.679-.065,7.019,0,.518,0,1.035,0,1.543,3,.509,5.907.92,8.782,1.5,11.352,2.305,21.815,6.711,30.893,14.321,10.691,8.961,17.211,20.58,20.115,34.427a103.075,103.075,0,0,1,1.411,10.33c.121,1.149.458,1.536,1.552,1.584,5.649.248,11.3.533,16.938.9a2.909,2.909,0,0,1,2.086,1.035,2.943,2.943,0,0,1,.161,2.5,2.759,2.759,0,0,1-2.188.922c-5.558-.184-11.113-.492-16.668-.755-.455-.022-.912,0-1.724,0,0,2.31.083,4.587-.014,6.857a51.974,51.974,0,0,1-8.782,27.023c-5.541,8.348-11.753,16.032-19.783,21.935a49.089,49.089,0,0,1-27.012,10c-.276.013-.552.025-.826.052a2.987,2.987,0,0,0-.455.157c.193,2.776.385,5.608.589,8.44.14,1.951.3,3.9.445,5.852a1.918,1.918,0,0,1-1.618,2.271,2.071,2.071,0,0,1-2.536-1.623c-.3-1.728-.394-3.5-.521-5.254-.237-3.279-.433-6.562-.648-9.869-3.087-.539-6.193-.886-9.205-1.638-20.5-5.117-37.045-16.2-48.128-35.169a57.192,57.192,0,0,1-7.726-25.718C-2332.259,3241.905-2332.311,3241.534-2332.343,3241.219Zm64.319,40.141c-4.74-1.559-9.43-2.678-13.786-4.611-15.316-6.8-25.82-18.208-30.139-35.223-.229-.9-.57-1.117-1.393-1.089-4.408.156-8.818.259-13.227.391a7.051,7.051,0,0,0-.956.161,5.748,5.748,0,0,0,0,.766,86.326,86.326,0,0,0,5.276,20.827c2.741,6.557,6.262,12.6,11.76,17.038,4.963,4,10.058,7.863,15.328,11.412a51.736,51.736,0,0,0,18,8.042,31.852,31.852,0,0,0,9.73.9C-2267.632,3293.606-2267.833,3287.328-2268.024,3281.36Zm-45.22-45.268c0-1.841-.018-3.269,0-4.7.159-10.818,4.991-19.288,12.541-26.242a58.114,58.114,0,0,1,28.442-14.263c.9-.182,1.065-.6,1.032-1.442-.148-3.768-.242-7.539-.365-11.308-.01-.325-.083-.649-.138-1.048-.5,0-.949-.037-1.395.005a75.089,75.089,0,0,0-24.168,5.9,31.324,31.324,0,0,0-12.055,8.835c-5.6,7.044-10.75,14.429-14.532,22.723-2.839,6.227-4.778,12.706-4.46,19.727.095,2.085.047,2.07,2.111,2.008q4.066-.12,8.134-.188C-2316.45,3236.069-2314.805,3236.092-2313.244,3236.092Zm49.2,45.369c.267,6.179.527,12.209.794,18.384,1.2-.137,2.2-.223,3.192-.37a54.9,54.9,0,0,0,24.868-9.807c6.664-4.868,11.68-11.252,16.165-18.193,3.981-6.161,7.219-12.624,8.349-20.058a56.222,56.222,0,0,0,.73-12.644h-7.432c-.116.541-.222,1-.315,1.472-2.115,10.6-6.147,20.25-13.1,28.456-6.59,7.78-14.681,12.408-24.8,12.747C-2258.331,3281.54-2261.082,3281.461-2264.042,3281.461Zm-2.657-87.871c.34,5.287.659,10.251.973,15.139,15.52.924,23.354,10.046,25.894,25.063h18.61c.149-9.888-4.5-20.244-12.312-27.42a47.539,47.539,0,0,0-25.736-12.1C-2261.656,3193.92-2264.079,3193.825-2266.7,3193.591Zm2.555,84.116c20.256,1.865,41.266-18.272,42.618-39.177h-18.455c-.045.3-.085.529-.113.758a39.089,39.089,0,0,1-6.677,18.405c-4.156,5.832-9.489,9.2-16.77,8.2a2.216,2.216,0,0,0-.6.08Zm-2.93-88.564a55.666,55.666,0,0,1,16.777,2.606c9.041,2.935,17.155,7.516,23.724,14.753a36.179,36.179,0,0,1,9.749,21.9c.146,1.83.021,3.684.021,5.635h6.693a85.526,85.526,0,0,0-2.538-17.812c-1.855-6.771-4.82-12.926-9.68-17.886a69.983,69.983,0,0,0-37.955-20.37c-2.284-.426-4.584-.767-6.791-1.134Zm-28.038,46.171c0-.847-.006-1.466,0-2.085.056-4.743,1.287-9.051,4.462-12.587a26.179,26.179,0,0,1,9.6-7.049c3.535-1.425,7.188-2.536,10.971-3.85-.295-4.722-.6-9.646-.913-14.647-.538.09-.9.125-1.253.211a55.454,55.454,0,0,0-26.685,15.016c-4.834,4.885-8.477,10.549-9.927,17.507a21.225,21.225,0,0,0-.411,8Zm-13.413,5.037c4.656,19.382,24.765,35.51,40.3,36.852,0-3.567-.021-7.14.015-10.711.009-.927-.265-1.278-1.19-1.491a44.921,44.921,0,0,1-13.384-5.09c-6.289-3.808-10.414-9.239-11.72-16.79-.183-1.056-.271-2.131-.411-3.258Zm39.914,20.352V3239l-21.919.683C-2289.013,3250.964-2280.24,3259.267-2268.61,3260.7Zm4.418.157c10.833.251,19.219-10.057,19.6-22.094h-19.6Zm-26.9-25.711,22.382-.694c-.367-6.81-.722-13.372-1.086-20.112-1.523.425-2.859.729-4.153,1.168-4.7,1.594-9.24,3.523-12.729,7.368A16.393,16.393,0,0,0-2291.089,3235.149Zm46.491-1.233c-1.244-14.378-11.162-21.863-20.765-20.643.37,6.977.74,13.957,1.118,21.078Z" transform="translate(2345.225 -3161.599)" fill="#f6bf0b"/>
</svg>
