<svg xmlns="http://www.w3.org/2000/svg" width="261.546" height="251.782" viewBox="0 0 261.546 251.782">
  <path id="Path_1097" data-name="Path 1097" d="M-2324.167,3286.893c-6.063,0-11.842.023-17.621-.012-2.347-.015-3.33-.927-3.431-2.968a3.69,3.69,0,0,1,3.063-4.087,9.163,9.163,0,0,1,1.347-.08q7.212-.185,14.423-.368c.661-.017,1.322-.071,1.935-.106.629-5.185,1.048-10.272,1.894-15.288a97.238,97.238,0,0,1,21.257-46.829c17.846-21.441,41.2-33,68.375-37.5,2.073-.343,4.156-.651,6.246-.856,1.223-.119,1.665-.613,1.655-1.848-.027-3.456.046-6.913.1-10.369a10.069,10.069,0,0,1,.19-2.236,3.4,3.4,0,0,1,3.844-2.735,2.915,2.915,0,0,1,3.035,3.206c0,3.682-.069,7.363-.106,11.045-.008.814,0,1.629,0,2.428,4.9.8,9.656,1.449,14.355,2.367,18.558,3.627,35.66,10.561,50.5,22.536,17.476,14.1,28.134,32.385,32.88,54.175a156.376,156.376,0,0,1,2.306,16.255c.2,1.809.749,2.417,2.537,2.492,9.233.39,18.465.839,27.687,1.416a4.822,4.822,0,0,1,3.411,1.628,4.479,4.479,0,0,1,.263,3.928c-.534.9-2.351,1.492-3.578,1.452-9.086-.29-18.166-.773-27.247-1.188-.744-.035-1.491,0-2.818,0,0,3.635.135,7.219-.023,10.791a79.729,79.729,0,0,1-14.356,42.525c-9.057,13.137-19.213,25.229-32.339,34.518-13.232,9.364-27.851,14.939-44.155,15.733-.451.021-.9.041-1.35.081a4.974,4.974,0,0,0-.744.247c.316,4.368.63,8.825.963,13.281.229,3.07.5,6.138.728,9.209a3.035,3.035,0,0,1-2.645,3.574,3.387,3.387,0,0,1-4.146-2.554,80.684,80.684,0,0,1-.851-8.269c-.386-5.16-.708-10.326-1.059-15.53-5.047-.848-10.123-1.4-15.047-2.578-33.511-8.052-60.557-25.486-78.674-55.343a87.569,87.569,0,0,1-12.63-40.471C-2324.03,3287.972-2324.115,3287.387-2324.167,3286.893Zm105.14,63.167c-7.749-2.453-15.415-4.214-22.536-7.256-25.037-10.7-42.207-28.653-49.268-55.428-.375-1.421-.932-1.758-2.277-1.713-7.206.245-14.414.407-21.621.615a11.856,11.856,0,0,0-1.563.254,8.669,8.669,0,0,0,.007,1.206c1.73,11.225,4.071,22.292,8.624,32.774,4.481,10.318,10.236,19.831,19.225,26.812,8.113,6.3,16.441,12.374,25.056,17.959,9.029,5.854,18.754,10.451,29.42,12.655,5.2,1.076,10.442,1.906,15.906,1.417C-2218.385,3369.33-2218.714,3359.451-2219.027,3350.059Zm-73.92-71.235c0-2.9-.03-5.144,0-7.392.261-17.023,8.158-30.353,20.5-41.295,13.339-11.828,29.031-19.049,46.493-22.445,1.47-.286,1.741-.944,1.687-2.27-.242-5.93-.4-11.863-.6-17.794-.017-.512-.136-1.021-.225-1.65-.811,0-1.552-.058-2.28.008-13.607,1.228-26.9,3.8-39.507,9.277-7.536,3.273-14.443,7.526-19.706,13.9-9.149,11.085-17.573,22.706-23.755,35.759-4.64,9.8-7.811,19.995-7.291,31.042.155,3.281.077,3.257,3.451,3.161q6.647-.19,13.3-.3C-2298.188,3278.788-2295.5,3278.824-2292.947,3278.824Zm80.428,71.4c.436,9.724.862,19.213,1.3,28.929,1.962-.217,3.6-.352,5.217-.583,14.7-2.1,28.389-6.81,40.651-15.433,10.893-7.66,19.093-17.706,26.425-28.629,6.508-9.7,11.8-19.866,13.648-31.564a85.208,85.208,0,0,0,1.194-19.9h-12.149c-.19.851-.363,1.581-.515,2.316-3.457,16.686-10.048,31.866-21.409,44.779-10.772,12.244-24,19.527-40.538,20.06C-2203.182,3350.342-2207.679,3350.219-2212.518,3350.219Zm-4.343-138.277c.556,8.32,1.077,16.132,1.591,23.824,25.37,1.453,38.175,15.808,42.328,39.44h30.421c.244-15.561-7.357-31.856-20.126-43.149-12.057-10.663-26.228-16.748-42.069-19.034C-2208.617,3212.46-2212.578,3212.312-2216.861,3211.942Zm4.177,132.368c33.111,2.936,67.457-28.754,69.665-61.652h-30.167c-.073.475-.139.833-.184,1.193-1.316,10.53-4.55,20.365-10.914,28.963-6.793,9.178-15.511,14.471-27.414,12.911a3.747,3.747,0,0,0-.986.125Zm-4.789-139.367a94.234,94.234,0,0,1,27.426,4.1c14.779,4.618,28.042,11.827,38.78,23.215,9.151,9.707,14.82,21.053,15.936,34.457.239,2.881.034,5.8.034,8.868h10.941c-.569-9.527-1.547-18.886-4.149-28.03-3.032-10.656-7.878-20.34-15.824-28.147a115.813,115.813,0,0,0-62.043-32.054c-3.734-.67-7.493-1.208-11.1-1.784Zm-45.832,72.656c0-1.334-.01-2.308,0-3.281.092-7.463,2.1-14.242,7.293-19.807a42.75,42.75,0,0,1,15.69-11.093c5.779-2.243,11.749-3.992,17.933-6.058-.481-7.431-.982-15.179-1.493-23.05-.879.141-1.473.2-2.048.333a91.615,91.615,0,0,0-43.621,23.629c-7.9,7.687-13.857,16.6-16.228,27.549a32.187,32.187,0,0,0-.672,12.587Zm-21.925,7.926c7.612,30.5,40.483,55.88,65.88,57.991,0-5.613-.035-11.234.025-16.854.015-1.459-.433-2.011-1.945-2.347-7.637-1.7-15.06-4.035-21.879-8.01-10.281-5.993-17.023-14.54-19.158-26.421-.3-1.663-.442-3.353-.671-5.127Zm65.246,32.027v-34.146l-35.831,1.075C-2253.337,3302.228-2239,3315.293-2219.985,3317.552Zm7.222.247c17.709.4,31.417-15.825,32.039-34.768h-32.039Zm-43.967-40.459,36.586-1.091c-.6-10.717-1.179-21.042-1.775-31.649-2.489.667-4.674,1.147-6.788,1.837-7.684,2.509-15.1,5.544-20.808,11.594A25.236,25.236,0,0,0-2256.73,3277.34Zm76-1.94c-2.034-22.625-18.246-34.4-33.943-32.485.6,10.979,1.209,21.964,1.827,33.169Z" transform="translate(2345.225 -3161.599)" fill="#f6bf0b"/>
</svg>
