<svg xmlns="http://www.w3.org/2000/svg" width="250.146" height="125.068" viewBox="0 0 250.146 125.068">
  <g id="Group_513" data-name="Group 513" transform="translate(-23.121 -631.931)">
    <g id="Group_512" data-name="Group 512" transform="translate(12243 -8767)">
      <path id="Path_4679" data-name="Path 4679" d="M3.822,0Q3.2,0,3.2-.546L3.12-53.664a.552.552,0,0,1,.624-.624h7.02L23.946-23.556l-.39-30.108q0-.624.7-.624H31.98q.468,0,.468.624l.078,53.2q0,.468-.39.468H25.272L11.778-28.7l.546,28.08q0,.624-.7.624ZM36.66-.39l9.672-53.586a.369.369,0,0,1,.39-.312h11.31a.369.369,0,0,1,.39.312L67.7-.39q.078.39-.312.39H58.734q-.312,0-.39-.39l-.858-5.694H46.878L46.02-.39q-.078.39-.39.39H36.972Q36.66,0,36.66-.39ZM48.438-14.43h7.488l-3.2-21.918-.468-2.886-.312,2.886ZM72.93,0q-.312,0-.312-.39l.156-53.586a.276.276,0,0,1,.312-.312H82.6a.675.675,0,0,1,.546.312l7.1,10.3,7.1-10.3a.675.675,0,0,1,.546-.312h9.594a.276.276,0,0,1,.312.312L107.952-.39q0,.39-.312.39H98.826q-.312,0-.312-.39l-.078-39.78-8.19,11.856L82.134-40.17,82.056-.39q0,.39-.312.39Zm38.922-.39,9.672-53.586a.369.369,0,0,1,.39-.312h11.31a.369.369,0,0,1,.39.312L142.9-.39q.078.39-.312.39h-8.658q-.312,0-.39-.39l-.858-5.694H122.07L121.212-.39q-.078.39-.39.39h-8.658Q111.852,0,111.852-.39ZM123.63-14.43h7.488l-3.2-21.918-.468-2.886-.312,2.886ZM159.51.78a14.327,14.327,0,0,1-7.683-2.145,16.137,16.137,0,0,1-5.538-5.694,15.293,15.293,0,0,1-2.067-7.839v-3.588a.345.345,0,0,1,.39-.39h8.736q.312,0,.312.39V-14.9a6.22,6.22,0,0,0,1.716,4.407,5.461,5.461,0,0,0,4.134,1.833,5.41,5.41,0,0,0,4.134-1.872A6.261,6.261,0,0,0,165.36-14.9q0-2.886-3.744-4.992-1.248-.7-3.9-2.184t-4.992-2.808a16.4,16.4,0,0,1-6.357-6.279A17.518,17.518,0,0,1,144.3-39.7a14.812,14.812,0,0,1,2.106-7.839,15.693,15.693,0,0,1,5.577-5.5,14.661,14.661,0,0,1,7.527-2.028,14.591,14.591,0,0,1,7.6,2.067,15.7,15.7,0,0,1,5.538,5.538A14.879,14.879,0,0,1,174.72-39.7v6.4a.276.276,0,0,1-.312.312h-8.736a.276.276,0,0,1-.312-.312l-.078-6.4a6.016,6.016,0,0,0-1.716-4.446,5.546,5.546,0,0,0-4.056-1.716,5.461,5.461,0,0,0-4.134,1.833A6.124,6.124,0,0,0,153.66-39.7a7.845,7.845,0,0,0,1.092,4.29,10.53,10.53,0,0,0,3.978,3.276q.39.234,1.521.819t2.457,1.326q1.326.741,2.379,1.287t1.287.7a18.58,18.58,0,0,1,6.162,5.343A12.983,12.983,0,0,1,174.8-14.9,15.591,15.591,0,0,1,172.731-6.9a15.5,15.5,0,0,1-5.538,5.616A14.734,14.734,0,0,1,159.51.78ZM187.668,0q-.312,0-.312-.39V-44.85h-10.14a.345.345,0,0,1-.39-.39l.078-8.736a.276.276,0,0,1,.312-.312h29.64q.39,0,.39.312v8.736q0,.39-.312.39H196.716l.078,44.46q0,.39-.312.39ZM211.38,0q-.312,0-.312-.39l.078-53.586a.276.276,0,0,1,.312-.312H236.5q.312,0,.312.39v8.736a.276.276,0,0,1-.312.312h-15.99v12.168H236.5a.276.276,0,0,1,.312.312l.078,8.814a.276.276,0,0,1-.312.312H220.506v13.65h16.068q.312,0,.312.39V-.312a.276.276,0,0,1-.312.312Zm34.476-14.352q-.312,0-.39-.39l-1.638-17.94V-53.9q0-.39.312-.39h8.736a.345.345,0,0,1,.39.39l-.078,21.216-1.638,17.94q-.078.39-.39.39ZM244.14,0q-.312,0-.312-.39v-8.5a.276.276,0,0,1,.312-.312h8.736a.276.276,0,0,1,.312.312v8.5q0,.39-.312.39Z" transform="translate(-12222.999 9453.999)" fill="#16d3bb"/>
      <path id="Path_4680" data-name="Path 4680" d="M3.645,0A.358.358,0,0,1,3.24-.405l.081-55.647a.286.286,0,0,1,.324-.324h9.072a.286.286,0,0,1,.324.324L13.122-.405Q13.122,0,12.8,0Zm16.6-37.341v-5.022A4.507,4.507,0,0,0,23.693-43.9a5.2,5.2,0,0,0,1.417-3.645H20.574a.286.286,0,0,1-.324-.324v-9.072a.286.286,0,0,1,.324-.324h9.153a.286.286,0,0,1,.324.324v9.4a10.063,10.063,0,0,1-1.377,5.184,10.26,10.26,0,0,1-3.6,3.686A9.2,9.2,0,0,1,20.25-37.341ZM37.017,0q-.324,0-.324-.405l.162-55.647a.286.286,0,0,1,.324-.324h9.882a.7.7,0,0,1,.567.324L55-45.36,62.37-56.052a.7.7,0,0,1,.567-.324H72.9a.286.286,0,0,1,.324.324L73.386-.405q0,.405-.324.405H63.909q-.324,0-.324-.405L63.5-41.715,55-29.4,46.575-41.715,46.494-.405q0,.405-.324.405Zm54.27-.405,10.044-55.647a.383.383,0,0,1,.4-.324h11.745a.383.383,0,0,1,.4.324L123.525-.405Q123.606,0,123.2,0H114.21q-.324,0-.4-.405l-.891-5.913H101.9l-.891,5.913q-.081.405-.4.405H91.611Q91.287,0,91.287-.405Zm12.231-14.58h7.776l-3.321-22.761-.486-3-.324,3Z" transform="translate(-12222.999 9523.999)" fill="#16d3bb"/>
      <path id="Path_4681" data-name="Path 4681" d="M1.824,11q-.048,0-.06-.06L.108,2.7Q.1,2.648.156,2.648H1.512a.057.057,0,0,1,.06.048l.984,5.5.96-5.5a.057.057,0,0,1,.06-.048H4.92q.06,0,.048.048L3.336,10.94q-.012.06-.06.06Zm3.912,0a.053.053,0,0,1-.06-.06L5.688,2.7a.042.042,0,0,1,.048-.048H7.08a.042.042,0,0,1,.048.048L7.14,10.94q0,.06-.048.06Zm4.5.12a2.2,2.2,0,0,1-1.182-.33A2.483,2.483,0,0,1,8.2,9.914a2.353,2.353,0,0,1-.318-1.206V8.156a.053.053,0,0,1,.06-.06H9.288q.048,0,.048.06v.552a.957.957,0,0,0,.264.678.852.852,0,0,0,1.272-.006.963.963,0,0,0,.264-.672.919.919,0,0,0-.576-.768L9.96,7.6q-.408-.228-.768-.432a2.523,2.523,0,0,1-.978-.966A2.7,2.7,0,0,1,7.9,4.892,2.279,2.279,0,0,1,8.22,3.686a2.414,2.414,0,0,1,.858-.846,2.308,2.308,0,0,1,2.328.006,2.415,2.415,0,0,1,.852.852,2.289,2.289,0,0,1,.318,1.194v.984a.042.042,0,0,1-.048.048H11.184a.042.042,0,0,1-.048-.048l-.012-.984a.925.925,0,0,0-.264-.684.853.853,0,0,0-.624-.264.84.84,0,0,0-.636.282.942.942,0,0,0-.264.666,1.207,1.207,0,0,0,.168.66,1.62,1.62,0,0,0,.612.5q.06.036.234.126t.378.2q.2.114.366.2t.2.108a2.858,2.858,0,0,1,.948.822,2,2,0,0,1,.348,1.194,2.391,2.391,0,0,1-1.17,2.094A2.267,2.267,0,0,1,10.236,11.12Zm5.4,0a2.213,2.213,0,0,1-1.176-.33,2.451,2.451,0,0,1-.858-.882A2.385,2.385,0,0,1,13.284,8.7l.024-6a.042.042,0,0,1,.048-.048H14.7a.042.042,0,0,1,.048.048v6a.985.985,0,0,0,.258.69.822.822,0,0,0,.63.282.835.835,0,0,0,.642-.282.985.985,0,0,0,.258-.69v-6a.042.042,0,0,1,.048-.048h1.344a.042.042,0,0,1,.048.048L18,8.7a2.43,2.43,0,0,1-1.17,2.1A2.257,2.257,0,0,1,15.636,11.12Zm2.712-.18L19.836,2.7a.057.057,0,0,1,.06-.048h1.74a.057.057,0,0,1,.06.048l1.428,8.244q.012.06-.048.06H21.744q-.048,0-.06-.06l-.132-.876H19.92l-.132.876q-.012.06-.06.06H18.4Q18.348,11,18.348,10.94ZM20.16,8.78h1.152L20.82,5.408l-.072-.444-.048.444ZM23.928,11q-.048,0-.048-.06l.012-8.232a.053.053,0,0,1,.06-.06h1.332a.053.053,0,0,1,.06.06l-.012,6.816H27.8a.053.053,0,0,1,.06.06V10.94a.053.053,0,0,1-.06.06ZM30,11a.053.053,0,0,1-.06-.06L29.964,2.7a.042.042,0,0,1,.048-.048l2.244-.012a2.237,2.237,0,0,1,1.206.312,2.45,2.45,0,0,1,.87.87,2.319,2.319,0,0,1,.324,1.206V8.468a2.447,2.447,0,0,1-.336,1.266,2.516,2.516,0,0,1-2.172,1.254Zm1.4-1.476h.744a1.01,1.01,0,0,0,.75-.312,1.026,1.026,0,0,0,.306-.744V5.012a.911.911,0,0,0-.282-.666.87.87,0,0,0-.666-.27l-.84.012ZM35.652,11q-.048,0-.048-.06L35.616,2.7a.042.042,0,0,1,.048-.048h3.852q.048,0,.048.06V4.052a.042.042,0,0,1-.048.048h-2.46V5.972h2.46a.042.042,0,0,1,.048.048l.012,1.356a.042.042,0,0,1-.048.048H37.056v2.1h2.472q.048,0,.048.06v1.368a.042.042,0,0,1-.048.048Zm6.96.12a2.2,2.2,0,0,1-1.182-.33,2.483,2.483,0,0,1-.852-.876,2.353,2.353,0,0,1-.318-1.206V8.156a.053.053,0,0,1,.06-.06h1.344q.048,0,.048.06v.552a.957.957,0,0,0,.264.678.852.852,0,0,0,1.272-.006.963.963,0,0,0,.264-.672.919.919,0,0,0-.576-.768l-.6-.336q-.408-.228-.768-.432a2.523,2.523,0,0,1-.978-.966,2.7,2.7,0,0,1-.318-1.314A2.279,2.279,0,0,1,40.6,3.686a2.414,2.414,0,0,1,.858-.846,2.308,2.308,0,0,1,2.328.006,2.415,2.415,0,0,1,.852.852,2.289,2.289,0,0,1,.318,1.194v.984a.042.042,0,0,1-.048.048H43.56a.042.042,0,0,1-.048-.048L43.5,4.892a.925.925,0,0,0-.264-.684.853.853,0,0,0-.624-.264.84.84,0,0,0-.636.282.942.942,0,0,0-.264.666,1.207,1.207,0,0,0,.168.66,1.62,1.62,0,0,0,.612.5q.06.036.234.126t.378.2q.2.114.366.2t.2.108a2.858,2.858,0,0,1,.948.822,2,2,0,0,1,.348,1.194,2.391,2.391,0,0,1-1.17,2.094A2.267,2.267,0,0,1,42.612,11.12ZM45.864,11a.053.053,0,0,1-.06-.06L45.816,2.7a.042.042,0,0,1,.048-.048h1.344a.042.042,0,0,1,.048.048l.012,8.244q0,.06-.048.06Zm4.656.12a2.2,2.2,0,0,1-1.176-.324,2.45,2.45,0,0,1-.846-.87,2.375,2.375,0,0,1-.318-1.218V4.9A2.33,2.33,0,0,1,48.5,3.71a2.433,2.433,0,0,1,.852-.87,2.213,2.213,0,0,1,1.17-.324,2.289,2.289,0,0,1,1.194.318,2.352,2.352,0,0,1,.846.858A2.378,2.378,0,0,1,52.872,4.9v.552q0,.048-.06.048H51.468a.042.042,0,0,1-.048-.048V5a1.118,1.118,0,0,0-.258-.756.813.813,0,0,0-.642-.3.826.826,0,0,0-.618.288.952.952,0,0,0-.27.672v3.8a.957.957,0,0,0,.264.678.827.827,0,0,0,.624.282.843.843,0,0,0,.642-.276.963.963,0,0,0,.258-.684V8.12h-.84a.053.053,0,0,1-.06-.06V6.716a.053.053,0,0,1,.06-.06h2.244q.048,0,.048.06V8.708a2.375,2.375,0,0,1-.318,1.218,2.45,2.45,0,0,1-.846.87A2.226,2.226,0,0,1,50.52,11.12ZM53.832,11q-.1,0-.1-.084l-.012-8.172a.085.085,0,0,1,.1-.1H54.9l2.028,4.728-.06-4.632q0-.1.108-.1h1.188q.072,0,.072.1l.012,8.184q0,.072-.06.072H57.132L55.056,6.584l.084,4.32q0,.1-.108.1Zm5.508,0q-.048,0-.048-.06L59.3,2.7a.042.042,0,0,1,.048-.048H63.2q.048,0,.048.06V4.052A.042.042,0,0,1,63.2,4.1h-2.46V5.972H63.2a.042.042,0,0,1,.048.048l.012,1.356a.042.042,0,0,1-.048.048H60.744v2.1h2.472q.048,0,.048.06v1.368a.042.042,0,0,1-.048.048Zm5.04,0q-.048,0-.048-.06L64.356,2.7a.042.042,0,0,1,.048-.048h2.424a2.33,2.33,0,0,1,1.194.318,2.433,2.433,0,0,1,.87.852,2.279,2.279,0,0,1,.324,1.206,2.271,2.271,0,0,1-.132.8,2.479,2.479,0,0,1-.312.6,2.089,2.089,0,0,1-.324.366A2.448,2.448,0,0,1,69.1,8.48l.012,2.46a.053.053,0,0,1-.06.06H67.692q-.048,0-.048-.036V8.48a1.046,1.046,0,0,0-.306-.75,1,1,0,0,0-.75-.318H65.8l-.012,3.528q0,.06-.048.06ZM65.8,5.972h1.032a.927.927,0,0,0,.66-.276.921.921,0,0,0,.006-1.332.921.921,0,0,0-.666-.276H65.8ZM.54,26a.053.053,0,0,1-.06-.06L.492,17.7a.042.042,0,0,1,.048-.048H1.884a.042.042,0,0,1,.048.048l.012,8.244q0,.06-.048.06Zm2.508,0Q3,26,3,25.94l.012-8.232a.053.053,0,0,1,.06-.06H4.4a.053.053,0,0,1,.06.06l-.012,6.816H6.924a.053.053,0,0,1,.06.06V25.94a.053.053,0,0,1-.06.06Zm4.764,0q-.048,0-.048-.06l.012-8.232a.053.053,0,0,1,.06-.06H9.168a.053.053,0,0,1,.06.06l-.012,6.816h2.472a.053.053,0,0,1,.06.06V25.94a.053.053,0,0,1-.06.06Zm6.684.12a2.214,2.214,0,0,1-1.176-.33,2.451,2.451,0,0,1-.858-.882,2.385,2.385,0,0,1-.318-1.212l.024-6a.042.042,0,0,1,.048-.048H13.56a.042.042,0,0,1,.048.048v6a.985.985,0,0,0,.258.69.822.822,0,0,0,.63.282.835.835,0,0,0,.642-.282.985.985,0,0,0,.258-.69v-6a.042.042,0,0,1,.048-.048h1.344a.042.042,0,0,1,.048.048l.024,6a2.43,2.43,0,0,1-1.17,2.1A2.257,2.257,0,0,1,14.5,26.12Zm5.352,0a2.2,2.2,0,0,1-1.182-.33,2.483,2.483,0,0,1-.852-.876,2.353,2.353,0,0,1-.318-1.206v-.552a.053.053,0,0,1,.06-.06H18.9q.048,0,.048.06v.552a.957.957,0,0,0,.264.678.852.852,0,0,0,1.272-.006.963.963,0,0,0,.264-.672.919.919,0,0,0-.576-.768l-.6-.336-.768-.432a2.523,2.523,0,0,1-.978-.966,2.7,2.7,0,0,1-.318-1.314,2.279,2.279,0,0,1,.324-1.206,2.414,2.414,0,0,1,.858-.846,2.308,2.308,0,0,1,2.328.006,2.415,2.415,0,0,1,.852.852,2.289,2.289,0,0,1,.318,1.194v.984a.042.042,0,0,1-.048.048H20.8a.042.042,0,0,1-.048-.048l-.012-.984a.925.925,0,0,0-.264-.684.853.853,0,0,0-.624-.264.84.84,0,0,0-.636.282.942.942,0,0,0-.264.666,1.207,1.207,0,0,0,.168.66,1.62,1.62,0,0,0,.612.5q.06.036.234.126t.378.2q.2.114.366.2t.2.108a2.858,2.858,0,0,1,.948.822,2,2,0,0,1,.348,1.194A2.391,2.391,0,0,1,21.03,25.8,2.267,2.267,0,0,1,19.848,26.12ZM24.18,26q-.048,0-.048-.06V19.1h-1.56a.053.053,0,0,1-.06-.06l.012-1.344a.042.042,0,0,1,.048-.048h4.56q.06,0,.06.048V19.04q0,.06-.048.06H25.572l.012,6.84q0,.06-.048.06Zm3.648,0q-.048,0-.048-.06L27.8,17.7a.042.042,0,0,1,.048-.048h2.424a2.33,2.33,0,0,1,1.194.318,2.433,2.433,0,0,1,.87.852,2.434,2.434,0,0,1,.192,2,2.479,2.479,0,0,1-.312.6,2.088,2.088,0,0,1-.324.366,2.448,2.448,0,0,1,.648,1.692l.012,2.46a.053.053,0,0,1-.06.06H31.14q-.048,0-.048-.036V23.48a1.046,1.046,0,0,0-.306-.75,1,1,0,0,0-.75-.318h-.792l-.012,3.528q0,.06-.048.06Zm1.416-5.028h1.032a.927.927,0,0,0,.66-.276.921.921,0,0,0,.006-1.332.921.921,0,0,0-.666-.276H29.244Zm3.912,4.968L34.644,17.7a.057.057,0,0,1,.06-.048h1.74a.057.057,0,0,1,.06.048l1.428,8.244q.012.06-.048.06H36.552q-.048,0-.06-.06l-.132-.876H34.728l-.132.876q-.012.06-.06.06H33.2Q33.156,26,33.156,25.94Zm1.812-2.16H36.12l-.492-3.372-.072-.444-.048.444ZM39.312,26q-.048,0-.048-.06V19.1H37.7a.053.053,0,0,1-.06-.06l.012-1.344a.042.042,0,0,1,.048-.048h4.56q.06,0,.06.048V19.04q0,.06-.048.06H40.7l.012,6.84q0,.06-.048.06Zm5.556.12a2.2,2.2,0,0,1-1.182-.33,2.534,2.534,0,0,1-.858-.876,2.319,2.319,0,0,1-.324-1.206l.012-3.8a2.321,2.321,0,0,1,.318-1.2,2.432,2.432,0,0,1,.858-.864,2.244,2.244,0,0,1,1.176-.324,2.2,2.2,0,0,1,1.176.324,2.465,2.465,0,0,1,.846.864,2.321,2.321,0,0,1,.318,1.2l.012,3.8a2.353,2.353,0,0,1-.318,1.206,2.483,2.483,0,0,1-.852.876A2.2,2.2,0,0,1,44.868,26.12Zm0-1.452a.831.831,0,0,0,.63-.294.958.958,0,0,0,.27-.666l-.012-3.8a.961.961,0,0,0-.252-.672.824.824,0,0,0-.636-.276.857.857,0,0,0-.636.27.931.931,0,0,0-.264.678v3.8a.957.957,0,0,0,.264.678A.84.84,0,0,0,44.868,24.668ZM48.18,26q-.048,0-.048-.06l.024-8.244a.042.042,0,0,1,.048-.048h2.424a2.33,2.33,0,0,1,1.194.318,2.433,2.433,0,0,1,.87.852,2.434,2.434,0,0,1,.192,2,2.479,2.479,0,0,1-.312.6,2.088,2.088,0,0,1-.324.366A2.448,2.448,0,0,1,52.9,23.48l.012,2.46a.053.053,0,0,1-.06.06H51.492q-.048,0-.048-.036V23.48a1.046,1.046,0,0,0-.306-.75,1,1,0,0,0-.75-.318H49.6l-.012,3.528q0,.06-.048.06ZM49.6,20.972h1.032a.927.927,0,0,0,.66-.276.921.921,0,0,0,.006-1.332.921.921,0,0,0-.666-.276H49.6ZM2.688,41.12a2.214,2.214,0,0,1-1.176-.33,2.451,2.451,0,0,1-.858-.882A2.385,2.385,0,0,1,.336,38.7l.024-6a.042.042,0,0,1,.048-.048H1.752A.042.042,0,0,1,1.8,32.7v6a.985.985,0,0,0,.258.69.822.822,0,0,0,.63.282.835.835,0,0,0,.642-.282.985.985,0,0,0,.258-.69v-6a.042.042,0,0,1,.048-.048H4.98a.042.042,0,0,1,.048.048l.024,6a2.43,2.43,0,0,1-1.17,2.1A2.257,2.257,0,0,1,2.688,41.12Zm5.352,0a2.2,2.2,0,0,1-1.182-.33,2.483,2.483,0,0,1-.852-.876,2.353,2.353,0,0,1-.318-1.206v-.552a.053.053,0,0,1,.06-.06H7.092q.048,0,.048.06v.552a.957.957,0,0,0,.264.678.852.852,0,0,0,1.272-.006.963.963,0,0,0,.264-.672.919.919,0,0,0-.576-.768l-.6-.336L7,37.172a2.523,2.523,0,0,1-.978-.966A2.7,2.7,0,0,1,5.7,34.892a2.279,2.279,0,0,1,.324-1.206,2.414,2.414,0,0,1,.858-.846,2.308,2.308,0,0,1,2.328.006,2.415,2.415,0,0,1,.852.852,2.289,2.289,0,0,1,.318,1.194v.984a.042.042,0,0,1-.048.048H8.988a.042.042,0,0,1-.048-.048l-.012-.984a.925.925,0,0,0-.264-.684.853.853,0,0,0-.624-.264.84.84,0,0,0-.636.282.942.942,0,0,0-.264.666,1.207,1.207,0,0,0,.168.66,1.62,1.62,0,0,0,.612.5q.06.036.234.126t.378.2q.2.114.366.2t.2.108a2.858,2.858,0,0,1,.948.822,2,2,0,0,1,.348,1.194A2.391,2.391,0,0,1,9.222,40.8,2.267,2.267,0,0,1,8.04,41.12ZM11.28,41q-.048,0-.048-.06l.012-8.244a.042.042,0,0,1,.048-.048h3.852q.048,0,.048.06v1.344a.042.042,0,0,1-.048.048h-2.46v1.872h2.46a.042.042,0,0,1,.048.048l.012,1.356a.042.042,0,0,1-.048.048H12.684v2.1h2.472q.048,0,.048.06v1.368a.042.042,0,0,1-.048.048Zm5.04,0q-.048,0-.048-.06L16.3,32.7a.042.042,0,0,1,.048-.048h2.424a2.33,2.33,0,0,1,1.194.318,2.433,2.433,0,0,1,.87.852,2.434,2.434,0,0,1,.192,2,2.479,2.479,0,0,1-.312.6,2.089,2.089,0,0,1-.324.366,2.448,2.448,0,0,1,.648,1.692l.012,2.46a.053.053,0,0,1-.06.06H19.632q-.048,0-.048-.036V38.48a1.046,1.046,0,0,0-.306-.75,1,1,0,0,0-.75-.318h-.792l-.012,3.528q0,.06-.048.06Zm1.416-5.028h1.032a.927.927,0,0,0,.66-.276.921.921,0,0,0,.006-1.332.921.921,0,0,0-.666-.276H17.736ZM23.88,41q-.048,0-.048-.06l.012-8.244a.042.042,0,0,1,.048-.048h3.852q.048,0,.048.06v1.344a.042.042,0,0,1-.048.048h-2.46v1.872h2.46a.042.042,0,0,1,.048.048l.012,1.356a.042.042,0,0,1-.048.048H25.284v2.1h2.472q.048,0,.048.06v1.368a.042.042,0,0,1-.048.048Zm4.368,0q-.048,0-.036-.06l1.368-4.284L28.236,32.7q-.012-.048.036-.048h1.344a.064.064,0,0,1,.072.048l.8,2.856.816-2.856a.064.064,0,0,1,.072-.048h1.332q.048,0,.036.048L31.4,36.644l1.356,4.3q.024.06-.036.06H31.38q-.048,0-.072-.06l-.816-3.1-.828,3.1a.067.067,0,0,1-.072.06Zm5.28,0a.053.053,0,0,1-.06-.06l.024-8.244a.042.042,0,0,1,.048-.048h2.3a2.3,2.3,0,0,1,1.746.672,2.531,2.531,0,0,1,.642,1.824A3.07,3.07,0,0,1,37.9,36.62a2.49,2.49,0,0,1-.876.96,2.184,2.184,0,0,1-1.176.336h-.912V40.94a.053.053,0,0,1-.06.06Zm1.4-4.536h.912a.825.825,0,0,0,.666-.366,1.52,1.52,0,0,0,.282-.954,1.153,1.153,0,0,0-.252-.768.86.86,0,0,0-.7-.3l-.912.012ZM39,41q-.048,0-.048-.06l.012-8.244a.042.042,0,0,1,.048-.048h3.852q.048,0,.048.06v1.344a.042.042,0,0,1-.048.048H40.4v1.872h2.46a.042.042,0,0,1,.048.048l.012,1.356a.042.042,0,0,1-.048.048H40.4v2.1h2.472q.048,0,.048.06v1.368a.042.042,0,0,1-.048.048Zm5.04,0q-.048,0-.048-.06l.024-8.244a.042.042,0,0,1,.048-.048h2.424a2.33,2.33,0,0,1,1.194.318,2.433,2.433,0,0,1,.87.852,2.434,2.434,0,0,1,.192,2,2.479,2.479,0,0,1-.312.6,2.089,2.089,0,0,1-.324.366,2.448,2.448,0,0,1,.648,1.692l.012,2.46a.053.053,0,0,1-.06.06H47.352q-.048,0-.048-.036V38.48A1.046,1.046,0,0,0,47,37.73a1,1,0,0,0-.75-.318h-.792l-.012,3.528q0,.06-.048.06Zm1.416-5.028h1.032a.927.927,0,0,0,.66-.276.921.921,0,0,0,.006-1.332.921.921,0,0,0-.666-.276H45.456ZM49.836,41a.053.053,0,0,1-.06-.06l.012-8.244a.042.042,0,0,1,.048-.048H51.18a.042.042,0,0,1,.048.048l.012,8.244q0,.06-.048.06Zm2.508,0q-.048,0-.048-.06l.012-8.244a.042.042,0,0,1,.048-.048h3.852q.048,0,.048.06v1.344a.042.042,0,0,1-.048.048h-2.46v1.872h2.46a.042.042,0,0,1,.048.048l.012,1.356a.042.042,0,0,1-.048.048H53.748v2.1H56.22q.048,0,.048.06v1.368A.042.042,0,0,1,56.22,41Zm5.1,0q-.1,0-.1-.084l-.012-8.172a.085.085,0,0,1,.1-.1h1.08l2.028,4.728-.06-4.632q0-.1.108-.1h1.188q.072,0,.072.1l.012,8.184q0,.072-.06.072H60.744l-2.076-4.416.084,4.32q0,.1-.108.1Zm7.668.12a2.226,2.226,0,0,1-1.194-.33,2.419,2.419,0,0,1-.846-.882,2.468,2.468,0,0,1-.312-1.236l.012-3.744a2.424,2.424,0,0,1,.306-1.206,2.384,2.384,0,0,1,.84-.876A2.332,2.332,0,0,1,66.3,32.84a2.412,2.412,0,0,1,1.152,2.088v.552a.042.042,0,0,1-.048.048H66.06a.042.042,0,0,1-.048-.048v-.552a.991.991,0,0,0-.258-.684.827.827,0,0,0-.642-.288.785.785,0,0,0-.66.294,1.076,1.076,0,0,0-.228.678v3.744a1.012,1.012,0,0,0,.258.72.83.83,0,0,0,.63.276.807.807,0,0,0,.642-.306,1.042,1.042,0,0,0,.258-.69V38.12a.042.042,0,0,1,.048-.048h1.356a.042.042,0,0,1,.048.048v.552a2.431,2.431,0,0,1-.318,1.236,2.485,2.485,0,0,1-.846.882A2.2,2.2,0,0,1,65.112,41.12ZM68.388,41q-.048,0-.048-.06l.012-8.244a.042.042,0,0,1,.048-.048h3.852q.048,0,.048.06v1.344a.042.042,0,0,1-.048.048h-2.46v1.872h2.46a.042.042,0,0,1,.048.048l.012,1.356a.042.042,0,0,1-.048.048H69.792v2.1h2.472q.048,0,.048.06v1.368a.042.042,0,0,1-.048.048Zm6.828,0a.053.053,0,0,1-.06-.06L75.18,32.7a.042.042,0,0,1,.048-.048l2.244-.012a2.237,2.237,0,0,1,1.206.312,2.45,2.45,0,0,1,.87.87,2.319,2.319,0,0,1,.324,1.206v3.444a2.447,2.447,0,0,1-.336,1.266,2.516,2.516,0,0,1-2.172,1.254Zm1.4-1.476h.744a1.01,1.01,0,0,0,.75-.312,1.026,1.026,0,0,0,.306-.744V35.012a.911.911,0,0,0-.282-.666.87.87,0,0,0-.666-.27l-.84.012ZM80.868,41q-.048,0-.048-.06l.012-8.244a.042.042,0,0,1,.048-.048h3.852q.048,0,.048.06v1.344a.042.042,0,0,1-.048.048h-2.46v1.872h2.46a.042.042,0,0,1,.048.048l.012,1.356a.042.042,0,0,1-.048.048H82.272v2.1h2.472q.048,0,.048.06v1.368a.042.042,0,0,1-.048.048Zm6.96.12a2.2,2.2,0,0,1-1.182-.33,2.483,2.483,0,0,1-.852-.876,2.353,2.353,0,0,1-.318-1.206v-.552a.053.053,0,0,1,.06-.06H86.88q.048,0,.048.06v.552a.957.957,0,0,0,.264.678.852.852,0,0,0,1.272-.006.963.963,0,0,0,.264-.672.919.919,0,0,0-.576-.768l-.6-.336q-.408-.228-.768-.432a2.523,2.523,0,0,1-.978-.966,2.7,2.7,0,0,1-.318-1.314,2.279,2.279,0,0,1,.324-1.206,2.414,2.414,0,0,1,.858-.846A2.308,2.308,0,0,1,89,32.846a2.415,2.415,0,0,1,.852.852,2.289,2.289,0,0,1,.318,1.194v.984a.042.042,0,0,1-.048.048H88.776a.042.042,0,0,1-.048-.048l-.012-.984a.925.925,0,0,0-.264-.684.853.853,0,0,0-.624-.264.84.84,0,0,0-.636.282.942.942,0,0,0-.264.666,1.207,1.207,0,0,0,.168.66,1.62,1.62,0,0,0,.612.5q.06.036.234.126t.378.2q.2.114.366.2t.2.108a2.858,2.858,0,0,1,.948.822,2,2,0,0,1,.348,1.194A2.391,2.391,0,0,1,89.01,40.8,2.267,2.267,0,0,1,87.828,41.12ZM91.08,41a.053.053,0,0,1-.06-.06l.012-8.244a.042.042,0,0,1,.048-.048h1.344a.042.042,0,0,1,.048.048l.012,8.244q0,.06-.048.06Zm4.656.12A2.2,2.2,0,0,1,94.56,40.8a2.45,2.45,0,0,1-.846-.87,2.376,2.376,0,0,1-.318-1.218V34.9a2.33,2.33,0,0,1,.318-1.194,2.433,2.433,0,0,1,.852-.87,2.213,2.213,0,0,1,1.17-.324,2.289,2.289,0,0,1,1.194.318,2.352,2.352,0,0,1,.846.858,2.378,2.378,0,0,1,.312,1.212v.552q0,.048-.06.048H96.684a.042.042,0,0,1-.048-.048V35a1.118,1.118,0,0,0-.258-.756.813.813,0,0,0-.642-.3.826.826,0,0,0-.618.288.952.952,0,0,0-.27.672v3.8a.957.957,0,0,0,.264.678.827.827,0,0,0,.624.282.843.843,0,0,0,.642-.276.963.963,0,0,0,.258-.684V38.12H95.8a.053.053,0,0,1-.06-.06V36.716a.053.053,0,0,1,.06-.06H98.04q.048,0,.048.06v1.992a2.376,2.376,0,0,1-.318,1.218,2.45,2.45,0,0,1-.846.87A2.226,2.226,0,0,1,95.736,41.12ZM99.048,41q-.1,0-.1-.084l-.012-8.172a.085.085,0,0,1,.1-.1h1.08l2.028,4.728-.06-4.632q0-.1.108-.1h1.188q.072,0,.072.1l.012,8.184q0,.072-.06.072h-1.056l-2.076-4.416.084,4.32q0,.1-.108.1Zm5.508,0q-.048,0-.048-.06l.012-8.244a.042.042,0,0,1,.048-.048h3.852q.048,0,.048.06v1.344a.042.042,0,0,1-.048.048h-2.46v1.872h2.46a.042.042,0,0,1,.048.048l.012,1.356a.042.042,0,0,1-.048.048H105.96v2.1h2.472q.048,0,.048.06v1.368a.042.042,0,0,1-.048.048Zm5.04,0q-.048,0-.048-.06l.024-8.244a.042.042,0,0,1,.048-.048h2.424a2.33,2.33,0,0,1,1.194.318,2.433,2.433,0,0,1,.87.852,2.434,2.434,0,0,1,.192,2,2.479,2.479,0,0,1-.312.6,2.089,2.089,0,0,1-.324.366,2.448,2.448,0,0,1,.648,1.692l.012,2.46a.053.053,0,0,1-.06.06h-1.356q-.048,0-.048-.036V38.48a1.046,1.046,0,0,0-.306-.75,1,1,0,0,0-.75-.318h-.792L111,40.94q0,.06-.048.06Zm1.416-5.028h1.032a.927.927,0,0,0,.66-.276.921.921,0,0,0,.006-1.332.921.921,0,0,0-.666-.276h-1.032ZM2.688,56.12a2.214,2.214,0,0,1-1.176-.33,2.451,2.451,0,0,1-.858-.882A2.385,2.385,0,0,1,.336,53.7l.024-6a.042.042,0,0,1,.048-.048H1.752A.042.042,0,0,1,1.8,47.7v6a.985.985,0,0,0,.258.69.822.822,0,0,0,.63.282.835.835,0,0,0,.642-.282.985.985,0,0,0,.258-.69v-6a.042.042,0,0,1,.048-.048H4.98a.042.042,0,0,1,.048.048l.024,6a2.43,2.43,0,0,1-1.17,2.1A2.257,2.257,0,0,1,2.688,56.12Zm5.352,0a2.2,2.2,0,0,1-1.182-.33,2.483,2.483,0,0,1-.852-.876,2.353,2.353,0,0,1-.318-1.206v-.552a.053.053,0,0,1,.06-.06H7.092q.048,0,.048.06v.552a.957.957,0,0,0,.264.678.852.852,0,0,0,1.272-.006.963.963,0,0,0,.264-.672.919.919,0,0,0-.576-.768l-.6-.336L7,52.172a2.523,2.523,0,0,1-.978-.966A2.7,2.7,0,0,1,5.7,49.892a2.279,2.279,0,0,1,.324-1.206,2.414,2.414,0,0,1,.858-.846,2.308,2.308,0,0,1,2.328.006,2.415,2.415,0,0,1,.852.852,2.289,2.289,0,0,1,.318,1.194v.984a.042.042,0,0,1-.048.048H8.988a.042.042,0,0,1-.048-.048l-.012-.984a.925.925,0,0,0-.264-.684.853.853,0,0,0-.624-.264.84.84,0,0,0-.636.282.942.942,0,0,0-.264.666,1.207,1.207,0,0,0,.168.66,1.62,1.62,0,0,0,.612.5q.06.036.234.126t.378.2q.2.114.366.2t.2.108a2.858,2.858,0,0,1,.948.822,2,2,0,0,1,.348,1.194A2.391,2.391,0,0,1,9.222,55.8,2.267,2.267,0,0,1,8.04,56.12ZM11.28,56q-.048,0-.048-.06l.012-8.244a.042.042,0,0,1,.048-.048h3.852q.048,0,.048.06v1.344a.042.042,0,0,1-.048.048h-2.46v1.872h2.46a.042.042,0,0,1,.048.048l.012,1.356a.042.042,0,0,1-.048.048H12.684v2.1h2.472q.048,0,.048.06v1.368a.042.042,0,0,1-.048.048Zm5.04,0q-.048,0-.048-.06L16.3,47.7a.042.042,0,0,1,.048-.048h2.424a2.33,2.33,0,0,1,1.194.318,2.433,2.433,0,0,1,.87.852,2.434,2.434,0,0,1,.192,2,2.479,2.479,0,0,1-.312.6,2.089,2.089,0,0,1-.324.366,2.448,2.448,0,0,1,.648,1.692l.012,2.46a.053.053,0,0,1-.06.06H19.632q-.048,0-.048-.036V53.48a1.046,1.046,0,0,0-.306-.75,1,1,0,0,0-.75-.318h-.792l-.012,3.528q0,.06-.048.06Zm1.416-5.028h1.032a.927.927,0,0,0,.66-.276.921.921,0,0,0,.006-1.332.921.921,0,0,0-.666-.276H17.736ZM23.892,56a.053.053,0,0,1-.06-.06l.012-8.244a.042.042,0,0,1,.048-.048h1.344a.042.042,0,0,1,.048.048L25.3,55.94q0,.06-.048.06Zm2.568,0q-.1,0-.1-.084l-.012-8.172a.085.085,0,0,1,.1-.1h1.08l2.028,4.728-.06-4.632q0-.1.108-.1h1.188q.072,0,.072.1l.012,8.184q0,.072-.06.072H29.76l-2.076-4.416.084,4.32q0,.1-.108.1Zm6.66,0q-.048,0-.048-.06V49.1h-1.56a.053.053,0,0,1-.06-.06l.012-1.344a.042.042,0,0,1,.048-.048h4.56q.06,0,.06.048V49.04q0,.06-.048.06H34.512l.012,6.84q0,.06-.048.06Zm3.648,0q-.048,0-.048-.06l.012-8.244a.042.042,0,0,1,.048-.048h3.852q.048,0,.048.06v1.344a.042.042,0,0,1-.048.048h-2.46v1.872h2.46a.042.042,0,0,1,.048.048l.012,1.356a.042.042,0,0,1-.048.048H38.172v2.1h2.472q.048,0,.048.06v1.368a.042.042,0,0,1-.048.048Zm5.04,0q-.048,0-.048-.06l.024-8.244a.042.042,0,0,1,.048-.048h2.424a2.33,2.33,0,0,1,1.194.318,2.433,2.433,0,0,1,.87.852,2.434,2.434,0,0,1,.192,2,2.479,2.479,0,0,1-.312.6,2.089,2.089,0,0,1-.324.366,2.448,2.448,0,0,1,.648,1.692l.012,2.46a.053.053,0,0,1-.06.06H45.12q-.048,0-.048-.036V53.48a1.046,1.046,0,0,0-.306-.75,1,1,0,0,0-.75-.318h-.792l-.012,3.528q0,.06-.048.06Zm1.416-5.028h1.032a.927.927,0,0,0,.66-.276.921.921,0,0,0,.006-1.332.921.921,0,0,0-.666-.276H43.224ZM47.6,56a.053.053,0,0,1-.06-.06l.024-8.244a.042.042,0,0,1,.048-.048h3.84q.06,0,.06.048v1.356a.042.042,0,0,1-.048.048h-2.46v1.86h2.46q.048,0,.048.06l.012,1.356q0,.048-.06.048h-2.46V55.94a.053.053,0,0,1-.06.06Zm3.876-.06L52.968,47.7a.057.057,0,0,1,.06-.048h1.74a.057.057,0,0,1,.06.048l1.428,8.244q.012.06-.048.06H54.876q-.048,0-.06-.06l-.132-.876H53.052l-.132.876q-.012.06-.06.06H51.528Q51.48,56,51.48,55.94Zm1.812-2.16h1.152l-.492-3.372-.072-.444-.048.444Zm5.688,2.34a2.226,2.226,0,0,1-1.194-.33,2.419,2.419,0,0,1-.846-.882,2.468,2.468,0,0,1-.312-1.236l.012-3.744a2.424,2.424,0,0,1,.306-1.206,2.384,2.384,0,0,1,.84-.876,2.332,2.332,0,0,1,2.382-.006,2.412,2.412,0,0,1,1.152,2.088v.552a.042.042,0,0,1-.048.048H59.928a.042.042,0,0,1-.048-.048v-.552a.991.991,0,0,0-.258-.684.827.827,0,0,0-.642-.288.785.785,0,0,0-.66.294,1.076,1.076,0,0,0-.228.678v3.744a1.012,1.012,0,0,0,.258.72.83.83,0,0,0,.63.276.807.807,0,0,0,.642-.306,1.042,1.042,0,0,0,.258-.69V53.12a.042.042,0,0,1,.048-.048h1.356a.042.042,0,0,1,.048.048v.552a2.431,2.431,0,0,1-.318,1.236,2.485,2.485,0,0,1-.846.882A2.2,2.2,0,0,1,58.98,56.12ZM62.256,56q-.048,0-.048-.06L62.22,47.7a.042.042,0,0,1,.048-.048H66.12q.048,0,.048.06v1.344a.042.042,0,0,1-.048.048H63.66v1.872h2.46a.042.042,0,0,1,.048.048l.012,1.356a.042.042,0,0,1-.048.048H63.66v2.1h2.472q.048,0,.048.06v1.368a.042.042,0,0,1-.048.048Zm6.828,0a.053.053,0,0,1-.06-.06l.024-8.244a.042.042,0,0,1,.048-.048l2.244-.012a2.237,2.237,0,0,1,1.206.312,2.45,2.45,0,0,1,.87.87,2.319,2.319,0,0,1,.324,1.206v3.444a2.447,2.447,0,0,1-.336,1.266,2.516,2.516,0,0,1-2.172,1.254Zm1.4-1.476h.744a1.01,1.01,0,0,0,.75-.312,1.026,1.026,0,0,0,.306-.744V50.012a.911.911,0,0,0-.282-.666.87.87,0,0,0-.666-.27l-.84.012ZM74.736,56q-.048,0-.048-.06L74.7,47.7a.042.042,0,0,1,.048-.048H78.6q.048,0,.048.06v1.344a.042.042,0,0,1-.048.048H76.14v1.872H78.6a.042.042,0,0,1,.048.048l.012,1.356a.042.042,0,0,1-.048.048H76.14v2.1h2.472q.048,0,.048.06v1.368a.042.042,0,0,1-.048.048Zm6.96.12a2.2,2.2,0,0,1-1.182-.33,2.483,2.483,0,0,1-.852-.876,2.353,2.353,0,0,1-.318-1.206v-.552a.053.053,0,0,1,.06-.06h1.344q.048,0,.048.06v.552a.957.957,0,0,0,.264.678.852.852,0,0,0,1.272-.006.963.963,0,0,0,.264-.672.919.919,0,0,0-.576-.768l-.6-.336q-.408-.228-.768-.432a2.523,2.523,0,0,1-.978-.966,2.7,2.7,0,0,1-.318-1.314,2.279,2.279,0,0,1,.324-1.206,2.414,2.414,0,0,1,.858-.846,2.308,2.308,0,0,1,2.328.006,2.415,2.415,0,0,1,.852.852,2.289,2.289,0,0,1,.318,1.194v.984a.042.042,0,0,1-.048.048H82.644a.042.042,0,0,1-.048-.048l-.012-.984a.925.925,0,0,0-.264-.684.853.853,0,0,0-.624-.264.84.84,0,0,0-.636.282.942.942,0,0,0-.264.666,1.207,1.207,0,0,0,.168.66,1.62,1.62,0,0,0,.612.5q.06.036.234.126t.378.2q.2.114.366.2t.2.108a2.858,2.858,0,0,1,.948.822,2,2,0,0,1,.348,1.194,2.391,2.391,0,0,1-1.17,2.094A2.267,2.267,0,0,1,81.7,56.12ZM84.948,56a.053.053,0,0,1-.06-.06L84.9,47.7a.042.042,0,0,1,.048-.048h1.344a.042.042,0,0,1,.048.048l.012,8.244q0,.06-.048.06Zm4.656.12a2.2,2.2,0,0,1-1.176-.324,2.45,2.45,0,0,1-.846-.87,2.376,2.376,0,0,1-.318-1.218V49.9a2.33,2.33,0,0,1,.318-1.194,2.433,2.433,0,0,1,.852-.87,2.213,2.213,0,0,1,1.17-.324,2.289,2.289,0,0,1,1.194.318,2.352,2.352,0,0,1,.846.858,2.378,2.378,0,0,1,.312,1.212v.552q0,.048-.06.048H90.552a.042.042,0,0,1-.048-.048V50a1.118,1.118,0,0,0-.258-.756.813.813,0,0,0-.642-.3.826.826,0,0,0-.618.288.952.952,0,0,0-.27.672v3.8a.957.957,0,0,0,.264.678.827.827,0,0,0,.624.282.843.843,0,0,0,.642-.276.963.963,0,0,0,.258-.684V53.12h-.84a.053.053,0,0,1-.06-.06V51.716a.053.053,0,0,1,.06-.06h2.244q.048,0,.048.06v1.992a2.376,2.376,0,0,1-.318,1.218,2.45,2.45,0,0,1-.846.87A2.226,2.226,0,0,1,89.6,56.12ZM92.916,56q-.1,0-.1-.084l-.012-8.172a.085.085,0,0,1,.1-.1h1.08l2.028,4.728-.06-4.632q0-.1.108-.1h1.188q.072,0,.072.1l.012,8.184q0,.072-.06.072H96.216L94.14,51.584l.084,4.32q0,.1-.108.1Zm5.508,0q-.048,0-.048-.06l.012-8.244a.042.042,0,0,1,.048-.048h3.852q.048,0,.048.06v1.344a.042.042,0,0,1-.048.048h-2.46v1.872h2.46a.042.042,0,0,1,.048.048l.012,1.356a.042.042,0,0,1-.048.048H99.828v2.1H102.3q.048,0,.048.06v1.368A.042.042,0,0,1,102.3,56Zm5.04,0q-.048,0-.048-.06l.024-8.244a.042.042,0,0,1,.048-.048h2.424a2.33,2.33,0,0,1,1.194.318,2.433,2.433,0,0,1,.87.852,2.434,2.434,0,0,1,.192,2,2.479,2.479,0,0,1-.312.6,2.089,2.089,0,0,1-.324.366,2.448,2.448,0,0,1,.648,1.692l.012,2.46a.053.053,0,0,1-.06.06h-1.356q-.048,0-.048-.036V53.48a1.046,1.046,0,0,0-.306-.75,1,1,0,0,0-.75-.318h-.792l-.012,3.528q0,.06-.048.06Zm1.416-5.028h1.032a.927.927,0,0,0,.66-.276.921.921,0,0,0,.006-1.332.921.921,0,0,0-.666-.276H104.88Z" transform="translate(-12086 9465.999)" fill="#ce3e67"/>
    </g>
  </g>
</svg>
