<svg xmlns="http://www.w3.org/2000/svg" xmlns:xlink="http://www.w3.org/1999/xlink" width="1920" height="2974" viewBox="0 0 1920 2974">
  <defs>
    <style>
      .cls-1, .cls-14, .cls-16, .cls-18, .cls-33, .cls-34, .cls-37, .cls-39, .cls-40, .cls-42, .cls-45, .cls-47, .cls-59 {
        fill: #fff;
      }

      .cls-1, .cls-14, .cls-19, .cls-3, .cls-60 {
        stroke: #707070;
      }

      .cls-2 {
        fill: rgba(0,0,0,0);
      }

      .cls-2, .cls-52, .cls-53, .cls-54, .cls-55 {
        stroke: #a3a3a3;
      }

      .cls-14, .cls-19, .cls-2, .cls-20, .cls-21, .cls-22, .cls-26, .cls-27, .cls-28, .cls-43, .cls-53, .cls-54, .cls-60 {
        stroke-width: 0.754px;
      }

      .cls-12, .cls-17, .cls-19, .cls-22, .cls-26, .cls-3, .cls-31, .cls-36, .cls-38, .cls-43 {
        fill: none;
      }

      .cls-4 {
        clip-path: url(#clip-path);
      }

      .cls-5 {
        fill: #a7e6eb;
        stroke: #a7e6eb;
      }

      .cls-5, .cls-6, .cls-7, .cls-8 {
        stroke-width: 25.64px;
        opacity: 0.587;
      }

      .cls-6 {
        fill: #dea1a1;
        stroke: #dea1a1;
      }

      .cls-7 {
        fill: #ffed97;
        stroke: #ffed97;
      }

      .cls-8 {
        fill: #a7d8b7;
        stroke: #a7d8b7;
      }

      .cls-9 {
        stroke: #656565;
        stroke-width: 3.771px;
      }

      .cls-10, .cls-11, .cls-13 {
        fill: #c7c7c7;
      }

      .cls-10, .cls-11, .cls-16, .cls-23, .cls-24, .cls-25, .cls-29, .cls-34 {
        font-size: 14px;
      }

      .cls-10, .cls-11, .cls-13, .cls-15, .cls-16, .cls-18, .cls-23, .cls-24, .cls-25, .cls-29, .cls-34, .cls-37, .cls-45, .cls-46, .cls-47, .cls-49, .cls-56, .cls-59 {
        font-family: Montserrat-Regular, Montserrat;
      }

      .cls-10 {
        opacity: 0.597;
      }

      .cls-12 {
        stroke: #29fff7;
        stroke-width: 2.262px;
      }

      .cls-13 {
        stroke: #c7c7c7;
        font-size: 23px;
      }

      .cls-13, .cls-59 {
        stroke-width: 0.75px;
      }

      .cls-15 {
        fill: #b4b4b4;
      }

      .cls-15, .cls-18 {
        font-size: 11px;
      }

      .cls-16, .cls-17, .cls-38, .cls-40, .cls-41, .cls-47, .cls-50, .cls-59 {
        stroke: #fff;
      }

      .cls-16 {
        stroke-width: 0.786px;
      }

      .cls-17, .cls-38, .cls-41, .cls-57, .cls-58 {
        stroke-width: 1.508px;
      }

      .cls-18 {
        opacity: 0.619;
      }

      .cls-20, .cls-26 {
        stroke: #f01256;
      }

      .cls-21, .cls-27 {
        stroke: #8bff27;
      }

      .cls-22, .cls-28 {
        stroke: #08edff;
      }

      .cls-23, .cls-41 {
        fill: #f01256;
      }

      .cls-24 {
        fill: #08edff;
      }

      .cls-25, .cls-27 {
        fill: #8bff27;
      }

      .cls-30, .cls-50 {
        fill: #a3a3a3;
      }

      .cls-31, .cls-58 {
        stroke: #000;
      }

      .cls-31, .cls-52 {
        stroke-width: 0.377px;
      }

      .cls-32 {
        fill-rule: evenodd;
      }

      .cls-35 {
        opacity: 0.998;
      }

      .cls-37, .cls-49, .cls-56 {
        font-size: 25px;
      }

      .cls-37, .cls-46, .cls-47, .cls-49, .cls-56 {
        letter-spacing: 0.351em;
      }

      .cls-38, .cls-41, .cls-57, .cls-58 {
        stroke-dasharray: 3;
      }

      .cls-39 {
        font-size: 12px;
        font-family: Montserrat-Medium, Montserrat;
        font-weight: 500;
      }

      .cls-40 {
        stroke-width: 0.778px;
        font-size: 18px;
        font-family: Montserrat-SemiBold, Montserrat;
        font-weight: 600;
        letter-spacing: 0.043em;
      }

      .cls-42 {
        font-size: 15px;
        font-family: HelveticaNeue, Helvetica Neue;
        letter-spacing: 0.007em;
        opacity: 0.73;
      }

      .cls-43 {
        stroke: #f8ffff;
      }

      .cls-44 {
        fill: #95173d;
      }

      .cls-45, .cls-59 {
        font-size: 19px;
      }

      .cls-46 {
        fill: #afafaf;
        opacity: 0.669;
      }

      .cls-46, .cls-47 {
        font-size: 21px;
      }

      .cls-47 {
        stroke-width: 0.773px;
      }

      .cls-48, .cls-56, .cls-57, .cls-58 {
        fill: #99fffc;
      }

      .cls-49 {
        fill: #284d4c;
      }

      .cls-50, .cls-55 {
        stroke-width: 0.189px;
      }

      .cls-51 {
        clip-path: url(#clip-path-2);
      }

      .cls-52, .cls-55 {
        stroke-miterlimit: 10;
      }

      .cls-53 {
        fill: #db0046;
      }

      .cls-57 {
        stroke: #284d4c;
      }

      .cls-60 {
        fill: #3e3e3e;
      }

      .cls-61 {
        fill: #656565;
      }

      .cls-62 {
        stroke: none;
      }

      .cls-63 {
        filter: url(#Rectangle_142);
      }

      .cls-64 {
        filter: url(#Rectangle_141);
      }

      .cls-65 {
        filter: url(#Rectangle_140);
      }

      .cls-66 {
        filter: url(#Rectangle_139);
      }

      .cls-67 {
        filter: url(#Rectangle_138);
      }

      .cls-68 {
        filter: url(#Rectangle_137);
      }

      .cls-69 {
        filter: url(#Rectangle_136);
      }

      .cls-70 {
        filter: url(#Rectangle_135);
      }

      .cls-71 {
        filter: url(#Rectangle_134);
      }

      .cls-72 {
        filter: url(#Rectangle_133);
      }

      .cls-73 {
        filter: url(#Rectangle_132);
      }

      .cls-74 {
        filter: url(#Rectangle_131);
      }
    </style>
    <clipPath id="clip-path">
      <rect id="Rectangle_154" data-name="Rectangle 154" class="cls-1" width="1920" height="2974" transform="translate(0 10264)"/>
    </clipPath>
    <filter id="Rectangle_131" x="136.554" y="231.543" width="409.438" height="852.295" filterUnits="userSpaceOnUse">
      <feOffset dx="9.804" dy="9.804" input="SourceAlpha"/>
      <feGaussianBlur stdDeviation="4.902" result="blur"/>
      <feFlood flood-opacity="0.161"/>
      <feComposite operator="in" in2="blur"/>
      <feComposite in="SourceGraphic"/>
    </filter>
    <filter id="Rectangle_132" x="555.09" y="231.543" width="409.438" height="852.295" filterUnits="userSpaceOnUse">
      <feOffset dx="9.804" dy="9.804" input="SourceAlpha"/>
      <feGaussianBlur stdDeviation="4.902" result="blur-2"/>
      <feFlood flood-opacity="0.161"/>
      <feComposite operator="in" in2="blur-2"/>
      <feComposite in="SourceGraphic"/>
    </filter>
    <filter id="Rectangle_133" x="1387.096" y="1092.938" width="409.438" height="852.295" filterUnits="userSpaceOnUse">
      <feOffset dx="9.804" dy="9.804" input="SourceAlpha"/>
      <feGaussianBlur stdDeviation="4.902" result="blur-3"/>
      <feFlood flood-opacity="0.161"/>
      <feComposite operator="in" in2="blur-3"/>
      <feComposite in="SourceGraphic"/>
    </filter>
    <filter id="Rectangle_134" x="1386.082" y="231.543" width="409.438" height="852.295" filterUnits="userSpaceOnUse">
      <feOffset dx="9.804" dy="9.804" input="SourceAlpha"/>
      <feGaussianBlur stdDeviation="4.902" result="blur-4"/>
      <feFlood flood-opacity="0.161"/>
      <feComposite operator="in" in2="blur-4"/>
      <feComposite in="SourceGraphic"/>
    </filter>
    <filter id="Rectangle_135" x="970.586" y="231.543" width="409.438" height="852.295" filterUnits="userSpaceOnUse">
      <feOffset dx="9.804" dy="9.804" input="SourceAlpha"/>
      <feGaussianBlur stdDeviation="4.902" result="blur-5"/>
      <feFlood flood-opacity="0.161"/>
      <feComposite operator="in" in2="blur-5"/>
      <feComposite in="SourceGraphic"/>
    </filter>
    <filter id="Rectangle_136" x="970.586" y="1092.938" width="409.438" height="852.295" filterUnits="userSpaceOnUse">
      <feOffset dx="9.804" dy="9.804" input="SourceAlpha"/>
      <feGaussianBlur stdDeviation="4.902" result="blur-6"/>
      <feFlood flood-opacity="0.161"/>
      <feComposite operator="in" in2="blur-6"/>
      <feComposite in="SourceGraphic"/>
    </filter>
    <filter id="Rectangle_137" x="555.09" y="1092.938" width="409.438" height="852.295" filterUnits="userSpaceOnUse">
      <feOffset dx="9.804" dy="9.804" input="SourceAlpha"/>
      <feGaussianBlur stdDeviation="4.902" result="blur-7"/>
      <feFlood flood-opacity="0.161"/>
      <feComposite operator="in" in2="blur-7"/>
      <feComposite in="SourceGraphic"/>
    </filter>
    <filter id="Rectangle_138" x="136.554" y="1092.938" width="409.438" height="852.295" filterUnits="userSpaceOnUse">
      <feOffset dx="9.804" dy="9.804" input="SourceAlpha"/>
      <feGaussianBlur stdDeviation="4.902" result="blur-8"/>
      <feFlood flood-opacity="0.161"/>
      <feComposite operator="in" in2="blur-8"/>
      <feComposite in="SourceGraphic"/>
    </filter>
    <filter id="Rectangle_139" x="1386.082" y="1954.333" width="409.438" height="852.295" filterUnits="userSpaceOnUse">
      <feOffset dx="9.804" dy="9.804" input="SourceAlpha"/>
      <feGaussianBlur stdDeviation="4.902" result="blur-9"/>
      <feFlood flood-opacity="0.161"/>
      <feComposite operator="in" in2="blur-9"/>
      <feComposite in="SourceGraphic"/>
    </filter>
    <filter id="Rectangle_140" x="970.586" y="1954.333" width="409.438" height="852.295" filterUnits="userSpaceOnUse">
      <feOffset dx="9.804" dy="9.804" input="SourceAlpha"/>
      <feGaussianBlur stdDeviation="4.902" result="blur-10"/>
      <feFlood flood-opacity="0.161"/>
      <feComposite operator="in" in2="blur-10"/>
      <feComposite in="SourceGraphic"/>
    </filter>
    <filter id="Rectangle_141" x="555.09" y="1954.333" width="409.438" height="852.295" filterUnits="userSpaceOnUse">
      <feOffset dx="9.804" dy="9.804" input="SourceAlpha"/>
      <feGaussianBlur stdDeviation="4.902" result="blur-11"/>
      <feFlood flood-opacity="0.161"/>
      <feComposite operator="in" in2="blur-11"/>
      <feComposite in="SourceGraphic"/>
    </filter>
    <filter id="Rectangle_142" x="136.554" y="1954.333" width="409.438" height="852.295" filterUnits="userSpaceOnUse">
      <feOffset dx="9.804" dy="9.804" input="SourceAlpha"/>
      <feGaussianBlur stdDeviation="4.902" result="blur-12"/>
      <feFlood flood-opacity="0.161"/>
      <feComposite operator="in" in2="blur-12"/>
      <feComposite in="SourceGraphic"/>
    </filter>
    <clipPath id="clip-path-2">
      <circle id="Ellipse_9" data-name="Ellipse 9" class="cls-2" cx="47.123" cy="47.123" r="47.123"/>
    </clipPath>
  </defs>
  <g id="Group_299" data-name="Group 299" transform="translate(0 -10264)">
    <path id="Path_1166" data-name="Path 1166" class="cls-3" d="M13834,12848" transform="translate(-11914 -2250)"/>
    <g id="Mask_Group_2" data-name="Mask Group 2" class="cls-4">
      <g id="Group_289" data-name="Group 289" transform="translate(-121.645 2541.739)">
        <g id="Ellipse_47" data-name="Ellipse 47" class="cls-5" transform="translate(-305.42 8879.891)">
          <circle class="cls-62" cx="493.528" cy="493.528" r="493.528"/>
          <circle class="cls-36" cx="493.528" cy="493.528" r="480.708"/>
        </g>
        <g id="Ellipse_44" data-name="Ellipse 44" class="cls-6" transform="translate(1287.653 7774.266)">
          <circle class="cls-62" cx="493.528" cy="493.528" r="493.528"/>
          <circle class="cls-36" cx="493.528" cy="493.528" r="480.708"/>
        </g>
        <g id="Ellipse_45" data-name="Ellipse 45" class="cls-7" transform="translate(23.936 7804.667)">
          <circle class="cls-62" cx="878.622" cy="878.622" r="878.622"/>
          <circle class="cls-36" cx="878.622" cy="878.622" r="865.802"/>
        </g>
        <g id="Ellipse_46" data-name="Ellipse 46" class="cls-8" transform="translate(312.757 8848.475)">
          <circle class="cls-62" cx="898.89" cy="898.89" r="898.89"/>
          <circle class="cls-36" cx="898.89" cy="898.89" r="886.07"/>
        </g>
        <g class="cls-74" transform="matrix(1, 0, 0, 1, 121.65, 7722.26)">
          <g id="Rectangle_131-2" data-name="Rectangle 131" class="cls-9" transform="translate(141.46 236.44)">
            <rect class="cls-62" width="380.027" height="822.885" rx="46.002"/>
            <rect class="cls-36" x="1.885" y="1.885" width="376.256" height="819.114" rx="44.116"/>
          </g>
        </g>
        <g id="Group_261" data-name="Group 261" transform="translate(362.414 8316.944)">
          <g id="Group_3" data-name="Group 3" transform="translate(0 3.966)">
            <g id="Group_2" data-name="Group 2">
              <text id="SIGN_IN" data-name="SIGN IN" class="cls-10" transform="translate(0 14)"><tspan x="0" y="0">SIGN IN</tspan></text>
              <text id="SIGN_UP" data-name="SIGN UP" class="cls-11" transform="translate(105.394 14)"><tspan x="0" y="0">SIGN UP</tspan></text>
            </g>
          </g>
          <line id="Line_4" data-name="Line 4" class="cls-12" x2="65.871" y2="1.013" transform="translate(104.887 0)"/>
        </g>
        <g id="Group_296" data-name="Group 296" transform="translate(371.401 8181.104)">
          <text id="Welcome_to" data-name="Welcome to" class="cls-13" transform="translate(8.61 22)"><tspan x="0" y="0">Welcome to</tspan></text>
          <text id="AMPMATUER" class="cls-13" transform="translate(0 51.389)"><tspan x="0" y="0">AMPMATUER</tspan></text>
        </g>
        <g id="Group_262" data-name="Group 262" transform="translate(312.757 8376.229)">
          <g id="Rectangle_4" data-name="Rectangle 4" class="cls-14" transform="translate(0 0)">
            <rect class="cls-62" width="281.727" height="37.496" rx="9.804"/>
            <rect class="cls-36" x="0.377" y="0.377" width="280.973" height="36.742" rx="9.427"/>
          </g>
          <g id="Rectangle_13" data-name="Rectangle 13" class="cls-14" transform="translate(0 56.751)">
            <rect class="cls-62" width="281.727" height="37.496" rx="9.804"/>
            <rect class="cls-36" x="0.377" y="0.377" width="280.973" height="36.742" rx="9.427"/>
          </g>
          <g id="Rectangle_14" data-name="Rectangle 14" class="cls-14" transform="translate(0 116.542)">
            <rect class="cls-62" width="281.727" height="37.496" rx="9.804"/>
            <rect class="cls-36" x="0.377" y="0.377" width="280.973" height="36.742" rx="9.427"/>
          </g>
          <text id="Password" class="cls-15" transform="translate(12.161 78.965)"><tspan x="0" y="0">Password</tspan></text>
          <text id="Enter_Email_Address" data-name="Enter Email Address" class="cls-15" transform="translate(12.161 22.214)"><tspan x="0" y="0">Enter Email Address</tspan></text>
          <text id="Confirm_Password" data-name="Confirm Password" class="cls-15" transform="translate(12.161 138.756)"><tspan x="0" y="0">Confirm Password</tspan></text>
        </g>
        <text id="Continue" class="cls-16" transform="translate(420.783 8655.146)"><tspan x="0" y="0">Continue</tspan></text>
        <line id="Line_79" data-name="Line 79" class="cls-17" x2="89.18" transform="translate(408.524 8664.542)"/>
        <text id="Forgot_Password" data-name="Forgot Password" class="cls-18" transform="translate(401.862 8693.851)"><tspan x="0" y="0">Forgot Password</tspan></text>
        <line id="Line_80" data-name="Line 80" class="cls-19" x2="142.89" transform="translate(382.175 8679.743)"/>
        <g class="cls-73" transform="matrix(1, 0, 0, 1, 121.65, 7722.26)">
          <g id="Rectangle_132-2" data-name="Rectangle 132" class="cls-9" transform="translate(559.99 236.44)">
            <rect class="cls-62" width="380.027" height="822.885" rx="46.002"/>
            <rect class="cls-36" x="1.885" y="1.885" width="376.256" height="819.114" rx="44.116"/>
          </g>
        </g>
        <g id="Group_263" data-name="Group 263" transform="translate(744.974 8197.319)">
          <text id="Lets_Get_Started_" data-name="Lets Get Started!" class="cls-13" transform="translate(25.218 22)"><tspan x="0" y="0">Lets Get Started!</tspan></text>
          <g id="Rectangle_17" data-name="Rectangle 17" class="cls-20" transform="translate(0 223.333)">
            <rect class="cls-62" width="253.351" height="51.684" rx="9.804"/>
            <rect class="cls-36" x="0.377" y="0.377" width="252.597" height="50.93" rx="9.427"/>
          </g>
          <g id="Rectangle_18" data-name="Rectangle 18" class="cls-21" transform="translate(0 298.998)">
            <rect class="cls-62" width="253.351" height="51.684" rx="9.804"/>
            <rect class="cls-36" x="0.377" y="0.377" width="252.597" height="50.93" rx="9.427"/>
          </g>
          <g id="Rectangle_19" data-name="Rectangle 19" class="cls-22" transform="translate(0 144.937)">
            <rect class="cls-62" width="253.351" height="51.684" rx="9.804"/>
            <rect class="cls-36" x="0.377" y="0.377" width="252.597" height="50.93" rx="9.427"/>
          </g>
          <text id="DISCOVERING" class="cls-23" transform="translate(74.992 254.367)"><tspan x="0" y="0">DISCOVERING</tspan></text>
          <text id="TUNING" class="cls-24" transform="translate(97.287 175.757)"><tspan x="0" y="0">TUNING</tspan></text>
          <text id="SHARING" class="cls-25" transform="translate(92.22 329.631)"><tspan x="0" y="0">SHARING</tspan></text>
        </g>
        <g class="cls-72" transform="matrix(1, 0, 0, 1, 121.65, 7722.26)">
          <g id="Rectangle_133-2" data-name="Rectangle 133" class="cls-9" transform="translate(1392 1097.84)">
            <rect class="cls-62" width="380.027" height="822.885" rx="46.002"/>
            <rect class="cls-36" x="1.885" y="1.885" width="376.256" height="819.114" rx="44.116"/>
          </g>
        </g>
        <g class="cls-71" transform="matrix(1, 0, 0, 1, 121.65, 7722.26)">
          <g id="Rectangle_134-2" data-name="Rectangle 134" class="cls-9" transform="translate(1390.98 236.44)">
            <rect class="cls-62" width="380.027" height="822.885" rx="46.002"/>
            <rect class="cls-36" x="1.885" y="1.885" width="376.256" height="819.114" rx="44.116"/>
          </g>
        </g>
        <g class="cls-70" transform="matrix(1, 0, 0, 1, 121.65, 7722.26)">
          <g id="Rectangle_135-2" data-name="Rectangle 135" class="cls-9" transform="translate(975.49 236.44)">
            <rect class="cls-62" width="380.027" height="822.885" rx="46.002"/>
            <rect class="cls-36" x="1.885" y="1.885" width="376.256" height="819.114" rx="44.116"/>
          </g>
        </g>
        <g class="cls-69" transform="matrix(1, 0, 0, 1, 121.65, 7722.26)">
          <g id="Rectangle_136-2" data-name="Rectangle 136" class="cls-9" transform="translate(975.49 1097.84)">
            <rect class="cls-62" width="380.027" height="822.885" rx="46.002"/>
            <rect class="cls-36" x="1.885" y="1.885" width="376.256" height="819.114" rx="44.116"/>
          </g>
        </g>
        <g class="cls-68" transform="matrix(1, 0, 0, 1, 121.65, 7722.26)">
          <g id="Rectangle_137-2" data-name="Rectangle 137" class="cls-9" transform="translate(559.99 1097.84)">
            <rect class="cls-62" width="380.027" height="822.885" rx="46.002"/>
            <rect class="cls-36" x="1.885" y="1.885" width="376.256" height="819.114" rx="44.116"/>
          </g>
        </g>
        <g id="Group_264" data-name="Group 264" transform="translate(1160.47 8197.319)">
          <text id="Lets_Get_Started_2" data-name="Lets Get Started!" class="cls-13" transform="translate(25.218 22)"><tspan x="0" y="0">Lets Get Started!</tspan></text>
          <g id="Rectangle_17-2" data-name="Rectangle 17" class="cls-26" transform="translate(0 223.333)">
            <rect class="cls-62" width="253.351" height="51.684" rx="9.804"/>
            <rect class="cls-36" x="0.377" y="0.377" width="252.597" height="50.93" rx="9.427"/>
          </g>
          <g id="Rectangle_18-2" data-name="Rectangle 18" class="cls-27" transform="translate(0 298.998)">
            <rect class="cls-62" width="253.351" height="51.684" rx="9.804"/>
            <rect class="cls-36" x="0.377" y="0.377" width="252.597" height="50.93" rx="9.427"/>
          </g>
          <g id="Rectangle_19-2" data-name="Rectangle 19" class="cls-28" transform="translate(0 144.936)">
            <rect class="cls-62" width="253.351" height="51.684" rx="9.804"/>
            <rect class="cls-36" x="0.377" y="0.377" width="252.597" height="50.93" rx="9.427"/>
          </g>
          <text id="TUNING-2" data-name="TUNING" class="cls-24" transform="translate(97.287 175.757)"><tspan x="0" y="0">TUNING</tspan></text>
          <text id="SHARING-2" data-name="SHARING" class="cls-29" transform="translate(92.22 329.631)"><tspan x="0" y="0">SHARING</tspan></text>
          <text id="DISCOVERING-2" data-name="DISCOVERING" class="cls-23" transform="translate(74.992 254.368)"><tspan x="0" y="0">DISCOVERING</tspan></text>
        </g>
        <g id="Group_265" data-name="Group 265" transform="translate(1549.306 8067.603)">
          <g id="Group_297" data-name="Group 297" transform="translate(0 0)">
            <text id="What_Instrument_to_you_" data-name="What Instrument to you " class="cls-13" transform="translate(0 22)"><tspan x="0" y="0">What Instrument to you </tspan></text>
            <text id="want_to_play_" data-name="want to play?" class="cls-13" transform="translate(65.267 51.389)"><tspan x="0" y="0">want to play?</tspan></text>
          </g>
          <g id="Group_216" data-name="Group 216" transform="translate(4.366 101.384)">
            <circle id="Ellipse_5" data-name="Ellipse 5" class="cls-30" cx="59.791" cy="59.791" r="59.791" transform="translate(0 0)"/>
            <g id="Group_7" data-name="Group 7" transform="translate(29.51 20.523)">
              <g id="Group_6" data-name="Group 6" transform="translate(0 0)">
                <path id="Path_1" data-name="Path 1" d="M1231.775-1067.221q.541-23.769,1.077-47.537.683-32.349,1.291-64.7a33.987,33.987,0,0,0-.35-7.682,24.936,24.936,0,0,0-2.888-7.218c-1.7-2.909-3.908-5.523-5.808-8.325a5.346,5.346,0,0,1-.364-1.978c-.091-.532-.193-1.062-.292-1.593l-.543-.055a14.865,14.865,0,0,0-.654,1.536c-.709,2.331-2.075,3.132-4.445,2.593a2.23,2.23,0,0,1-1.991-1.976,30.365,30.365,0,0,1-.045-5.588,2.657,2.657,0,0,1,.849-1.953,2.657,2.657,0,0,1,2.01-.7,3.272,3.272,0,0,1,3.674,2.616c.159.54.6,1.379.956,1.4.883.061,1.179-.75,1.21-1.552.154-4.1.311-8.2.405-12.3.009-.378-.405-.765-.63-1.149a11.118,11.118,0,0,0-1.252.943c-.155.152-.151.491-.175.751-.264,2.736-2.367,3.028-4.3,2.635a2.553,2.553,0,0,1-1.6-1.357,10.924,10.924,0,0,1-.027-7.446c.519-1.609,1.925-1.52,3.265-1.472,1.172.047,2.164.3,2.472,1.656a3.815,3.815,0,0,0,.526,1.458c.25.325.776.44,1.178.648.17-.372.507-.755.485-1.115-.227-3.394-.507-6.79-.791-10.176a32.024,32.024,0,0,0-.449-3.633c-.079-.389-.656-1.007-.895-.96a1.937,1.937,0,0,0-1.123.942c-.284.519-.249,1.206-.513,1.742-.745,1.514-2.137,1.559-3.588,1.487-1.263-.062-1.765-.847-2.2-1.9a9.2,9.2,0,0,1,.405-7.489c.086-.2.213-.507.352-.525a11.632,11.632,0,0,1,3.659-.278c.666.138,1.242,1.206,1.644,1.97.369.7.049,2.12,1.284,1.845,1.328-.3.4-1.419.252-2.167-.465-2.438-.926-4.88-1.5-7.3-.507-2.158-1.166-4.281-1.762-6.417-.164-.588-.38-1.163-.515-1.757-.279-1.232.041-1.723,1.29-1.871,1.732-.2,3.47-.4,5.21-.495a14.98,14.98,0,0,0,8.04-3.108,18.4,18.4,0,0,1,2.692-1.582c2.05-1,4.054-.458,6.081.2a3.72,3.72,0,0,0,2.313.008,8.555,8.555,0,0,1,8.969,1.256,15.563,15.563,0,0,0,9.173,3.328c1.436.063,2.869.232,4.3.4,1.336.157,1.687.709,1.255,1.943a74.16,74.16,0,0,0-3.431,13.525c-.161,1.075-.552,2.115-.715,3.19a8.132,8.132,0,0,0,.141,1.842,1.9,1.9,0,0,0,1.776-1.748c.406-1.98.912-2.294,3.271-2.218,1.889.061,2.6.565,2.745,2.432a33.72,33.72,0,0,1-.042,5.588,2.433,2.433,0,0,1-.791,1.748,2.434,2.434,0,0,1-1.812.63c-2.219.047-2.984-.443-3.441-2.2a2.434,2.434,0,0,0-.195-.756c-.359-.523-.78-1-1.177-1.5-.405.5-1.092.961-1.163,1.5-.322,2.463-.507,4.945-.671,7.426-.117,1.824-.167,3.665-.135,5.5.008.474.442.939.679,1.411.268-.405.547-.793.795-1.206a2.245,2.245,0,0,0,.134-.507c.719-2.385,2.424-3.337,4.783-2.5a2.571,2.571,0,0,1,1.373,1.458,10.351,10.351,0,0,1-.149,7.288c-.75,1.8-2.322,1.528-3.8,1.419-1.411-.106-1.763-1.255-2.151-2.315-.146-.4-.047-.894-.211-1.281-.129-.3-.492-.709-.748-.709a1.069,1.069,0,0,0-.737.709,8.436,8.436,0,0,0-.094,1.956q.184,5.825.405,11.649c.027.723-.074,1.558,1.013,1.668,1.115.111,1.1-.7,1.249-1.439a3.068,3.068,0,0,1,3.081-2.669c1.768-.1,2.939.537,3.344,2.253a9.758,9.758,0,0,1-.3,6.418c-.651,1.442-1.476,1.849-3.268,1.656a2.773,2.773,0,0,1-2.848-2.391c-.127-.557-.3-1.1-.454-1.655l-.369-.036a9.99,9.99,0,0,0-.587.9,24.624,24.624,0,0,1-1.248,2.485c-2.009,2.993-4.266,5.835-6.068,8.945a18.239,18.239,0,0,0-2.588,9.476q.573,34.71,1.193,69.418c.27,14.8.6,29.6.9,44.4.015.741.063,1.483.1,2.224Z" transform="translate(-1215.641 1268.891)"/>
              </g>
              <path id="Path_2" data-name="Path 2" class="cls-31" d="M1226.589-1204.98c.009-.378-.405-.766-.63-1.149a11.046,11.046,0,0,0-1.252.942c-.156.152-.151.492-.176.751-.263,2.736-2.367,3.028-4.3,2.635a2.549,2.549,0,0,1-1.6-1.356,10.926,10.926,0,0,1-.028-7.448c.519-1.609,1.926-1.52,3.265-1.47,1.173.047,2.164.3,2.472,1.656a3.8,3.8,0,0,0,.526,1.458c.25.326.775.439,1.178.647.17-.372.507-.755.486-1.115Z" transform="translate(-1216.353 1251.614)"/>
            </g>
          </g>
          <g id="Group_217" data-name="Group 217" transform="translate(153.336 101.384)">
            <circle id="Ellipse_5-2" data-name="Ellipse 5" class="cls-30" cx="59.791" cy="59.791" r="59.791" transform="translate(17.228 0)"/>
            <path id="Path_1104" data-name="Path 1104" class="cls-32" d="M254.045,305.653l1.57,7.151c1.809,8.24,11.421,12.776,19.375,10.98a14.391,14.391,0,0,0,8.958-5.447c1.837-2.432,2.973-5.316,4.9-7.685a12.106,12.106,0,0,1,2.781-2.543,4.091,4.091,0,0,1,2.128-.692c3.863-.133,6.075,4.78,6.816,7.891a26.737,26.737,0,0,1-1.994,16.81c-1.949,4.353-5.08,8.119-7.591,12.154-2.724,4.377-4.439,8.625-4.379,13.866.047,3.917,2.566,7.736,4.872,10.729,3.446,4.465,7.505,8.6,11.191,12.881,9.75,11.334,16.668,22.924,16.668,38.374a64.632,64.632,0,0,1-19.332,46.049c-15.175,14.934-35.8,20.978-56.719,20.978-21.375,0-42.23-6.61-57.878-21.554-12.329-11.777-20.526-28.242-20.526-45.474,0-14.874,6.715-26.525,15.84-37.7,3.547-4.346,7.43-8.5,10.843-12.939,2.154-2.8,4.823-6.637,5.091-10.269a16.325,16.325,0,0,0-2.533-10.337c-1.83-3.034-4.115-5.692-5.85-8.827a27.17,27.17,0,0,1-3.391-13.67c0-8.292,2.5-15.785,9.065-21.144,9.193-7.509,23.438-8.479,34.839-8.5h.007l2.184-187.019h0c.006-3.047-4.256-10.468-9.177-13.815a1.427,1.427,0,0,1-.732-1.849q.422-1.484.811-2.964h-2.4v1.765c0,1.12-.523,1.765-1.686,1.765a5.168,5.168,0,1,1,0-10.329c1.162,0,1.686.646,1.686,1.765v1.84H222.7c1.29-5.241,2.331-10.446,3.165-15.644h-2.731V74.02c0,1.115-.523,1.765-1.686,1.765a5.168,5.168,0,0,1,0-10.331c1.162,0,1.686.646,1.686,1.766v1.847h3.215c.852-5.868,1.459-11.726,1.892-17.612h-2.7v1.765c0,1.12-.523,1.765-1.684,1.765a5.168,5.168,0,1,1,0-10.329c1.161,0,1.684.647,1.684,1.765v1.84h2.918c.264-4.2.447-8.416.572-12.668.023-.858-.118-1.392.741-1.358l2.363.1a2.492,2.492,0,0,1,1.141.275l1.893,1.1a2.483,2.483,0,0,0,1.341.349h9.739a2.485,2.485,0,0,0,1.342-.349l1.889-1.093a2.492,2.492,0,0,1,1.141-.275l2.362-.1c.86-.033.719.5.744,1.358.124,4.246.3,8.464.569,12.668h2.918V46.424c0-1.115.523-1.765,1.686-1.765a5.168,5.168,0,1,1,0,10.329c-1.162,0-1.686-.646-1.686-1.765V51.456h-2.7c.431,5.885,1.039,11.744,1.89,17.612h3.219V67.23c0-1.12.523-1.766,1.686-1.766a5.168,5.168,0,1,1,0,10.331c-1.162,0-1.686-.647-1.686-1.765v-1.77h-2.729c.835,5.2,1.874,10.4,3.163,15.644h3.207V86.061c0-1.12.522-1.763,1.686-1.763a5.168,5.168,0,0,1,0,10.329c-1.164,0-1.686-.647-1.686-1.766v-1.77h-2.394q.392,1.478.811,2.966a1.426,1.426,0,0,1-.731,1.847c-4.92,3.344-9.185,10.768-9.179,13.815Z" transform="translate(-164.888 -10.933)"/>
          </g>
          <g id="Group_218" data-name="Group 218" transform="translate(4.366 297.985)">
            <circle id="Ellipse_5-3" data-name="Ellipse 5" class="cls-30" cx="59.791" cy="59.791" r="59.791" transform="translate(0 0)"/>
          </g>
          <g id="Group_219" data-name="Group 219" transform="translate(170.564 303.052)">
            <circle id="Ellipse_5-4" data-name="Ellipse 5" class="cls-30" cx="59.791" cy="59.791" r="59.791" transform="translate(0 0)"/>
          </g>
          <g id="Group_225" data-name="Group 225" transform="translate(38.003 323.315)">
            <path id="Path_1114" data-name="Path 1114" class="cls-32" d="M-54.028,230.2l.042-3.04c.087-6.306-7.6-8.565-7.811-14.432l-1.468-41.1c-.507-14.268,33.838-14.371,33.128,0l-1.468,41.1c-.211,5.865-7.885,7.777-7.811,14.086l.042,3.384-6.871,7.6Z" transform="translate(72.913 -160.887)"/>
            <path id="Path_1115" data-name="Path 1115" class="cls-32" d="M-60.9,373.469h25.3l-5.323-170.59H-55.575Z" transform="translate(74.458 -133.567)"/>
            <path id="Path_1116" data-name="Path 1116" class="cls-32" d="M-35.754,172.42a9.121,9.121,0,0,1,0,8.4l-3.576.654a6.771,6.771,0,0,1-2.051-4.855,6.77,6.77,0,0,1,2.051-4.855Z" transform="translate(87.155 -153.807)"/>
            <path id="Path_1117" data-name="Path 1117" class="cls-32" d="M-44.457,173.524l7.206.714v2.474l-7.206.716Z" transform="translate(85.154 -152.665)"/>
            <path id="Path_1118" data-name="Path 1118" class="cls-32" d="M-35.754,182.928a9.121,9.121,0,0,1,0,8.4l-3.576.653a6.771,6.771,0,0,1-2.051-4.855,6.772,6.772,0,0,1,2.051-4.855Z" transform="translate(87.155 -146.973)"/>
            <path id="Path_1119" data-name="Path 1119" class="cls-32" d="M-44.457,184.033l7.206.714v2.474l-7.206.714Z" transform="translate(85.154 -145.828)"/>
            <path id="Path_1120" data-name="Path 1120" class="cls-32" d="M-68.087,172.42a9.121,9.121,0,0,0,0,8.4l3.577.654a6.769,6.769,0,0,0,2.052-4.855,6.768,6.768,0,0,0-2.052-4.855Z" transform="translate(69.113 -153.807)"/>
            <path id="Path_1121" data-name="Path 1121" class="cls-32" d="M-59.165,173.524l-7.206.714v2.474l7.206.716Z" transform="translate(70.896 -152.665)"/>
            <path id="Path_1122" data-name="Path 1122" class="cls-32" d="M-68.087,182.928a9.121,9.121,0,0,0,0,8.4l3.577.653a6.77,6.77,0,0,0,2.052-4.855,6.77,6.77,0,0,0-2.052-4.855Z" transform="translate(69.113 -146.973)"/>
            <path id="Path_1123" data-name="Path 1123" class="cls-32" d="M-59.165,184.033l-7.206.714v2.474l7.206.714Z" transform="translate(70.896 -145.828)"/>
          </g>
          <g id="Group_226" data-name="Group 226" transform="translate(208.873 323.572)">
            <path id="Path_1124" data-name="Path 1124" class="cls-32" d="M411.415,275.583h24.564L433.849,67.192H414Z" transform="translate(-400.533 18.165)"/>
            <path id="Path_1125" data-name="Path 1125" class="cls-32" d="M417.733,110.526,409.408,97.3c-3.6-5.717,12.894-57.907,21.015-70.756,2.26-3.574,6.356-5.527,8.187-1.044l5.727,14.021c1.553,3.805-7.435,11.019-3.919,25.3l5.552,22.523c1.013,4.116-4.244,6.2-7.019,11.425s-2.776,8.161-2.939,12.894S419.2,116.566,417.733,110.526Z" transform="translate(-402.863 -22.904)"/>
            <rect id="Rectangle_112" data-name="Rectangle 112" width="2.848" height="6.112" transform="matrix(0.306, -0.952, 0.952, 0.306, 17.985, 14.676)"/>
            <path id="Path_1126" data-name="Path 1126" class="cls-32" d="M416.843,35.93a8.057,8.057,0,0,0,2.44-7.384L416.1,27.523c-.988.192-3.282,2.229-2.55,7.3Z" transform="translate(-398.688 -18.622)"/>
            <rect id="Rectangle_113" data-name="Rectangle 113" width="2.849" height="6.113" transform="translate(14.069 25.186) rotate(-72.191)"/>
            <path id="Path_1127" data-name="Path 1127" class="cls-32" d="M414.81,41.383A8.065,8.065,0,0,0,417.253,34l-3.19-1.027c-.985.191-3.279,2.229-2.547,7.29Z" transform="translate(-400.571 -13.565)"/>
            <rect id="Rectangle_114" data-name="Rectangle 114" width="2.848" height="6.113" transform="matrix(0.306, -0.952, 0.952, 0.306, 10.638, 35.715)"/>
            <path id="Path_1128" data-name="Path 1128" class="cls-32" d="M413.029,46.844a8.054,8.054,0,0,0,2.442-7.381l-3.189-1.025c-.987.191-3.279,2.229-2.547,7.3Z" transform="translate(-402.222 -8.498)"/>
            <rect id="Rectangle_115" data-name="Rectangle 115" width="2.848" height="6.113" transform="matrix(0.306, -0.952, 0.952, 0.306, 7.495, 46.443)"/>
            <path id="Path_1129" data-name="Path 1129" class="cls-32" d="M411.4,52.412a8.06,8.06,0,0,0,2.44-7.381L410.653,44c-.988.192-3.281,2.229-2.547,7.3Z" transform="translate(-403.734 -3.338)"/>
            <rect id="Rectangle_116" data-name="Rectangle 116" width="2.848" height="6.113" transform="matrix(0.306, -0.952, 0.952, 0.306, 4.86, 56.898)"/>
            <path id="Path_1130" data-name="Path 1130" class="cls-32" d="M410.033,57.835a8.061,8.061,0,0,0,2.441-7.381l-3.187-1.025c-.988.191-3.281,2.229-2.55,7.29Z" transform="translate(-405.002 1.694)"/>
            <rect id="Rectangle_117" data-name="Rectangle 117" width="2.849" height="6.113" transform="translate(3.265 68.163) rotate(-72.192)"/>
            <path id="Path_1131" data-name="Path 1131" class="cls-32" d="M409.2,63.678a8.052,8.052,0,0,0,2.44-7.381l-3.187-1.02c-.988.191-3.279,2.229-2.547,7.29Z" transform="translate(-405.768 7.114)"/>
          </g>
          <circle id="Ellipse_5-5" data-name="Ellipse 5" class="cls-30" cx="59.791" cy="59.791" r="59.791" transform="translate(1.325 504.72)"/>
          <circle id="Ellipse_5-6" data-name="Ellipse 5" class="cls-30" cx="59.791" cy="59.791" r="59.791" transform="translate(168.031 504.72)"/>
          <path id="Path_1132" data-name="Path 1132" class="cls-32" d="M536.261,94.373h-.019c0-1.7-1.187-3.895-2.5-5.5-2.072-2.52-1.107-5.4-.25-7.4l.924-2.162-1.7-.729c-.507.857-1.152,1.513-1.769,1.574l-2.318-.994c-1.832-1.633,0-5.838,2.418-5.652l2.321.994a2.6,2.6,0,0,1,.151,2.091l1.743.747,3.04-7.107-1.7-.729c-.507.857-1.152,1.513-1.769,1.574l-2.318-.991c-1.832-1.633,0-5.841,2.418-5.654l2.321.992a2.616,2.616,0,0,1,.154,2.091l1.741.746,3.04-7.1-1.7-.728c-.507.856-1.152,1.513-1.769,1.573l-2.318-.992c-1.831-1.633,0-5.839,2.421-5.652l2.318.991a2.617,2.617,0,0,1,.154,2.091l1.741.746,3.04-7.1-1.7-.729c-.507.857-1.152,1.513-1.771,1.573l-2.317-.992c-1.831-1.633,0-5.839,2.421-5.652l2.318.991a2.618,2.618,0,0,1,.151,2.093l1.743.744,3.04-7.1-1.7-.729c-.507.859-1.152,1.513-1.771,1.576l-2.318-.994c-1.829-1.634,0-5.841,2.421-5.655l2.318.992a2.616,2.616,0,0,1,.156,2.093l1.74.746,3.04-7.1-1.7-.728c-.507.857-1.152,1.513-1.769,1.573l-2.319-.991c-1.829-1.636,0-5.839,2.421-5.655l2.318.992a2.623,2.623,0,0,1,.155,2.092l1.739.746,1.811-4.228c1.377-3.222,5.979-6.439,9.006-7.67,4.78-1.946,5.555.239,4.818,3.4-2.242,9.594-4.841,25.5-3.177,48.391a6.158,6.158,0,0,1-3.648,6.492c-7.867,3.835-11.993,12.966-12,16.012h-.016S516.779,340.151,536.261,94.373Z" transform="translate(-485.175 505.959)"/>
          <g id="Group_242" data-name="Group 242" transform="translate(206.54 528.986)">
            <path id="Path_1133" data-name="Path 1133" class="cls-32" d="M306.607,104.67l.038-2.8c.081-5.816-7.01-7.9-7.2-13.307l-1.354-37.9c-.469-13.156,31.2-13.251,30.547,0l-1.354,37.9c-.2,5.408-7.272,7.171-7.2,12.987l.04,3.119-6.337,7Z" transform="translate(-289.193 -40.76)"/>
            <path id="Path_1134" data-name="Path 1134" class="cls-32" d="M300.459,154.92h23.329l-4.906-72.168H305.368Z" transform="translate(-287.954 -18.842)"/>
            <g id="Group_241" data-name="Group 241" transform="translate(0 9.675)">
              <path id="Path_1135" data-name="Path 1135" class="cls-32" d="M325.163,47.718a8.4,8.4,0,0,1,0,7.75l-3.3.6a6.245,6.245,0,0,1,0-8.953Z" transform="translate(-277.767 -47.117)"/>
              <path id="Path_1136" data-name="Path 1136" class="cls-32" d="M316.9,48.876l6.645.659v2.281l-6.645.66Z" transform="translate(-279.373 -46.199)"/>
              <path id="Path_1137" data-name="Path 1137" class="cls-32" d="M325.163,56.743a8.4,8.4,0,0,1,0,7.75l-3.3.6a6.245,6.245,0,0,1,0-8.953Z" transform="translate(-277.767 -42.407)"/>
              <path id="Path_1138" data-name="Path 1138" class="cls-32" d="M316.9,57.9l6.645.659v2.281L316.9,61.5Z" transform="translate(-279.373 -41.488)"/>
              <path id="Path_1139" data-name="Path 1139" class="cls-32" d="M325.163,65.763a8.4,8.4,0,0,1,0,7.75l-3.3.6a6.245,6.245,0,0,1,0-8.953Z" transform="translate(-277.767 -37.697)"/>
              <path id="Path_1140" data-name="Path 1140" class="cls-32" d="M316.9,66.923l6.645.659v2.281l-6.645.659Z" transform="translate(-279.373 -36.778)"/>
              <path id="Path_1141" data-name="Path 1141" class="cls-32" d="M293.189,47.718a8.4,8.4,0,0,0,0,7.75l3.3.6a6.243,6.243,0,0,0,0-8.953Z" transform="translate(-292.242 -47.117)"/>
              <path id="Path_1142" data-name="Path 1142" class="cls-32" d="M301.629,48.876l-6.645.659v2.281l6.645.66Z" transform="translate(-290.811 -46.199)"/>
              <path id="Path_1143" data-name="Path 1143" class="cls-32" d="M293.189,56.743a8.4,8.4,0,0,0,0,7.75l3.3.6a6.243,6.243,0,0,0,0-8.953Z" transform="translate(-292.242 -42.407)"/>
              <path id="Path_1144" data-name="Path 1144" class="cls-32" d="M301.629,57.9l-6.645.659v2.281l6.645.659Z" transform="translate(-290.811 -41.488)"/>
              <path id="Path_1145" data-name="Path 1145" class="cls-32" d="M293.189,65.763a8.4,8.4,0,0,0,0,7.75l3.3.6a6.243,6.243,0,0,0,0-8.953Z" transform="translate(-292.242 -37.697)"/>
              <path id="Path_1146" data-name="Path 1146" class="cls-32" d="M301.629,66.923l-6.645.659v2.281l6.645.659Z" transform="translate(-290.811 -36.778)"/>
            </g>
          </g>
        </g>
        <g class="cls-67" transform="matrix(1, 0, 0, 1, 121.65, 7722.26)">
          <g id="Rectangle_138-2" data-name="Rectangle 138" class="cls-9" transform="translate(141.46 1097.84)">
            <rect class="cls-62" width="380.027" height="822.885" rx="46.002"/>
            <rect class="cls-36" x="1.885" y="1.885" width="376.256" height="819.114" rx="44.116"/>
          </g>
        </g>
        <g id="Group_266" data-name="Group 266" transform="translate(306.677 8918.396)">
          <path id="Icon_ionic-ios-arrow-back" data-name="Icon ionic-ios-arrow-back" class="cls-33" d="M12.609,16.636l9.057-9.05a1.711,1.711,0,0,0-2.423-2.416L8.982,15.42a1.708,1.708,0,0,0-.05,2.358l10.3,10.33a1.711,1.711,0,0,0,2.423-2.416Z" transform="translate(-8.484 -4.668)"/>
          <text id="Can_t_Recognise" data-name="Can’t Recognise" class="cls-34" transform="translate(81.903 580.586)"><tspan x="0" y="0">Can’t Recognise</tspan></text>
          <g id="Group_255" data-name="Group 255" transform="translate(45.604 185.457)">
            <g id="Component_1_8" data-name="Component 1 – 8" class="cls-35" transform="translate(25.335 30.401)">
              <circle id="Ellipse_4" data-name="Ellipse 4" class="cls-36" cx="77.019" cy="77.019" r="77.019" transform="translate(0 0)"/>
            </g>
            <text id="A" class="cls-37" transform="translate(93.248 109.592)"><tspan x="0" y="0">A</tspan></text>
            <g id="Ellipse_3" data-name="Ellipse 3" class="cls-38" transform="translate(0 0)">
              <ellipse class="cls-62" cx="102.354" cy="102.861" rx="102.354" ry="102.861"/>
              <ellipse class="cls-36" cx="102.354" cy="102.861" rx="101.6" ry="102.107"/>
            </g>
          </g>
          <text id="My_Discovered" data-name="My Discovered" class="cls-39" transform="translate(201.667 17.82)"><tspan x="0" y="0">My Discovered</tspan></text>
        </g>
        <g id="Group_269" data-name="Group 269" transform="translate(1560.26 8918.396)">
          <path id="Icon_ionic-ios-arrow-back-2" data-name="Icon ionic-ios-arrow-back" class="cls-33" d="M12.609,16.636l9.057-9.05a1.711,1.711,0,0,0-2.423-2.416L8.982,15.42a1.708,1.708,0,0,0-.05,2.358l10.3,10.33a1.711,1.711,0,0,0,2.423-2.416Z" transform="translate(-8.484 -4.668)"/>
          <text id="Arctic_Monkeys_" data-name="Arctic Monkeys " class="cls-40" transform="translate(66.231 530.228)"><tspan x="0" y="0">Arctic Monkeys</tspan></text>
          <g id="Group_259" data-name="Group 259" transform="translate(41.549 183.43)">
            <g id="Group_231" data-name="Group 231" transform="translate(0 0)">
              <g id="Ellipse_3-2" data-name="Ellipse 3" class="cls-41" transform="translate(0 0)">
                <ellipse class="cls-62" cx="102.354" cy="102.861" rx="102.354" ry="102.861"/>
                <ellipse class="cls-36" cx="102.354" cy="102.861" rx="101.6" ry="102.107"/>
              </g>
              <text id="A-2" data-name="A" class="cls-37" transform="translate(90.881 109.942)"><tspan x="0" y="0">A</tspan></text>
            </g>
          </g>
          <text id="Fireside" class="cls-42" transform="translate(115.131 551.529)"><tspan x="0" y="0">Fireside</tspan></text>
          <g id="Rectangle_131-3" data-name="Rectangle 131" class="cls-43" transform="translate(54.724 604.983)">
            <rect class="cls-62" width="178.359" height="35.469" rx="9.804"/>
            <rect class="cls-36" x="0.377" y="0.377" width="177.605" height="34.715" rx="9.427"/>
          </g>
          <text id="LEARN" class="cls-34" transform="translate(119.581 626.682)"><tspan x="0" y="0">LEARN</tspan></text>
          <text id="My_Discovered-2" data-name="My Discovered" class="cls-39" transform="translate(197.613 15.794)"><tspan x="0" y="0">My Discovered</tspan></text>
        </g>
        <g class="cls-66" transform="matrix(1, 0, 0, 1, 121.65, 7722.26)">
          <g id="Rectangle_139-2" data-name="Rectangle 139" class="cls-9" transform="translate(1390.98 1959.23)">
            <rect class="cls-62" width="380.027" height="822.885" rx="46.002"/>
            <rect class="cls-36" x="1.885" y="1.885" width="376.256" height="819.114" rx="44.116"/>
          </g>
        </g>
        <g class="cls-65" transform="matrix(1, 0, 0, 1, 121.65, 7722.26)">
          <g id="Rectangle_140-2" data-name="Rectangle 140" class="cls-9" transform="translate(975.49 1959.23)">
            <rect class="cls-62" width="380.027" height="822.885" rx="46.002"/>
            <rect class="cls-36" x="1.885" y="1.885" width="376.256" height="819.114" rx="44.116"/>
          </g>
        </g>
        <g class="cls-64" transform="matrix(1, 0, 0, 1, 121.65, 7722.26)">
          <g id="Rectangle_141-2" data-name="Rectangle 141" class="cls-9" transform="translate(559.99 1959.23)">
            <rect class="cls-62" width="380.027" height="822.885" rx="46.002"/>
            <rect class="cls-36" x="1.885" y="1.885" width="376.256" height="819.114" rx="44.116"/>
          </g>
        </g>
        <g class="cls-63" transform="matrix(1, 0, 0, 1, 121.65, 7722.26)">
          <g id="Rectangle_142-2" data-name="Rectangle 142" class="cls-9" transform="translate(141.46 1959.23)">
            <rect class="cls-62" width="380.027" height="822.885" rx="46.002"/>
            <rect class="cls-36" x="1.885" y="1.885" width="376.256" height="819.114" rx="44.116"/>
          </g>
        </g>
        <g id="Group_281" data-name="Group 281" transform="translate(724.2 8918.396)">
          <path id="Icon_ionic-ios-arrow-back-3" data-name="Icon ionic-ios-arrow-back" class="cls-33" d="M12.609,16.636l9.057-9.05a1.711,1.711,0,0,0-2.423-2.416L8.982,15.42a1.708,1.708,0,0,0-.05,2.358l10.3,10.33a1.711,1.711,0,0,0,2.423-2.416Z" transform="translate(-8.484 -4.668)"/>
          <g id="Group_267" data-name="Group 267" transform="translate(42.563 185.456)">
            <g id="Component_1_9" data-name="Component 1 – 9" class="cls-35" transform="translate(25.335 25.334)">
              <circle id="Ellipse_4-2" data-name="Ellipse 4" class="cls-44" cx="77.019" cy="77.019" r="77.019" transform="translate(0 0)"/>
            </g>
            <text id="A-3" data-name="A" class="cls-37" transform="translate(92.909 109.942)"><tspan x="0" y="0">A</tspan></text>
            <g id="Ellipse_3-3" data-name="Ellipse 3" class="cls-38" transform="translate(0 0)">
              <ellipse class="cls-62" cx="102.354" cy="102.861" rx="102.354" ry="102.861"/>
              <ellipse class="cls-36" cx="102.354" cy="102.861" rx="101.6" ry="102.107"/>
            </g>
          </g>
          <text id="My_Discovered-3" data-name="My Discovered" class="cls-39" transform="translate(198.627 17.82)"><tspan x="0" y="0">My Discovered</tspan></text>
          <text id="DISCOVERING-3" data-name="DISCOVERING" class="cls-34" transform="translate(85.81 580.586)"><tspan x="0" y="0">DISCOVERING</tspan></text>
        </g>
        <g id="Group_278" data-name="Group 278" transform="translate(1142.737 8918.396)">
          <path id="Icon_ionic-ios-arrow-back-4" data-name="Icon ionic-ios-arrow-back" class="cls-33" d="M12.609,16.636l9.057-9.05a1.711,1.711,0,0,0-2.423-2.416L8.982,15.42a1.708,1.708,0,0,0-.05,2.358l10.3,10.33a1.711,1.711,0,0,0,2.423-2.416Z" transform="translate(-8.484 -4.668)"/>
          <g id="Group_268" data-name="Group 268" transform="translate(11.147 155.055)">
            <g id="Component_1_10" data-name="Component 1 – 10" class="cls-35" transform="translate(0 0)">
              <circle id="Ellipse_4-3" data-name="Ellipse 4" class="cls-44" cx="132.756" cy="132.756" r="132.756" transform="translate(0)"/>
            </g>
            <text id="A-4" data-name="A" class="cls-37" transform="translate(123.311 140.344)"><tspan x="0" y="0">A</tspan></text>
            <g id="Ellipse_3-4" data-name="Ellipse 3" class="cls-38" transform="translate(30.403 30.402)">
              <ellipse class="cls-62" cx="102.354" cy="102.861" rx="102.354" ry="102.861"/>
              <ellipse class="cls-36" cx="102.354" cy="102.861" rx="101.6" ry="102.107"/>
            </g>
          </g>
          <text id="My_Discovered-4" data-name="My Discovered" class="cls-39" transform="translate(197.613 17.82)"><tspan x="0" y="0">My Discovered</tspan></text>
          <text id="DISCOVERING-4" data-name="DISCOVERING" class="cls-34" transform="translate(84.797 580.586)"><tspan x="0" y="0">DISCOVERING</tspan></text>
        </g>
        <g id="Group_272" data-name="Group 272" transform="translate(723.836 9760.54)">
          <g id="Group_298" data-name="Group 298" transform="translate(87.02 506.813)">
            <text id="You_re_Flat_" data-name="You’re Flat!" class="cls-45" transform="translate(0 18)"><tspan x="0" y="0">You’re Flat!</tspan></text>
            <text id="TUNE_UP" data-name="TUNE UP" class="cls-45" transform="translate(9.051 42.321)"><tspan x="0" y="0">TUNE UP</tspan></text>
          </g>
          <text id="E" class="cls-46" transform="translate(0 661.773)"><tspan x="0" y="0">E</tspan></text>
          <text id="A-5" data-name="A" class="cls-47" transform="translate(52.163 661.773)"><tspan x="0" y="0">A</tspan></text>
          <text id="D" class="cls-46" transform="translate(104.658 661.773)"><tspan x="0" y="0">D</tspan></text>
          <text id="G" class="cls-46" transform="translate(159.973 661.773)"><tspan x="0" y="0">G</tspan></text>
          <text id="B" class="cls-46" transform="translate(214.908 661.773)"><tspan x="0" y="0">B</tspan></text>
          <text id="E-2" data-name="E" class="cls-46" transform="translate(269.567 661.773)"><tspan x="0" y="0">E</tspan></text>
          <g id="Component_1_12" data-name="Component 1 – 12" class="cls-35" transform="translate(68.263 248.285)">
            <circle id="Ellipse_4-4" data-name="Ellipse 4" class="cls-48" cx="77.019" cy="77.019" r="77.019"/>
          </g>
          <text id="A-6" data-name="A" class="cls-49" transform="translate(134.886 332.3)"><tspan x="0" y="0">A</tspan></text>
          <g id="Ellipse_39" data-name="Ellipse 39" class="cls-38" transform="translate(41.914 222.949)">
            <ellipse class="cls-62" cx="102.861" cy="102.354" rx="102.861" ry="102.354"/>
            <ellipse class="cls-36" cx="102.861" cy="102.354" rx="102.107" ry="101.6"/>
          </g>
          <path id="Icon_ionic-ios-arrow-back-5" data-name="Icon ionic-ios-arrow-back" class="cls-33" d="M12.609,16.636l9.057-9.05a1.711,1.711,0,0,0-2.423-2.416L8.982,15.42a1.708,1.708,0,0,0-.05,2.358l10.3,10.33a1.711,1.711,0,0,0,2.423-2.416Z" transform="translate(-8.12 22.69)"/>
          <g id="Group_263-2" data-name="Group 263" transform="translate(201.019)">
            <path id="Path_17" data-name="Path 17" class="cls-50" d="M47.006,0A46.965,46.965,0,1,1,3.569,29.009,46.965,46.965,0,0,1,47.006,0Z" transform="translate(0.235 0)"/>
            <g id="Group_16" data-name="Group 16" transform="translate(0)">
              <g id="Group_15" data-name="Group 15" class="cls-51">
                <path id="Path_10" data-name="Path 10" class="cls-52" d="M1656.965-1187.666a.018.018,0,0,1-.017-.018q.344-15.089.684-30.176.434-20.547.82-41.095a21.561,21.561,0,0,0-.222-4.878,15.852,15.852,0,0,0-1.835-4.585c-1.082-1.848-2.483-3.509-3.688-5.288a3.4,3.4,0,0,1-.231-1.257,1.626,1.626,0,0,0-.076-.27.427.427,0,0,0-.4-.282.427.427,0,0,0-.4.282c-.024.065-.048.13-.067.2a2.083,2.083,0,0,1-1.013,1.506,2.085,2.085,0,0,1-1.81.141,1.419,1.419,0,0,1-1.265-1.255,19.32,19.32,0,0,1-.03-3.547,1.686,1.686,0,0,1,.539-1.24,1.688,1.688,0,0,1,1.277-.446,2.078,2.078,0,0,1,2.331,1.661c.1.344.38.877.608.892.561.038.75-.476.769-.986.1-2.6.2-5.207.258-7.812a.4.4,0,0,0-.01-.09.574.574,0,0,0-.383-.38.573.573,0,0,0-.529.106,2.786,2.786,0,0,0-.277.233c-.1.1-.1.313-.111.478a1.823,1.823,0,0,1-.726,1.437,1.824,1.824,0,0,1-1.582.3,2.032,2.032,0,0,1-1.555-1.25,7.037,7.037,0,0,1,.1-4.41c.33-1.023,1.221-.968,2.075-.935.745.029,1.374.2,1.57,1.051a2.432,2.432,0,0,0,.334.926.653.653,0,0,0,.182.155.58.58,0,0,0,.529.042.579.579,0,0,0,.341-.407.35.35,0,0,0,0-.086c-.144-2.155-.32-4.31-.507-6.464a20.258,20.258,0,0,0-.285-2.308c-.051-.247-.291-.649-.685-.608-.276.03-.453.332-.6.6-.179.329-.158.766-.325,1.106-.473.962-1.357.99-2.279.944-.8-.039-1.121-.538-1.394-1.206a5.842,5.842,0,0,1,.254-4.757,1.325,1.325,0,0,1,.222-.333,1.857,1.857,0,0,1,2.324-.177,3.271,3.271,0,0,1,1.044,1.251c.235.445.031,1.347.811,1.173.844-.189.251-.9.16-1.376-.3-1.548-.589-3.1-.952-4.632-.325-1.37-.741-2.719-1.115-4.076-.1-.379-.245-.75-.33-1.133a.959.959,0,0,1,.154-.779.96.96,0,0,1,.688-.4c1.094-.129,2.191-.25,3.29-.312a9.51,9.51,0,0,0,5.107-1.974,11.653,11.653,0,0,1,1.71-1,4.926,4.926,0,0,1,3.865.127,2.359,2.359,0,0,0,1.469,0,5.433,5.433,0,0,1,5.7.8,9.888,9.888,0,0,0,5.827,2.114c.912.039,1.824.148,2.729.253.849.1,1.071.452.8,1.234a47.129,47.129,0,0,0-2.179,8.592c-.1.682-.352,1.344-.454,2.027v.011a.6.6,0,0,0,.464.673.6.6,0,0,0,.7-.414c.019-.067.035-.138.051-.21.258-1.257.578-1.457,2.078-1.409,1.2.038,1.65.359,1.742,1.544a21.335,21.335,0,0,1-.025,3.547,1.548,1.548,0,0,1-.5,1.11,1.549,1.549,0,0,1-1.151.4c-1.408.029-1.895-.281-2.184-1.4a1.554,1.554,0,0,0-.124-.479q-.091-.134-.19-.263a.742.742,0,0,0-.63-.293.742.742,0,0,0-.6.356.564.564,0,0,0-.07.2c-.227,1.734-.349,3.484-.459,5.23q-.092,1.492-.053,2.988h0a.47.47,0,0,0,.346.438.469.469,0,0,0,.52-.2c.024-.039.047-.077.071-.116a1.407,1.407,0,0,0,.085-.32,2.135,2.135,0,0,1,1.121-1.558,2.136,2.136,0,0,1,1.919-.029,1.627,1.627,0,0,1,.873.926,6.575,6.575,0,0,1-.1,4.629c-.475,1.146-1.474.971-2.412.9-.9-.068-1.121-.8-1.366-1.47-.093-.254-.03-.568-.134-.811-.082-.194-.084-.484-.476-.449a.71.71,0,0,0-.468.451,5.312,5.312,0,0,0-.06,1.242q.116,3.7.255,7.4c.017.46-.047.99.643,1.06.709.071.7-.447.793-.912a1.95,1.95,0,0,1,1.957-1.7,1.788,1.788,0,0,1,1.366.266,1.788,1.788,0,0,1,.762,1.165,6.2,6.2,0,0,1-.192,4.077c-.413.912-.937,1.174-2.076,1.052a1.762,1.762,0,0,1-1.809-1.52c-.046-.2-.1-.405-.159-.608a.635.635,0,0,0-.6-.459h0a.557.557,0,0,0-.566.486,4.93,4.93,0,0,1-.367,1.653c-1.275,1.9-2.71,3.706-3.851,5.681a11.584,11.584,0,0,0-1.644,6.019q.364,22.046.757,44.091c.171,9.4.379,18.8.572,28.2.01.465.041.929.062,1.394a.018.018,0,0,1-.005.014.018.018,0,0,1-.013.005Z" transform="translate(-1617.755 1334.071)"/>
                <path id="Path_11" data-name="Path 11" class="cls-53" d="M1654.47-1254.4a.35.35,0,0,0-.01-.09.573.573,0,0,0-.383-.379.575.575,0,0,0-.529.105,2.828,2.828,0,0,0-.277.233c-.1.1-.1.313-.112.478a1.825,1.825,0,0,1-.725,1.434,1.824,1.824,0,0,1-1.578.3,2.038,2.038,0,0,1-1.564-1.257,7.031,7.031,0,0,1,.1-4.4c.328-1.023,1.216-.968,2.073-.934.745.029,1.374.2,1.57,1.052a2.433,2.433,0,0,0,.334.926.648.648,0,0,0,.191.159.577.577,0,0,0,.523.04.577.577,0,0,0,.338-.4.337.337,0,0,0,.006-.1Z" transform="translate(-1619.038 1302.35)"/>
                <path id="Path_12" data-name="Path 12" class="cls-54" d="M1717.343-1282.353v.011a.6.6,0,0,0,.464.673.6.6,0,0,0,.7-.415c.019-.067.036-.137.05-.21.258-1.258.578-1.457,2.078-1.409,1.2.038,1.651.359,1.743,1.544a21.3,21.3,0,0,1-.026,3.547,1.547,1.547,0,0,1-.5,1.11,1.547,1.547,0,0,1-1.151.4c-1.41.03-1.9-.281-2.185-1.4a1.541,1.541,0,0,0-.124-.48q-.093-.133-.192-.262a.74.74,0,0,0-.629-.293.741.741,0,0,0-.6.356.568.568,0,0,0-.07.2" transform="translate(-1656.941 1316.182)"/>
                <path id="Path_13" data-name="Path 13" class="cls-55" d="M1715.863-1257.009h0a.468.468,0,0,0,.344.44.468.468,0,0,0,.521-.2c.024-.037.049-.077.071-.115a1.391,1.391,0,0,0,.085-.32,2.134,2.134,0,0,1,1.121-1.558,2.135,2.135,0,0,1,1.919-.028,1.634,1.634,0,0,1,.874.926,6.578,6.578,0,0,1-.095,4.629c-.476,1.146-1.475.971-2.412.9-.9-.068-1.12-.8-1.366-1.47-.093-.254-.029-.568-.134-.811-.082-.194-.084-.485-.475-.449a.709.709,0,0,0-.468.451" transform="translate(-1656.345 1302.383)"/>
                <path id="Path_14" data-name="Path 14" class="cls-55" d="M1716.2-1231.44c.017.459-.048.99.643,1.059.709.071.7-.447.792-.912a1.948,1.948,0,0,1,1.957-1.694,1.789,1.789,0,0,1,1.367.265,1.788,1.788,0,0,1,.762,1.165,6.2,6.2,0,0,1-.191,4.077c-.413.912-.937,1.174-2.075,1.052a1.761,1.761,0,0,1-1.809-1.52c-.047-.2-.1-.406-.161-.608a.635.635,0,0,0-.6-.46h0a.557.557,0,0,0-.565.486" transform="translate(-1656.546 1287.879)"/>
                <path id="Path_15" data-name="Path 15" class="cls-54" d="M1652.472-1280.917c-.05-.247-.291-.65-.684-.608-.277.029-.453.332-.6.6-.181.329-.158.766-.326,1.106-.472.962-1.357.99-2.278.944-.8-.04-1.122-.538-1.4-1.206a5.845,5.845,0,0,1,.253-4.757,1.3,1.3,0,0,1,.224-.333,1.857,1.857,0,0,1,2.323-.176,3.286,3.286,0,0,1,1.045,1.251c.234.445.03,1.339.811,1.172.482-.1.42-.332.329-.811" transform="translate(-1617.813 1317.28)"/>
                <path id="Path_16" data-name="Path 16" class="cls-55" d="M1653.516-1228.384a3.387,3.387,0,0,1-.23-1.257,1.73,1.73,0,0,0-.076-.27.427.427,0,0,0-.4-.281.427.427,0,0,0-.4.281c-.025.065-.047.13-.067.2a2.084,2.084,0,0,1-1.014,1.506,2.085,2.085,0,0,1-1.81.14,1.419,1.419,0,0,1-1.266-1.255,19.332,19.332,0,0,1-.028-3.547,1.688,1.688,0,0,1,.54-1.24,1.687,1.687,0,0,1,1.276-.446,2.078,2.078,0,0,1,2.331,1.662c.1.344.38.877.608.892.56.038.75-.477.768-.986" transform="translate(-1618.57 1288.75)"/>
              </g>
            </g>
          </g>
        </g>
        <g id="Group_279" data-name="Group 279" transform="translate(1143.385 9760.541)">
          <path id="Icon_ionic-ios-arrow-back-6" data-name="Icon ionic-ios-arrow-back" class="cls-33" d="M12.609,16.636l9.057-9.05a1.711,1.711,0,0,0-2.423-2.416L8.982,15.42a1.708,1.708,0,0,0-.05,2.358l10.3,10.33a1.711,1.711,0,0,0,2.423-2.416Z" transform="translate(-8.12 22.69)"/>
          <g id="Group_273" data-name="Group 273" transform="translate(200.005 0)">
            <path id="Path_17-2" data-name="Path 17" class="cls-50" d="M47.006,0A46.965,46.965,0,1,1,3.569,29.009,46.965,46.965,0,0,1,47.006,0Z" transform="translate(0.235 0)"/>
            <g id="Group_16-2" data-name="Group 16" transform="translate(0)">
              <g id="Group_15-2" data-name="Group 15" class="cls-51">
                <path id="Path_10-2" data-name="Path 10" class="cls-52" d="M1656.965-1187.666a.018.018,0,0,1-.017-.018q.344-15.089.684-30.176.434-20.547.82-41.095a21.561,21.561,0,0,0-.222-4.878,15.852,15.852,0,0,0-1.835-4.585c-1.082-1.848-2.483-3.509-3.688-5.288a3.4,3.4,0,0,1-.231-1.257,1.626,1.626,0,0,0-.076-.27.427.427,0,0,0-.4-.282.427.427,0,0,0-.4.282c-.024.065-.048.13-.067.2a2.083,2.083,0,0,1-1.013,1.506,2.085,2.085,0,0,1-1.81.141,1.419,1.419,0,0,1-1.265-1.255,19.32,19.32,0,0,1-.03-3.547,1.686,1.686,0,0,1,.539-1.24,1.688,1.688,0,0,1,1.277-.446,2.078,2.078,0,0,1,2.331,1.661c.1.344.38.877.608.892.561.038.75-.476.769-.986.1-2.6.2-5.207.258-7.812a.4.4,0,0,0-.01-.09.574.574,0,0,0-.383-.38.573.573,0,0,0-.529.106,2.786,2.786,0,0,0-.277.233c-.1.1-.1.313-.111.478a1.823,1.823,0,0,1-.726,1.437,1.824,1.824,0,0,1-1.582.3,2.032,2.032,0,0,1-1.555-1.25,7.037,7.037,0,0,1,.1-4.41c.33-1.023,1.221-.968,2.075-.935.745.029,1.374.2,1.57,1.051a2.432,2.432,0,0,0,.334.926.653.653,0,0,0,.182.155.58.58,0,0,0,.529.042.579.579,0,0,0,.341-.407.35.35,0,0,0,0-.086c-.144-2.155-.32-4.31-.507-6.464a20.258,20.258,0,0,0-.285-2.308c-.051-.247-.291-.649-.685-.608-.276.03-.453.332-.6.6-.179.329-.158.766-.325,1.106-.473.962-1.357.99-2.279.944-.8-.039-1.121-.538-1.394-1.206a5.842,5.842,0,0,1,.254-4.757,1.325,1.325,0,0,1,.222-.333,1.857,1.857,0,0,1,2.324-.177,3.271,3.271,0,0,1,1.044,1.251c.235.445.031,1.347.811,1.173.844-.189.251-.9.16-1.376-.3-1.548-.589-3.1-.952-4.632-.325-1.37-.741-2.719-1.115-4.076-.1-.379-.245-.75-.33-1.133a.959.959,0,0,1,.154-.779.96.96,0,0,1,.688-.4c1.094-.129,2.191-.25,3.29-.312a9.51,9.51,0,0,0,5.107-1.974,11.653,11.653,0,0,1,1.71-1,4.926,4.926,0,0,1,3.865.127,2.359,2.359,0,0,0,1.469,0,5.433,5.433,0,0,1,5.7.8,9.888,9.888,0,0,0,5.827,2.114c.912.039,1.824.148,2.729.253.849.1,1.071.452.8,1.234a47.129,47.129,0,0,0-2.179,8.592c-.1.682-.352,1.344-.454,2.027v.011a.6.6,0,0,0,.464.673.6.6,0,0,0,.7-.414c.019-.067.035-.138.051-.21.258-1.257.578-1.457,2.078-1.409,1.2.038,1.65.359,1.742,1.544a21.335,21.335,0,0,1-.025,3.547,1.548,1.548,0,0,1-.5,1.11,1.549,1.549,0,0,1-1.151.4c-1.408.029-1.895-.281-2.184-1.4a1.554,1.554,0,0,0-.124-.479q-.091-.134-.19-.263a.742.742,0,0,0-.63-.293.742.742,0,0,0-.6.356.564.564,0,0,0-.07.2c-.227,1.734-.349,3.484-.459,5.23q-.092,1.492-.053,2.988h0a.47.47,0,0,0,.346.438.469.469,0,0,0,.52-.2c.024-.039.047-.077.071-.116a1.407,1.407,0,0,0,.085-.32,2.135,2.135,0,0,1,1.121-1.558,2.136,2.136,0,0,1,1.919-.029,1.627,1.627,0,0,1,.873.926,6.575,6.575,0,0,1-.1,4.629c-.475,1.146-1.474.971-2.412.9-.9-.068-1.121-.8-1.366-1.47-.093-.254-.03-.568-.134-.811-.082-.194-.084-.484-.476-.449a.71.71,0,0,0-.468.451,5.312,5.312,0,0,0-.06,1.242q.116,3.7.255,7.4c.017.46-.047.99.643,1.06.709.071.7-.447.793-.912a1.95,1.95,0,0,1,1.957-1.7,1.788,1.788,0,0,1,1.366.266,1.788,1.788,0,0,1,.762,1.165,6.2,6.2,0,0,1-.192,4.077c-.413.912-.937,1.174-2.076,1.052a1.762,1.762,0,0,1-1.809-1.52c-.046-.2-.1-.405-.159-.608a.635.635,0,0,0-.6-.459h0a.557.557,0,0,0-.566.486,4.93,4.93,0,0,1-.367,1.653c-1.275,1.9-2.71,3.706-3.851,5.681a11.584,11.584,0,0,0-1.644,6.019q.364,22.046.757,44.091c.171,9.4.379,18.8.572,28.2.01.465.041.929.062,1.394a.018.018,0,0,1-.005.014.018.018,0,0,1-.013.005Z" transform="translate(-1617.755 1334.071)"/>
                <path id="Path_11-2" data-name="Path 11" class="cls-53" d="M1654.47-1254.4a.35.35,0,0,0-.01-.09.573.573,0,0,0-.383-.379.575.575,0,0,0-.529.105,2.828,2.828,0,0,0-.277.233c-.1.1-.1.313-.112.478a1.825,1.825,0,0,1-.725,1.434,1.824,1.824,0,0,1-1.578.3,2.038,2.038,0,0,1-1.564-1.257,7.031,7.031,0,0,1,.1-4.4c.328-1.023,1.216-.968,2.073-.934.745.029,1.374.2,1.57,1.052a2.433,2.433,0,0,0,.334.926.648.648,0,0,0,.191.159.577.577,0,0,0,.523.04.577.577,0,0,0,.338-.4.337.337,0,0,0,.006-.1Z" transform="translate(-1619.038 1302.35)"/>
                <path id="Path_12-2" data-name="Path 12" class="cls-54" d="M1717.343-1282.353v.011a.6.6,0,0,0,.464.673.6.6,0,0,0,.7-.415c.019-.067.036-.137.05-.21.258-1.258.578-1.457,2.078-1.409,1.2.038,1.651.359,1.743,1.544a21.3,21.3,0,0,1-.026,3.547,1.547,1.547,0,0,1-.5,1.11,1.547,1.547,0,0,1-1.151.4c-1.41.03-1.9-.281-2.185-1.4a1.541,1.541,0,0,0-.124-.48q-.093-.133-.192-.262a.74.74,0,0,0-.629-.293.741.741,0,0,0-.6.356.568.568,0,0,0-.07.2" transform="translate(-1656.941 1316.182)"/>
                <path id="Path_13-2" data-name="Path 13" class="cls-55" d="M1715.863-1257.009h0a.468.468,0,0,0,.344.44.468.468,0,0,0,.521-.2c.024-.037.049-.077.071-.115a1.391,1.391,0,0,0,.085-.32,2.134,2.134,0,0,1,1.121-1.558,2.135,2.135,0,0,1,1.919-.028,1.634,1.634,0,0,1,.874.926,6.578,6.578,0,0,1-.095,4.629c-.476,1.146-1.475.971-2.412.9-.9-.068-1.12-.8-1.366-1.47-.093-.254-.029-.568-.134-.811-.082-.194-.084-.485-.475-.449a.709.709,0,0,0-.468.451" transform="translate(-1656.345 1302.383)"/>
                <path id="Path_14-2" data-name="Path 14" class="cls-55" d="M1716.2-1231.44c.017.459-.048.99.643,1.059.709.071.7-.447.792-.912a1.948,1.948,0,0,1,1.957-1.694,1.789,1.789,0,0,1,1.367.265,1.788,1.788,0,0,1,.762,1.165,6.2,6.2,0,0,1-.191,4.077c-.413.912-.937,1.174-2.075,1.052a1.761,1.761,0,0,1-1.809-1.52c-.047-.2-.1-.406-.161-.608a.635.635,0,0,0-.6-.46h0a.557.557,0,0,0-.565.486" transform="translate(-1656.546 1287.879)"/>
                <path id="Path_15-2" data-name="Path 15" class="cls-54" d="M1652.472-1280.917c-.05-.247-.291-.65-.684-.608-.277.029-.453.332-.6.6-.181.329-.158.766-.326,1.106-.472.962-1.357.99-2.278.944-.8-.04-1.122-.538-1.4-1.206a5.845,5.845,0,0,1,.253-4.757,1.3,1.3,0,0,1,.224-.333,1.857,1.857,0,0,1,2.323-.176,3.286,3.286,0,0,1,1.045,1.251c.234.445.03,1.339.811,1.172.482-.1.42-.332.329-.811" transform="translate(-1617.813 1317.28)"/>
                <path id="Path_16-2" data-name="Path 16" class="cls-55" d="M1653.516-1228.384a3.387,3.387,0,0,1-.23-1.257,1.73,1.73,0,0,0-.076-.27.427.427,0,0,0-.4-.281.427.427,0,0,0-.4.281c-.025.065-.047.13-.067.2a2.084,2.084,0,0,1-1.014,1.506,2.085,2.085,0,0,1-1.81.14,1.419,1.419,0,0,1-1.266-1.255,19.332,19.332,0,0,1-.028-3.547,1.688,1.688,0,0,1,.54-1.24,1.687,1.687,0,0,1,1.276-.446,2.078,2.078,0,0,1,2.331,1.662c.1.344.38.877.608.892.56.038.75-.477.768-.986" transform="translate(-1618.57 1288.75)"/>
              </g>
            </g>
          </g>
          <g id="Component_1_13" data-name="Component 1 – 13" class="cls-35" transform="translate(7.458 189.506)">
            <circle id="Ellipse_4-5" data-name="Ellipse 4" class="cls-48" cx="136.303" cy="136.303" r="136.303"/>
          </g>
          <text id="A-7" data-name="A" class="cls-56" transform="translate(134.395 332.3)"><tspan x="0" y="0">A</tspan></text>
          <g id="Ellipse_39-2" data-name="Ellipse 39" class="cls-57" transform="translate(40.9 221.935)">
            <ellipse class="cls-62" cx="102.861" cy="102.354" rx="102.861" ry="102.354"/>
            <ellipse class="cls-36" cx="102.861" cy="102.354" rx="102.107" ry="101.6"/>
          </g>
          <text id="A-8" data-name="A" class="cls-49" transform="translate(133.788 332.3)"><tspan x="0" y="0">A</tspan></text>
          <text id="You_re_Sharp_TUNE_IN" data-name="You’re Sharp! TUNE IN" class="cls-45" transform="translate(76.329 524.813)"><tspan x="0" y="0">You’re Sharp!</tspan></text>
          <text id="E-3" data-name="E" class="cls-46" transform="translate(0 661.773)"><tspan x="0" y="0">E</tspan></text>
          <text id="A-9" data-name="A" class="cls-47" transform="translate(52.162 661.773)"><tspan x="0" y="0">A</tspan></text>
          <text id="D-2" data-name="D" class="cls-46" transform="translate(104.657 661.773)"><tspan x="0" y="0">D</tspan></text>
          <text id="G-2" data-name="G" class="cls-46" transform="translate(159.972 661.773)"><tspan x="0" y="0">G</tspan></text>
          <text id="B-2" data-name="B" class="cls-46" transform="translate(214.908 661.773)"><tspan x="0" y="0">B</tspan></text>
          <text id="E-4" data-name="E" class="cls-46" transform="translate(269.566 661.773)"><tspan x="0" y="0">E</tspan></text>
        </g>
        <g id="Group_280" data-name="Group 280" transform="translate(1557.868 9754.459)">
          <g id="Group_274" data-name="Group 274" transform="translate(200.005)">
            <path id="Path_17-3" data-name="Path 17" class="cls-50" d="M47.006,0A46.965,46.965,0,1,1,3.569,29.009,46.965,46.965,0,0,1,47.006,0Z" transform="translate(0.235 0)"/>
            <g id="Group_16-3" data-name="Group 16" transform="translate(0)">
              <g id="Group_15-3" data-name="Group 15" class="cls-51">
                <path id="Path_10-3" data-name="Path 10" class="cls-52" d="M1656.965-1187.666a.018.018,0,0,1-.017-.018q.344-15.089.684-30.176.434-20.547.82-41.095a21.561,21.561,0,0,0-.222-4.878,15.852,15.852,0,0,0-1.835-4.585c-1.082-1.848-2.483-3.509-3.688-5.288a3.4,3.4,0,0,1-.231-1.257,1.626,1.626,0,0,0-.076-.27.427.427,0,0,0-.4-.282.427.427,0,0,0-.4.282c-.024.065-.048.13-.067.2a2.083,2.083,0,0,1-1.013,1.506,2.085,2.085,0,0,1-1.81.141,1.419,1.419,0,0,1-1.265-1.255,19.32,19.32,0,0,1-.03-3.547,1.686,1.686,0,0,1,.539-1.24,1.688,1.688,0,0,1,1.277-.446,2.078,2.078,0,0,1,2.331,1.661c.1.344.38.877.608.892.561.038.75-.476.769-.986.1-2.6.2-5.207.258-7.812a.4.4,0,0,0-.01-.09.574.574,0,0,0-.383-.38.573.573,0,0,0-.529.106,2.786,2.786,0,0,0-.277.233c-.1.1-.1.313-.111.478a1.823,1.823,0,0,1-.726,1.437,1.824,1.824,0,0,1-1.582.3,2.032,2.032,0,0,1-1.555-1.25,7.037,7.037,0,0,1,.1-4.41c.33-1.023,1.221-.968,2.075-.935.745.029,1.374.2,1.57,1.051a2.432,2.432,0,0,0,.334.926.653.653,0,0,0,.182.155.58.58,0,0,0,.529.042.579.579,0,0,0,.341-.407.35.35,0,0,0,0-.086c-.144-2.155-.32-4.31-.507-6.464a20.258,20.258,0,0,0-.285-2.308c-.051-.247-.291-.649-.685-.608-.276.03-.453.332-.6.6-.179.329-.158.766-.325,1.106-.473.962-1.357.99-2.279.944-.8-.039-1.121-.538-1.394-1.206a5.842,5.842,0,0,1,.254-4.757,1.325,1.325,0,0,1,.222-.333,1.857,1.857,0,0,1,2.324-.177,3.271,3.271,0,0,1,1.044,1.251c.235.445.031,1.347.811,1.173.844-.189.251-.9.16-1.376-.3-1.548-.589-3.1-.952-4.632-.325-1.37-.741-2.719-1.115-4.076-.1-.379-.245-.75-.33-1.133a.959.959,0,0,1,.154-.779.96.96,0,0,1,.688-.4c1.094-.129,2.191-.25,3.29-.312a9.51,9.51,0,0,0,5.107-1.974,11.653,11.653,0,0,1,1.71-1,4.926,4.926,0,0,1,3.865.127,2.359,2.359,0,0,0,1.469,0,5.433,5.433,0,0,1,5.7.8,9.888,9.888,0,0,0,5.827,2.114c.912.039,1.824.148,2.729.253.849.1,1.071.452.8,1.234a47.129,47.129,0,0,0-2.179,8.592c-.1.682-.352,1.344-.454,2.027v.011a.6.6,0,0,0,.464.673.6.6,0,0,0,.7-.414c.019-.067.035-.138.051-.21.258-1.257.578-1.457,2.078-1.409,1.2.038,1.65.359,1.742,1.544a21.335,21.335,0,0,1-.025,3.547,1.548,1.548,0,0,1-.5,1.11,1.549,1.549,0,0,1-1.151.4c-1.408.029-1.895-.281-2.184-1.4a1.554,1.554,0,0,0-.124-.479q-.091-.134-.19-.263a.742.742,0,0,0-.63-.293.742.742,0,0,0-.6.356.564.564,0,0,0-.07.2c-.227,1.734-.349,3.484-.459,5.23q-.092,1.492-.053,2.988h0a.47.47,0,0,0,.346.438.469.469,0,0,0,.52-.2c.024-.039.047-.077.071-.116a1.407,1.407,0,0,0,.085-.32,2.135,2.135,0,0,1,1.121-1.558,2.136,2.136,0,0,1,1.919-.029,1.627,1.627,0,0,1,.873.926,6.575,6.575,0,0,1-.1,4.629c-.475,1.146-1.474.971-2.412.9-.9-.068-1.121-.8-1.366-1.47-.093-.254-.03-.568-.134-.811-.082-.194-.084-.484-.476-.449a.71.71,0,0,0-.468.451,5.312,5.312,0,0,0-.06,1.242q.116,3.7.255,7.4c.017.46-.047.99.643,1.06.709.071.7-.447.793-.912a1.95,1.95,0,0,1,1.957-1.7,1.788,1.788,0,0,1,1.366.266,1.788,1.788,0,0,1,.762,1.165,6.2,6.2,0,0,1-.192,4.077c-.413.912-.937,1.174-2.076,1.052a1.762,1.762,0,0,1-1.809-1.52c-.046-.2-.1-.405-.159-.608a.635.635,0,0,0-.6-.459h0a.557.557,0,0,0-.566.486,4.93,4.93,0,0,1-.367,1.653c-1.275,1.9-2.71,3.706-3.851,5.681a11.584,11.584,0,0,0-1.644,6.019q.364,22.046.757,44.091c.171,9.4.379,18.8.572,28.2.01.465.041.929.062,1.394a.018.018,0,0,1-.005.014.018.018,0,0,1-.013.005Z" transform="translate(-1617.755 1334.071)"/>
                <path id="Path_11-3" data-name="Path 11" class="cls-53" d="M1654.47-1254.4a.35.35,0,0,0-.01-.09.573.573,0,0,0-.383-.379.575.575,0,0,0-.529.105,2.828,2.828,0,0,0-.277.233c-.1.1-.1.313-.112.478a1.825,1.825,0,0,1-.725,1.434,1.824,1.824,0,0,1-1.578.3,2.038,2.038,0,0,1-1.564-1.257,7.031,7.031,0,0,1,.1-4.4c.328-1.023,1.216-.968,2.073-.934.745.029,1.374.2,1.57,1.052a2.433,2.433,0,0,0,.334.926.648.648,0,0,0,.191.159.577.577,0,0,0,.523.04.577.577,0,0,0,.338-.4.337.337,0,0,0,.006-.1Z" transform="translate(-1619.038 1302.35)"/>
                <path id="Path_12-3" data-name="Path 12" class="cls-54" d="M1717.343-1282.353v.011a.6.6,0,0,0,.464.673.6.6,0,0,0,.7-.415c.019-.067.036-.137.05-.21.258-1.258.578-1.457,2.078-1.409,1.2.038,1.651.359,1.743,1.544a21.3,21.3,0,0,1-.026,3.547,1.547,1.547,0,0,1-.5,1.11,1.547,1.547,0,0,1-1.151.4c-1.41.03-1.9-.281-2.185-1.4a1.541,1.541,0,0,0-.124-.48q-.093-.133-.192-.262a.74.74,0,0,0-.629-.293.741.741,0,0,0-.6.356.568.568,0,0,0-.07.2" transform="translate(-1656.941 1316.182)"/>
                <path id="Path_13-3" data-name="Path 13" class="cls-55" d="M1715.863-1257.009h0a.468.468,0,0,0,.344.44.468.468,0,0,0,.521-.2c.024-.037.049-.077.071-.115a1.391,1.391,0,0,0,.085-.32,2.134,2.134,0,0,1,1.121-1.558,2.135,2.135,0,0,1,1.919-.028,1.634,1.634,0,0,1,.874.926,6.578,6.578,0,0,1-.095,4.629c-.476,1.146-1.475.971-2.412.9-.9-.068-1.12-.8-1.366-1.47-.093-.254-.029-.568-.134-.811-.082-.194-.084-.485-.475-.449a.709.709,0,0,0-.468.451" transform="translate(-1656.345 1302.383)"/>
                <path id="Path_14-3" data-name="Path 14" class="cls-55" d="M1716.2-1231.44c.017.459-.048.99.643,1.059.709.071.7-.447.792-.912a1.948,1.948,0,0,1,1.957-1.694,1.789,1.789,0,0,1,1.367.265,1.788,1.788,0,0,1,.762,1.165,6.2,6.2,0,0,1-.191,4.077c-.413.912-.937,1.174-2.075,1.052a1.761,1.761,0,0,1-1.809-1.52c-.047-.2-.1-.406-.161-.608a.635.635,0,0,0-.6-.46h0a.557.557,0,0,0-.565.486" transform="translate(-1656.546 1287.879)"/>
                <path id="Path_15-3" data-name="Path 15" class="cls-54" d="M1652.472-1280.917c-.05-.247-.291-.65-.684-.608-.277.029-.453.332-.6.6-.181.329-.158.766-.326,1.106-.472.962-1.357.99-2.278.944-.8-.04-1.122-.538-1.4-1.206a5.845,5.845,0,0,1,.253-4.757,1.3,1.3,0,0,1,.224-.333,1.857,1.857,0,0,1,2.323-.176,3.286,3.286,0,0,1,1.045,1.251c.234.445.03,1.339.811,1.172.482-.1.42-.332.329-.811" transform="translate(-1617.813 1317.28)"/>
                <path id="Path_16-3" data-name="Path 16" class="cls-55" d="M1653.516-1228.384a3.387,3.387,0,0,1-.23-1.257,1.73,1.73,0,0,0-.076-.27.427.427,0,0,0-.4-.281.427.427,0,0,0-.4.281c-.025.065-.047.13-.067.2a2.084,2.084,0,0,1-1.014,1.506,2.085,2.085,0,0,1-1.81.14,1.419,1.419,0,0,1-1.266-1.255,19.332,19.332,0,0,1-.028-3.547,1.688,1.688,0,0,1,.54-1.24,1.687,1.687,0,0,1,1.276-.446,2.078,2.078,0,0,1,2.331,1.662c.1.344.38.877.608.892.56.038.75-.477.768-.986" transform="translate(-1618.57 1288.75)"/>
              </g>
            </g>
          </g>
          <path id="Icon_ionic-ios-arrow-back-7" data-name="Icon ionic-ios-arrow-back" class="cls-33" d="M12.609,16.636l9.057-9.05a1.711,1.711,0,0,0-2.423-2.416L8.982,15.42a1.708,1.708,0,0,0-.05,2.358l10.3,10.33a1.711,1.711,0,0,0,2.423-2.416Z" transform="translate(-8.12 24.413)"/>
          <g id="Ellipse_40" data-name="Ellipse 40" class="cls-58" transform="translate(40.9 222.949)">
            <circle class="cls-62" cx="102.513" cy="102.513" r="102.513"/>
            <circle class="cls-36" cx="102.513" cy="102.513" r="101.759"/>
          </g>
          <text id="A-10" data-name="A" class="cls-49" transform="translate(133.382 332.892)"><tspan x="0" y="0">A</tspan></text>
          <text id="YOU_RE_IN_TUNE_" data-name="YOU’RE IN TUNE!" class="cls-59" transform="translate(55.868 526.535)"><tspan x="0" y="0">YOU’RE IN TUNE!</tspan></text>
          <text id="E-5" data-name="E" class="cls-46" transform="translate(0 663.494)"><tspan x="0" y="0">E</tspan></text>
          <text id="A-11" data-name="A" class="cls-47" transform="translate(52.162 663.494)"><tspan x="0" y="0">A</tspan></text>
          <text id="D-3" data-name="D" class="cls-46" transform="translate(104.657 663.494)"><tspan x="0" y="0">D</tspan></text>
          <text id="G-3" data-name="G" class="cls-46" transform="translate(159.972 663.494)"><tspan x="0" y="0">G</tspan></text>
          <text id="B-3" data-name="B" class="cls-46" transform="translate(214.908 663.494)"><tspan x="0" y="0">B</tspan></text>
          <text id="E-6" data-name="E" class="cls-46" transform="translate(269.566 663.494)"><tspan x="0" y="0">E</tspan></text>
        </g>
        <g id="Group_277" data-name="Group 277" transform="translate(307.326 9760.541)">
          <path id="Icon_ionic-ios-arrow-back-8" data-name="Icon ionic-ios-arrow-back" class="cls-33" d="M12.609,16.636l9.057-9.05a1.711,1.711,0,0,0-2.423-2.416L8.982,15.42a1.708,1.708,0,0,0-.05,2.358l10.3,10.33a1.711,1.711,0,0,0,2.423-2.416Z" transform="translate(-8.121 22.69)"/>
          <g id="Group_276" data-name="Group 276" transform="translate(204.058)">
            <path id="Path_17-4" data-name="Path 17" class="cls-50" d="M47.006,0A46.965,46.965,0,1,1,3.569,29.009,46.965,46.965,0,0,1,47.006,0Z" transform="translate(0.235 0)"/>
            <g id="Group_16-4" data-name="Group 16" transform="translate(0)">
              <g id="Group_15-4" data-name="Group 15" class="cls-51">
                <path id="Path_10-4" data-name="Path 10" class="cls-52" d="M1656.965-1187.666a.018.018,0,0,1-.017-.018q.344-15.089.684-30.176.434-20.547.82-41.095a21.561,21.561,0,0,0-.222-4.878,15.852,15.852,0,0,0-1.835-4.585c-1.082-1.848-2.483-3.509-3.688-5.288a3.4,3.4,0,0,1-.231-1.257,1.626,1.626,0,0,0-.076-.27.427.427,0,0,0-.4-.282.427.427,0,0,0-.4.282c-.024.065-.048.13-.067.2a2.083,2.083,0,0,1-1.013,1.506,2.085,2.085,0,0,1-1.81.141,1.419,1.419,0,0,1-1.265-1.255,19.32,19.32,0,0,1-.03-3.547,1.686,1.686,0,0,1,.539-1.24,1.688,1.688,0,0,1,1.277-.446,2.078,2.078,0,0,1,2.331,1.661c.1.344.38.877.608.892.561.038.75-.476.769-.986.1-2.6.2-5.207.258-7.812a.4.4,0,0,0-.01-.09.574.574,0,0,0-.383-.38.573.573,0,0,0-.529.106,2.786,2.786,0,0,0-.277.233c-.1.1-.1.313-.111.478a1.823,1.823,0,0,1-.726,1.437,1.824,1.824,0,0,1-1.582.3,2.032,2.032,0,0,1-1.555-1.25,7.037,7.037,0,0,1,.1-4.41c.33-1.023,1.221-.968,2.075-.935.745.029,1.374.2,1.57,1.051a2.432,2.432,0,0,0,.334.926.653.653,0,0,0,.182.155.58.58,0,0,0,.529.042.579.579,0,0,0,.341-.407.35.35,0,0,0,0-.086c-.144-2.155-.32-4.31-.507-6.464a20.258,20.258,0,0,0-.285-2.308c-.051-.247-.291-.649-.685-.608-.276.03-.453.332-.6.6-.179.329-.158.766-.325,1.106-.473.962-1.357.99-2.279.944-.8-.039-1.121-.538-1.394-1.206a5.842,5.842,0,0,1,.254-4.757,1.325,1.325,0,0,1,.222-.333,1.857,1.857,0,0,1,2.324-.177,3.271,3.271,0,0,1,1.044,1.251c.235.445.031,1.347.811,1.173.844-.189.251-.9.16-1.376-.3-1.548-.589-3.1-.952-4.632-.325-1.37-.741-2.719-1.115-4.076-.1-.379-.245-.75-.33-1.133a.959.959,0,0,1,.154-.779.96.96,0,0,1,.688-.4c1.094-.129,2.191-.25,3.29-.312a9.51,9.51,0,0,0,5.107-1.974,11.653,11.653,0,0,1,1.71-1,4.926,4.926,0,0,1,3.865.127,2.359,2.359,0,0,0,1.469,0,5.433,5.433,0,0,1,5.7.8,9.888,9.888,0,0,0,5.827,2.114c.912.039,1.824.148,2.729.253.849.1,1.071.452.8,1.234a47.129,47.129,0,0,0-2.179,8.592c-.1.682-.352,1.344-.454,2.027v.011a.6.6,0,0,0,.464.673.6.6,0,0,0,.7-.414c.019-.067.035-.138.051-.21.258-1.257.578-1.457,2.078-1.409,1.2.038,1.65.359,1.742,1.544a21.335,21.335,0,0,1-.025,3.547,1.548,1.548,0,0,1-.5,1.11,1.549,1.549,0,0,1-1.151.4c-1.408.029-1.895-.281-2.184-1.4a1.554,1.554,0,0,0-.124-.479q-.091-.134-.19-.263a.742.742,0,0,0-.63-.293.742.742,0,0,0-.6.356.564.564,0,0,0-.07.2c-.227,1.734-.349,3.484-.459,5.23q-.092,1.492-.053,2.988h0a.47.47,0,0,0,.346.438.469.469,0,0,0,.52-.2c.024-.039.047-.077.071-.116a1.407,1.407,0,0,0,.085-.32,2.135,2.135,0,0,1,1.121-1.558,2.136,2.136,0,0,1,1.919-.029,1.627,1.627,0,0,1,.873.926,6.575,6.575,0,0,1-.1,4.629c-.475,1.146-1.474.971-2.412.9-.9-.068-1.121-.8-1.366-1.47-.093-.254-.03-.568-.134-.811-.082-.194-.084-.484-.476-.449a.71.71,0,0,0-.468.451,5.312,5.312,0,0,0-.06,1.242q.116,3.7.255,7.4c.017.46-.047.99.643,1.06.709.071.7-.447.793-.912a1.95,1.95,0,0,1,1.957-1.7,1.788,1.788,0,0,1,1.366.266,1.788,1.788,0,0,1,.762,1.165,6.2,6.2,0,0,1-.192,4.077c-.413.912-.937,1.174-2.076,1.052a1.762,1.762,0,0,1-1.809-1.52c-.046-.2-.1-.405-.159-.608a.635.635,0,0,0-.6-.459h0a.557.557,0,0,0-.566.486,4.93,4.93,0,0,1-.367,1.653c-1.275,1.9-2.71,3.706-3.851,5.681a11.584,11.584,0,0,0-1.644,6.019q.364,22.046.757,44.091c.171,9.4.379,18.8.572,28.2.01.465.041.929.062,1.394a.018.018,0,0,1-.005.014.018.018,0,0,1-.013.005Z" transform="translate(-1617.755 1334.071)"/>
                <path id="Path_11-4" data-name="Path 11" class="cls-53" d="M1654.47-1254.4a.35.35,0,0,0-.01-.09.573.573,0,0,0-.383-.379.575.575,0,0,0-.529.105,2.828,2.828,0,0,0-.277.233c-.1.1-.1.313-.112.478a1.825,1.825,0,0,1-.725,1.434,1.824,1.824,0,0,1-1.578.3,2.038,2.038,0,0,1-1.564-1.257,7.031,7.031,0,0,1,.1-4.4c.328-1.023,1.216-.968,2.073-.934.745.029,1.374.2,1.57,1.052a2.433,2.433,0,0,0,.334.926.648.648,0,0,0,.191.159.577.577,0,0,0,.523.04.577.577,0,0,0,.338-.4.337.337,0,0,0,.006-.1Z" transform="translate(-1619.038 1302.35)"/>
                <path id="Path_12-4" data-name="Path 12" class="cls-54" d="M1717.343-1282.353v.011a.6.6,0,0,0,.464.673.6.6,0,0,0,.7-.415c.019-.067.036-.137.05-.21.258-1.258.578-1.457,2.078-1.409,1.2.038,1.651.359,1.743,1.544a21.3,21.3,0,0,1-.026,3.547,1.547,1.547,0,0,1-.5,1.11,1.547,1.547,0,0,1-1.151.4c-1.41.03-1.9-.281-2.185-1.4a1.541,1.541,0,0,0-.124-.48q-.093-.133-.192-.262a.74.74,0,0,0-.629-.293.741.741,0,0,0-.6.356.568.568,0,0,0-.07.2" transform="translate(-1656.941 1316.182)"/>
                <path id="Path_13-4" data-name="Path 13" class="cls-55" d="M1715.863-1257.009h0a.468.468,0,0,0,.344.44.468.468,0,0,0,.521-.2c.024-.037.049-.077.071-.115a1.391,1.391,0,0,0,.085-.32,2.134,2.134,0,0,1,1.121-1.558,2.135,2.135,0,0,1,1.919-.028,1.634,1.634,0,0,1,.874.926,6.578,6.578,0,0,1-.095,4.629c-.476,1.146-1.475.971-2.412.9-.9-.068-1.12-.8-1.366-1.47-.093-.254-.029-.568-.134-.811-.082-.194-.084-.485-.475-.449a.709.709,0,0,0-.468.451" transform="translate(-1656.345 1302.383)"/>
                <path id="Path_14-4" data-name="Path 14" class="cls-55" d="M1716.2-1231.44c.017.459-.048.99.643,1.059.709.071.7-.447.792-.912a1.948,1.948,0,0,1,1.957-1.694,1.789,1.789,0,0,1,1.367.265,1.788,1.788,0,0,1,.762,1.165,6.2,6.2,0,0,1-.191,4.077c-.413.912-.937,1.174-2.075,1.052a1.761,1.761,0,0,1-1.809-1.52c-.047-.2-.1-.406-.161-.608a.635.635,0,0,0-.6-.46h0a.557.557,0,0,0-.565.486" transform="translate(-1656.546 1287.879)"/>
                <path id="Path_15-4" data-name="Path 15" class="cls-54" d="M1652.472-1280.917c-.05-.247-.291-.65-.684-.608-.277.029-.453.332-.6.6-.181.329-.158.766-.326,1.106-.472.962-1.357.99-2.278.944-.8-.04-1.122-.538-1.4-1.206a5.845,5.845,0,0,1,.253-4.757,1.3,1.3,0,0,1,.224-.333,1.857,1.857,0,0,1,2.323-.176,3.286,3.286,0,0,1,1.045,1.251c.234.445.03,1.339.811,1.172.482-.1.42-.332.329-.811" transform="translate(-1617.813 1317.28)"/>
                <path id="Path_16-4" data-name="Path 16" class="cls-55" d="M1653.516-1228.384a3.387,3.387,0,0,1-.23-1.257,1.73,1.73,0,0,0-.076-.27.427.427,0,0,0-.4-.281.427.427,0,0,0-.4.281c-.025.065-.047.13-.067.2a2.084,2.084,0,0,1-1.014,1.506,2.085,2.085,0,0,1-1.81.14,1.419,1.419,0,0,1-1.266-1.255,19.332,19.332,0,0,1-.028-3.547,1.688,1.688,0,0,1,.54-1.24,1.687,1.687,0,0,1,1.276-.446,2.078,2.078,0,0,1,2.331,1.662c.1.344.38.877.608.892.56.038.75-.477.768-.986" transform="translate(-1618.57 1288.75)"/>
              </g>
            </g>
          </g>
          <text id="Strum_string_to_begin_" data-name="Strum string to begin!" class="cls-45" transform="translate(30.746 524.813)"><tspan x="0" y="0">Strum string to begin!</tspan></text>
          <text id="E-7" data-name="E" class="cls-46" transform="translate(0 661.773)"><tspan x="0" y="0">E</tspan></text>
          <text id="A-12" data-name="A" class="cls-47" transform="translate(52.162 661.773)"><tspan x="0" y="0">A</tspan></text>
          <text id="D-4" data-name="D" class="cls-46" transform="translate(104.657 661.773)"><tspan x="0" y="0">D</tspan></text>
          <text id="G-4" data-name="G" class="cls-46" transform="translate(159.972 661.773)"><tspan x="0" y="0">G</tspan></text>
          <text id="B-4" data-name="B" class="cls-46" transform="translate(214.908 661.773)"><tspan x="0" y="0">B</tspan></text>
          <text id="E-8" data-name="E" class="cls-46" transform="translate(269.566 661.773)"><tspan x="0" y="0">E</tspan></text>
          <g id="Group_275" data-name="Group 275" transform="translate(45.967 222.949)">
            <g id="Component_1_14" data-name="Component 1 – 14" class="cls-35" transform="translate(30.402 30.402)">
              <circle id="Ellipse_4-6" data-name="Ellipse 4" class="cls-36" cx="77.019" cy="77.019" r="77.019"/>
            </g>
            <text id="A-13" data-name="A" class="cls-37" transform="translate(92.657 109.351)"><tspan x="0" y="0">A</tspan></text>
            <g id="Ellipse_3-5" data-name="Ellipse 3" class="cls-38" transform="translate(0 0)">
              <circle class="cls-62" cx="102.354" cy="102.354" r="102.354"/>
              <circle class="cls-36" cx="102.354" cy="102.354" r="101.6"/>
            </g>
          </g>
        </g>
        <g id="Ellipse_2" data-name="Ellipse 2" class="cls-60" transform="translate(407.004 8072.207)">
          <circle class="cls-62" cx="46.617" cy="46.617" r="46.617"/>
          <circle class="cls-36" cx="46.617" cy="46.617" r="46.24"/>
        </g>
        <g id="Group_286" data-name="Group 286" transform="translate(351.266 7958.705)">
          <rect id="Rectangle_143" data-name="Rectangle 143" class="cls-61" width="203.694" height="21.282" rx="7.918" transform="translate(0)"/>
          <rect id="Rectangle_145" data-name="Rectangle 145" class="cls-61" width="203.694" height="21.282" rx="7.918" transform="translate(834.032)"/>
          <rect id="Rectangle_146" data-name="Rectangle 146" class="cls-61" width="203.694" height="21.282" rx="7.918" transform="translate(418.536)"/>
          <rect id="Rectangle_147" data-name="Rectangle 147" class="cls-61" width="203.694" height="21.282" rx="7.918" transform="translate(1251.555)"/>
        </g>
        <g id="Group_285" data-name="Group 285" transform="translate(351.266 8822.127)">
          <rect id="Rectangle_148" data-name="Rectangle 148" class="cls-61" width="203.694" height="21.282" rx="7.918" transform="translate(0)"/>
          <rect id="Rectangle_149" data-name="Rectangle 149" class="cls-61" width="203.694" height="21.282" rx="7.918" transform="translate(834.033)"/>
          <rect id="Rectangle_150" data-name="Rectangle 150" class="cls-61" width="203.694" height="21.282" rx="7.918" transform="translate(418.536)"/>
          <rect id="Rectangle_151" data-name="Rectangle 151" class="cls-61" width="203.694" height="21.282" rx="7.918" transform="translate(1251.555)"/>
        </g>
        <g id="Group_287" data-name="Group 287" transform="translate(351.266 9681.494)">
          <rect id="Rectangle_143-2" data-name="Rectangle 143" class="cls-61" width="203.694" height="21.282" rx="7.918" transform="translate(0 0)"/>
          <rect id="Rectangle_145-2" data-name="Rectangle 145" class="cls-61" width="203.694" height="21.282" rx="7.918" transform="translate(834.032 0)"/>
          <rect id="Rectangle_146-2" data-name="Rectangle 146" class="cls-61" width="203.694" height="21.282" rx="7.918" transform="translate(418.536 0)"/>
          <rect id="Rectangle_147-2" data-name="Rectangle 147" class="cls-61" width="203.694" height="21.282" rx="7.918" transform="translate(1251.555 0)"/>
        </g>
      </g>
    </g>
  </g>
</svg>
