<svg xmlns="http://www.w3.org/2000/svg" width="94.561" height="116.671" viewBox="0 0 94.561 116.671">
  <g id="Group_140" data-name="Group 140" transform="translate(2162.857 -1244.582)">
    <path id="Path_853" data-name="Path 853" d="M-2084.4,1353.721c4.259,3.034,2.881,7.194-.521,8.349.329.347.629.65.915.966,2.114,2.338,1.671,5.037-1.186,6.318-1.766.791-3.676,1.262-5.675,1.928a20.053,20.053,0,0,1-.652,2.479,4.177,4.177,0,0,1-3.623,2.992,37.556,37.556,0,0,1-9.894-.085,5.123,5.123,0,0,1-4.443-4.763c-.088-.748-.377-.958-1.077-1.053-2.977-.4-5.513-2.46-6-5.077a17.017,17.017,0,0,1,.146-3.744c-3.761-2.191-3.261-6.846.787-9.256-2.09-2.275-3.187-4.841-1.13-7.592,1.731-2.315,4.087-1.742,6.432-.582a21.687,21.687,0,0,0-2.013-8.474c-1.794-4.02-4.892-6.865-8.354-9.4s-7-4.923-9.916-8.109a26.476,26.476,0,0,1-1.378-33.707c4.63-5.969,10.807-9.372,18.06-11,7.3-1.641,14.6-1.186,21.883.084a54.063,54.063,0,0,1,14.631,4.246c6.163,3.006,10.875,7.389,12.89,14.165,1.326,4.459.51,8.725-1.409,12.855-2,4.3-5.123,7.729-8.352,11.106a124.293,124.293,0,0,0-8.852,9.694,19.408,19.408,0,0,0-3.385,18.447,1.107,1.107,0,0,0,1.173.961c2.845.186,4.261,3.785,2.539,6.4A18.44,18.44,0,0,1-2084.4,1353.721Zm-5.484-7.181a57.219,57.219,0,0,1-1.131-5.7,23.3,23.3,0,0,1,5.294-17.445c2.67-3.282,5.73-6.252,8.671-9.309,3.167-3.293,6.22-6.659,8.087-10.909,2.385-5.43,1.9-10.54-1.761-15.271a24.243,24.243,0,0,0-11.928-8,70.4,70.4,0,0,0-19.477-3.414,37.262,37.262,0,0,0-17.617,3.219c-12.655,5.885-17.53,20.414-10.887,32.38,2.1,3.779,5.329,6.45,8.676,9.039a74.355,74.355,0,0,1,8.044,6.642,19.5,19.5,0,0,1,5.543,17.587l5.813,1.515c-.281-2.868-.438-5.487-.811-8.075a70.517,70.517,0,0,0-6.484-20.936c-2.656-5.442-5.691-10.7-8.571-16.031-.551-1.021-.522-1.718.21-2.3.816-.653,1.505-.348,2.208.256,1.229,1.057,2.491,2.076,3.753,3.095.412.332.867.612,1.387.976.3-.556.5-.988.747-1.391a13.046,13.046,0,0,1,1.306-1.971,1.581,1.581,0,0,1,2.819.44,17.573,17.573,0,0,0,1.023,1.908,2.564,2.564,0,0,0,3.834.9,15.086,15.086,0,0,0,2.454-2.03,1.774,1.774,0,0,1,2.964.244,8.661,8.661,0,0,1,.655,1.171c.617,1.251.925,1.387,2.271,1.107a18.643,18.643,0,0,0,6.255-2.874c.736-.475,1.435-.714,2.172-.1a1.721,1.721,0,0,1,.31,2.252c-.8,1.867-1.592,3.739-2.355,5.621-3.908,9.64-7.282,19.428-7.864,29.933-.148,2.67-.022,5.354-.022,8.221Zm-22.769-.639a6.97,6.97,0,0,0-2.053,1.232,2.046,2.046,0,0,0,.177,2.594,15.587,15.587,0,0,0,2.246,2.093c.533.429,1.039.8.921,1.583-.123.823-.734,1.055-1.412,1.312a11.5,11.5,0,0,0-2.293,1.131,2.115,2.115,0,0,0-1.01,2.318,2.254,2.254,0,0,0,2,1.7c.775.146,1.573.162,2.362.236.736.068,1.31.42,1.33,1.184a1.483,1.483,0,0,1-1.221,1.578,2.28,2.28,0,0,1-.72.037,1.256,1.256,0,0,0-1.442,1.16,2.539,2.539,0,0,0,1.184,2.863c.92.57,2.021.842,2.985,1.352a3.094,3.094,0,0,1,1.27,1.169c.407.775.556,1.682.9,2.5a3.318,3.318,0,0,0,3.056,2.272c2.648.057,5.3.033,7.948-.022,1.771-.036,2.5-.8,2.692-2.6.087-.82.165-1.644.318-2.453a1.476,1.476,0,0,1,1.8-1.286c2,.414,3.719-.38,5.427-1.215a.788.788,0,0,0,.287-1.359,9.3,9.3,0,0,0-2.284-1.628c-1.114-.533-1.5-1.654-.552-2.437a33.614,33.614,0,0,1,2.873-1.757c.483-.321,1.2-.791,1.21-1.2a2.5,2.5,0,0,0-.852-1.815,19.361,19.361,0,0,0-2.521-1.093c-.457-.243-1.066-.733-1.082-1.132a2.109,2.109,0,0,1,.832-1.46c.755-.581,1.709-.9,2.476-1.469a3.328,3.328,0,0,0,1.156-1.51,1.851,1.851,0,0,0-.35-1.49,1.428,1.428,0,0,0-1.285-.235,29.371,29.371,0,0,1-9.925,1.662,29.466,29.466,0,0,1-12.666-2.508C-2110.031,1346.673-2111.288,1346.364-2112.654,1345.9Zm11.9,1.25,3.341.18c-1.294-14.619,3.131-27.938,8.8-41.147-4.611,1.825-7.128,1.882-9.065-1.058-1.523,1.223-3.145,2.281-5.194,2.228-2.087-.054-3.538-1.288-4.774-2.938-1,1.779-2.266,2.765-4.352,2.281.239.452.428.817.623,1.179a105.7,105.7,0,0,1,7.169,16c2.261,6.627,3.809,13.385,3.605,20.449C-2100.621,1345.217-2100.693,1346.106-2100.753,1347.151Z" transform="translate(-14.608 -16.243)" fill="#f6bf0b" stroke="#fff" stroke-width="1"/>
    <path id="Path_854" data-name="Path 854" d="M-1963.969,1272.786a4.648,4.648,0,0,1-.581.993c-1.563,1.494-3.148,2.964-4.737,4.43a1.14,1.14,0,0,1-.626.334c-.34.017-.818.02-.993-.182a1.053,1.053,0,0,1-.017-.991,11.551,11.551,0,0,1,1.379-1.659c1.183-1.245,2.36-2.5,3.615-3.669a1.522,1.522,0,0,1,1.274-.163C-1964.362,1271.969-1964.2,1272.462-1963.969,1272.786Z" transform="translate(-111.92 -15.637)" fill="#f6bf0b" stroke="#fff" stroke-width="1"/>
    <path id="Path_855" data-name="Path 855" d="M-1983.927,1394.676c.022-.882.783-1.343,1.372-.7a58.279,58.279,0,0,1,3.923,4.875,1.345,1.345,0,0,1-.274,1.256,1.322,1.322,0,0,1-1.26.181,12,12,0,0,1-3.741-5.3A1.01,1.01,0,0,1-1983.927,1394.676Z" transform="translate(-104.379 -86.93)" fill="#f6bf0b" stroke="#fff" stroke-width="1"/>
    <path id="Path_856" data-name="Path 856" d="M-1951.2,1364.66c.033,1.1-.689,1.733-1.508,1.451a10.86,10.86,0,0,1-4.956-3.544,1.226,1.226,0,0,1-.024-1.178,1.211,1.211,0,0,1,1.15-.156c1.612.839,3.187,1.751,4.744,2.689A2.319,2.319,0,0,1-1951.2,1364.66Z" transform="translate(-119.649 -67.905)" fill="#f6bf0b" stroke="#fff" stroke-width="1"/>
    <path id="Path_857" data-name="Path 857" d="M-2011.126,1256.552q0-2.273,0-4.545a1.394,1.394,0,0,1,.026-.309c.156-.68.26-1.419,1.225-1.361.9.054,1.037.761,1.018,1.411a32.9,32.9,0,0,1-.319,3.7,10.145,10.145,0,0,1-.64,2.383c-.131.321-.617.5-.941.74a4.893,4.893,0,0,1-.558-.99,3.727,3.727,0,0,1-.02-1.03Z" transform="translate(-88.33 -3.073)" fill="#f6bf0b" stroke="#fff" stroke-width="1"/>
    <path id="Path_858" data-name="Path 858" d="M-2054.464,1250.771a13.239,13.239,0,0,1-.023,1.751c-.037.276-.322.52-.494.778-.251-.188-.657-.33-.727-.571-.457-1.577-.851-3.174-1.244-4.769a6.281,6.281,0,0,1-.191-1.322c-.022-.8.251-1.524,1.139-1.555s1.219.7,1.288,1.469c.127,1.4.186,2.812.273,4.218Z" transform="translate(-61.546)" fill="#f6bf0b" stroke="#fff" stroke-width="1"/>
    <path id="Path_859" data-name="Path 859" d="M-2161.438,1310.005a17.494,17.494,0,0,1,6.373,2.7.947.947,0,0,1,.24.8c-.026.142-.439.318-.664.3a14.594,14.594,0,0,1-6.214-1.726,1.515,1.515,0,0,1-.64-1.215C-2162.3,1310.517-2161.713,1310.245-2161.438,1310.005Z" transform="translate(0 -37.981)" fill="#f6bf0b" stroke="#fff" stroke-width="1"/>
    <path id="Path_860" data-name="Path 860" d="M-2104.993,1417.764a3.564,3.564,0,0,1-.3.748c-1.079,1.675-2.16,3.35-3.283,5a.983.983,0,0,1-1.513.337.971.971,0,0,1-.153-1.528c1.152-1.544,2.293-3.1,3.47-4.62a2.443,2.443,0,0,1,.894-.679C-2105.291,1416.748-2104.946,1416.95-2104.993,1417.764Z" transform="translate(-30.309 -100.52)" fill="#f6bf0b" stroke="#fff" stroke-width="1"/>
    <path id="Path_861" data-name="Path 861" d="M-2139.8,1276.255a7,7,0,0,1,.717.176,6.862,6.862,0,0,1,4.29,3.88c.119.313-.066.741-.11,1.116a3.237,3.237,0,0,1-1.029-.218c-1.405-.851-2.813-1.707-4.144-2.667a1.715,1.715,0,0,1-.615-1.338C-2140.648,1276.831-2140.07,1276.521-2139.8,1276.255Z" transform="translate(-12.666 -18.237)" fill="#f6bf0b" stroke="#fff" stroke-width="1"/>
    <path id="Path_862" data-name="Path 862" d="M-1949.983,1315.621c-1.258-.112-2.6-.167-3.921-.386-.433-.072-.795-.568-1.189-.87.38-.276.742-.758,1.142-.793,1.6-.14,3.223-.188,4.834-.175.755.006,1.632.17,1.565,1.22-.062.984-.9.971-1.632,1C-1949.424,1315.63-1949.665,1315.621-1949.983,1315.621Z" transform="translate(-121.248 -39.964)" fill="#f6bf0b" stroke="#fff" stroke-width="1"/>
    <path id="Path_863" data-name="Path 863" d="M-2105.357,1252.38c.176-.174.435-.646.719-.661a1.459,1.459,0,0,1,1.182.489c.838,1.687,1.569,3.428,2.316,5.16a4.9,4.9,0,0,1,.342,1.185.729.729,0,0,1-.2.612.652.652,0,0,1-.63-.073c-1.248-2.084-2.463-4.189-3.681-6.291A1.934,1.934,0,0,1-2105.357,1252.38Z" transform="translate(-33.341 -3.882)" fill="#f6bf0b" stroke="#fff" stroke-width="1"/>
    <path id="Path_864" data-name="Path 864" d="M-2155.738,1359.223l.675.495c-.2.27-.349.653-.619.789-1.344.68-2.7,1.346-4.1,1.9-.355.141-.88-.148-1.326-.239.147-.407.173-.972.462-1.193A9.284,9.284,0,0,1-2155.738,1359.223Z" transform="translate(-0.725 -66.775)" fill="#f6bf0b" stroke="#fff" stroke-width="1"/>
    <path id="Path_865" data-name="Path 865" d="M-2133.487,1391.74a3.972,3.972,0,0,1-.367.793c-.908,1.158-1.8,2.33-2.79,3.419a1.177,1.177,0,0,1-1.144.157,1.146,1.146,0,0,1-.2-1.117c1.067-1.241,2.216-2.413,3.379-3.569a1.156,1.156,0,0,1,.83-.141C-2133.662,1391.295-2133.577,1391.589-2133.487,1391.74Z" transform="translate(-14.208 -85.522)" fill="#f6bf0b" stroke="#fff" stroke-width="1"/>
    <path id="Path_866" data-name="Path 866" d="M-1999.214,1424.559c-.11.123-.31.545-.578.594a1.26,1.26,0,0,1-1.041-.337,21.6,21.6,0,0,1-1.74-2.642,1.178,1.178,0,0,1,.025-1.013.992.992,0,0,1,.884-.211C-2000.757,1421.205-1999.208,1423.405-1999.214,1424.559Z" transform="translate(-93.412 -102.871)" fill="#f6bf0b" stroke="#fff" stroke-width="1"/>
    <path id="Path_867" data-name="Path 867" d="M-2063.74,1469.337c-1.166-.139-2.332-.234-3.48-.434a3.207,3.207,0,0,1-1.392-.616,4.108,4.108,0,0,1-.721-1.109,4.419,4.419,0,0,1,1.259-.176,24.97,24.97,0,0,0,7.5-.26c.135-.021.265-.08.4-.1.766-.085,1.524-.059,1.678.9.144.9-.524,1.228-1.243,1.334C-2061.065,1469.075-2062.4,1469.189-2063.74,1469.337Z" transform="translate(-54.415 -129.602)" fill="#f6bf0b" stroke="#fff" stroke-width="1"/>
    <path id="Path_868" data-name="Path 868" d="M-2046.826,1488.055c.995-.065,1.989-.15,2.984-.188a10.889,10.889,0,0,1,1.848.06,2.783,2.783,0,0,1,.836.438c-.226.266-.4.632-.689.776a4.734,4.734,0,0,1-1.562.481c-2.082.226-4.17.4-6.256.577a.955.955,0,0,1-.6-.068c-.361-.283-.87-.593-.949-.971-.131-.623.339-1.012,1-1.021,1.13-.015,2.261,0,3.391,0Z" transform="translate(-65.001 -142.026)" fill="#f6bf0b" stroke="#fff" stroke-width="1"/>
    <path id="Path_869" data-name="Path 869" d="M-2032.651,1469.29c-.593.372-.926.747-1.2.708-.3-.041-.543-.469-.81-.728.275-.257.529-.681.833-.721C-2033.558,1468.514-2033.231,1468.9-2032.651,1469.29Z" transform="translate(-74.698 -130.732)" fill="#f6bf0b" stroke="#fff" stroke-width="1"/>
    <path id="Path_870" data-name="Path 870" d="M-2059.233,1489.169c-.542.361-.866.745-1.129.707-.284-.042-.716-.485-.707-.741a1.043,1.043,0,0,1,.714-.75C-2060.082,1488.36-2059.77,1488.771-2059.233,1489.169Z" transform="translate(-59.25 -142.337)" fill="#f6bf0b" stroke="#fff" stroke-width="1"/>
  </g>
</svg>
