<svg xmlns="http://www.w3.org/2000/svg" width="106.63" height="155.646" viewBox="0 0 106.63 155.646">
  <g id="Group_527" data-name="Group 527" transform="translate(-1048 -1906.501)">
    <g id="Group_525" data-name="Group 525" transform="translate(1048 1906.501)">
      <path id="Path_4698" data-name="Path 4698" d="M968.713,206.357c-.155,5.79,0,11.645-2.134,17.157a65.307,65.307,0,0,1-3.446,6.537,5.469,5.469,0,0,0-.681,1.765c-.557,4.433-1.1,8.868-1.561,13.311-.4,3.831-2.518,6.651-5.284,9.041a4.778,4.778,0,0,0-1.737,3.359c-1.242,11.337-6.133,20.91-14.06,29.024-4.771,4.884-10.053,8.912-16.74,10.846a23.556,23.556,0,0,1-17.83-1.582,52.988,52.988,0,0,1-23.6-23.546c-1.75-3.418-2.5-7.358-3.61-11.09a5,5,0,0,0-1.875-3.045c-3.966-2.876-5.65-7.059-6.066-11.812-.3-3.46-.539-6.926-.768-10.392a6.789,6.789,0,0,0-1.552-4.336,23.613,23.613,0,0,1-5.371-13.3c-1.15-11.71.923-22.974,5.184-33.864a51.486,51.486,0,0,1,13.91-20.212A38.355,38.355,0,0,1,900.28,155.1a3.134,3.134,0,0,0,1.732-1.152c1.714-2.276,3.23-4.705,5-6.932,2.292-2.88,5.612-3.8,9.087-4.085a43.611,43.611,0,0,1,24.945,5.727c3.176,1.749,5.122,4.728,6.43,7.97,1.121,2.779,1.679,5.782,2.556,8.665a3.757,3.757,0,0,0,1.085,1.914c11.457,8.246,16.623,19.75,17.474,33.516q.087,1.4.119,2.812C968.729,204.478,968.713,205.417,968.713,206.357ZM950.54,240.333q0-5.552,0-11.1a15.766,15.766,0,0,0-5.127-12.109,78.151,78.151,0,0,0-17.587-12.749,173.775,173.775,0,0,1-24.858-15.819,2.872,2.872,0,0,0-3.558-.263A42.1,42.1,0,0,0,882.954,204.6c-3.281,5.895-4,12.353-3.707,18.928q.69,15.539,1.736,31.061a40.871,40.871,0,0,0,3.867,15.454,50.9,50.9,0,0,0,20.143,21.325,20.649,20.649,0,0,0,18.574,1.815,34.314,34.314,0,0,0,11.817-7.7c7.179-6.894,12.26-14.943,14.118-24.866A91.2,91.2,0,0,0,950.54,240.333Zm3.99-7.9a19.353,19.353,0,0,0,9.488-14.377,73.558,73.558,0,0,0,.12-22.445c-2.053-12.889-8.8-22.635-20.518-28.443a85.031,85.031,0,0,0-32.916-8.589c-6.1-.367-12.11.126-17.758,2.866a1.57,1.57,0,0,0-1.075,2c1.17,6.99,3.849,13.34,9.04,18.2a114.3,114.3,0,0,0,24.907,17.185,98.766,98.766,0,0,1,22.861,16.087,17.6,17.6,0,0,1,5.513,11.5C954.357,228.377,954.416,230.343,954.531,232.437Zm-56.9-47.752c-2.044-3.174-4.36-6.162-6-9.484-1.655-3.354-2.639-7.038-3.962-10.7a17.152,17.152,0,0,0-1.454.935,46.041,46.041,0,0,0-12.54,14.9,67.979,67.979,0,0,0-7.295,24.915c-.751,6.771-.988,13.524,1.92,19.978a21.89,21.89,0,0,0,7.056,8.249c0-3.1.05-6.13-.011-9.153-.118-5.765.109-11.494,2.144-16.965a41.888,41.888,0,0,1,14.1-18.54C893.608,187.241,895.82,185.913,897.631,184.685Zm48.335-20.827c-.372-1.257-.593-2.325-1-3.317-1.335-3.266-2.629-6.57-5.917-8.5a41.328,41.328,0,0,0-19.353-5.433c-6.1-.282-10.66,1.981-13.2,7.962C920.274,154.752,933.278,158.076,945.966,163.858Zm12.366,71.251-.44-.145a14.823,14.823,0,0,1-1.6,1.139c-1.554.835-1.973,2.047-1.838,3.8.2,2.579.057,5.183.06,7.777q0,.837,0,1.674l.494.029C958.25,245.114,957.3,239.883,958.332,235.109Zm-81.594,17.868c-.261-4.239-.613-8.121-.693-12.009-.04-1.982-1.122-2.9-2.6-3.824C872.7,242.1,874.351,250.45,876.738,252.977Z" transform="translate(-862.09 -142.801)" fill="#505050"/>
      <path id="Path_4699" data-name="Path 4699" d="M936.049,307.389c1.985,0,3.715,0,5.445-.006a2.956,2.956,0,0,0,.475-.132q2.85-.543,3.22,1.339c.256,1.3-.463,2.269-2.447,2.417a31.827,31.827,0,0,1-7.508-.167c-2.766-.46-3.582-2.184-2.8-4.891.581-2.011,1.339-3.972,1.883-5.991.844-3.132,1.6-6.289,2.338-9.449.3-1.3.937-2.231,2.344-1.984s1.816,1.357,1.478,2.658c-1.192,4.575-2.425,9.14-3.651,13.706C936.64,305.579,936.4,306.255,936.049,307.389Z" transform="translate(-885.612 -191.712)" fill="#505050"/>
      <path id="Path_4700" data-name="Path 4700" d="M934.8,339c-2.069-.3-6.04-.876-10.009-1.467-1.361-.2-2.3-.895-2.1-2.4.174-1.3,1.232-1.735,3-1.384,6.075,1.208,12.167,2.1,18.358.911,1.076-.207,2.125-.547,3.188-.821,1.1-.283,2.021-.054,2.385,1.111a1.88,1.88,0,0,1-1.356,2.578C944.528,338.853,940.664,339.174,934.8,339Z" transform="translate(-882.426 -206.868)" fill="#505050"/>
      <path id="Path_4701" data-name="Path 4701" d="M977.542,272.548a8.975,8.975,0,0,1-1.607-.689c-5.919-4.306-12.011-3.8-18.22-.724-.48.238-1.107.578-1.529.443-.647-.207-1.6-.732-1.656-1.218a2.614,2.614,0,0,1,.82-2.207c8.356-4.325,14.971-4.875,22.785.525.881.609,1.527,1.456.982,2.515C978.818,271.776,978.059,272.123,977.542,272.548Z" transform="translate(-893.12 -183.749)" fill="#505050"/>
      <path id="Path_4702" data-name="Path 4702" d="M905.131,264.718a27.786,27.786,0,0,1,12.09,3.184c1.1.556,1.6,1.371,1.1,2.534a1.865,1.865,0,0,1-2.742.975c-1.167-.48-2.315-1.005-3.481-1.485a14.739,14.739,0,0,0-14.59,1.515c-.411.274-.871.762-1.261.719a4.247,4.247,0,0,1-2.417-.776c-.774-.771-.366-1.827.478-2.421C897.728,266.552,901.411,264.8,905.131,264.718Z" transform="translate(-872.608 -183.732)" fill="#505050"/>
      <path id="Path_4703" data-name="Path 4703" d="M912.9,285.045a2.979,2.979,0,0,1-2.909-2.805,2.893,2.893,0,0,1,2.814-3.046,2.926,2.926,0,1,1,.094,5.851Z" transform="translate(-878.17 -188.592)" fill="#505050"/>
      <path id="Path_4704" data-name="Path 4704" d="M972.456,282.1a2.862,2.862,0,1,1-5.721-.035,2.9,2.9,0,0,1,2.813-2.873A2.843,2.843,0,0,1,972.456,282.1Z" transform="translate(-897.222 -188.592)" fill="#505050"/>
    </g>
    <path id="Path_4706" data-name="Path 4706" d="M-12221.973,1462.1s14.053.6,25.373,3.34a85.569,85.569,0,0,1,19.906,7.6" transform="translate(13311 455)" fill="none" stroke="#d85f5f" stroke-linecap="round" stroke-width="3"/>
  </g>
</svg>
