<svg id="Layer_1" data-name="Layer 1" xmlns="http://www.w3.org/2000/svg" viewBox="0 0 114.18 117.31"><defs><style>.cls-1{fill:#c22126;stroke:#fff;}</style></defs><g id="Group_8" data-name="Group 8"><path id="Path_52" data-name="Path 52" class="cls-1" d="M114.18,34.17a9,9,0,0,0-2-5.56c-2-2.56-4.95-3.27-8-3.6-5-.56-9.9.22-14.82.94-4,.57-7.9,1.47-11.87,1.65-14,.65-28.12,1-42.18,1.54H34c-.65-2.94-1.39-5.84-1.91-8.78-.76-4.27-1.18-8.62-2.72-12.72-1.15-3-2.62-5.92-6.11-6.91a13.28,13.28,0,0,0-4-.73C13.25.24,7.34.64,1.43,1A1.48,1.48,0,0,0,0,2.52,1.52,1.52,0,0,0,1.49,4.06h0C2.33,4.1,3.16,4,4,4c4.06-.1,8.14-.41,12.19-.26,5.87.21,9.34,3.19,10.57,8.81C29.3,24.2,32.58,35.67,35.9,47.12Q40,61.27,44.4,75.33a48.59,48.59,0,0,0,2.9,7,5.61,5.61,0,0,0,5,3.36c1.54.05,3.1.11,4.64,0,5.58-.29,11.15-.66,16.73-1,6.82-.36,13.64-.65,20.46-1,1.54-.08,3.07-.4,4.62-.5,2.3-.15,3.16.88,2.51,3.1a19.74,19.74,0,0,1-1.61,3.68c-1.58,3-1.62,3-5,3h-.82c-3.3-.21-6.6-.47-9.91-.63q-12.36-.61-24.7-1.17Q55.11,91.11,51,91c-1.09,0-1.7.4-1.81,1.26a1.68,1.68,0,0,0,1.33,2l.15,0a4.39,4.39,0,0,0,.72.07c3.58.16,7.17.31,10.75.48,8,.38,16,.8,24.08,1.14,4.37.19,8.76.41,13.13.3,5.43-.13,8.94-3,10.34-7.93A4.93,4.93,0,0,0,107,82.09l-1.12-.52c1.5-4.86,3.09-9.56,4.4-14.34a113.75,113.75,0,0,0,3.69-22.82C114.15,41,114.22,37.58,114.18,34.17ZM104.81,74.4c-.73,2.08-1.45,4.16-2.19,6.3a19.74,19.74,0,0,0-2.3-.26c-4.48.07-9,.1-13.43.29-5.92.25-11.84.66-17.76,1-2.34.12-4.69.15-7,.25-6.8.28-11.54-2.8-14.41-8.89-.8-1.71-1.49-3.48-2.32-5.42a25.71,25.71,0,0,1,3.42-1,53.71,53.71,0,0,1,12.48-.19,125.88,125.88,0,0,0,21.18.28c7-.51,14.1-.94,21.15-1.42.89-.06,1.78-.19,2.67-.33a1.61,1.61,0,0,0,1.49-1.73.77.77,0,0,0,0-.15c-.08-.93-.74-1.43-1.84-1.36-1.44.1-2.89.22-4.33.36C90.69,63.18,79.78,63.84,68.85,64a88.71,88.71,0,0,1-9.5-.44,41.54,41.54,0,0,0-13.16.58c-.56.13-1.1.33-1.8.54L39.27,48.16h1.34l65.8.46c.38,0,.76,0,1.14,0a1.4,1.4,0,0,0,1.5-1.28,1.56,1.56,0,0,0-1.11-1.86,4.23,4.23,0,0,0-1.32-.16q-33.48-.26-66.94-.45c-1.08,0-1.45-.34-1.72-1.35-1-3.73-2-7.43-3.16-11.45,2.76,0,5.28.09,7.79,0,13.92-.58,27.84-1.16,41.75-1.85,5.43-.27,10.85-.94,16.28-1.23a20.4,20.4,0,0,1,5.72.6c2.83.65,4.22,2.53,4.35,5.42A103.27,103.27,0,0,1,104.81,74.4Z"/><path id="Path_53" data-name="Path 53" class="cls-1" d="M91.79,97.82c4.88-.27,9.84,4.48,9.59,9.66-.28,5.74-5.12,10-11.26,9.83-5.36-.18-8.85-4.45-8.66-10.6C81.62,101.75,86.39,97.65,91.79,97.82Zm-1.31,16.4c4.35-.08,7.31-2.92,7.23-6.94a6.24,6.24,0,0,0-6-6.12,7,7,0,0,0-7,7c0,.1,0,.19,0,.28.06,3.53,2.37,5.82,5.78,5.76Z"/><path id="Path_54" data-name="Path 54" class="cls-1" d="M70.56,106.66a10.56,10.56,0,0,1-8.27,10.13,8,8,0,0,1-7.07-2.39,9.84,9.84,0,0,1-3.45-9.06c.65-4.37,4-7.14,8.71-7.46a8.84,8.84,0,0,0,1.25-.33A3.34,3.34,0,0,1,63,97.36,9.77,9.77,0,0,1,70.56,106.66ZM55,107c0,3.74,2.41,6.75,5.42,6.77a6.54,6.54,0,0,0,6.7-6.41,2.08,2.08,0,0,0,0-.25c0-3.85-2.58-6.13-6.83-6.11-3.17,0-5.29,2.43-5.29,6Z"/></g></svg>