<svg xmlns="http://www.w3.org/2000/svg" width="506.706" height="244.548" viewBox="0 0 506.706 244.548">
  <g id="Group_328" data-name="Group 328" transform="translate(12219.68 -6482.452)">
    <path id="Path_1307" data-name="Path 1307" d="M7.742,0Q6.478,0,6.478-1.106L6.32-108.7a1.117,1.117,0,0,1,1.264-1.264H21.8l26.7,62.252-.79-60.988q0-1.264,1.422-1.264H64.78q.948,0,.948,1.264L65.886-.948q0,.948-.79.948h-13.9L23.858-58.144l1.106,56.88Q24.964,0,23.542,0ZM74.26-.79,93.852-109.336a.747.747,0,0,1,.79-.632h22.91a.747.747,0,0,1,.79.632L137.144-.79q.158.79-.632.79H118.974q-.632,0-.79-.79l-1.738-11.534H94.958L93.22-.79q-.158.79-.79.79H74.892Q74.26,0,74.26-.79ZM98.118-29.23h15.168l-6.478-44.4-.948-5.846-.632,5.846ZM147.73,0q-.632,0-.632-.79l.316-108.546a.559.559,0,0,1,.632-.632h19.276a1.367,1.367,0,0,1,1.106.632L182.806-88.48l14.378-20.856a1.367,1.367,0,0,1,1.106-.632h19.434a.559.559,0,0,1,.632.632L218.672-.79q0,.79-.632.79H200.186q-.632,0-.632-.79L199.4-81.37l-16.59,24.016L166.374-81.37,166.216-.79q0,.79-.632.79Zm78.842-.79,19.592-108.546a.747.747,0,0,1,.79-.632h22.91a.747.747,0,0,1,.79.632L289.456-.79q.158.79-.632.79H271.286q-.632,0-.79-.79l-1.738-11.534H247.27L245.532-.79q-.158.79-.79.79H227.2Q226.572,0,226.572-.79ZM250.43-29.23H265.6l-6.478-44.4-.948-5.846-.632,5.846ZM323.11,1.58a29.021,29.021,0,0,1-15.563-4.345A32.688,32.688,0,0,1,296.329-14.3a30.978,30.978,0,0,1-4.187-15.879v-7.268a.7.7,0,0,1,.79-.79h17.7q.632,0,.632.79v7.268a12.6,12.6,0,0,0,3.476,8.927,11.061,11.061,0,0,0,8.374,3.713,10.959,10.959,0,0,0,8.374-3.792,12.682,12.682,0,0,0,3.476-8.848q0-5.846-7.584-10.112-2.528-1.422-7.9-4.424T309.364-50.4a33.216,33.216,0,0,1-12.877-12.719,35.485,35.485,0,0,1-4.187-17.3A30,30,0,0,1,296.566-96.3a31.788,31.788,0,0,1,11.3-11.139,29.7,29.7,0,0,1,15.247-4.108,29.556,29.556,0,0,1,15.4,4.187,31.791,31.791,0,0,1,11.218,11.218,30.139,30.139,0,0,1,4.187,15.721v12.956a.559.559,0,0,1-.632.632h-17.7a.559.559,0,0,1-.632-.632L334.8-80.422a12.185,12.185,0,0,0-3.476-9.006A11.233,11.233,0,0,0,323.11-92.9a11.061,11.061,0,0,0-8.374,3.713,12.4,12.4,0,0,0-3.476,8.769,15.89,15.89,0,0,0,2.212,8.69q2.212,3.476,8.058,6.636.79.474,3.081,1.659t4.977,2.686q2.686,1.5,4.819,2.607t2.607,1.422A37.636,37.636,0,0,1,349.5-45.9q4.582,6.4,4.582,15.721a31.581,31.581,0,0,1-4.187,16.195A31.4,31.4,0,0,1,338.673-2.607,29.845,29.845,0,0,1,323.11,1.58ZM380.148,0q-.632,0-.632-.79V-90.85h-20.54a.7.7,0,0,1-.79-.79l.158-17.7a.559.559,0,0,1,.632-.632h60.04q.79,0,.79.632v17.7q0,.79-.632.79h-20.7l.158,90.06q0,.79-.632.79ZM428.18,0q-.632,0-.632-.79l.158-108.546a.559.559,0,0,1,.632-.632h50.718q.632,0,.632.79v17.7a.559.559,0,0,1-.632.632h-32.39V-66.2h32.39a.559.559,0,0,1,.632.632l.158,17.854a.559.559,0,0,1-.632.632H446.666v27.65h32.548q.632,0,.632.79V-.632a.559.559,0,0,1-.632.632Zm69.836-29.072q-.632,0-.79-.79L493.908-66.2v-42.976q0-.79.632-.79h17.7a.7.7,0,0,1,.79.79L512.868-66.2l-3.318,36.34q-.158.79-.79.79ZM494.54,0q-.632,0-.632-.79V-18.012a.559.559,0,0,1,.632-.632h17.7a.559.559,0,0,1,.632.632V-.79q0,.79-.632.79Z" transform="translate(-12226 6594)" fill="#16d3bb"/>
    <path id="Path_1308" data-name="Path 1308" d="M7.2,0a.707.707,0,0,1-.8-.8l.16-109.92a.566.566,0,0,1,.64-.64H25.12a.566.566,0,0,1,.64.64L25.92-.8q0,.8-.64.8ZM40-73.76v-9.92a8.9,8.9,0,0,0,6.8-3.04,10.272,10.272,0,0,0,2.8-7.2H40.64a.566.566,0,0,1-.64-.64v-17.92a.566.566,0,0,1,.64-.64H58.72a.566.566,0,0,1,.64.64v18.56a19.878,19.878,0,0,1-2.72,10.24,20.267,20.267,0,0,1-7.12,7.28A18.176,18.176,0,0,1,40-73.76ZM73.12,0q-.64,0-.64-.8l.32-109.92a.566.566,0,0,1,.64-.64H92.96a1.384,1.384,0,0,1,1.12.64L108.64-89.6l14.56-21.12a1.384,1.384,0,0,1,1.12-.64H144a.566.566,0,0,1,.64.64L144.96-.8q0,.8-.64.8H126.24q-.64,0-.64-.8l-.16-81.6-16.8,24.32L92-82.4,91.84-.8q0,.8-.64.8Zm107.2-.8,19.84-109.92a.756.756,0,0,1,.8-.64h23.2a.756.756,0,0,1,.8.64L244-.8q.16.8-.64.8H225.6q-.64,0-.8-.8l-1.76-11.68H201.28L199.52-.8q-.16.8-.8.8H180.96Q180.32,0,180.32-.8Zm24.16-28.8h15.36l-6.56-44.96-.96-5.92-.64,5.92Z" transform="translate(-12226 6727)" fill="#16d3bb"/>
    <path id="Path_1306" data-name="Path 1306" d="M3.648,23q-.1,0-.12-.12L.216,6.392q-.024-.1.1-.1H3.024a.113.113,0,0,1,.12.1L5.112,17.384,7.032,6.392a.113.113,0,0,1,.12-.1H9.84q.12,0,.1.1L6.672,22.88q-.024.12-.12.12Zm7.824,0a.106.106,0,0,1-.12-.12l.024-16.488a.085.085,0,0,1,.1-.1H14.16a.085.085,0,0,1,.1.1L14.28,22.88q0,.12-.1.12Zm9,.24a4.408,4.408,0,0,1-2.364-.66,4.965,4.965,0,0,1-1.7-1.752,4.706,4.706,0,0,1-.636-2.412v-1.1a.106.106,0,0,1,.12-.12h2.688q.1,0,.1.12v1.1a1.914,1.914,0,0,0,.528,1.356,1.7,1.7,0,0,0,2.544-.012,1.926,1.926,0,0,0,.528-1.344A1.838,1.838,0,0,0,21.12,16.88l-1.2-.672q-.816-.456-1.536-.864a5.046,5.046,0,0,1-1.956-1.932,5.39,5.39,0,0,1-.636-2.628,4.557,4.557,0,0,1,.648-2.412A4.828,4.828,0,0,1,18.156,6.68a4.616,4.616,0,0,1,4.656.012,4.829,4.829,0,0,1,1.7,1.7,4.578,4.578,0,0,1,.636,2.388v1.968a.085.085,0,0,1-.1.1H22.368a.085.085,0,0,1-.1-.1l-.024-1.968a1.851,1.851,0,0,0-.528-1.368,1.706,1.706,0,0,0-1.248-.528,1.68,1.68,0,0,0-1.272.564,1.884,1.884,0,0,0-.528,1.332,2.414,2.414,0,0,0,.336,1.32,3.24,3.24,0,0,0,1.224,1.008q.12.072.468.252t.756.408q.408.228.732.4t.4.216a5.717,5.717,0,0,1,1.9,1.644,4,4,0,0,1,.7,2.388,4.782,4.782,0,0,1-2.34,4.188A4.533,4.533,0,0,1,20.472,23.24Zm10.8,0a4.427,4.427,0,0,1-2.352-.66A4.9,4.9,0,0,1,27.2,20.816a4.77,4.77,0,0,1-.636-2.424l.048-12a.085.085,0,0,1,.1-.1H29.4a.085.085,0,0,1,.1.1v12a1.97,1.97,0,0,0,.516,1.38,1.643,1.643,0,0,0,1.26.564,1.669,1.669,0,0,0,1.284-.564,1.97,1.97,0,0,0,.516-1.38v-12a.085.085,0,0,1,.1-.1h2.688a.085.085,0,0,1,.1.1l.048,12a4.861,4.861,0,0,1-2.34,4.2A4.513,4.513,0,0,1,31.272,23.24Zm5.424-.36L39.672,6.392a.113.113,0,0,1,.12-.1h3.48a.113.113,0,0,1,.12.1L46.248,22.88q.024.12-.1.12H43.488q-.1,0-.12-.12L43.1,21.128H39.84l-.264,1.752q-.024.12-.12.12H36.792Q36.7,23,36.7,22.88Zm3.624-4.32h2.3l-.984-6.744-.144-.888-.1.888ZM47.856,23q-.1,0-.1-.12l.024-16.464a.106.106,0,0,1,.12-.12h2.664a.106.106,0,0,1,.12.12l-.024,13.632h4.944a.106.106,0,0,1,.12.12V22.88a.106.106,0,0,1-.12.12ZM60,23a.106.106,0,0,1-.12-.12l.048-16.488a.085.085,0,0,1,.1-.1l4.488-.024a4.473,4.473,0,0,1,2.412.624,4.9,4.9,0,0,1,1.74,1.74,4.638,4.638,0,0,1,.648,2.412v6.888a4.893,4.893,0,0,1-.672,2.532A5.033,5.033,0,0,1,64.3,22.976Zm2.808-2.952H64.3a2.02,2.02,0,0,0,1.5-.624,2.051,2.051,0,0,0,.612-1.488V11.024a1.821,1.821,0,0,0-.564-1.332,1.739,1.739,0,0,0-1.332-.54l-1.68.024ZM71.3,23q-.1,0-.1-.12l.024-16.488a.085.085,0,0,1,.1-.1h7.7q.1,0,.1.12V9.1a.085.085,0,0,1-.1.1h-4.92v3.744h4.92a.085.085,0,0,1,.1.1l.024,2.712a.085.085,0,0,1-.1.1H74.112v4.2h4.944q.1,0,.1.12V22.9a.085.085,0,0,1-.1.1Zm13.92.24a4.408,4.408,0,0,1-2.364-.66,4.965,4.965,0,0,1-1.7-1.752,4.705,4.705,0,0,1-.636-2.412v-1.1a.106.106,0,0,1,.12-.12h2.688q.1,0,.1.12v1.1a1.914,1.914,0,0,0,.528,1.356A1.7,1.7,0,0,0,86.5,19.76a1.926,1.926,0,0,0,.528-1.344,1.838,1.838,0,0,0-1.152-1.536l-1.2-.672q-.816-.456-1.536-.864a5.046,5.046,0,0,1-1.956-1.932,5.39,5.39,0,0,1-.636-2.628,4.557,4.557,0,0,1,.648-2.412A4.828,4.828,0,0,1,82.908,6.68a4.616,4.616,0,0,1,4.656.012,4.829,4.829,0,0,1,1.7,1.7,4.578,4.578,0,0,1,.636,2.388v1.968a.085.085,0,0,1-.1.1H87.12a.085.085,0,0,1-.1-.1L87,10.784a1.851,1.851,0,0,0-.528-1.368,1.706,1.706,0,0,0-1.248-.528,1.68,1.68,0,0,0-1.272.564,1.884,1.884,0,0,0-.528,1.332,2.414,2.414,0,0,0,.336,1.32,3.24,3.24,0,0,0,1.224,1.008q.12.072.468.252t.756.408q.408.228.732.4t.4.216a5.717,5.717,0,0,1,1.9,1.644,4,4,0,0,1,.7,2.388,4.782,4.782,0,0,1-2.34,4.188A4.533,4.533,0,0,1,85.224,23.24Zm6.5-.24a.106.106,0,0,1-.12-.12l.024-16.488a.085.085,0,0,1,.1-.1h2.688a.085.085,0,0,1,.1.1l.024,16.488q0,.12-.1.12Zm9.312.24a4.408,4.408,0,0,1-2.352-.648A4.9,4.9,0,0,1,97,20.852a4.751,4.751,0,0,1-.636-2.436V10.808A4.661,4.661,0,0,1,97,8.42a4.866,4.866,0,0,1,1.7-1.74,4.426,4.426,0,0,1,2.34-.648,4.578,4.578,0,0,1,2.388.636,4.7,4.7,0,0,1,1.692,1.716,4.757,4.757,0,0,1,.624,2.424v1.1q0,.1-.12.1h-2.688a.085.085,0,0,1-.1-.1V11a2.237,2.237,0,0,0-.516-1.512,1.626,1.626,0,0,0-1.284-.6,1.653,1.653,0,0,0-1.236.576,1.9,1.9,0,0,0-.54,1.344v7.608a1.914,1.914,0,0,0,.528,1.356,1.655,1.655,0,0,0,1.248.564,1.686,1.686,0,0,0,1.284-.552,1.927,1.927,0,0,0,.516-1.368V17.24h-1.68a.106.106,0,0,1-.12-.12V14.432a.106.106,0,0,1,.12-.12h4.488q.1,0,.1.12v3.984a4.751,4.751,0,0,1-.636,2.436,4.9,4.9,0,0,1-1.692,1.74A4.451,4.451,0,0,1,101.04,23.24Zm6.624-.24q-.192,0-.192-.168l-.024-16.344a.17.17,0,0,1,.192-.192h2.16l4.056,9.456-.12-9.264q0-.192.216-.192h2.376q.144,0,.144.192l.024,16.368q0,.144-.12.144h-2.112l-4.152-8.832.168,8.64q0,.192-.216.192Zm11.016,0q-.1,0-.1-.12l.024-16.488a.085.085,0,0,1,.1-.1h7.7q.1,0,.1.12V9.1a.085.085,0,0,1-.1.1h-4.92v3.744h4.92a.085.085,0,0,1,.1.1l.024,2.712a.085.085,0,0,1-.1.1h-4.944v4.2h4.944q.1,0,.1.12V22.9a.085.085,0,0,1-.1.1Zm10.08,0q-.1,0-.1-.12l.048-16.488a.085.085,0,0,1,.1-.1h4.848a4.661,4.661,0,0,1,2.388.636,4.866,4.866,0,0,1,1.74,1.7,4.557,4.557,0,0,1,.648,2.412,4.543,4.543,0,0,1-.264,1.6,4.957,4.957,0,0,1-.624,1.2,4.177,4.177,0,0,1-.648.732,4.9,4.9,0,0,1,1.3,3.384l.024,4.92a.106.106,0,0,1-.12.12h-2.712q-.1,0-.1-.072V17.96a2.092,2.092,0,0,0-.612-1.5,2,2,0,0,0-1.5-.636h-1.584l-.024,7.056q0,.12-.1.12Zm2.832-10.056h2.064a1.854,1.854,0,0,0,1.32-.552,1.841,1.841,0,0,0,.012-2.664,1.841,1.841,0,0,0-1.332-.552h-2.064ZM1.08,53a.106.106,0,0,1-.12-.12L.984,36.392a.085.085,0,0,1,.1-.1H3.768a.085.085,0,0,1,.1.1L3.888,52.88q0,.12-.1.12ZM6.1,53Q6,53,6,52.88l.024-16.464a.106.106,0,0,1,.12-.12H8.808a.106.106,0,0,1,.12.12L8.9,50.048h4.944a.106.106,0,0,1,.12.12V52.88a.106.106,0,0,1-.12.12Zm9.528,0q-.1,0-.1-.12l.024-16.464a.106.106,0,0,1,.12-.12h2.664a.106.106,0,0,1,.12.12l-.024,13.632h4.944a.106.106,0,0,1,.12.12V52.88a.106.106,0,0,1-.12.12Zm13.368.24a4.427,4.427,0,0,1-2.352-.66,4.9,4.9,0,0,1-1.716-1.764,4.77,4.77,0,0,1-.636-2.424l.048-12a.085.085,0,0,1,.1-.1H27.12a.085.085,0,0,1,.1.1v12a1.97,1.97,0,0,0,.516,1.38,1.643,1.643,0,0,0,1.26.564,1.669,1.669,0,0,0,1.284-.564,1.97,1.97,0,0,0,.516-1.38v-12a.085.085,0,0,1,.1-.1h2.688a.085.085,0,0,1,.1.1l.048,12a4.861,4.861,0,0,1-2.34,4.2A4.513,4.513,0,0,1,28.992,53.24Zm10.7,0a4.408,4.408,0,0,1-2.364-.66,4.965,4.965,0,0,1-1.7-1.752,4.706,4.706,0,0,1-.636-2.412v-1.1a.106.106,0,0,1,.12-.12H37.8q.1,0,.1.12v1.1a1.914,1.914,0,0,0,.528,1.356,1.7,1.7,0,0,0,2.544-.012,1.926,1.926,0,0,0,.528-1.344,1.838,1.838,0,0,0-1.152-1.536l-1.2-.672q-.816-.456-1.536-.864a5.046,5.046,0,0,1-1.956-1.932,5.39,5.39,0,0,1-.636-2.628,4.557,4.557,0,0,1,.648-2.412A4.828,4.828,0,0,1,37.38,36.68a4.616,4.616,0,0,1,4.656.012,4.829,4.829,0,0,1,1.7,1.7,4.578,4.578,0,0,1,.636,2.388v1.968a.085.085,0,0,1-.1.1H41.592a.085.085,0,0,1-.1-.1l-.024-1.968a1.851,1.851,0,0,0-.528-1.368,1.706,1.706,0,0,0-1.248-.528,1.68,1.68,0,0,0-1.272.564,1.884,1.884,0,0,0-.528,1.332,2.414,2.414,0,0,0,.336,1.32,3.24,3.24,0,0,0,1.224,1.008q.12.072.468.252t.756.408q.408.228.732.4t.4.216a5.717,5.717,0,0,1,1.9,1.644,4,4,0,0,1,.7,2.388A4.782,4.782,0,0,1,42.06,52.6,4.533,4.533,0,0,1,39.7,53.24ZM48.36,53q-.1,0-.1-.12V39.2h-3.12a.106.106,0,0,1-.12-.12l.024-2.688a.085.085,0,0,1,.1-.1h9.12q.12,0,.12.1V39.08q0,.12-.1.12H51.144l.024,13.68q0,.12-.1.12Zm7.3,0q-.1,0-.1-.12l.048-16.488a.085.085,0,0,1,.1-.1h4.848a4.661,4.661,0,0,1,2.388.636,4.866,4.866,0,0,1,1.74,1.7,4.868,4.868,0,0,1,.384,4.008,4.958,4.958,0,0,1-.624,1.2,4.177,4.177,0,0,1-.648.732,4.9,4.9,0,0,1,1.3,3.384l.024,4.92a.106.106,0,0,1-.12.12H62.28q-.1,0-.1-.072V47.96a2.092,2.092,0,0,0-.612-1.5,2,2,0,0,0-1.5-.636H58.488l-.024,7.056q0,.12-.1.12Zm2.832-10.056h2.064a1.854,1.854,0,0,0,1.32-.552,1.841,1.841,0,0,0,.012-2.664,1.841,1.841,0,0,0-1.332-.552H58.488Zm7.824,9.936,2.976-16.488a.113.113,0,0,1,.12-.1h3.48a.113.113,0,0,1,.12.1L75.864,52.88q.024.12-.1.12H73.1q-.1,0-.12-.12l-.264-1.752H69.456l-.264,1.752q-.024.12-.12.12H66.408Q66.312,53,66.312,52.88Zm3.624-4.32h2.3l-.984-6.744-.144-.888-.1.888ZM78.624,53q-.1,0-.1-.12V39.2h-3.12a.106.106,0,0,1-.12-.12l.024-2.688a.085.085,0,0,1,.1-.1h9.12q.12,0,.12.1V39.08q0,.12-.1.12H81.408l.024,13.68q0,.12-.1.12Zm11.112.24a4.408,4.408,0,0,1-2.364-.66,5.068,5.068,0,0,1-1.716-1.752,4.638,4.638,0,0,1-.648-2.412l.024-7.608a4.641,4.641,0,0,1,.636-2.4,4.864,4.864,0,0,1,1.716-1.728,4.488,4.488,0,0,1,2.352-.648,4.408,4.408,0,0,1,2.352.648,4.93,4.93,0,0,1,1.692,1.728,4.641,4.641,0,0,1,.636,2.4l.024,7.608a4.705,4.705,0,0,1-.636,2.412,4.965,4.965,0,0,1-1.7,1.752A4.408,4.408,0,0,1,89.736,53.24Zm0-2.9A1.662,1.662,0,0,0,91,49.748a1.917,1.917,0,0,0,.54-1.332l-.024-7.608a1.921,1.921,0,0,0-.5-1.344,1.649,1.649,0,0,0-1.272-.552,1.715,1.715,0,0,0-1.272.54,1.861,1.861,0,0,0-.528,1.356v7.608a1.914,1.914,0,0,0,.528,1.356A1.68,1.68,0,0,0,89.736,50.336ZM96.36,53q-.1,0-.1-.12l.048-16.488a.085.085,0,0,1,.1-.1h4.848a4.661,4.661,0,0,1,2.388.636,4.866,4.866,0,0,1,1.74,1.7,4.868,4.868,0,0,1,.384,4.008,4.958,4.958,0,0,1-.624,1.2,4.177,4.177,0,0,1-.648.732,4.9,4.9,0,0,1,1.3,3.384l.024,4.92a.106.106,0,0,1-.12.12h-2.712q-.1,0-.1-.072V47.96a2.092,2.092,0,0,0-.612-1.5,2,2,0,0,0-1.5-.636H99.192l-.024,7.056q0,.12-.1.12Zm2.832-10.056h2.064a1.854,1.854,0,0,0,1.32-.552,1.841,1.841,0,0,0,.012-2.664,1.841,1.841,0,0,0-1.332-.552H99.192ZM5.376,83.24a4.427,4.427,0,0,1-2.352-.66,4.9,4.9,0,0,1-1.716-1.764,4.77,4.77,0,0,1-.636-2.424l.048-12a.085.085,0,0,1,.1-.1H3.5a.085.085,0,0,1,.1.1v12a1.97,1.97,0,0,0,.516,1.38,1.643,1.643,0,0,0,1.26.564,1.669,1.669,0,0,0,1.284-.564,1.97,1.97,0,0,0,.516-1.38v-12a.085.085,0,0,1,.1-.1H9.96a.085.085,0,0,1,.1.1l.048,12a4.861,4.861,0,0,1-2.34,4.2A4.513,4.513,0,0,1,5.376,83.24Zm10.7,0a4.408,4.408,0,0,1-2.364-.66,4.965,4.965,0,0,1-1.7-1.752,4.706,4.706,0,0,1-.636-2.412v-1.1a.106.106,0,0,1,.12-.12h2.688q.1,0,.1.12v1.1a1.914,1.914,0,0,0,.528,1.356,1.7,1.7,0,0,0,2.544-.012,1.926,1.926,0,0,0,.528-1.344,1.838,1.838,0,0,0-1.152-1.536l-1.2-.672q-.816-.456-1.536-.864a5.046,5.046,0,0,1-1.956-1.932,5.39,5.39,0,0,1-.636-2.628,4.557,4.557,0,0,1,.648-2.412,4.828,4.828,0,0,1,1.716-1.692,4.616,4.616,0,0,1,4.656.012,4.829,4.829,0,0,1,1.7,1.7,4.578,4.578,0,0,1,.636,2.388v1.968a.085.085,0,0,1-.1.1H17.976a.085.085,0,0,1-.1-.1l-.024-1.968a1.851,1.851,0,0,0-.528-1.368,1.706,1.706,0,0,0-1.248-.528,1.68,1.68,0,0,0-1.272.564,1.884,1.884,0,0,0-.528,1.332,2.414,2.414,0,0,0,.336,1.32,3.24,3.24,0,0,0,1.224,1.008q.12.072.468.252t.756.408q.408.228.732.4t.4.216a5.717,5.717,0,0,1,1.9,1.644,4,4,0,0,1,.7,2.388,4.782,4.782,0,0,1-2.34,4.188A4.533,4.533,0,0,1,16.08,83.24ZM22.56,83q-.1,0-.1-.12l.024-16.488a.085.085,0,0,1,.1-.1h7.7q.1,0,.1.12V69.1a.085.085,0,0,1-.1.1h-4.92v3.744h4.92a.085.085,0,0,1,.1.1l.024,2.712a.085.085,0,0,1-.1.1H25.368v4.2h4.944q.1,0,.1.12V82.9a.085.085,0,0,1-.1.1Zm10.08,0q-.1,0-.1-.12l.048-16.488a.085.085,0,0,1,.1-.1h4.848a4.661,4.661,0,0,1,2.388.636,4.866,4.866,0,0,1,1.74,1.7,4.868,4.868,0,0,1,.384,4.008,4.957,4.957,0,0,1-.624,1.2,4.178,4.178,0,0,1-.648.732,4.9,4.9,0,0,1,1.3,3.384l.024,4.92a.106.106,0,0,1-.12.12H39.264q-.1,0-.1-.072V77.96a2.092,2.092,0,0,0-.612-1.5,2,2,0,0,0-1.5-.636H35.472l-.024,7.056q0,.12-.1.12Zm2.832-10.056h2.064a1.854,1.854,0,0,0,1.32-.552,1.841,1.841,0,0,0,.012-2.664,1.841,1.841,0,0,0-1.332-.552H35.472ZM47.76,83q-.1,0-.1-.12l.024-16.488a.085.085,0,0,1,.1-.1h7.7q.1,0,.1.12V69.1a.085.085,0,0,1-.1.1h-4.92v3.744h4.92a.085.085,0,0,1,.1.1l.024,2.712a.085.085,0,0,1-.1.1H50.568v4.2h4.944q.1,0,.1.12V82.9a.085.085,0,0,1-.1.1ZM56.5,83q-.1,0-.072-.12l2.736-8.568-2.688-7.92q-.024-.1.072-.1h2.688a.129.129,0,0,1,.144.1L60.984,72.1l1.632-5.712a.129.129,0,0,1,.144-.1h2.664q.1,0,.072.1l-2.688,7.9L65.52,82.88q.048.12-.072.12H62.76q-.1,0-.144-.12l-1.632-6.192L59.328,82.88a.134.134,0,0,1-.144.12Zm10.56,0a.106.106,0,0,1-.12-.12l.048-16.488a.085.085,0,0,1,.1-.1h4.608A4.6,4.6,0,0,1,75.18,67.64a5.062,5.062,0,0,1,1.284,3.648,6.139,6.139,0,0,1-.672,2.952,4.981,4.981,0,0,1-1.752,1.92,4.368,4.368,0,0,1-2.352.672H69.864V82.88a.106.106,0,0,1-.12.12Zm2.808-9.072h1.824A1.649,1.649,0,0,0,73.02,73.2a3.039,3.039,0,0,0,.564-1.908,2.307,2.307,0,0,0-.5-1.536,1.72,1.72,0,0,0-1.392-.6l-1.824.024ZM78,83q-.1,0-.1-.12l.024-16.488a.085.085,0,0,1,.1-.1h7.7q.1,0,.1.12V69.1a.085.085,0,0,1-.1.1h-4.92v3.744h4.92a.085.085,0,0,1,.1.1l.024,2.712a.085.085,0,0,1-.1.1H80.808v4.2h4.944q.1,0,.1.12V82.9a.085.085,0,0,1-.1.1Zm10.08,0q-.1,0-.1-.12l.048-16.488a.085.085,0,0,1,.1-.1h4.848a4.661,4.661,0,0,1,2.388.636,4.866,4.866,0,0,1,1.74,1.7,4.868,4.868,0,0,1,.384,4.008,4.958,4.958,0,0,1-.624,1.2,4.177,4.177,0,0,1-.648.732,4.9,4.9,0,0,1,1.3,3.384l.024,4.92a.106.106,0,0,1-.12.12H94.7q-.1,0-.1-.072V77.96A2.092,2.092,0,0,0,94,76.46a2,2,0,0,0-1.5-.636H90.912l-.024,7.056q0,.12-.1.12Zm2.832-10.056h2.064a1.854,1.854,0,0,0,1.32-.552,1.841,1.841,0,0,0,.012-2.664,1.841,1.841,0,0,0-1.332-.552H90.912ZM99.672,83a.106.106,0,0,1-.12-.12l.024-16.488a.085.085,0,0,1,.1-.1h2.688a.085.085,0,0,1,.1.1l.024,16.488q0,.12-.1.12Zm5.016,0q-.1,0-.1-.12l.024-16.488a.085.085,0,0,1,.1-.1h7.7q.1,0,.1.12V69.1a.085.085,0,0,1-.1.1H107.5v3.744h4.92a.085.085,0,0,1,.1.1l.024,2.712a.085.085,0,0,1-.1.1H107.5v4.2h4.944q.1,0,.1.12V82.9a.085.085,0,0,1-.1.1Zm10.2,0q-.192,0-.192-.168l-.024-16.344a.17.17,0,0,1,.192-.192h2.16l4.056,9.456-.12-9.264q0-.192.216-.192h2.376q.144,0,.144.192l.024,16.368q0,.144-.12.144h-2.112l-4.152-8.832.168,8.64q0,.192-.216.192Zm15.336.24a4.451,4.451,0,0,1-2.388-.66,4.837,4.837,0,0,1-1.692-1.764,4.935,4.935,0,0,1-.624-2.472l.024-7.488a4.849,4.849,0,0,1,.612-2.412,4.768,4.768,0,0,1,1.68-1.752,4.665,4.665,0,0,1,4.764-.012,4.824,4.824,0,0,1,2.3,4.176v1.1a.085.085,0,0,1-.1.1H132.12a.085.085,0,0,1-.1-.1v-1.1a1.982,1.982,0,0,0-.516-1.368,1.654,1.654,0,0,0-1.284-.576,1.57,1.57,0,0,0-1.32.588,2.151,2.151,0,0,0-.456,1.356v7.488a2.024,2.024,0,0,0,.516,1.44,1.659,1.659,0,0,0,1.26.552,1.613,1.613,0,0,0,1.284-.612,2.084,2.084,0,0,0,.516-1.38v-1.1a.085.085,0,0,1,.1-.1h2.712a.085.085,0,0,1,.1.1v1.1a4.862,4.862,0,0,1-.636,2.472A4.97,4.97,0,0,1,132.6,82.58,4.39,4.39,0,0,1,130.224,83.24Zm6.552-.24q-.1,0-.1-.12l.024-16.488a.085.085,0,0,1,.1-.1h7.7q.1,0,.1.12V69.1a.085.085,0,0,1-.1.1h-4.92v3.744h4.92a.085.085,0,0,1,.1.1l.024,2.712a.085.085,0,0,1-.1.1h-4.944v4.2h4.944q.1,0,.1.12V82.9a.085.085,0,0,1-.1.1Zm13.656,0a.106.106,0,0,1-.12-.12l.048-16.488a.085.085,0,0,1,.1-.1l4.488-.024a4.473,4.473,0,0,1,2.412.624,4.9,4.9,0,0,1,1.74,1.74,4.638,4.638,0,0,1,.648,2.412v6.888a4.893,4.893,0,0,1-.672,2.532,5.033,5.033,0,0,1-4.344,2.508Zm2.808-2.952h1.488a2.02,2.02,0,0,0,1.5-.624,2.051,2.051,0,0,0,.612-1.488V71.024a1.821,1.821,0,0,0-.564-1.332,1.739,1.739,0,0,0-1.332-.54l-1.68.024Zm8.5,2.952q-.1,0-.1-.12l.024-16.488a.085.085,0,0,1,.1-.1h7.7q.1,0,.1.12V69.1a.085.085,0,0,1-.1.1h-4.92v3.744h4.92a.085.085,0,0,1,.1.1l.024,2.712a.085.085,0,0,1-.1.1h-4.944v4.2h4.944q.1,0,.1.12V82.9a.085.085,0,0,1-.1.1Zm13.92.24a4.408,4.408,0,0,1-2.364-.66,4.965,4.965,0,0,1-1.7-1.752,4.706,4.706,0,0,1-.636-2.412v-1.1a.106.106,0,0,1,.12-.12h2.688q.1,0,.1.12v1.1a1.914,1.914,0,0,0,.528,1.356,1.7,1.7,0,0,0,2.544-.012,1.926,1.926,0,0,0,.528-1.344A1.838,1.838,0,0,0,176.3,76.88l-1.2-.672q-.816-.456-1.536-.864a5.046,5.046,0,0,1-1.956-1.932,5.39,5.39,0,0,1-.636-2.628,4.558,4.558,0,0,1,.648-2.412,4.829,4.829,0,0,1,1.716-1.692,4.616,4.616,0,0,1,4.656.012,4.829,4.829,0,0,1,1.7,1.7,4.578,4.578,0,0,1,.636,2.388v1.968a.085.085,0,0,1-.1.1h-2.688a.085.085,0,0,1-.1-.1l-.024-1.968a1.851,1.851,0,0,0-.528-1.368,1.706,1.706,0,0,0-1.248-.528,1.68,1.68,0,0,0-1.272.564,1.884,1.884,0,0,0-.528,1.332,2.414,2.414,0,0,0,.336,1.32,3.24,3.24,0,0,0,1.224,1.008q.12.072.468.252t.756.408q.408.228.732.4t.4.216a5.717,5.717,0,0,1,1.9,1.644,4,4,0,0,1,.7,2.388,4.782,4.782,0,0,1-2.34,4.188A4.533,4.533,0,0,1,175.656,83.24Zm6.5-.24a.106.106,0,0,1-.12-.12l.024-16.488a.085.085,0,0,1,.1-.1h2.688a.085.085,0,0,1,.1.1l.024,16.488q0,.12-.1.12Zm9.312.24a4.408,4.408,0,0,1-2.352-.648,4.9,4.9,0,0,1-1.692-1.74,4.751,4.751,0,0,1-.636-2.436V70.808a4.661,4.661,0,0,1,.636-2.388,4.866,4.866,0,0,1,1.7-1.74,4.427,4.427,0,0,1,2.34-.648,4.578,4.578,0,0,1,2.388.636,4.7,4.7,0,0,1,1.692,1.716,4.757,4.757,0,0,1,.624,2.424v1.1q0,.1-.12.1h-2.688a.085.085,0,0,1-.1-.1V71a2.237,2.237,0,0,0-.516-1.512,1.626,1.626,0,0,0-1.284-.6,1.653,1.653,0,0,0-1.236.576,1.9,1.9,0,0,0-.54,1.344v7.608a1.914,1.914,0,0,0,.528,1.356,1.655,1.655,0,0,0,1.248.564,1.686,1.686,0,0,0,1.284-.552,1.927,1.927,0,0,0,.516-1.368V77.24h-1.68a.106.106,0,0,1-.12-.12V74.432a.106.106,0,0,1,.12-.12h4.488q.1,0,.1.12v3.984a4.751,4.751,0,0,1-.636,2.436,4.9,4.9,0,0,1-1.692,1.74A4.451,4.451,0,0,1,191.472,83.24ZM198.1,83q-.192,0-.192-.168l-.024-16.344a.17.17,0,0,1,.192-.192h2.16l4.056,9.456-.12-9.264q0-.192.216-.192h2.376q.144,0,.144.192l.024,16.368q0,.144-.12.144H204.7l-4.152-8.832.168,8.64q0,.192-.216.192Zm11.016,0q-.1,0-.1-.12l.024-16.488a.085.085,0,0,1,.1-.1h7.7q.1,0,.1.12V69.1a.085.085,0,0,1-.1.1h-4.92v3.744h4.92a.085.085,0,0,1,.1.1l.024,2.712a.085.085,0,0,1-.1.1H211.92v4.2h4.944q.1,0,.1.12V82.9a.085.085,0,0,1-.1.1Zm10.08,0q-.1,0-.1-.12l.048-16.488a.085.085,0,0,1,.1-.1h4.848a4.661,4.661,0,0,1,2.388.636,4.866,4.866,0,0,1,1.74,1.7,4.868,4.868,0,0,1,.384,4.008,4.958,4.958,0,0,1-.624,1.2,4.178,4.178,0,0,1-.648.732,4.9,4.9,0,0,1,1.3,3.384l.024,4.92a.106.106,0,0,1-.12.12h-2.712q-.1,0-.1-.072V77.96a2.092,2.092,0,0,0-.612-1.5,2,2,0,0,0-1.5-.636h-1.584L222,82.88q0,.12-.1.12Zm2.832-10.056h2.064a1.854,1.854,0,0,0,1.32-.552,1.841,1.841,0,0,0,.012-2.664,1.841,1.841,0,0,0-1.332-.552h-2.064ZM5.376,113.24a4.427,4.427,0,0,1-2.352-.66,4.9,4.9,0,0,1-1.716-1.764,4.77,4.77,0,0,1-.636-2.424l.048-12a.085.085,0,0,1,.1-.1H3.5a.085.085,0,0,1,.1.1v12a1.97,1.97,0,0,0,.516,1.38,1.643,1.643,0,0,0,1.26.564,1.669,1.669,0,0,0,1.284-.564,1.97,1.97,0,0,0,.516-1.38v-12a.085.085,0,0,1,.1-.1H9.96a.085.085,0,0,1,.1.1l.048,12a4.861,4.861,0,0,1-2.34,4.2A4.513,4.513,0,0,1,5.376,113.24Zm10.7,0a4.408,4.408,0,0,1-2.364-.66,4.965,4.965,0,0,1-1.7-1.752,4.706,4.706,0,0,1-.636-2.412v-1.1a.106.106,0,0,1,.12-.12h2.688q.1,0,.1.12v1.1a1.914,1.914,0,0,0,.528,1.356,1.7,1.7,0,0,0,2.544-.012,1.926,1.926,0,0,0,.528-1.344,1.838,1.838,0,0,0-1.152-1.536l-1.2-.672q-.816-.456-1.536-.864a5.046,5.046,0,0,1-1.956-1.932,5.39,5.39,0,0,1-.636-2.628,4.557,4.557,0,0,1,.648-2.412,4.828,4.828,0,0,1,1.716-1.692,4.616,4.616,0,0,1,4.656.012,4.829,4.829,0,0,1,1.7,1.7,4.578,4.578,0,0,1,.636,2.388v1.968a.085.085,0,0,1-.1.1H17.976a.085.085,0,0,1-.1-.1l-.024-1.968a1.851,1.851,0,0,0-.528-1.368,1.706,1.706,0,0,0-1.248-.528,1.68,1.68,0,0,0-1.272.564,1.884,1.884,0,0,0-.528,1.332,2.414,2.414,0,0,0,.336,1.32,3.24,3.24,0,0,0,1.224,1.008q.12.072.468.252t.756.408q.408.228.732.4t.4.216a5.717,5.717,0,0,1,1.9,1.644,4,4,0,0,1,.7,2.388,4.782,4.782,0,0,1-2.34,4.188A4.533,4.533,0,0,1,16.08,113.24Zm6.48-.24q-.1,0-.1-.12l.024-16.488a.085.085,0,0,1,.1-.1h7.7q.1,0,.1.12V99.1a.085.085,0,0,1-.1.1h-4.92v3.744h4.92a.085.085,0,0,1,.1.1l.024,2.712a.085.085,0,0,1-.1.1H25.368v4.2h4.944q.1,0,.1.12V112.9a.085.085,0,0,1-.1.1Zm10.08,0q-.1,0-.1-.12l.048-16.488a.085.085,0,0,1,.1-.1h4.848a4.661,4.661,0,0,1,2.388.636,4.866,4.866,0,0,1,1.74,1.7,4.868,4.868,0,0,1,.384,4.008,4.957,4.957,0,0,1-.624,1.2,4.178,4.178,0,0,1-.648.732,4.9,4.9,0,0,1,1.3,3.384l.024,4.92a.106.106,0,0,1-.12.12H39.264q-.1,0-.1-.072V107.96a2.092,2.092,0,0,0-.612-1.5,2,2,0,0,0-1.5-.636H35.472l-.024,7.056q0,.12-.1.12Zm2.832-10.056h2.064a1.854,1.854,0,0,0,1.32-.552,1.841,1.841,0,0,0,.012-2.664,1.841,1.841,0,0,0-1.332-.552H35.472ZM47.784,113a.106.106,0,0,1-.12-.12l.024-16.488a.085.085,0,0,1,.1-.1h2.688a.085.085,0,0,1,.1.1l.024,16.488q0,.12-.1.12Zm5.136,0q-.192,0-.192-.168L52.7,96.488A.17.17,0,0,1,52.9,96.3h2.16l4.056,9.456-.12-9.264q0-.192.216-.192h2.376q.144,0,.144.192l.024,16.368q0,.144-.12.144H59.52l-4.152-8.832.168,8.64q0,.192-.216.192Zm13.32,0q-.1,0-.1-.12V99.2h-3.12a.106.106,0,0,1-.12-.12l.024-2.688a.085.085,0,0,1,.1-.1h9.12q.12,0,.12.1V99.08q0,.12-.1.12H69.024l.024,13.68q0,.12-.1.12Zm7.3,0q-.1,0-.1-.12l.024-16.488a.085.085,0,0,1,.1-.1h7.7q.1,0,.1.12V99.1a.085.085,0,0,1-.1.1h-4.92v3.744h4.92a.085.085,0,0,1,.1.1l.024,2.712a.085.085,0,0,1-.1.1H76.344v4.2h4.944q.1,0,.1.12V112.9a.085.085,0,0,1-.1.1Zm10.08,0q-.1,0-.1-.12l.048-16.488a.085.085,0,0,1,.1-.1h4.848a4.661,4.661,0,0,1,2.388.636,4.866,4.866,0,0,1,1.74,1.7,4.868,4.868,0,0,1,.384,4.008,4.958,4.958,0,0,1-.624,1.2,4.177,4.177,0,0,1-.648.732,4.9,4.9,0,0,1,1.3,3.384l.024,4.92a.106.106,0,0,1-.12.12H90.24q-.1,0-.1-.072V107.96a2.092,2.092,0,0,0-.612-1.5,2,2,0,0,0-1.5-.636H86.448l-.024,7.056q0,.12-.1.12Zm2.832-10.056h2.064a1.854,1.854,0,0,0,1.32-.552,1.841,1.841,0,0,0,.012-2.664,1.841,1.841,0,0,0-1.332-.552H86.448ZM95.208,113a.106.106,0,0,1-.12-.12l.048-16.488a.085.085,0,0,1,.1-.1h7.68q.12,0,.12.1V99.1a.085.085,0,0,1-.1.1h-4.92v3.72h4.92q.1,0,.1.12l.024,2.712q0,.1-.12.1h-4.92v7.032a.106.106,0,0,1-.12.12Zm7.752-.12,2.976-16.488a.113.113,0,0,1,.12-.1h3.48a.113.113,0,0,1,.12.1l2.856,16.488q.024.12-.1.12h-2.664q-.1,0-.12-.12l-.264-1.752H106.1l-.264,1.752q-.024.12-.12.12h-2.664Q102.96,113,102.96,112.88Zm3.624-4.32h2.3l-.984-6.744-.144-.888-.1.888Zm11.376,4.68a4.451,4.451,0,0,1-2.388-.66,4.837,4.837,0,0,1-1.692-1.764,4.935,4.935,0,0,1-.624-2.472l.024-7.488a4.849,4.849,0,0,1,.612-2.412,4.768,4.768,0,0,1,1.68-1.752,4.665,4.665,0,0,1,4.764-.012,4.824,4.824,0,0,1,2.3,4.176v1.1a.085.085,0,0,1-.1.1h-2.688a.085.085,0,0,1-.1-.1v-1.1a1.982,1.982,0,0,0-.516-1.368,1.654,1.654,0,0,0-1.284-.576,1.57,1.57,0,0,0-1.32.588,2.151,2.151,0,0,0-.456,1.356v7.488a2.024,2.024,0,0,0,.516,1.44,1.659,1.659,0,0,0,1.26.552,1.613,1.613,0,0,0,1.284-.612,2.084,2.084,0,0,0,.516-1.38v-1.1a.085.085,0,0,1,.1-.1h2.712a.085.085,0,0,1,.1.1v1.1a4.862,4.862,0,0,1-.636,2.472,4.97,4.97,0,0,1-1.692,1.764A4.39,4.39,0,0,1,117.96,113.24Zm6.552-.24q-.1,0-.1-.12l.024-16.488a.085.085,0,0,1,.1-.1h7.7q.1,0,.1.12V99.1a.085.085,0,0,1-.1.1h-4.92v3.744h4.92a.085.085,0,0,1,.1.1l.024,2.712a.085.085,0,0,1-.1.1H127.32v4.2h4.944q.1,0,.1.12V112.9a.085.085,0,0,1-.1.1Zm13.656,0a.106.106,0,0,1-.12-.12l.048-16.488a.085.085,0,0,1,.1-.1l4.488-.024a4.473,4.473,0,0,1,2.412.624,4.9,4.9,0,0,1,1.74,1.74,4.638,4.638,0,0,1,.648,2.412v6.888a4.893,4.893,0,0,1-.672,2.532,5.033,5.033,0,0,1-4.344,2.508Zm2.808-2.952h1.488a2.02,2.02,0,0,0,1.5-.624,2.051,2.051,0,0,0,.612-1.488v-6.912a1.821,1.821,0,0,0-.564-1.332,1.739,1.739,0,0,0-1.332-.54l-1.68.024Zm8.5,2.952q-.1,0-.1-.12l.024-16.488a.085.085,0,0,1,.1-.1h7.7q.1,0,.1.12V99.1a.085.085,0,0,1-.1.1h-4.92v3.744h4.92a.085.085,0,0,1,.1.1l.024,2.712a.085.085,0,0,1-.1.1H152.28v4.2h4.944q.1,0,.1.12V112.9a.085.085,0,0,1-.1.1Zm13.92.24a4.408,4.408,0,0,1-2.364-.66,4.965,4.965,0,0,1-1.7-1.752,4.706,4.706,0,0,1-.636-2.412v-1.1a.106.106,0,0,1,.12-.12H161.5q.1,0,.1.12v1.1a1.914,1.914,0,0,0,.528,1.356,1.7,1.7,0,0,0,2.544-.012,1.926,1.926,0,0,0,.528-1.344,1.838,1.838,0,0,0-1.152-1.536l-1.2-.672q-.816-.456-1.536-.864a5.046,5.046,0,0,1-1.956-1.932,5.39,5.39,0,0,1-.636-2.628,4.558,4.558,0,0,1,.648-2.412,4.829,4.829,0,0,1,1.716-1.692,4.616,4.616,0,0,1,4.656.012,4.829,4.829,0,0,1,1.7,1.7,4.578,4.578,0,0,1,.636,2.388v1.968a.085.085,0,0,1-.1.1h-2.688a.085.085,0,0,1-.1-.1l-.024-1.968a1.851,1.851,0,0,0-.528-1.368,1.706,1.706,0,0,0-1.248-.528,1.68,1.68,0,0,0-1.272.564,1.884,1.884,0,0,0-.528,1.332,2.414,2.414,0,0,0,.336,1.32,3.24,3.24,0,0,0,1.224,1.008q.12.072.468.252t.756.408q.408.228.732.4t.4.216a5.717,5.717,0,0,1,1.9,1.644,4,4,0,0,1,.7,2.388,4.782,4.782,0,0,1-2.34,4.188A4.533,4.533,0,0,1,163.392,113.24Zm6.5-.24a.106.106,0,0,1-.12-.12l.024-16.488a.085.085,0,0,1,.1-.1h2.688a.085.085,0,0,1,.1.1l.024,16.488q0,.12-.1.12Zm9.312.24a4.408,4.408,0,0,1-2.352-.648,4.9,4.9,0,0,1-1.692-1.74,4.751,4.751,0,0,1-.636-2.436v-7.608a4.661,4.661,0,0,1,.636-2.388,4.866,4.866,0,0,1,1.7-1.74,4.427,4.427,0,0,1,2.34-.648,4.578,4.578,0,0,1,2.388.636,4.7,4.7,0,0,1,1.692,1.716,4.757,4.757,0,0,1,.624,2.424v1.1q0,.1-.12.1H181.1a.085.085,0,0,1-.1-.1V101a2.237,2.237,0,0,0-.516-1.512,1.626,1.626,0,0,0-1.284-.6,1.653,1.653,0,0,0-1.236.576,1.9,1.9,0,0,0-.54,1.344v7.608a1.914,1.914,0,0,0,.528,1.356,1.655,1.655,0,0,0,1.248.564,1.686,1.686,0,0,0,1.284-.552,1.927,1.927,0,0,0,.516-1.368V107.24h-1.68a.106.106,0,0,1-.12-.12v-2.688a.106.106,0,0,1,.12-.12h4.488q.1,0,.1.12v3.984a4.751,4.751,0,0,1-.636,2.436,4.9,4.9,0,0,1-1.692,1.74A4.451,4.451,0,0,1,179.208,113.24Zm6.624-.24q-.192,0-.192-.168l-.024-16.344a.17.17,0,0,1,.192-.192h2.16l4.056,9.456-.12-9.264q0-.192.216-.192H194.5q.144,0,.144.192l.024,16.368q0,.144-.12.144h-2.112l-4.152-8.832.168,8.64q0,.192-.216.192Zm11.016,0q-.1,0-.1-.12l.024-16.488a.085.085,0,0,1,.1-.1h7.7q.1,0,.1.12V99.1a.085.085,0,0,1-.1.1h-4.92v3.744h4.92a.085.085,0,0,1,.1.1l.024,2.712a.085.085,0,0,1-.1.1h-4.944v4.2H204.6q.1,0,.1.12V112.9a.085.085,0,0,1-.1.1Zm10.08,0q-.1,0-.1-.12l.048-16.488a.085.085,0,0,1,.1-.1h4.848a4.661,4.661,0,0,1,2.388.636,4.866,4.866,0,0,1,1.74,1.7,4.868,4.868,0,0,1,.384,4.008,4.958,4.958,0,0,1-.624,1.2,4.178,4.178,0,0,1-.648.732,4.9,4.9,0,0,1,1.3,3.384l.024,4.92a.106.106,0,0,1-.12.12h-2.712q-.1,0-.1-.072V107.96a2.092,2.092,0,0,0-.612-1.5,2,2,0,0,0-1.5-.636H209.76l-.024,7.056q0,.12-.1.12Zm2.832-10.056h2.064a1.854,1.854,0,0,0,1.32-.552,1.841,1.841,0,0,0,.012-2.664,1.841,1.841,0,0,0-1.332-.552H209.76Z" transform="translate(-11958 6610)" fill="#ce3e67"/>
  </g>
</svg>
