<svg id="Layer_1" data-name="Layer 1" xmlns="http://www.w3.org/2000/svg" viewBox="0 0 294.42 283.64"><defs><style>.cls-1{fill:#f5bf17;}</style></defs><g id="Group_12" data-name="Group 12"><path id="Path_55" data-name="Path 55" class="cls-1" d="M242.38,256.7c-6,1-9-2.2-11.78-5.56-5.64-6.91-11.12-14-16.66-20.95-5.92-7.46-9.42-8-17.39-2.87-2.86,1.86-5.54,4.37-8.69,5.32-6.83,2.06-8.54,6.41-7.94,13,1,10.57,1.6,21.18,2.06,31.8.08,2.05-1.32,4.16-2,6.25-1.62-1.58-4.14-2.9-4.69-4.79a157.59,157.59,0,0,1-3.82-17.73c-1-5.62-1.72-11.28-2.2-17-.36-4.24-2.52-6.09-6.52-6.35-6-.4-12.08-.84-18.13-1.22-3.94-.25-6.52,1.27-7.39,5.41-2.2,10.58-4.27,21.2-7,31.65-.85,3.27-3.9,8.77-5.37,8.59-5.2-.65-3.46-6-3.37-9.32.31-11.37,1.09-22.74,2-34.09.35-4.17-1.28-6-4.94-7.5-7.4-2.94-14.55-6.5-21.93-9.5-7-2.86-9.94-2.09-13.81,4.41-5.71,9.62-10.86,19.56-16.36,29.31-1.65,2.94-2.66,7.94-7.4,5.8-4.28-1.95-2.68-6.73-1.24-9.66,4.85-9.86,10.22-19.48,15.68-29,4-7,4-7.72-3.14-11.81-4.58-2.6-9.42-7.21-13.85-6.89-4.06.3-7.68,6.05-11.58,9.31-7.27,6.1-14.44,12.34-22,18.06-2.29,1.73-5.71,2-8.62,2.87.88-3.05.93-6.78,2.78-9q10.68-12.94,22.4-25c3.62-3.73,3.49-5.78-.6-8.86-6.52-4.9-12.5-10.51-18.94-15.53-2.7-2.11-2.78-4-1.33-6.78,4-7.54,7.81-15.16,11.68-22.77,3.7-7.26,3.28-9.49-2.65-14.82q-11.2-10.09-22.4-20.22C4,110,2.39,109,1.71,107.55c-.95-2-1.17-4.39-1.71-6.6,2.2.2,4.81-.29,6.53.73Q21.44,110.56,36,120.09c4.72,3.12,8.52,3.16,12.63-1,5-5,10.48-9.37,15.25-14.5,1.31-1.4,1.9-5.31.92-6.71-4.6-6.46-9.87-12.45-14.91-18.6-3.48-4.24-7.4-8.21-10.28-12.83-1.19-1.91-.18-5.2-.18-7.87,2.47.71,5.69.67,7.29,2.26C56,70.1,65,79.59,73.88,89.23c3.21,3.49,5.79,4.57,10,1.38a147.86,147.86,0,0,1,16.71-10.85c4.54-2.55,5-5.84,3.14-10-2.6-5.9-5.64-11.62-7.93-17.64a89.61,89.61,0,0,1-5.22-17.9c-.41-2.66,1.42-7.42,3.51-8.35,4-1.79,6.34,2,7.69,5.59,3.48,9.22,6.86,18.48,10.37,27.7,1.08,2.83,1.94,6,3.82,8.2a8.92,8.92,0,0,0,6.49,3c6.22-.47,12.38-1.76,18.55-2.84,11.35-2,15.05-6.31,14.72-17.76-.33-11.76-.94-23.51-1.39-35.27a28.82,28.82,0,0,1,.15-6.82c.77-3.73,1.69-7.89,6.79-7.62C166,.27,167,4,167,7.79c.06,15,.2,30-.22,45-.18,6.34,1.81,9.68,8.12,11.44,9.11,2.55,18,5.82,26.87,9.26,4.11,1.6,5.79.38,7.21-3.32,5-12.92,10-25.83,15.29-38.62a45.65,45.65,0,0,1,6.44-10.61c1-1.29,4.3-2.41,5.3-1.74,1.49,1,2.93,3.9,2.54,5.56a183.42,183.42,0,0,1-5.82,19.59C228.87,55.26,224.54,66,220.86,77a8.71,8.71,0,0,0,1.32,7c4.86,6.06,10.24,11.7,15.51,17.43,3,3.22,6.32,3.89,10.13,1.21q17.46-12.25,35-24.39c1.87-1.29,3.76-2.82,5.87-3.38,1.73-.46,3.8.36,5.72.61-.62,1.63-.8,3.7-1.93,4.83q-12.84,12.92-26,25.5c-3.14,3-6.6,5.7-10,8.45s-4.37,5.92-2.06,10c3.57,6.26,7,12.61,10.38,19,4.52,8.48,3.81,14.68-2.37,21.95-4.06,4.77-8,9.62-12.21,14.29-2.5,2.8-2.58,4.61.5,7.41,8.56,7.8,16.68,16.08,25,24.19.68.66,1.67,1.3,1.86,2.1.51,2.19.67,4.46,1,6.69-2.06-.41-4.51-.24-6.12-1.33-8.5-5.73-17-11.57-25.09-17.8-4.5-3.45-8-3.2-11.92.65-3.23,3.2-6.66,6.21-10.13,9.16-5.47,4.64-5.4,6.19-1.47,12.4,5.77,9.11,11.07,18.52,16.46,27.86C241.13,252.33,241.5,254.22,242.38,256.7ZM162.54,76.81c-3,0-6.08-.06-9.12,0a35.05,35.05,0,0,0-3.94.61c-21.83,3.27-41.48,12.08-59.66,24.2C65.91,117.6,45.69,136.87,35.17,164.6c-1.56,4.12-2,7,2.09,9.62,14.17,9.11,27.68,19.47,42.56,27.2,22.71,11.79,46.27,22.3,72.45,23.75,25.91,1.43,48.54-7.29,65.9-26.38,12.47-13.7,22.9-29.27,34-44.17,1.09-1.46,1.53-4.67.67-6.12-7.6-12.88-14.44-26.44-23.67-38.08C212.41,89.25,190.49,76.58,162.54,76.81Z"/><path id="Path_56" data-name="Path 56" class="cls-1" d="M197.93,153.76c-.16,12.38-7.84,27.5-22.72,38.67-22.56,16.94-47.23,7.73-62-11.34-21.16-27.36-4.18-74.43,24.83-85.26,16-6,32.81-1.8,45.48,12.9C193.08,119.8,198,132.69,197.93,153.76Zm-48.5-20.7c.1,3.62,3.78,7.35,7.42,7.11,4.68-.31,6.55-3.62,6.43-7.73-.11-3.86-1.34-7.68-6.25-7.87C153.38,124.43,149.34,129.2,149.43,133.06Z"/></g></svg>