<svg xmlns="http://www.w3.org/2000/svg" width="1084" height="503" viewBox="0 0 1084 503">
  <g id="Group_515" data-name="Group 515" transform="translate(1171 -2785)">
    <circle id="Ellipse_42" data-name="Ellipse 42" cx="77" cy="77" r="77" transform="translate(-985 2785)" fill="#be565a"/>
    <text id="_BE565A" data-name="#BE565A" transform="translate(-908 2980)" font-size="18" font-family="Poppins-Light, Poppins" font-weight="300"><tspan x="-39.843" y="0">#BE565A</tspan></text>
    <circle id="Ellipse_43" data-name="Ellipse 43" cx="77" cy="77" r="77" transform="translate(-799 2785)" fill="#e2bd94"/>
    <text id="_E2BD94" data-name="#E2BD94" transform="translate(-722 2980)" font-size="18" font-family="Poppins-Light, Poppins" font-weight="300"><tspan x="-39.852" y="0">#E2BD94</tspan></text>
    <circle id="Ellipse_81" data-name="Ellipse 81" cx="77" cy="77" r="77" transform="translate(-613 2785)" fill="#404d81"/>
    <text id="_404D81" data-name="#404D81" transform="translate(-536 2980)" font-size="18" font-family="Poppins-Light, Poppins" font-weight="300"><tspan x="-38.484" y="0">#404D81</tspan></text>
    <g id="Ellipse_82" data-name="Ellipse 82" transform="translate(-427 2785)" fill="#5b8286" stroke="#646464" stroke-width="1">
      <circle cx="77" cy="77" r="77" stroke="none"/>
      <circle cx="77" cy="77" r="76.5" fill="none"/>
    </g>
    <text id="_FFFFFE" data-name="#FFFFFE" transform="translate(-350 2980)" font-size="18" font-family="Poppins-Light, Poppins" font-weight="300"><tspan x="-34.02" y="0">#FFFFFE</tspan></text>
    <circle id="Ellipse_41" data-name="Ellipse 41" cx="77" cy="77" r="77" transform="translate(-801 3087)" fill="#a4897a"/>
    <text id="_A4897A" data-name="#A4897A" transform="translate(-724 3282)" font-size="18" font-family="Poppins-Light, Poppins" font-weight="300"><tspan x="-40.599" y="0">#A4897A</tspan></text>
    <circle id="Ellipse_91" data-name="Ellipse 91" cx="77" cy="77" r="77" transform="translate(-241 2785)" fill="#637d53"/>
    <text id="_000106" data-name="#000106" transform="translate(-164 2980)" font-size="18" font-family="Poppins-Light, Poppins" font-weight="300"><tspan x="-37.773" y="0">#000106</tspan></text>
    <circle id="Ellipse_92" data-name="Ellipse 92" cx="77" cy="77" r="77" transform="translate(-1171 3087)" fill="#a58548"/>
    <text id="_A58548" data-name="#A58548" transform="translate(-1094 3282)" font-size="18" font-family="Poppins-Light, Poppins" font-weight="300"><tspan x="-41.031" y="0">#A58548</tspan></text>
    <circle id="Ellipse_93" data-name="Ellipse 93" cx="77" cy="77" r="77" transform="translate(-985 3087)" fill="#d8913a"/>
    <text id="_D8913A" data-name="#D8913A" transform="translate(-908 3282)" font-size="18" font-family="Poppins-Light, Poppins" font-weight="300"><tspan x="-38.664" y="0">#D8913A</tspan></text>
    <circle id="Ellipse_94" data-name="Ellipse 94" cx="77" cy="77" r="77" transform="translate(-1171 2785)" fill="#df7a71"/>
    <text id="_DF7A71" data-name="#DF7A71" transform="translate(-1094 2980)" font-size="18" font-family="Poppins-Light, Poppins" font-weight="300"><tspan x="-36.189" y="0">#DF7A71</tspan></text>
    <g id="Ellipse_95" data-name="Ellipse 95" transform="translate(-613 3087)" fill="#4b3f30" stroke="#646464" stroke-width="1">
      <circle cx="77" cy="77" r="77" stroke="none"/>
      <circle cx="77" cy="77" r="76.5" fill="none"/>
    </g>
    <text id="_4B3F30" data-name="#4B3F30" transform="translate(-536 3282)" font-size="18" font-family="Poppins-Light, Poppins" font-weight="300"><tspan x="-38.709" y="0">#4B3F30</tspan></text>
    <g id="Ellipse_82-2" data-name="Ellipse 82" transform="translate(-427 3087)" fill="#805c41" stroke="#646464" stroke-width="1">
      <circle cx="77" cy="77" r="77" stroke="none"/>
      <circle cx="77" cy="77" r="76.5" fill="none"/>
    </g>
    <text id="_805C41" data-name="#805C41" transform="translate(-350 3282)" font-size="18" font-family="Poppins-Light, Poppins" font-weight="300"><tspan x="-39.105" y="0">#805C41</tspan></text>
    <circle id="Ellipse_91-2" data-name="Ellipse 91" cx="77" cy="77" r="77" transform="translate(-241 3087)" fill="#745a47"/>
    <text id="_745A47" data-name="#745A47" transform="translate(-164 3282)" font-size="18" font-family="Poppins-Light, Poppins" font-weight="300"><tspan x="-39.357" y="0">#745A47</tspan></text>
  </g>
</svg>
