<svg xmlns="http://www.w3.org/2000/svg" width="262.004" height="263.138" viewBox="0 0 262.004 263.138">
  <path id="Path_1041" data-name="Path 1041" d="M-219.218,1252.125c20.545.113,39.811,4.339,57.008,16.057,3.225,2.2,5.282,1.318,7.952-1.419a266.866,266.866,0,0,1,20.824-19.552c4.794-3.966,8.006-2.411,9.248,3.817,1.173,5.881,1.888,11.857,2.711,17.8.5,3.586,2.21,5.346,6.032,5.737,5.515.568,10.954,1.846,16.442,2.721,6.3,1.01,8.766,4.5,5.247,9.658-5.341,7.818-11.72,14.967-18.065,22.037-2.445,2.724-4.427,4.524-1.993,8.418,30.844,49.335,18.874,107.347-17.838,146.129-28.1,29.689-62.338,46.52-104.079,43.223-30.584-2.418-55.883-17.176-77.114-38.589-28.157-28.4-42.963-62.547-39.883-102.995,2.654-34.823,20.543-61.33,47.867-82.026,19.273-14.6,41.163-23.725,64.406-29.523C-233.673,1251.926-226.313,1252.558-219.218,1252.125Zm51.576,63.251,1.5-1.109a42.251,42.251,0,0,1,.932-29.922c2-4.877.174-6.731-3.369-9.018-20.358-13.153-43.132-15.207-66.168-12.73-29.826,3.208-54.643,18.03-76.3,38.011-23.62,21.788-35.091,49.077-32.41,81.276,3.476,41.757,24.126,73.769,58.492,97,24.483,16.544,51.609,23.4,80.658,16.373,35.52-8.592,63.391-28.816,81.973-60.477,21.252-36.216,22.479-73.174,1.784-110.333-2.662-4.778-5.306-6.112-11.091-4.6-6.918,1.816-14.428,1.382-21.681,1.928-2.156.161-4.309.338-6.546.514.23,1.559.163,2.076.38,2.4.983,1.478,2.019,2.922,3.088,4.339,9.291,12.291,15.917,25.811,17.131,41.319,2.729,34.861-12.358,61.242-40.55,80.3-21.793,14.734-45.81,19.549-71.077,9.9-24.646-9.409-42.111-26.925-52.913-50.891-13.7-30.4-7.952-62.565,15.7-86.057a99.294,99.294,0,0,1,45.8-25.923c26.3-6.864,49.685-2.365,70.525,15.154A31.7,31.7,0,0,0-167.642,1315.376Zm.094,15.917c-9.567,9.42-18.823,18.3-27.656,27.571-.986,1.037-.123,4.617.809,6.575,9.915,20.856-5.461,46.788-28.535,47.9-13.684.661-27.107-8.236-32.946-21.842-5.453-12.709-2.486-26.2,7.756-35.258,11.522-10.189,27.512-12.768,39.567-5.914,3.385,1.926,5.475,1.738,8.1-.964,6.814-7.028,13.657-14.048,20.835-20.7,4.615-4.277,3.613-7.02-.935-10.464-24.081-18.245-49.533-18.8-75.912-5.975-40.9,19.884-56.113,58.034-37.1,96.677,13.6,27.64,35.812,45.882,67.874,46.629,39.117.911,76.75-36.637,77.315-75.713C-148.114,1361.306-154.772,1345.228-167.548,1331.293ZM-204.9,1368.6c-5.609,5.4-10.882,11.013-16.79,15.858-1.861,1.527-5.416.994-8.2,1.4.442-2.748-.011-6.2,1.5-8.1,3.843-4.84,8.581-8.967,12.92-13.419,4.109-4.21,3.675-5.825-1.947-7.552-11.884-3.648-26.676,3.846-30.774,15.593-3.691,10.588,4.087,25.639,15.427,29.86,9.149,3.4,20.444-.4,27.158-9.141C-199.559,1385.237-199.128,1376.848-204.9,1368.6Zm70.965-108.592c-14.64,9.374-29.863,32.25-23.087,46.929,6.61-7.092,12.636-13.8,18.93-20.251C-130.606,1279.02-129.192,1270.757-133.932,1260.01Zm26.5,27.225c-9.961-5.439-15.253-4.663-22.286,3.15-3.57,3.964-7.285,7.8-10.866,11.747-2.563,2.826-5.014,5.751-7.936,9.115C-133.555,1313.565-111.951,1300.436-107.436,1287.234Z" transform="translate(353.631 -1244.526)" fill="#d85f5f" stroke="#fff" stroke-width="1"/>
</svg>
