<svg id="Layer_1" data-name="Layer 1" xmlns="http://www.w3.org/2000/svg" viewBox="0 0 144.08 116.65"><defs><style>.cls-1{fill:#c22126;stroke:#fff;stroke-width:1.5px;}</style></defs><g id="Group_7" data-name="Group 7"><path id="Path_38" data-name="Path 38" class="cls-1" d="M130.82,115.79c-4.95-.2-9.9-.58-14.86-.55-10,.05-20.1.38-30.14.48a8.65,8.65,0,0,1-3.64-1.12,2.18,2.18,0,0,1-.86-2.58c.7-3.54,1.31-7.1,2.21-10.59a62.2,62.2,0,0,1,6.29-15.88c2.32-4,5.1-7.63,9.35-9.61a35.25,35.25,0,0,1,8.17-2.37,33.33,33.33,0,0,1,13.53,0,20.25,20.25,0,0,1,14,10.25c3.84,6.9,7.29,14,9.33,21.69a19.77,19.77,0,0,1,.62,4c.2,3.93-1.23,5.17-4.95,5.84a85,85,0,0,1-9,.72Zm-45.49-4.13c.66,0,1,.07,1.4.07,14.25-.21,28.5-.36,42.75-.68a51.17,51.17,0,0,0,8.71-1.14c1.81-.35,2-1.12,1.43-2.86-.65-1.91-1.29-3.82-1.89-5.74a78.36,78.36,0,0,0-5.58-14.42c-2.47-4.52-5.94-7.9-11-9.39a26.45,26.45,0,0,0-14.31-.1,17.25,17.25,0,0,0-10.6,7.16A72.63,72.63,0,0,0,86.5,106.7c-.42,1.6-.76,3.22-1.17,5Z"/><path id="Path_39" data-name="Path 39" class="cls-1" d="M50.86,117.42c-14.25-2-28.7-1.63-43.1-2.16a51.78,51.78,0,0,0-6.35.38A1.92,1.92,0,0,1-.72,114a2,2,0,0,1,.1-.87c.6-2.58,1.23-5.15,1.86-7.72C2.65,99.65,4,93.93,6.52,88.56,10,81,15.43,75.16,23.4,72.3c10.66-3.84,24,1,30.09,10.66A49.17,49.17,0,0,1,60,101c.53,2.93.94,5.89,1.4,8.83,0,.09,0,.17,0,.25.54,4.16-1,6.21-5.1,6.81C54.57,117.12,52.77,117.23,50.86,117.42ZM3.57,111.08c-.17.26.28.14.43.19,9.34.27,18.67.5,28,.83,5.29.18,10.57.5,15.85.76,1.51.08,3,.3,4.53.26,3.37-.09,4.85-1.81,4.43-5.11-.46-3.62-.84-7.26-1.56-10.84C53.15,86.72,46.6,80,36.8,76.49a19.27,19.27,0,0,0-16.58,1.12,24.62,24.62,0,0,0-9.69,10.52,57.8,57.8,0,0,0-4.81,13.74C5,104.93,4.29,108,3.57,111.08Z"/><path id="Path_40" data-name="Path 40" class="cls-1" d="M46.77,54.3c.1,3.94-2.35,7.93-7.6,10.17s-10.48,3-15.91.93a25.64,25.64,0,0,1-2.9-1.5c-.26-.14-.49-.47-.73-.47-2,0-2.5-1.6-3.13-3a23.66,23.66,0,0,1-2.19-12.86,13.33,13.33,0,0,1,7.26-10.82c4.23-2.21,8.69-3.6,13.54-3.17a9.66,9.66,0,0,1,8.58,6.24A35.81,35.81,0,0,1,46.77,54.3ZM30.8,63l0-.25c.59-.05,1.18-.09,1.76-.15,6-.62,9.9-4.62,10.2-10.42a19.41,19.41,0,0,0-2.57-10.64A7.31,7.31,0,0,0,36,38.14a13.74,13.74,0,0,0-8.32,0c-4.38,1.22-7.84,3.55-9,8.26a18.86,18.86,0,0,0-.58,5.35c.24,4.75,2,8.68,7,10.18A52.31,52.31,0,0,0,30.8,63Z"/><path id="Path_41" data-name="Path 41" class="cls-1" d="M132.63,52.36a26.24,26.24,0,0,1-4.93,14.25,6.44,6.44,0,0,1-3.25,2.4,32.85,32.85,0,0,1-7.56,1.15c-3.63.09-6.33-2-8.6-4.6a21.65,21.65,0,0,1-5.08-12,28.27,28.27,0,0,1-.13-7.52c.77-5.07,4.77-8.42,10.53-9.37A16.22,16.22,0,0,1,132,48.27,35.53,35.53,0,0,1,132.63,52.36ZM116,40.3l-1.62.1a7.94,7.94,0,0,0-7.73,7.91,23.21,23.21,0,0,0,3.24,12.51,13.85,13.85,0,0,0,4,4.08c3,2,6.27,1.09,9.45.37a1.7,1.7,0,0,0,.86-.7,21,21,0,0,0,4.09-9.89c.83-8.23-4.54-14.5-12.27-14.38Z"/><path id="Path_42" data-name="Path 42" class="cls-1" d="M79.79,3.34c-1.09,0-2.18,0-3.27,0-1.36,0-2.07-.66-2.13-1.82a2.08,2.08,0,0,1,2-2.2h0c2.31-.08,4.62-.07,6.92,0A1.9,1.9,0,0,1,85,1.39v.05a1.81,1.81,0,0,1-1.75,1.88h0c-1.13,0-2.27,0-3.4,0Z"/><path id="Path_43" data-name="Path 43" class="cls-1" d="M93.37,6.84a9.64,9.64,0,0,1-6.09-3.1,1.55,1.55,0,0,1,.08-2.18l.09-.07A2,2,0,0,1,90.07,1q2.16,1.08,4.35,2.12a1.68,1.68,0,0,1,1,2A1.94,1.94,0,0,1,93.37,6.84Z"/><path id="Path_44" data-name="Path 44" class="cls-1" d="M103.72,10.53c0,2-1.43,2.9-2.89,2.14-1-.53-2-1.07-3-1.63A2.3,2.3,0,0,1,97,7.91a2.39,2.39,0,0,1,.71-.74,1.94,1.94,0,0,1,1.6,0,27.19,27.19,0,0,1,3.5,2.22A4.51,4.51,0,0,1,103.72,10.53Z"/><path id="Path_45" data-name="Path 45" class="cls-1" d="M110.94,18.33A10.93,10.93,0,0,1,109.37,20c-.74.52-1.43.08-2-.53-.83-.93-1.7-1.84-2.5-2.81A1.91,1.91,0,0,1,105,14l.09-.09a1.89,1.89,0,0,1,2.66.07l0,.05c.91.92,1.75,1.91,2.57,2.92A6.47,6.47,0,0,1,110.94,18.33Z"/><path id="Path_46" data-name="Path 46" class="cls-1" d="M56.59,7.91a3.88,3.88,0,0,1-1,1c-1.22.63-2.52,1.12-3.8,1.64a1.85,1.85,0,0,1-2.47-.81,2.29,2.29,0,0,1-.1-.23,1.85,1.85,0,0,1,.91-2.45A2,2,0,0,1,50.33,7c1.12-.47,2.23-1,3.35-1.41A2.18,2.18,0,0,1,56.59,7.91Z"/><path id="Path_47" data-name="Path 47" class="cls-1" d="M64.82.24a2.59,2.59,0,0,1,2.35,2.37c0,1.2-.59,1.79-1.92,2a18.61,18.61,0,0,0-2.66.71,1.76,1.76,0,0,1-2.33-.89h0a1.66,1.66,0,0,1,.32-2.33L60.74,2A40.78,40.78,0,0,1,64.82.24Z"/><path id="Path_48" data-name="Path 48" class="cls-1" d="M33.86,26.68A8.43,8.43,0,0,1,32.33,25a1.56,1.56,0,0,1,.61-2.1,20.18,20.18,0,0,1,2.9-1.46,1.91,1.91,0,0,1,2.46,1.12v0a1.72,1.72,0,0,1-.76,2.31l-.18.08C36.3,25.52,35.21,26,33.86,26.68Z"/><path id="Path_49" data-name="Path 49" class="cls-1" d="M117.09,27.54c-.26.32-.65,1.12-1.26,1.39s-1.37-.05-2.06-.18c-.26,0-.47-.32-.73-.4a1.85,1.85,0,0,1-1.49-2.14s0-.05,0-.07a2.14,2.14,0,0,1,2.19-1.84A3.33,3.33,0,0,1,117.09,27.54Z"/><path id="Path_50" data-name="Path 50" class="cls-1" d="M42.55,17a2.27,2.27,0,0,1-1.91-2.16c0-1,2-2.73,3.1-2.74a2.09,2.09,0,0,1,1.88,2.14C45.57,15.32,43.63,17.07,42.55,17Z"/><path id="Path_51" data-name="Path 51" class="cls-1" d="M119.33,32.88a1.84,1.84,0,0,1-1.67,2h-.13A1.89,1.89,0,0,1,115.6,33v0a2.26,2.26,0,0,1,2.08-2.13A1.94,1.94,0,0,1,119.33,32.88Z"/></g></svg>