<svg xmlns="http://www.w3.org/2000/svg" xmlns:xlink="http://www.w3.org/1999/xlink" width="2546" height="2834" viewBox="0 0 2546 2834">
  <defs>
    <filter id="Rectangle_131" x="554.5" y="175.5" width="414" height="851" filterUnits="userSpaceOnUse">
      <feOffset dx="13" dy="13" input="SourceAlpha"/>
      <feGaussianBlur stdDeviation="6.5" result="blur"/>
      <feFlood flood-opacity="0.161"/>
      <feComposite operator="in" in2="blur"/>
      <feComposite in="SourceGraphic"/>
    </filter>
    <filter id="Rectangle_132" x="967.5" y="175.5" width="414" height="851" filterUnits="userSpaceOnUse">
      <feOffset dx="13" dy="13" input="SourceAlpha"/>
      <feGaussianBlur stdDeviation="6.5" result="blur-2"/>
      <feFlood flood-opacity="0.161"/>
      <feComposite operator="in" in2="blur-2"/>
      <feComposite in="SourceGraphic"/>
    </filter>
    <filter id="Rectangle_133" x="1788.5" y="1025.5" width="414" height="851" filterUnits="userSpaceOnUse">
      <feOffset dx="13" dy="13" input="SourceAlpha"/>
      <feGaussianBlur stdDeviation="6.5" result="blur-3"/>
      <feFlood flood-opacity="0.161"/>
      <feComposite operator="in" in2="blur-3"/>
      <feComposite in="SourceGraphic"/>
    </filter>
    <filter id="Rectangle_134" x="1787.5" y="175.5" width="414" height="851" filterUnits="userSpaceOnUse">
      <feOffset dx="13" dy="13" input="SourceAlpha"/>
      <feGaussianBlur stdDeviation="6.5" result="blur-4"/>
      <feFlood flood-opacity="0.161"/>
      <feComposite operator="in" in2="blur-4"/>
      <feComposite in="SourceGraphic"/>
    </filter>
    <filter id="Rectangle_135" x="1377.5" y="175.5" width="414" height="851" filterUnits="userSpaceOnUse">
      <feOffset dx="13" dy="13" input="SourceAlpha"/>
      <feGaussianBlur stdDeviation="6.5" result="blur-5"/>
      <feFlood flood-opacity="0.161"/>
      <feComposite operator="in" in2="blur-5"/>
      <feComposite in="SourceGraphic"/>
    </filter>
    <filter id="Rectangle_136" x="1377.5" y="1025.5" width="414" height="851" filterUnits="userSpaceOnUse">
      <feOffset dx="13" dy="13" input="SourceAlpha"/>
      <feGaussianBlur stdDeviation="6.5" result="blur-6"/>
      <feFlood flood-opacity="0.161"/>
      <feComposite operator="in" in2="blur-6"/>
      <feComposite in="SourceGraphic"/>
    </filter>
    <filter id="Rectangle_137" x="967.5" y="1025.5" width="414" height="851" filterUnits="userSpaceOnUse">
      <feOffset dx="13" dy="13" input="SourceAlpha"/>
      <feGaussianBlur stdDeviation="6.5" result="blur-7"/>
      <feFlood flood-opacity="0.161"/>
      <feComposite operator="in" in2="blur-7"/>
      <feComposite in="SourceGraphic"/>
    </filter>
    <filter id="Rectangle_138" x="554.5" y="1025.5" width="414" height="851" filterUnits="userSpaceOnUse">
      <feOffset dx="13" dy="13" input="SourceAlpha"/>
      <feGaussianBlur stdDeviation="6.5" result="blur-8"/>
      <feFlood flood-opacity="0.161"/>
      <feComposite operator="in" in2="blur-8"/>
      <feComposite in="SourceGraphic"/>
    </filter>
    <filter id="Rectangle_139" x="1787.5" y="1875.5" width="414" height="851" filterUnits="userSpaceOnUse">
      <feOffset dx="13" dy="13" input="SourceAlpha"/>
      <feGaussianBlur stdDeviation="6.5" result="blur-9"/>
      <feFlood flood-opacity="0.161"/>
      <feComposite operator="in" in2="blur-9"/>
      <feComposite in="SourceGraphic"/>
    </filter>
    <filter id="Rectangle_140" x="1377.5" y="1875.5" width="414" height="851" filterUnits="userSpaceOnUse">
      <feOffset dx="13" dy="13" input="SourceAlpha"/>
      <feGaussianBlur stdDeviation="6.5" result="blur-10"/>
      <feFlood flood-opacity="0.161"/>
      <feComposite operator="in" in2="blur-10"/>
      <feComposite in="SourceGraphic"/>
    </filter>
    <filter id="Rectangle_141" x="967.5" y="1875.5" width="414" height="851" filterUnits="userSpaceOnUse">
      <feOffset dx="13" dy="13" input="SourceAlpha"/>
      <feGaussianBlur stdDeviation="6.5" result="blur-11"/>
      <feFlood flood-opacity="0.161"/>
      <feComposite operator="in" in2="blur-11"/>
      <feComposite in="SourceGraphic"/>
    </filter>
    <filter id="Rectangle_142" x="554.5" y="1875.5" width="414" height="851" filterUnits="userSpaceOnUse">
      <feOffset dx="13" dy="13" input="SourceAlpha"/>
      <feGaussianBlur stdDeviation="6.5" result="blur-12"/>
      <feFlood flood-opacity="0.161"/>
      <feComposite operator="in" in2="blur-12"/>
      <feComposite in="SourceGraphic"/>
    </filter>
    <clipPath id="clip-path">
      <circle id="Ellipse_9" data-name="Ellipse 9" cx="46.5" cy="46.5" r="46.5" transform="translate(-0.471)" fill="rgba(0,0,0,0)" stroke="#a3a3a3" stroke-width="1"/>
    </clipPath>
  </defs>
  <g id="Group_289" data-name="Group 289" transform="translate(405 -10309)">
    <g id="Ellipse_47" data-name="Ellipse 47" transform="translate(-405 11400)" fill="#a7e6eb" stroke="#a7e6eb" stroke-width="34" opacity="0.587">
      <circle cx="487" cy="487" r="487" stroke="none"/>
      <circle cx="487" cy="487" r="470" fill="none"/>
    </g>
    <g id="Ellipse_44" data-name="Ellipse 44" transform="translate(1167 10309)" fill="#dea1a1" stroke="#dea1a1" stroke-width="34" opacity="0.587">
      <circle cx="487" cy="487" r="487" stroke="none"/>
      <circle cx="487" cy="487" r="470" fill="none"/>
    </g>
    <g id="Ellipse_45" data-name="Ellipse 45" transform="translate(-80 10339)" fill="#ffed97" stroke="#ffed97" stroke-width="34" opacity="0.587">
      <circle cx="867" cy="867" r="867" stroke="none"/>
      <circle cx="867" cy="867" r="850" fill="none"/>
    </g>
    <g id="Ellipse_46" data-name="Ellipse 46" transform="translate(205 11369)" fill="#a7d8b7" stroke="#a7d8b7" stroke-width="34" opacity="0.587">
      <circle cx="887" cy="887" r="887" stroke="none"/>
      <circle cx="887" cy="887" r="870" fill="none"/>
    </g>
    <g transform="matrix(1, 0, 0, 1, -405, 10309)" filter="url(#Rectangle_131)">
      <g id="Rectangle_131-2" data-name="Rectangle 131" transform="translate(561 182)" stroke="#656565" stroke-width="5">
        <rect width="375" height="812" rx="61" stroke="none"/>
        <rect x="2.5" y="2.5" width="370" height="807" rx="58.5" fill="none"/>
      </g>
    </g>
    <g id="Group_261" data-name="Group 261" transform="translate(161 10562)">
      <g id="Group_3" data-name="Group 3">
        <g id="Group_2" data-name="Group 2">
          <text id="SIGN_IN" data-name="SIGN IN" transform="translate(93 286)" fill="#c7c7c7" font-size="15" font-family="Montserrat-Regular, Montserrat" opacity="0.597"><tspan x="0" y="15">SIGN IN</tspan></text>
          <text id="SIGN_UP" data-name="SIGN UP" transform="translate(197 286)" fill="#c7c7c7" font-size="15" font-family="Montserrat-Regular, Montserrat"><tspan x="0" y="15">SIGN UP</tspan></text>
        </g>
      </g>
      <line id="Line_4" data-name="Line 4" x2="65" y2="1" transform="translate(196.5 282.5)" fill="none" stroke="#29fff7" stroke-width="3"/>
    </g>
    <text id="Welcome_to_AMPMATUER" data-name="Welcome to
AMPMATUER" transform="translate(197.5 10710)" fill="#c7c7c7" stroke="#c7c7c7" stroke-width="1" font-size="24" font-family="Montserrat-Regular, Montserrat"><tspan x="73.864" y="23">Welcome to</tspan><tspan x="65.368" y="52">AMPMATUER</tspan></text>
    <g id="Group_262" data-name="Group 262" transform="translate(175 10544)">
      <g id="Rectangle_4" data-name="Rectangle 4" transform="translate(30 359)" fill="#fff" stroke="#707070" stroke-width="1">
        <rect width="278" height="37" rx="13" stroke="none"/>
        <rect x="0.5" y="0.5" width="277" height="36" rx="12.5" fill="none"/>
      </g>
      <g id="Rectangle_13" data-name="Rectangle 13" transform="translate(30 415)" fill="#fff" stroke="#707070" stroke-width="1">
        <rect width="278" height="37" rx="13" stroke="none"/>
        <rect x="0.5" y="0.5" width="277" height="36" rx="12.5" fill="none"/>
      </g>
      <g id="Rectangle_14" data-name="Rectangle 14" transform="translate(30 474)" fill="#fff" stroke="#707070" stroke-width="1">
        <rect width="278" height="37" rx="13" stroke="none"/>
        <rect x="0.5" y="0.5" width="277" height="36" rx="12.5" fill="none"/>
      </g>
      <text id="Password" transform="translate(42 438)" fill="#b4b4b4" font-size="12" font-family="Montserrat-Regular, Montserrat"><tspan x="0" y="0">Password</tspan></text>
      <text id="Enter_Email_Address" data-name="Enter Email Address" transform="translate(42 382)" fill="#b4b4b4" font-size="12" font-family="Montserrat-Regular, Montserrat"><tspan x="0" y="0">Enter Email Address</tspan></text>
      <text id="Confirm_Password" data-name="Confirm Password" transform="translate(42 497)" fill="#b4b4b4" font-size="12" font-family="Montserrat-Regular, Montserrat"><tspan x="0" y="0">Confirm Password</tspan></text>
    </g>
    <text id="Continue" transform="translate(204.5 11165)" fill="#fff" stroke="#fff" stroke-width="1" font-size="14" font-family="Montserrat-Regular, Montserrat"><tspan x="107.097" y="14">Continue</tspan></text>
    <line id="Line_79" data-name="Line 79" x2="88" transform="translate(299.5 11187.5)" fill="none" stroke="#fff" stroke-width="2"/>
    <text id="Forgot_Password" data-name="Forgot Password" transform="translate(225 11205.5)" fill="#fff" font-size="12" font-family="Montserrat-Regular, Montserrat" opacity="0.619"><tspan x="67.926" y="12">Forgot Password</tspan></text>
    <line id="Line_80" data-name="Line 80" x2="141" transform="translate(273.5 11202.5)" fill="none" stroke="#707070" stroke-width="1"/>
    <g transform="matrix(1, 0, 0, 1, -405, 10309)" filter="url(#Rectangle_132)">
      <g id="Rectangle_132-2" data-name="Rectangle 132" transform="translate(974 182)" stroke="#656565" stroke-width="5">
        <rect width="375" height="812" rx="61" stroke="none"/>
        <rect x="2.5" y="2.5" width="370" height="807" rx="58.5" fill="none"/>
      </g>
    </g>
    <g id="Group_263" data-name="Group 263" transform="translate(575.5 10564.5)">
      <text id="Lets_Get_Started_" data-name="Lets Get Started!" transform="translate(34.5 161.5)" fill="#c7c7c7" stroke="#c7c7c7" stroke-width="1" font-size="24" font-family="Montserrat-Regular, Montserrat"><tspan x="46.384" y="23">Lets Get Started!</tspan></text>
      <g id="Rectangle_17" data-name="Rectangle 17" transform="translate(56 382.336)" stroke="#f01256" stroke-width="1">
        <rect width="250" height="51" rx="13" stroke="none"/>
        <rect x="0.5" y="0.5" width="249" height="50" rx="12.5" fill="none"/>
      </g>
      <g id="Rectangle_18" data-name="Rectangle 18" transform="translate(56 457)" stroke="#8bff27" stroke-width="1">
        <rect width="250" height="51" rx="13" stroke="none"/>
        <rect x="0.5" y="0.5" width="249" height="50" rx="12.5" fill="none"/>
      </g>
      <g id="Rectangle_19" data-name="Rectangle 19" transform="translate(56 304.977)" fill="none" stroke="#08edff" stroke-width="1">
        <rect width="250" height="51" rx="13" stroke="none"/>
        <rect x="0.5" y="0.5" width="249" height="50" rx="12.5" fill="none"/>
      </g>
      <text id="DISCOVERING" transform="translate(130 413.731)" fill="#f01256" font-size="14" font-family="Montserrat-Regular, Montserrat"><tspan x="0" y="0">DISCOVERING</tspan></text>
      <text id="TUNING" transform="translate(152 336.161)" fill="#08edff" font-size="14" font-family="Montserrat-Regular, Montserrat"><tspan x="0" y="0">TUNING</tspan></text>
      <text id="SHARING" transform="translate(147 488)" fill="#8bff27" font-size="14" font-family="Montserrat-Regular, Montserrat"><tspan x="0" y="0">SHARING</tspan></text>
    </g>
    <g transform="matrix(1, 0, 0, 1, -405, 10309)" filter="url(#Rectangle_133)">
      <g id="Rectangle_133-2" data-name="Rectangle 133" transform="translate(1795 1032)" stroke="#656565" stroke-width="5">
        <rect width="375" height="812" rx="61" stroke="none"/>
        <rect x="2.5" y="2.5" width="370" height="807" rx="58.5" fill="none"/>
      </g>
    </g>
    <g transform="matrix(1, 0, 0, 1, -405, 10309)" filter="url(#Rectangle_134)">
      <g id="Rectangle_134-2" data-name="Rectangle 134" transform="translate(1794 182)" stroke="#656565" stroke-width="5">
        <rect width="375" height="812" rx="61" stroke="none"/>
        <rect x="2.5" y="2.5" width="370" height="807" rx="58.5" fill="none"/>
      </g>
    </g>
    <g transform="matrix(1, 0, 0, 1, -405, 10309)" filter="url(#Rectangle_135)">
      <g id="Rectangle_135-2" data-name="Rectangle 135" transform="translate(1384 182)" stroke="#656565" stroke-width="5">
        <rect width="375" height="812" rx="61" stroke="none"/>
        <rect x="2.5" y="2.5" width="370" height="807" rx="58.5" fill="none"/>
      </g>
    </g>
    <g transform="matrix(1, 0, 0, 1, -405, 10309)" filter="url(#Rectangle_136)">
      <g id="Rectangle_136-2" data-name="Rectangle 136" transform="translate(1384 1032)" stroke="#656565" stroke-width="5">
        <rect width="375" height="812" rx="61" stroke="none"/>
        <rect x="2.5" y="2.5" width="370" height="807" rx="58.5" fill="none"/>
      </g>
    </g>
    <g transform="matrix(1, 0, 0, 1, -405, 10309)" filter="url(#Rectangle_137)">
      <g id="Rectangle_137-2" data-name="Rectangle 137" transform="translate(974 1032)" stroke="#656565" stroke-width="5">
        <rect width="375" height="812" rx="61" stroke="none"/>
        <rect x="2.5" y="2.5" width="370" height="807" rx="58.5" fill="none"/>
      </g>
    </g>
    <g id="Group_264" data-name="Group 264" transform="translate(206 1056)">
      <text id="Lets_Get_Started_2" data-name="Lets Get Started!" transform="translate(814 9670)" fill="#c7c7c7" stroke="#c7c7c7" stroke-width="1" font-size="24" font-family="Montserrat-Regular, Montserrat"><tspan x="46.384" y="23">Lets Get Started!</tspan></text>
      <g id="Rectangle_17-2" data-name="Rectangle 17" transform="translate(835.5 9890.836)" fill="none" stroke="#f01256" stroke-width="1">
        <rect width="250" height="51" rx="13" stroke="none"/>
        <rect x="0.5" y="0.5" width="249" height="50" rx="12.5" fill="none"/>
      </g>
      <g id="Rectangle_18-2" data-name="Rectangle 18" transform="translate(835.5 9965.5)" fill="#8bff27" stroke="#8bff27" stroke-width="1">
        <rect width="250" height="51" rx="13" stroke="none"/>
        <rect x="0.5" y="0.5" width="249" height="50" rx="12.5" fill="none"/>
      </g>
      <g id="Rectangle_19-2" data-name="Rectangle 19" transform="translate(835.5 9813.477)" stroke="#08edff" stroke-width="1">
        <rect width="250" height="51" rx="13" stroke="none"/>
        <rect x="0.5" y="0.5" width="249" height="50" rx="12.5" fill="none"/>
      </g>
      <text id="TUNING-2" data-name="TUNING" transform="translate(931.5 9844.661)" fill="#08edff" font-size="14" font-family="Montserrat-Regular, Montserrat"><tspan x="0" y="0">TUNING</tspan></text>
      <text id="SHARING-2" data-name="SHARING" transform="translate(926.5 9996.5)" font-size="14" font-family="Montserrat-Regular, Montserrat"><tspan x="0" y="0">SHARING</tspan></text>
      <text id="DISCOVERING-2" data-name="DISCOVERING" transform="translate(909.5 9922.231)" fill="#f01256" font-size="14" font-family="Montserrat-Regular, Montserrat"><tspan x="0" y="0">DISCOVERING</tspan></text>
    </g>
    <g id="Group_265" data-name="Group 265" transform="translate(-12 1642)">
      <text id="What_Instrument_to_you_want_to_play_" data-name="What Instrument to you want to play?
" transform="translate(1436 8956)" fill="#c7c7c7" stroke="#c7c7c7" stroke-width="1" font-size="24" font-family="Montserrat-Regular, Montserrat"><tspan x="1.192" y="23">What Instrument to you </tspan><tspan x="65.596" y="52">want to play?</tspan></text>
      <g id="Group_216" data-name="Group 216" transform="translate(1181.5 8985.5)">
        <circle id="Ellipse_5" data-name="Ellipse 5" cx="59" cy="59" r="59" transform="translate(260 71)" fill="#a3a3a3"/>
        <g id="Group_7" data-name="Group 7" transform="translate(289.104 91.249)">
          <g id="Group_6" data-name="Group 6">
            <path id="Path_1" data-name="Path 1" d="M1627.911-1483.6q.534-23.454,1.063-46.908.674-31.921,1.274-63.843a33.539,33.539,0,0,0-.345-7.58,24.6,24.6,0,0,0-2.85-7.122c-1.681-2.871-3.857-5.45-5.731-8.215a5.276,5.276,0,0,1-.359-1.952c-.09-.525-.191-1.048-.288-1.572l-.536-.054a14.7,14.7,0,0,0-.645,1.516c-.7,2.3-2.048,3.091-4.386,2.559a2.2,2.2,0,0,1-1.965-1.95,29.966,29.966,0,0,1-.044-5.514,2.622,2.622,0,0,1,2.821-2.62,3.229,3.229,0,0,1,3.626,2.581c.157.533.59,1.361.943,1.386.871.06,1.164-.74,1.194-1.531.152-4.044.307-8.089.4-12.135.009-.373-.4-.755-.622-1.134a10.938,10.938,0,0,0-1.235.93c-.153.15-.149.485-.173.741-.26,2.7-2.336,2.988-4.245,2.6a2.519,2.519,0,0,1-1.583-1.339,10.78,10.78,0,0,1-.027-7.348c.512-1.588,1.9-1.5,3.222-1.452,1.157.046,2.135.3,2.439,1.634a3.763,3.763,0,0,0,.519,1.439c.246.321.765.434,1.162.64.168-.367.5-.745.479-1.1-.224-3.349-.5-6.7-.781-10.041a31.574,31.574,0,0,0-.443-3.585c-.078-.384-.647-.994-.883-.947a1.911,1.911,0,0,0-1.108.929c-.28.512-.246,1.19-.506,1.719-.735,1.494-2.109,1.538-3.54,1.467-1.246-.061-1.742-.836-2.168-1.874a9.08,9.08,0,0,1,.4-7.39c.085-.193.21-.5.347-.518a11.481,11.481,0,0,1,3.611-.274c.657.136,1.226,1.19,1.622,1.944.364.691.049,2.092,1.267,1.821,1.31-.293.39-1.4.249-2.138-.459-2.406-.914-4.815-1.479-7.2-.5-2.129-1.151-4.224-1.739-6.332-.162-.58-.375-1.148-.508-1.734-.275-1.216.04-1.7,1.273-1.846,1.709-.2,3.424-.391,5.141-.488a14.781,14.781,0,0,0,7.934-3.067,18.105,18.105,0,0,1,2.656-1.561c2.023-.989,4-.452,6,.2a3.673,3.673,0,0,0,2.282.008,8.442,8.442,0,0,1,8.85,1.239,15.359,15.359,0,0,0,9.052,3.284c1.417.062,2.831.229,4.242.395,1.318.155,1.665.7,1.239,1.918a73.162,73.162,0,0,0-3.385,13.346c-.159,1.061-.545,2.087-.706,3.148a8.028,8.028,0,0,0,.139,1.818,1.872,1.872,0,0,0,1.753-1.725c.4-1.954.9-2.264,3.227-2.189,1.864.06,2.565.557,2.709,2.4a33.242,33.242,0,0,1-.041,5.514,2.4,2.4,0,0,1-2.569,2.347c-2.19.046-2.945-.437-3.395-2.172a2.4,2.4,0,0,0-.192-.746c-.354-.516-.77-.989-1.161-1.48-.4.492-1.078.948-1.148,1.483-.318,2.43-.5,4.88-.662,7.328-.116,1.8-.165,3.617-.133,5.425.008.468.436.927.67,1.392.264-.4.54-.783.784-1.19a2.209,2.209,0,0,0,.132-.5c.709-2.353,2.392-3.293,4.72-2.466a2.536,2.536,0,0,1,1.355,1.439,10.215,10.215,0,0,1-.147,7.192c-.74,1.781-2.291,1.508-3.748,1.4-1.393-.105-1.74-1.238-2.123-2.284-.144-.395-.046-.882-.208-1.264-.127-.3-.486-.7-.738-.7a1.055,1.055,0,0,0-.727.7,8.31,8.31,0,0,0-.093,1.93q.181,5.748.4,11.495c.027.713-.073,1.538,1,1.646,1.1.11,1.088-.694,1.232-1.42a3.028,3.028,0,0,1,3.04-2.634c1.745-.1,2.9.53,3.3,2.223a9.63,9.63,0,0,1-.3,6.333c-.642,1.423-1.456,1.824-3.225,1.634a2.737,2.737,0,0,1-2.81-2.359c-.125-.55-.3-1.089-.448-1.633l-.364-.036a9.8,9.8,0,0,0-.579.887,24.365,24.365,0,0,1-1.232,2.452c-1.982,2.953-4.209,5.758-5.987,8.826a18,18,0,0,0-2.554,9.351q.566,34.25,1.177,68.5c.266,14.6.589,29.207.89,43.81.015.731.062,1.463.094,2.194Z" transform="translate(-1611.974 1682.605)"/>
          </g>
          <path id="Path_2" data-name="Path 2" d="M1623.579-1600.267c.009-.373-.4-.756-.622-1.134a10.912,10.912,0,0,0-1.235.93c-.154.15-.149.486-.174.741-.26,2.7-2.336,2.988-4.245,2.6a2.515,2.515,0,0,1-1.583-1.338,10.782,10.782,0,0,1-.028-7.349c.512-1.588,1.9-1.5,3.222-1.451,1.157.046,2.135.3,2.439,1.634a3.754,3.754,0,0,0,.519,1.439c.246.322.765.434,1.162.639.168-.367.5-.745.479-1.1Z" transform="translate(-1613.463 1646.287)" fill="none" stroke="#000" stroke-width="0.5"/>
        </g>
      </g>
      <g id="Group_217" data-name="Group 217" transform="translate(1345.5 8985.5)">
        <circle id="Ellipse_5-2" data-name="Ellipse 5" cx="59" cy="59" r="59" transform="translate(260 71)" fill="#a3a3a3"/>
        <path id="Path_1104" data-name="Path 1104" d="M306.626,313.225l1.549,7.056c1.785,8.131,11.27,12.607,19.119,10.835a14.2,14.2,0,0,0,8.84-5.375c1.813-2.4,2.934-5.246,4.836-7.583a11.947,11.947,0,0,1,2.744-2.509,4.037,4.037,0,0,1,2.1-.683c3.812-.131,5.995,4.717,6.726,7.787a26.383,26.383,0,0,1-1.968,16.588c-1.923,4.295-5.013,8.012-7.491,11.993-2.688,4.319-4.38,8.511-4.321,13.683.046,3.865,2.532,7.634,4.808,10.587,3.4,4.406,7.406,8.485,11.043,12.711,9.621,11.184,16.448,22.621,16.448,37.866a63.777,63.777,0,0,1-19.076,45.44c-14.974,14.736-35.323,20.7-55.969,20.7-21.092,0-41.671-6.523-57.112-21.269-12.166-11.621-20.254-27.868-20.254-44.873,0-14.677,6.626-26.174,15.63-37.2,3.5-4.289,7.332-8.385,10.7-12.768,2.125-2.764,4.759-6.549,5.024-10.133a16.109,16.109,0,0,0-2.5-10.2c-1.806-2.994-4.061-5.617-5.773-8.71a26.811,26.811,0,0,1-3.346-13.489c0-8.182,2.471-15.576,8.945-20.864,9.071-7.41,23.128-8.367,34.378-8.391h.007l2.155-184.545h0c.006-3.007-4.2-10.33-9.056-13.632a1.408,1.408,0,0,1-.722-1.825q.416-1.464.8-2.925h-2.37v1.742c0,1.105-.516,1.742-1.664,1.742a5.1,5.1,0,1,1,0-10.192c1.147,0,1.664.637,1.664,1.742v1.816H275.7c1.273-5.172,2.3-10.308,3.123-15.437h-2.695v1.746c0,1.1-.516,1.742-1.664,1.742a5.1,5.1,0,0,1,0-10.194c1.147,0,1.664.637,1.664,1.743V79.77H279.3c.841-5.79,1.44-11.571,1.867-17.379H278.5v1.742c0,1.105-.516,1.742-1.662,1.742a5.1,5.1,0,1,1,0-10.192c1.146,0,1.662.638,1.662,1.742v1.816h2.879c.261-4.144.441-8.305.564-12.5.023-.847-.116-1.374.731-1.34l2.332.094a2.459,2.459,0,0,1,1.126.271L288,46.85a2.45,2.45,0,0,0,1.323.344h9.61a2.452,2.452,0,0,0,1.324-.344l1.864-1.079a2.459,2.459,0,0,1,1.126-.271l2.331-.094c.849-.033.709.495.734,1.34.122,4.19.3,8.352.561,12.5h2.879V57.425c0-1.1.516-1.742,1.664-1.742a5.1,5.1,0,1,1,0,10.192c-1.147,0-1.664-.637-1.664-1.742V62.391h-2.664c.425,5.807,1.025,11.589,1.865,17.379h3.176V77.956c0-1.105.516-1.743,1.664-1.743a5.1,5.1,0,1,1,0,10.194c-1.147,0-1.664-.638-1.664-1.742V82.918h-2.693c.824,5.129,1.849,10.265,3.121,15.437h3.165V96.538c0-1.105.515-1.74,1.664-1.74a5.1,5.1,0,0,1,0,10.192c-1.149,0-1.664-.638-1.664-1.743V101.5H313.36q.387,1.458.8,2.927a1.407,1.407,0,0,1-.721,1.823c-4.855,3.3-9.064,10.626-9.058,13.632Z" transform="translate(24.352 48.596)" fill-rule="evenodd"/>
      </g>
      <g id="Group_218" data-name="Group 218" transform="translate(1181.5 9179.5)">
        <circle id="Ellipse_5-3" data-name="Ellipse 5" cx="59" cy="59" r="59" transform="translate(260 71)" fill="#a3a3a3"/>
      </g>
      <g id="Group_219" data-name="Group 219" transform="translate(1345.5 9184.5)">
        <circle id="Ellipse_5-4" data-name="Ellipse 5" cx="59" cy="59" r="59" transform="translate(260 71)" fill="#a3a3a3"/>
      </g>
      <g id="Group_225" data-name="Group 225" transform="translate(1566.338 9062.153)">
        <path id="Path_1114" data-name="Path 1114" d="M-74.779,281.738l.041-3c.086-6.223-7.5-8.452-7.708-14.241l-1.449-40.557c-.5-14.079,33.39-14.181,32.69,0L-52.654,264.5c-.208,5.787-7.781,7.674-7.708,13.9l.041,3.339-6.78,7.5Z" transform="translate(1.768)" fill-rule="evenodd"/>
        <path id="Path_1115" data-name="Path 1115" d="M-80.752,437.359h24.965L-61.04,269.026H-75.5Z" transform="translate(2.487 12.712)" fill-rule="evenodd"/>
        <path id="Path_1116" data-name="Path 1116" d="M-49.32,228.415a9,9,0,0,1,0,8.293l-3.529.645a6.681,6.681,0,0,1,0-9.581Z" transform="translate(8.395 3.294)" fill-rule="evenodd"/>
        <path id="Path_1117" data-name="Path 1117" d="M-58.952,230.1l7.111.705v2.441l-7.111.707Z" transform="translate(7.464 3.826)" fill-rule="evenodd"/>
        <path id="Path_1118" data-name="Path 1118" d="M-49.32,242.348a9,9,0,0,1,0,8.293l-3.529.644a6.682,6.682,0,0,1,0-9.582Z" transform="translate(8.395 6.474)" fill-rule="evenodd"/>
        <path id="Path_1119" data-name="Path 1119" d="M-58.952,244.036l7.111.705v2.441l-7.111.705Z" transform="translate(7.464 7.007)" fill-rule="evenodd"/>
        <path id="Path_1120" data-name="Path 1120" d="M-90.634,228.415a9,9,0,0,0,0,8.293l3.53.645a6.679,6.679,0,0,0,0-9.581Z" transform="translate(0 3.294)" fill-rule="evenodd"/>
        <path id="Path_1121" data-name="Path 1121" d="M-80.9,230.1l-7.111.705v2.441l7.111.707Z" transform="translate(0.83 3.826)" fill-rule="evenodd"/>
        <path id="Path_1122" data-name="Path 1122" d="M-90.634,242.348a9,9,0,0,0,0,8.293l3.53.644a6.68,6.68,0,0,0,0-9.582Z" transform="translate(0 6.474)" fill-rule="evenodd"/>
        <path id="Path_1123" data-name="Path 1123" d="M-80.9,244.036l-7.111.705v2.441l7.111.705Z" transform="translate(0.83 7.007)" fill-rule="evenodd"/>
      </g>
      <g id="Group_226" data-name="Group 226" transform="translate(1105.236 9245.377)">
        <path id="Path_1124" data-name="Path 1124" d="M545.553,294.734h24.239L567.691,89.1H548.107Z" transform="translate(3.251 25.5)" fill-rule="evenodd"/>
        <path id="Path_1125" data-name="Path 1125" d="M550.935,116.835l-8.214-13.047c-3.551-5.641,12.723-57.141,20.737-69.82,2.23-3.527,6.272-5.454,8.079-1.03l5.651,13.836c1.532,3.755-7.337,10.873-3.867,24.966L578.8,93.965c1,4.062-4.188,6.12-6.926,11.274s-2.739,8.053-2.9,12.723S552.387,122.795,550.935,116.835Z" transform="translate(1.804 0)" fill-rule="evenodd"/>
        <rect id="Rectangle_112" data-name="Rectangle 112" width="2.81" height="6.031" transform="translate(555.813 44.854) rotate(-72.205)"/>
        <path id="Path_1126" data-name="Path 1126" d="M551.584,44.792a7.95,7.95,0,0,0,2.408-7.286l-3.145-1.01c-.975.189-3.239,2.2-2.516,7.2Z" transform="translate(4.396 2.659)" fill-rule="evenodd"/>
        <rect id="Rectangle_113" data-name="Rectangle 113" width="2.811" height="6.032" transform="translate(551.949 55.225) rotate(-72.191)"/>
        <path id="Path_1127" data-name="Path 1127" d="M548.89,52.023a7.958,7.958,0,0,0,2.41-7.283l-3.148-1.013c-.972.188-3.236,2.2-2.513,7.194Z" transform="translate(3.227 5.799)" fill-rule="evenodd"/>
        <rect id="Rectangle_114" data-name="Rectangle 114" width="2.81" height="6.032" transform="matrix(0.306, -0.952, 0.952, 0.306, 548.563, 65.614)"/>
        <path id="Path_1128" data-name="Path 1128" d="M546.528,59.266a7.947,7.947,0,0,0,2.41-7.283l-3.147-1.011c-.974.188-3.236,2.2-2.513,7.2Z" transform="translate(2.202 8.945)" fill-rule="evenodd"/>
        <rect id="Rectangle_115" data-name="Rectangle 115" width="2.81" height="6.032" transform="matrix(0.306, -0.952, 0.952, 0.306, 545.462, 76.2)"/>
        <path id="Path_1129" data-name="Path 1129" d="M544.367,66.648a7.953,7.953,0,0,0,2.408-7.283l-3.145-1.013c-.975.189-3.238,2.2-2.513,7.2Z" transform="translate(1.263 12.149)" fill-rule="evenodd"/>
        <rect id="Rectangle_116" data-name="Rectangle 116" width="2.81" height="6.032" transform="matrix(0.306, -0.952, 0.952, 0.306, 542.862, 86.517)"/>
        <path id="Path_1130" data-name="Path 1130" d="M542.554,73.84a7.955,7.955,0,0,0,2.409-7.283l-3.145-1.011c-.975.188-3.238,2.2-2.516,7.194Z" transform="translate(0.476 15.273)" fill-rule="evenodd"/>
        <rect id="Rectangle_117" data-name="Rectangle 117" width="2.811" height="6.032" transform="translate(541.288 97.633) rotate(-72.192)"/>
        <path id="Path_1131" data-name="Path 1131" d="M541.456,81.59a7.945,7.945,0,0,0,2.408-7.283L540.719,73.3c-.975.188-3.236,2.2-2.513,7.194Z" transform="translate(0 18.638)" fill-rule="evenodd"/>
      </g>
      <circle id="Ellipse_5-5" data-name="Ellipse 5" cx="59" cy="59" r="59" transform="translate(1438.5 9454.5)" fill="#a3a3a3"/>
      <circle id="Ellipse_5-6" data-name="Ellipse 5" cx="59" cy="59" r="59" transform="translate(1603 9454.5)" fill="#a3a3a3"/>
      <path id="Path_1132" data-name="Path 1132" d="M708.261,99.684h-.019c0-1.674-1.171-3.843-2.468-5.423-2.045-2.487-1.092-5.331-.247-7.3l.912-2.133-1.681-.719c-.5.846-1.137,1.493-1.746,1.553l-2.287-.981c-1.808-1.611,0-5.761,2.386-5.577l2.29.981a2.57,2.57,0,0,1,.149,2.063l1.72.737,3-7.013-1.681-.719c-.5.846-1.137,1.493-1.746,1.553l-2.287-.978c-1.808-1.611,0-5.764,2.386-5.579l2.29.979a2.581,2.581,0,0,1,.152,2.063l1.718.736,3-7.01-1.681-.718c-.5.845-1.137,1.493-1.746,1.552l-2.287-.979c-1.807-1.611,0-5.762,2.389-5.577l2.287.978a2.582,2.582,0,0,1,.152,2.063l1.718.736,3-7.009-1.679-.719c-.5.846-1.137,1.493-1.748,1.552l-2.286-.979c-1.807-1.611,0-5.762,2.389-5.577l2.287.978a2.583,2.583,0,0,1,.149,2.065l1.72.734,3-7.01-1.679-.719c-.5.848-1.137,1.493-1.748,1.555l-2.287-.981c-1.805-1.612,0-5.764,2.389-5.58l2.287.979a2.582,2.582,0,0,1,.154,2.065l1.717.736,3-7.011-1.681-.718c-.5.846-1.137,1.493-1.746,1.552l-2.288-.978c-1.805-1.614,0-5.762,2.389-5.58l2.287.979a2.589,2.589,0,0,1,.153,2.064l1.716.736,1.787-4.172c1.359-3.179,5.9-6.354,8.887-7.569,4.717-1.92,5.482.236,4.754,3.352-2.212,9.467-4.777,25.16-3.135,47.751a6.077,6.077,0,0,1-3.6,6.406c-7.763,3.784-11.834,12.794-11.837,15.8h-.016S689.037,342.211,708.261,99.684Z" transform="translate(779.342 9449.164)" fill-rule="evenodd"/>
      <g id="Group_242" data-name="Group 242" transform="translate(1253.474 9424.396)">
        <path id="Path_1133" data-name="Path 1133" d="M403.682,117.114l.037-2.762c.08-5.739-6.917-7.793-7.107-13.131l-1.336-37.4c-.463-12.982,30.789-13.076,30.143,0l-1.336,37.4c-.193,5.336-7.176,7.076-7.108,12.815l.039,3.078-6.253,6.912Z" transform="translate(1.027 0)" fill-rule="evenodd"/>
        <path id="Path_1134" data-name="Path 1134" d="M398.421,180.946h23.02L416.6,109.733H403.265Z" transform="translate(1.444 7.381)" fill-rule="evenodd"/>
        <g id="Group_241" data-name="Group 241" transform="translate(387.526 63.596)">
          <path id="Path_1135" data-name="Path 1135" d="M429.419,63.072a8.29,8.29,0,0,1,0,7.647l-3.254.595a6.162,6.162,0,0,1,0-8.835Z" transform="translate(-382.651 -62.479)" fill-rule="evenodd"/>
          <path id="Path_1136" data-name="Path 1136" d="M420.221,64.812l6.557.65v2.251l-6.557.651Z" transform="translate(-383.192 -62.17)" fill-rule="evenodd"/>
          <path id="Path_1137" data-name="Path 1137" d="M429.419,75.039a8.29,8.29,0,0,1,0,7.647l-3.254.593a6.162,6.162,0,0,1,0-8.835Z" transform="translate(-382.651 -60.893)" fill-rule="evenodd"/>
          <path id="Path_1138" data-name="Path 1138" d="M420.221,76.777l6.557.65v2.251l-6.557.65Z" transform="translate(-383.192 -60.583)" fill-rule="evenodd"/>
          <path id="Path_1139" data-name="Path 1139" d="M429.419,87a8.29,8.29,0,0,1,0,7.647l-3.254.595a6.162,6.162,0,0,1,0-8.835Z" transform="translate(-382.651 -59.306)" fill-rule="evenodd"/>
          <path id="Path_1140" data-name="Path 1140" d="M420.221,88.743l6.557.65v2.251l-6.557.65Z" transform="translate(-383.192 -58.997)" fill-rule="evenodd"/>
          <path id="Path_1141" data-name="Path 1141" d="M388.46,63.072a8.29,8.29,0,0,0,0,7.647l3.255.595a6.16,6.16,0,0,0,0-8.835Z" transform="translate(-387.526 -62.479)" fill-rule="evenodd"/>
          <path id="Path_1142" data-name="Path 1142" d="M397.718,64.812l-6.557.65v2.251l6.557.651Z" transform="translate(-387.044 -62.17)" fill-rule="evenodd"/>
          <path id="Path_1143" data-name="Path 1143" d="M388.46,75.039a8.29,8.29,0,0,0,0,7.647l3.255.593a6.16,6.16,0,0,0,0-8.835Z" transform="translate(-387.526 -60.893)" fill-rule="evenodd"/>
          <path id="Path_1144" data-name="Path 1144" d="M397.718,76.777l-6.557.65v2.251l6.557.65Z" transform="translate(-387.044 -60.583)" fill-rule="evenodd"/>
          <path id="Path_1145" data-name="Path 1145" d="M388.46,87a8.29,8.29,0,0,0,0,7.647l3.255.595a6.16,6.16,0,0,0,0-8.835Z" transform="translate(-387.526 -59.306)" fill-rule="evenodd"/>
          <path id="Path_1146" data-name="Path 1146" d="M397.718,88.743l-6.557.65v2.251l6.557.65Z" transform="translate(-387.044 -58.997)" fill-rule="evenodd"/>
        </g>
      </g>
    </g>
    <g transform="matrix(1, 0, 0, 1, -405, 10309)" filter="url(#Rectangle_138)">
      <g id="Rectangle_138-2" data-name="Rectangle 138" transform="translate(561 1032)" stroke="#656565" stroke-width="5">
        <rect width="375" height="812" rx="61" stroke="none"/>
        <rect x="2.5" y="2.5" width="370" height="807" rx="58.5" fill="none"/>
      </g>
    </g>
    <g id="Group_266" data-name="Group 266" transform="translate(-13600 -3381)">
      <path id="Icon_ionic-ios-arrow-back" data-name="Icon ionic-ios-arrow-back" d="M15.321,18l8.937-8.93a1.688,1.688,0,0,0-2.391-2.384L11.742,16.8a1.685,1.685,0,0,0-.049,2.327L21.86,29.32a1.688,1.688,0,0,0,2.391-2.384Z" transform="translate(13787.75 14812.807)" fill="#fff"/>
      <text id="Can_t_Recognise" data-name="Can’t Recognise" transform="translate(13798 15379)" fill="#fff" font-size="16" font-family="Montserrat-Regular, Montserrat"><tspan x="81.82" y="15">Can’t Recognise</tspan></text>
      <g id="Group_255" data-name="Group 255" transform="translate(13844.158 15002.258)">
        <g id="Component_1_8" data-name="Component 1 – 8" transform="translate(24.843 29.742)" opacity="0.998">
          <circle id="Ellipse_4" data-name="Ellipse 4" cx="76" cy="76" r="76" transform="translate(0 -0.001)" fill="none"/>
        </g>
        <text id="A" transform="translate(101.179 109.397)" fill="#fff" font-size="26" font-family="Montserrat-Regular, Montserrat" letter-spacing="0.351em"><tspan x="-9.321" y="0">A</tspan></text>
        <g id="Ellipse_3" data-name="Ellipse 3" transform="translate(-0.157 -0.258)" fill="none" stroke="#fff" stroke-width="2" stroke-dasharray="3">
          <ellipse cx="101" cy="101.5" rx="101" ry="101.5" stroke="none"/>
          <ellipse cx="101" cy="101.5" rx="100" ry="100.5" fill="none"/>
        </g>
      </g>
      <text id="My_Discovered" data-name="My Discovered" transform="translate(13998 14838)" fill="#fff" font-size="13" font-family="Montserrat-Medium, Montserrat" font-weight="500"><tspan x="0" y="0">My Discovered</tspan></text>
    </g>
    <g id="Group_269" data-name="Group 269" transform="translate(-13825 -3681)">
      <path id="Icon_ionic-ios-arrow-back-2" data-name="Icon ionic-ios-arrow-back" d="M15.321,18l8.937-8.93a1.688,1.688,0,0,0-2.391-2.384L11.742,16.8a1.685,1.685,0,0,0-.049,2.327L21.86,29.32a1.688,1.688,0,0,0,2.391-2.384Z" transform="translate(15249.75 15112.807)" fill="#fff"/>
      <text id="Arctic_Monkeys_" data-name="Arctic Monkeys " transform="translate(15256.5 15627)" fill="#fff" stroke="#fff" stroke-width="1" font-size="18" font-family="Montserrat-SemiBold, Montserrat" letter-spacing="0.043em" font-weight="600"><tspan x="69.856" y="17">Arctic Monkeys</tspan><tspan y="17" font-family="Montserrat-Regular, Montserrat" font-weight="400"> </tspan></text>
      <g id="Group_259" data-name="Group 259" transform="translate(15082 14900)">
        <g id="Group_231" data-name="Group 231" transform="translate(219.515 400.258)">
          <g id="Ellipse_3-2" data-name="Ellipse 3" transform="translate(0.485 -0.258)" fill="#f01256" stroke="#fff" stroke-width="2" stroke-dasharray="3">
            <ellipse cx="101" cy="101.5" rx="101" ry="101.5" stroke="none"/>
            <ellipse cx="101" cy="101.5" rx="100" ry="100.5" fill="none"/>
          </g>
          <text id="A-2" data-name="A" transform="translate(99.485 109.742)" fill="#fff" font-size="26" font-family="Montserrat-Regular, Montserrat" letter-spacing="0.351em"><tspan x="-9.321" y="0">A</tspan></text>
        </g>
      </g>
      <text id="Fireside" transform="translate(15253 15649)" fill="#fff" font-size="16" font-family="HelveticaNeue, Helvetica Neue" letter-spacing="0.007em" opacity="0.73"><tspan x="121.608" y="15">Fireside</tspan></text>
      <g id="Rectangle_131-3" data-name="Rectangle 131" transform="translate(15315 15715.977)" fill="none" stroke="#f8ffff" stroke-width="1">
        <rect width="176" height="35" rx="13" stroke="none"/>
        <rect x="0.5" y="0.5" width="175" height="34" rx="12.5" fill="none"/>
      </g>
      <text id="LEARN" transform="translate(15379 15738.16)" fill="#fff" font-size="14" font-family="Montserrat-Regular, Montserrat"><tspan x="0" y="0">LEARN</tspan></text>
      <text id="My_Discovered-2" data-name="My Discovered" transform="translate(15456 15136)" fill="#fff" font-size="13" font-family="Montserrat-Medium, Montserrat" font-weight="500"><tspan x="0" y="0">My Discovered</tspan></text>
    </g>
    <g transform="matrix(1, 0, 0, 1, -405, 10309)" filter="url(#Rectangle_139)">
      <g id="Rectangle_139-2" data-name="Rectangle 139" transform="translate(1794 1882)" stroke="#656565" stroke-width="5">
        <rect width="375" height="812" rx="61" stroke="none"/>
        <rect x="2.5" y="2.5" width="370" height="807" rx="58.5" fill="none"/>
      </g>
    </g>
    <g transform="matrix(1, 0, 0, 1, -405, 10309)" filter="url(#Rectangle_140)">
      <g id="Rectangle_140-2" data-name="Rectangle 140" transform="translate(1384 1882)" stroke="#656565" stroke-width="5">
        <rect width="375" height="812" rx="61" stroke="none"/>
        <rect x="2.5" y="2.5" width="370" height="807" rx="58.5" fill="none"/>
      </g>
    </g>
    <g transform="matrix(1, 0, 0, 1, -405, 10309)" filter="url(#Rectangle_141)">
      <g id="Rectangle_141-2" data-name="Rectangle 141" transform="translate(974 1882)" stroke="#656565" stroke-width="5">
        <rect width="375" height="812" rx="61" stroke="none"/>
        <rect x="2.5" y="2.5" width="370" height="807" rx="58.5" fill="none"/>
      </g>
    </g>
    <g transform="matrix(1, 0, 0, 1, -405, 10309)" filter="url(#Rectangle_142)">
      <g id="Rectangle_142-2" data-name="Rectangle 142" transform="translate(561 1882)" stroke="#656565" stroke-width="5">
        <rect width="375" height="812" rx="61" stroke="none"/>
        <rect x="2.5" y="2.5" width="370" height="807" rx="58.5" fill="none"/>
      </g>
    </g>
    <g id="Group_281" data-name="Group 281" transform="translate(0 38)">
      <path id="Icon_ionic-ios-arrow-back-3" data-name="Icon ionic-ios-arrow-back" d="M15.321,18l8.937-8.93a1.688,1.688,0,0,0-2.391-2.384L11.742,16.8a1.685,1.685,0,0,0-.049,2.327L21.86,29.32a1.688,1.688,0,0,0,2.391-2.384Z" transform="translate(599.75 11393.807)" fill="#fff"/>
      <g id="Group_267" data-name="Group 267" transform="translate(652.879 11583.258)">
        <g id="Component_1_9" data-name="Component 1 – 9" transform="translate(25.122 24.742)" opacity="0.998">
          <circle id="Ellipse_4-2" data-name="Ellipse 4" cx="76" cy="76" r="76" transform="translate(0 -0.001)" fill="#95173d"/>
        </g>
        <text id="A-3" data-name="A" transform="translate(101.123 109.742)" fill="#fff" font-size="26" font-family="Montserrat-Regular, Montserrat" letter-spacing="0.351em"><tspan x="-9.321" y="0">A</tspan></text>
        <g id="Ellipse_3-3" data-name="Ellipse 3" transform="translate(0.122 -0.258)" fill="none" stroke="#fff" stroke-width="2" stroke-dasharray="3">
          <ellipse cx="101" cy="101.5" rx="101" ry="101.5" stroke="none"/>
          <ellipse cx="101" cy="101.5" rx="100" ry="100.5" fill="none"/>
        </g>
      </g>
      <text id="My_Discovered-3" data-name="My Discovered" transform="translate(807 11419)" fill="#fff" font-size="13" font-family="Montserrat-Medium, Montserrat" font-weight="500"><tspan x="0" y="0">My Discovered</tspan></text>
      <text id="DISCOVERING-3" data-name="DISCOVERING" transform="translate(607 11960)" fill="#fff" font-size="16" font-family="Montserrat-Regular, Montserrat"><tspan x="88.676" y="15">DISCOVERING</tspan></text>
    </g>
    <g id="Group_278" data-name="Group 278" transform="translate(-15 80)">
      <path id="Icon_ionic-ios-arrow-back-4" data-name="Icon ionic-ios-arrow-back" d="M15.321,18l8.937-8.93a1.688,1.688,0,0,0-2.391-2.384L11.742,16.8a1.685,1.685,0,0,0-.049,2.327L21.86,29.32a1.688,1.688,0,0,0,2.391-2.384Z" transform="translate(1027.75 11351.807)" fill="#fff"/>
      <g id="Group_268" data-name="Group 268" transform="translate(1049.67 11511.33)">
        <g id="Component_1_10" data-name="Component 1 – 10" transform="translate(0.331 -0.33)" opacity="0.998">
          <circle id="Ellipse_4-3" data-name="Ellipse 4" cx="131" cy="131" r="131" transform="translate(-0.001 0)" fill="#95173d"/>
        </g>
        <text id="A-4" data-name="A" transform="translate(131.331 139.67)" fill="#fff" font-size="26" font-family="Montserrat-Regular, Montserrat" letter-spacing="0.351em"><tspan x="-9.321" y="0">A</tspan></text>
        <g id="Ellipse_3-4" data-name="Ellipse 3" transform="translate(30.331 29.67)" fill="none" stroke="#fff" stroke-width="2" stroke-dasharray="3">
          <ellipse cx="101" cy="101.5" rx="101" ry="101.5" stroke="none"/>
          <ellipse cx="101" cy="101.5" rx="100" ry="100.5" fill="none"/>
        </g>
      </g>
      <text id="My_Discovered-4" data-name="My Discovered" transform="translate(1234 11377)" fill="#fff" font-size="13" font-family="Montserrat-Medium, Montserrat" font-weight="500"><tspan x="0" y="0">My Discovered</tspan></text>
      <text id="DISCOVERING-4" data-name="DISCOVERING" transform="translate(1034 11918)" fill="#fff" font-size="16" font-family="Montserrat-Regular, Montserrat"><tspan x="88.676" y="15">DISCOVERING</tspan></text>
    </g>
    <g id="Group_272" data-name="Group 272" transform="translate(-13763 -3751)">
      <text id="You_re_Flat_TUNE_UP" data-name="You’re Flat!
TUNE UP" transform="translate(14368 16521)" fill="#fff" font-size="20" font-family="Montserrat-Regular, Montserrat"><tspan x="91.51" y="19">You’re Flat!</tspan><tspan x="100.44" y="43">TUNE UP</tspan></text>
      <text id="E" transform="translate(14381 16674.5)" fill="#afafaf" font-size="22" font-family="Montserrat-Regular, Montserrat" letter-spacing="0.351em" opacity="0.669"><tspan x="-7.359" y="0">E</tspan></text>
      <text id="A-5" data-name="A" transform="translate(14433 16674.5)" fill="#fff" stroke="#fff" stroke-width="1" font-size="22" font-family="Montserrat-Regular, Montserrat" letter-spacing="0.351em"><tspan x="-7.887" y="0">A</tspan></text>
      <text id="D" transform="translate(14486 16674.5)" fill="#afafaf" font-size="22" font-family="Montserrat-Regular, Montserrat" letter-spacing="0.351em" opacity="0.669"><tspan x="-9.086" y="0">D</tspan></text>
      <text id="G" transform="translate(14540 16674.5)" fill="#afafaf" font-size="22" font-family="Montserrat-Regular, Montserrat" letter-spacing="0.351em" opacity="0.669"><tspan x="-8.503" y="0">G</tspan></text>
      <text id="B" transform="translate(14594 16674.5)" fill="#afafaf" font-size="22" font-family="Montserrat-Regular, Montserrat" letter-spacing="0.351em" opacity="0.669"><tspan x="-8.294" y="0">B</tspan></text>
      <text id="E-2" data-name="E" transform="translate(14647 16674.5)" fill="#afafaf" font-size="22" font-family="Montserrat-Regular, Montserrat" letter-spacing="0.351em" opacity="0.669"><tspan x="-7.359" y="0">E</tspan></text>
      <g id="Component_1_12" data-name="Component 1 – 12" transform="translate(14441 16265)" opacity="0.998">
        <circle id="Ellipse_4-4" data-name="Ellipse 4" cx="76" cy="76" r="76" transform="translate(0 0)" fill="#99fffc"/>
      </g>
      <text id="A-6" data-name="A" transform="translate(14516.063 16349.417)" fill="#284d4c" font-size="26" font-family="Montserrat-Regular, Montserrat" letter-spacing="0.351em"><tspan x="-9.321" y="0">A</tspan></text>
      <g id="Ellipse_39" data-name="Ellipse 39" transform="translate(14415 16240)" fill="none" stroke="#fff" stroke-width="2" stroke-dasharray="3">
        <ellipse cx="101.5" cy="101" rx="101.5" ry="101" stroke="none"/>
        <ellipse cx="101.5" cy="101" rx="100.5" ry="100" fill="none"/>
      </g>
      <path id="Icon_ionic-ios-arrow-back-5" data-name="Icon ionic-ios-arrow-back" d="M15.321,18l8.937-8.93a1.688,1.688,0,0,0-2.391-2.384L11.742,16.8a1.685,1.685,0,0,0-.049,2.327L21.86,29.32a1.688,1.688,0,0,0,2.391-2.384Z" transform="translate(14362.749 16040.807)" fill="#fff"/>
      <g id="Group_263-2" data-name="Group 263" transform="translate(14572.233 16020)">
        <path id="Path_17" data-name="Path 17" d="M46.384,0A46.344,46.344,0,1,1,3.521,28.625,46.384,46.384,0,0,1,46.384,0Z" transform="translate(0 0)" fill="#a3a3a3" stroke="#fff" stroke-width="0.25"/>
        <g id="Group_16" data-name="Group 16" transform="translate(0.238 0)">
          <g id="Group_15" data-name="Group 15" transform="translate(0 0)" clip-path="url(#clip-path)">
            <path id="Path_10" data-name="Path 10" d="M2193.717-1618.35a.018.018,0,0,1-.017-.018q.339-14.889.675-29.777.428-20.275.809-40.551a21.289,21.289,0,0,0-.219-4.814,15.639,15.639,0,0,0-1.81-4.524c-1.068-1.824-2.45-3.462-3.64-5.218a3.347,3.347,0,0,1-.228-1.24,1.617,1.617,0,0,0-.075-.266.421.421,0,0,0-.792,0c-.024.064-.047.128-.066.193a2.057,2.057,0,0,1-2.786,1.625,1.4,1.4,0,0,1-1.248-1.238,19.038,19.038,0,0,1-.029-3.5,1.665,1.665,0,0,1,1.792-1.664,2.05,2.05,0,0,1,2.3,1.639c.1.339.375.865.6.88.554.038.74-.47.759-.973.1-2.569.194-5.138.254-7.708a.383.383,0,0,0-.01-.089.566.566,0,0,0-.9-.27,2.769,2.769,0,0,0-.273.23c-.1.1-.094.309-.11.471a1.8,1.8,0,0,1-2.278,1.716,2.005,2.005,0,0,1-1.535-1.233,6.943,6.943,0,0,1,.095-4.352c.326-1.009,1.205-.955,2.047-.922.735.029,1.356.193,1.549,1.037a2.4,2.4,0,0,0,.33.914.638.638,0,0,0,.18.153.571.571,0,0,0,.858-.36.353.353,0,0,0,0-.085c-.142-2.127-.316-4.253-.5-6.378a20.046,20.046,0,0,0-.281-2.277c-.05-.244-.287-.641-.676-.6-.272.029-.447.328-.589.589-.177.325-.156.756-.321,1.091-.467.949-1.339.977-2.249.932-.791-.039-1.106-.531-1.376-1.19a5.764,5.764,0,0,1,.251-4.694,1.3,1.3,0,0,1,.219-.329,1.834,1.834,0,0,1,2.294-.174,3.229,3.229,0,0,1,1.03,1.234c.232.439.031,1.329.8,1.157.833-.186.248-.889.158-1.358-.292-1.528-.581-3.058-.939-4.571-.321-1.352-.731-2.683-1.1-4.022-.1-.374-.242-.74-.326-1.118a.945.945,0,0,1,.831-1.158c1.079-.127,2.162-.247,3.246-.308a9.384,9.384,0,0,0,5.04-1.948,11.5,11.5,0,0,1,1.687-.991,4.861,4.861,0,0,1,3.814.125,2.329,2.329,0,0,0,1.45.005,5.361,5.361,0,0,1,5.621.787,9.758,9.758,0,0,0,5.75,2.086c.9.039,1.8.146,2.693.25.838.1,1.057.446.787,1.218a46.511,46.511,0,0,0-2.15,8.478c-.1.673-.347,1.326-.448,2v.011a.592.592,0,0,0,1.153.255c.019-.066.035-.136.05-.207.255-1.241.57-1.438,2.05-1.391,1.184.038,1.628.354,1.719,1.524a21.049,21.049,0,0,1-.025,3.5,1.528,1.528,0,0,1-1.633,1.491c-1.39.029-1.87-.277-2.155-1.38a1.54,1.54,0,0,0-.122-.473q-.09-.132-.188-.259a.732.732,0,0,0-1.21.062.56.56,0,0,0-.069.2c-.224,1.711-.344,3.438-.453,5.161q-.091,1.472-.052,2.948h0a.463.463,0,0,0,.854.233c.024-.038.047-.076.07-.115a1.4,1.4,0,0,0,.084-.316,2.108,2.108,0,0,1,3-1.566,1.607,1.607,0,0,1,.861.914,6.489,6.489,0,0,1-.094,4.568c-.469,1.131-1.454.958-2.38.887-.885-.067-1.106-.786-1.348-1.451-.092-.251-.03-.56-.132-.8-.081-.191-.083-.478-.469-.443a.7.7,0,0,0-.462.445,5.264,5.264,0,0,0-.059,1.226q.115,3.651.252,7.3c.017.454-.046.977.635,1.046.7.07.691-.441.782-.9a1.924,1.924,0,0,1,1.931-1.673,1.764,1.764,0,0,1,2.1,1.412,6.116,6.116,0,0,1-.189,4.023c-.408.9-.925,1.159-2.049,1.038a1.739,1.739,0,0,1-1.785-1.5c-.045-.2-.1-.4-.157-.6a.627.627,0,0,0-.588-.453h0a.55.55,0,0,0-.558.48,4.868,4.868,0,0,1-.362,1.631c-1.258,1.876-2.674,3.657-3.8,5.606a11.434,11.434,0,0,0-1.622,5.939q.359,21.754.747,43.508c.169,9.276.374,18.551.564,27.826.01.459.04.917.061,1.375a.018.018,0,0,1-.018.019Z" transform="translate(-2155.497 1762.818)" stroke="#a3a3a3" stroke-miterlimit="10" stroke-width="0.5"/>
            <path id="Path_11" data-name="Path 11" d="M2192.037-1664.918a.349.349,0,0,0-.01-.089.567.567,0,0,0-.9-.27,2.7,2.7,0,0,0-.273.23c-.1.1-.095.308-.11.471a1.8,1.8,0,0,1-2.272,1.716,2.011,2.011,0,0,1-1.544-1.24,6.935,6.935,0,0,1,.1-4.345c.324-1.009,1.2-.955,2.046-.922.735.029,1.356.193,1.549,1.038a2.4,2.4,0,0,0,.329.914.641.641,0,0,0,.188.157.568.568,0,0,0,.849-.356.356.356,0,0,0,.006-.094Z" transform="translate(-2157.544 1712.236)" fill="#db0046" stroke="#a3a3a3" stroke-width="1"/>
            <path id="Path_12" data-name="Path 12" d="M2277.12-1700.913l0,.011a.592.592,0,0,0,1.153.255c.019-.066.036-.135.05-.207.255-1.241.57-1.438,2.05-1.39,1.184.038,1.629.354,1.72,1.524a21.027,21.027,0,0,1-.026,3.5,1.527,1.527,0,0,1-1.632,1.491c-1.391.029-1.87-.277-2.156-1.38a1.535,1.535,0,0,0-.122-.473q-.091-.132-.189-.259a.731.731,0,0,0-1.209.062.566.566,0,0,0-.069.2" transform="translate(-2217.988 1734.295)" stroke="#a3a3a3" stroke-width="1"/>
            <path id="Path_13" data-name="Path 13" d="M2275.3-1667.524h0a.462.462,0,0,0,.853.234c.024-.037.048-.076.07-.114a1.372,1.372,0,0,0,.084-.316,2.107,2.107,0,0,1,3-1.566,1.612,1.612,0,0,1,.862.914,6.49,6.49,0,0,1-.094,4.568c-.47,1.131-1.455.958-2.38.888-.885-.067-1.105-.786-1.348-1.451-.092-.251-.029-.56-.132-.8-.081-.191-.083-.478-.469-.443a.7.7,0,0,0-.462.445" transform="translate(-2217.041 1712.298)" stroke="#a3a3a3" stroke-miterlimit="10" stroke-width="0.25"/>
            <path id="Path_14" data-name="Path 14" d="M2275.748-1633.479c.017.453-.047.977.635,1.045.7.07.691-.441.782-.9a1.923,1.923,0,0,1,1.931-1.672,1.764,1.764,0,0,1,2.1,1.411,6.118,6.118,0,0,1-.189,4.023c-.407.9-.925,1.159-2.048,1.038a1.738,1.738,0,0,1-1.785-1.5c-.046-.2-.1-.4-.158-.6a.627.627,0,0,0-.588-.454h0a.55.55,0,0,0-.558.48" transform="translate(-2217.357 1689.171)" stroke="#a3a3a3" stroke-miterlimit="10" stroke-width="0.25"/>
            <path id="Path_15" data-name="Path 15" d="M2189.323-1700.165c-.049-.244-.287-.641-.675-.6-.273.029-.447.328-.589.588-.179.325-.156.756-.322,1.091-.466.949-1.339.977-2.248.932-.792-.039-1.107-.531-1.377-1.19a5.768,5.768,0,0,1,.25-4.694,1.3,1.3,0,0,1,.221-.329,1.833,1.833,0,0,1,2.293-.174,3.239,3.239,0,0,1,1.031,1.234c.231.439.03,1.321.8,1.157.476-.1.415-.328.325-.8" transform="translate(-2155.594 1736.047)" stroke="#a3a3a3" stroke-width="1"/>
            <path id="Path_16" data-name="Path 16" d="M2190.812-1630.989a3.352,3.352,0,0,1-.227-1.24,1.677,1.677,0,0,0-.075-.266.421.421,0,0,0-.791,0c-.025.064-.047.128-.066.193a2.058,2.058,0,0,1-2.787,1.625,1.4,1.4,0,0,1-1.249-1.238,19.059,19.059,0,0,1-.028-3.5,1.666,1.666,0,0,1,1.792-1.664,2.051,2.051,0,0,1,2.3,1.64c.1.339.375.865.6.88.553.038.74-.47.758-.973" transform="translate(-2156.8 1690.557)" stroke="#a3a3a3" stroke-miterlimit="10" stroke-width="0.25"/>
          </g>
        </g>
      </g>
    </g>
    <g id="Group_279" data-name="Group 279" transform="translate(-14 16)">
      <path id="Icon_ionic-ios-arrow-back-6" data-name="Icon ionic-ios-arrow-back" d="M15.321,18l8.937-8.93a1.688,1.688,0,0,0-2.391-2.384L11.742,16.8a1.685,1.685,0,0,0-.049,2.327L21.86,29.32a1.688,1.688,0,0,0,2.391-2.384Z" transform="translate(1027.75 12273.807)" fill="#fff"/>
      <g id="Group_273" data-name="Group 273" transform="translate(1236.233 12253)">
        <path id="Path_17-2" data-name="Path 17" d="M46.384,0A46.344,46.344,0,1,1,3.521,28.625,46.384,46.384,0,0,1,46.384,0Z" transform="translate(0 0)" fill="#a3a3a3" stroke="#fff" stroke-width="0.25"/>
        <g id="Group_16-2" data-name="Group 16" transform="translate(0.238 0)">
          <g id="Group_15-2" data-name="Group 15" transform="translate(0 0)" clip-path="url(#clip-path)">
            <path id="Path_10-2" data-name="Path 10" d="M2193.717-1618.35a.018.018,0,0,1-.017-.018q.339-14.889.675-29.777.428-20.275.809-40.551a21.289,21.289,0,0,0-.219-4.814,15.639,15.639,0,0,0-1.81-4.524c-1.068-1.824-2.45-3.462-3.64-5.218a3.347,3.347,0,0,1-.228-1.24,1.617,1.617,0,0,0-.075-.266.421.421,0,0,0-.792,0c-.024.064-.047.128-.066.193a2.057,2.057,0,0,1-2.786,1.625,1.4,1.4,0,0,1-1.248-1.238,19.038,19.038,0,0,1-.029-3.5,1.665,1.665,0,0,1,1.792-1.664,2.05,2.05,0,0,1,2.3,1.639c.1.339.375.865.6.88.554.038.74-.47.759-.973.1-2.569.194-5.138.254-7.708a.383.383,0,0,0-.01-.089.566.566,0,0,0-.9-.27,2.769,2.769,0,0,0-.273.23c-.1.1-.094.309-.11.471a1.8,1.8,0,0,1-2.278,1.716,2.005,2.005,0,0,1-1.535-1.233,6.943,6.943,0,0,1,.095-4.352c.326-1.009,1.205-.955,2.047-.922.735.029,1.356.193,1.549,1.037a2.4,2.4,0,0,0,.33.914.638.638,0,0,0,.18.153.571.571,0,0,0,.858-.36.353.353,0,0,0,0-.085c-.142-2.127-.316-4.253-.5-6.378a20.046,20.046,0,0,0-.281-2.277c-.05-.244-.287-.641-.676-.6-.272.029-.447.328-.589.589-.177.325-.156.756-.321,1.091-.467.949-1.339.977-2.249.932-.791-.039-1.106-.531-1.376-1.19a5.764,5.764,0,0,1,.251-4.694,1.3,1.3,0,0,1,.219-.329,1.834,1.834,0,0,1,2.294-.174,3.229,3.229,0,0,1,1.03,1.234c.232.439.031,1.329.8,1.157.833-.186.248-.889.158-1.358-.292-1.528-.581-3.058-.939-4.571-.321-1.352-.731-2.683-1.1-4.022-.1-.374-.242-.74-.326-1.118a.945.945,0,0,1,.831-1.158c1.079-.127,2.162-.247,3.246-.308a9.384,9.384,0,0,0,5.04-1.948,11.5,11.5,0,0,1,1.687-.991,4.861,4.861,0,0,1,3.814.125,2.329,2.329,0,0,0,1.45.005,5.361,5.361,0,0,1,5.621.787,9.758,9.758,0,0,0,5.75,2.086c.9.039,1.8.146,2.693.25.838.1,1.057.446.787,1.218a46.511,46.511,0,0,0-2.15,8.478c-.1.673-.347,1.326-.448,2v.011a.592.592,0,0,0,1.153.255c.019-.066.035-.136.05-.207.255-1.241.57-1.438,2.05-1.391,1.184.038,1.628.354,1.719,1.524a21.049,21.049,0,0,1-.025,3.5,1.528,1.528,0,0,1-1.633,1.491c-1.39.029-1.87-.277-2.155-1.38a1.54,1.54,0,0,0-.122-.473q-.09-.132-.188-.259a.732.732,0,0,0-1.21.062.56.56,0,0,0-.069.2c-.224,1.711-.344,3.438-.453,5.161q-.091,1.472-.052,2.948h0a.463.463,0,0,0,.854.233c.024-.038.047-.076.07-.115a1.4,1.4,0,0,0,.084-.316,2.108,2.108,0,0,1,3-1.566,1.607,1.607,0,0,1,.861.914,6.489,6.489,0,0,1-.094,4.568c-.469,1.131-1.454.958-2.38.887-.885-.067-1.106-.786-1.348-1.451-.092-.251-.03-.56-.132-.8-.081-.191-.083-.478-.469-.443a.7.7,0,0,0-.462.445,5.264,5.264,0,0,0-.059,1.226q.115,3.651.252,7.3c.017.454-.046.977.635,1.046.7.07.691-.441.782-.9a1.924,1.924,0,0,1,1.931-1.673,1.764,1.764,0,0,1,2.1,1.412,6.116,6.116,0,0,1-.189,4.023c-.408.9-.925,1.159-2.049,1.038a1.739,1.739,0,0,1-1.785-1.5c-.045-.2-.1-.4-.157-.6a.627.627,0,0,0-.588-.453h0a.55.55,0,0,0-.558.48,4.868,4.868,0,0,1-.362,1.631c-1.258,1.876-2.674,3.657-3.8,5.606a11.434,11.434,0,0,0-1.622,5.939q.359,21.754.747,43.508c.169,9.276.374,18.551.564,27.826.01.459.04.917.061,1.375a.018.018,0,0,1-.018.019Z" transform="translate(-2155.497 1762.818)" stroke="#a3a3a3" stroke-miterlimit="10" stroke-width="0.5"/>
            <path id="Path_11-2" data-name="Path 11" d="M2192.037-1664.918a.349.349,0,0,0-.01-.089.567.567,0,0,0-.9-.27,2.7,2.7,0,0,0-.273.23c-.1.1-.095.308-.11.471a1.8,1.8,0,0,1-2.272,1.716,2.011,2.011,0,0,1-1.544-1.24,6.935,6.935,0,0,1,.1-4.345c.324-1.009,1.2-.955,2.046-.922.735.029,1.356.193,1.549,1.038a2.4,2.4,0,0,0,.329.914.641.641,0,0,0,.188.157.568.568,0,0,0,.849-.356.356.356,0,0,0,.006-.094Z" transform="translate(-2157.544 1712.236)" fill="#db0046" stroke="#a3a3a3" stroke-width="1"/>
            <path id="Path_12-2" data-name="Path 12" d="M2277.12-1700.913l0,.011a.592.592,0,0,0,1.153.255c.019-.066.036-.135.05-.207.255-1.241.57-1.438,2.05-1.39,1.184.038,1.629.354,1.72,1.524a21.027,21.027,0,0,1-.026,3.5,1.527,1.527,0,0,1-1.632,1.491c-1.391.029-1.87-.277-2.156-1.38a1.535,1.535,0,0,0-.122-.473q-.091-.132-.189-.259a.731.731,0,0,0-1.209.062.566.566,0,0,0-.069.2" transform="translate(-2217.988 1734.295)" stroke="#a3a3a3" stroke-width="1"/>
            <path id="Path_13-2" data-name="Path 13" d="M2275.3-1667.524h0a.462.462,0,0,0,.853.234c.024-.037.048-.076.07-.114a1.372,1.372,0,0,0,.084-.316,2.107,2.107,0,0,1,3-1.566,1.612,1.612,0,0,1,.862.914,6.49,6.49,0,0,1-.094,4.568c-.47,1.131-1.455.958-2.38.888-.885-.067-1.105-.786-1.348-1.451-.092-.251-.029-.56-.132-.8-.081-.191-.083-.478-.469-.443a.7.7,0,0,0-.462.445" transform="translate(-2217.041 1712.298)" stroke="#a3a3a3" stroke-miterlimit="10" stroke-width="0.25"/>
            <path id="Path_14-2" data-name="Path 14" d="M2275.748-1633.479c.017.453-.047.977.635,1.045.7.07.691-.441.782-.9a1.923,1.923,0,0,1,1.931-1.672,1.764,1.764,0,0,1,2.1,1.411,6.118,6.118,0,0,1-.189,4.023c-.407.9-.925,1.159-2.048,1.038a1.738,1.738,0,0,1-1.785-1.5c-.046-.2-.1-.4-.158-.6a.627.627,0,0,0-.588-.454h0a.55.55,0,0,0-.558.48" transform="translate(-2217.357 1689.171)" stroke="#a3a3a3" stroke-miterlimit="10" stroke-width="0.25"/>
            <path id="Path_15-2" data-name="Path 15" d="M2189.323-1700.165c-.049-.244-.287-.641-.675-.6-.273.029-.447.328-.589.588-.179.325-.156.756-.322,1.091-.466.949-1.339.977-2.248.932-.792-.039-1.107-.531-1.377-1.19a5.768,5.768,0,0,1,.25-4.694,1.3,1.3,0,0,1,.221-.329,1.833,1.833,0,0,1,2.293-.174,3.239,3.239,0,0,1,1.031,1.234c.231.439.03,1.321.8,1.157.476-.1.415-.328.325-.8" transform="translate(-2155.594 1736.047)" stroke="#a3a3a3" stroke-width="1"/>
            <path id="Path_16-2" data-name="Path 16" d="M2190.812-1630.989a3.352,3.352,0,0,1-.227-1.24,1.677,1.677,0,0,0-.075-.266.421.421,0,0,0-.791,0c-.025.064-.047.128-.066.193a2.058,2.058,0,0,1-2.787,1.625,1.4,1.4,0,0,1-1.249-1.238,19.059,19.059,0,0,1-.028-3.5,1.666,1.666,0,0,1,1.792-1.664,2.051,2.051,0,0,1,2.3,1.64c.1.339.375.865.6.88.553.038.74-.47.758-.973" transform="translate(-2156.8 1690.557)" stroke="#a3a3a3" stroke-miterlimit="10" stroke-width="0.25"/>
          </g>
        </g>
      </g>
      <g id="Component_1_13" data-name="Component 1 – 13" transform="translate(1046 12440)" opacity="0.998">
        <circle id="Ellipse_4-5" data-name="Ellipse 4" cx="134.5" cy="134.5" r="134.5" transform="translate(0 0)" fill="#99fffc"/>
      </g>
      <text id="A-7" data-name="A" transform="translate(1180.579 12582.417)" fill="#99fffc" font-size="26" font-family="Montserrat-Regular, Montserrat" letter-spacing="0.351em"><tspan x="-9.321" y="0">A</tspan></text>
      <g id="Ellipse_39-2" data-name="Ellipse 39" transform="translate(1079 12472)" fill="#99fffc" stroke="#284d4c" stroke-width="2" stroke-dasharray="3">
        <ellipse cx="101.5" cy="101" rx="101.5" ry="101" stroke="none"/>
        <ellipse cx="101.5" cy="101" rx="100.5" ry="100" fill="none"/>
      </g>
      <text id="A-8" data-name="A" transform="translate(1179.98 12582.417)" fill="#284d4c" font-size="26" font-family="Montserrat-Regular, Montserrat" letter-spacing="0.351em"><tspan x="-9.321" y="0">A</tspan></text>
      <text id="You_re_Sharp_TUNE_IN" data-name="You’re Sharp!
TUNE IN" transform="translate(1033 12754)" fill="#fff" font-size="20" font-family="Montserrat-Regular, Montserrat"><tspan x="80.96" y="19">You’re Sharp!</tspan></text>
      <text id="E-3" data-name="E" transform="translate(1046 12907.5)" fill="#afafaf" font-size="22" font-family="Montserrat-Regular, Montserrat" letter-spacing="0.351em" opacity="0.669"><tspan x="-7.359" y="0">E</tspan></text>
      <text id="A-9" data-name="A" transform="translate(1098 12907.5)" fill="#fff" stroke="#fff" stroke-width="1" font-size="22" font-family="Montserrat-Regular, Montserrat" letter-spacing="0.351em"><tspan x="-7.887" y="0">A</tspan></text>
      <text id="D-2" data-name="D" transform="translate(1151 12907.5)" fill="#afafaf" font-size="22" font-family="Montserrat-Regular, Montserrat" letter-spacing="0.351em" opacity="0.669"><tspan x="-9.086" y="0">D</tspan></text>
      <text id="G-2" data-name="G" transform="translate(1205 12907.5)" fill="#afafaf" font-size="22" font-family="Montserrat-Regular, Montserrat" letter-spacing="0.351em" opacity="0.669"><tspan x="-8.503" y="0">G</tspan></text>
      <text id="B-2" data-name="B" transform="translate(1259 12907.5)" fill="#afafaf" font-size="22" font-family="Montserrat-Regular, Montserrat" letter-spacing="0.351em" opacity="0.669"><tspan x="-8.294" y="0">B</tspan></text>
      <text id="E-4" data-name="E" transform="translate(1312 12907.5)" fill="#afafaf" font-size="22" font-family="Montserrat-Regular, Montserrat" letter-spacing="0.351em" opacity="0.669"><tspan x="-7.359" y="0">E</tspan></text>
    </g>
    <g id="Group_280" data-name="Group 280" transform="translate(-4 16)">
      <g id="Group_274" data-name="Group 274" transform="translate(1635.233 12247)">
        <path id="Path_17-3" data-name="Path 17" d="M46.384,0A46.344,46.344,0,1,1,3.521,28.625,46.384,46.384,0,0,1,46.384,0Z" transform="translate(0 0)" fill="#a3a3a3" stroke="#fff" stroke-width="0.25"/>
        <g id="Group_16-3" data-name="Group 16" transform="translate(0.238 0)">
          <g id="Group_15-3" data-name="Group 15" transform="translate(0 0)" clip-path="url(#clip-path)">
            <path id="Path_10-3" data-name="Path 10" d="M2193.717-1618.35a.018.018,0,0,1-.017-.018q.339-14.889.675-29.777.428-20.275.809-40.551a21.289,21.289,0,0,0-.219-4.814,15.639,15.639,0,0,0-1.81-4.524c-1.068-1.824-2.45-3.462-3.64-5.218a3.347,3.347,0,0,1-.228-1.24,1.617,1.617,0,0,0-.075-.266.421.421,0,0,0-.792,0c-.024.064-.047.128-.066.193a2.057,2.057,0,0,1-2.786,1.625,1.4,1.4,0,0,1-1.248-1.238,19.038,19.038,0,0,1-.029-3.5,1.665,1.665,0,0,1,1.792-1.664,2.05,2.05,0,0,1,2.3,1.639c.1.339.375.865.6.88.554.038.74-.47.759-.973.1-2.569.194-5.138.254-7.708a.383.383,0,0,0-.01-.089.566.566,0,0,0-.9-.27,2.769,2.769,0,0,0-.273.23c-.1.1-.094.309-.11.471a1.8,1.8,0,0,1-2.278,1.716,2.005,2.005,0,0,1-1.535-1.233,6.943,6.943,0,0,1,.095-4.352c.326-1.009,1.205-.955,2.047-.922.735.029,1.356.193,1.549,1.037a2.4,2.4,0,0,0,.33.914.638.638,0,0,0,.18.153.571.571,0,0,0,.858-.36.353.353,0,0,0,0-.085c-.142-2.127-.316-4.253-.5-6.378a20.046,20.046,0,0,0-.281-2.277c-.05-.244-.287-.641-.676-.6-.272.029-.447.328-.589.589-.177.325-.156.756-.321,1.091-.467.949-1.339.977-2.249.932-.791-.039-1.106-.531-1.376-1.19a5.764,5.764,0,0,1,.251-4.694,1.3,1.3,0,0,1,.219-.329,1.834,1.834,0,0,1,2.294-.174,3.229,3.229,0,0,1,1.03,1.234c.232.439.031,1.329.8,1.157.833-.186.248-.889.158-1.358-.292-1.528-.581-3.058-.939-4.571-.321-1.352-.731-2.683-1.1-4.022-.1-.374-.242-.74-.326-1.118a.945.945,0,0,1,.831-1.158c1.079-.127,2.162-.247,3.246-.308a9.384,9.384,0,0,0,5.04-1.948,11.5,11.5,0,0,1,1.687-.991,4.861,4.861,0,0,1,3.814.125,2.329,2.329,0,0,0,1.45.005,5.361,5.361,0,0,1,5.621.787,9.758,9.758,0,0,0,5.75,2.086c.9.039,1.8.146,2.693.25.838.1,1.057.446.787,1.218a46.511,46.511,0,0,0-2.15,8.478c-.1.673-.347,1.326-.448,2v.011a.592.592,0,0,0,1.153.255c.019-.066.035-.136.05-.207.255-1.241.57-1.438,2.05-1.391,1.184.038,1.628.354,1.719,1.524a21.049,21.049,0,0,1-.025,3.5,1.528,1.528,0,0,1-1.633,1.491c-1.39.029-1.87-.277-2.155-1.38a1.54,1.54,0,0,0-.122-.473q-.09-.132-.188-.259a.732.732,0,0,0-1.21.062.56.56,0,0,0-.069.2c-.224,1.711-.344,3.438-.453,5.161q-.091,1.472-.052,2.948h0a.463.463,0,0,0,.854.233c.024-.038.047-.076.07-.115a1.4,1.4,0,0,0,.084-.316,2.108,2.108,0,0,1,3-1.566,1.607,1.607,0,0,1,.861.914,6.489,6.489,0,0,1-.094,4.568c-.469,1.131-1.454.958-2.38.887-.885-.067-1.106-.786-1.348-1.451-.092-.251-.03-.56-.132-.8-.081-.191-.083-.478-.469-.443a.7.7,0,0,0-.462.445,5.264,5.264,0,0,0-.059,1.226q.115,3.651.252,7.3c.017.454-.046.977.635,1.046.7.07.691-.441.782-.9a1.924,1.924,0,0,1,1.931-1.673,1.764,1.764,0,0,1,2.1,1.412,6.116,6.116,0,0,1-.189,4.023c-.408.9-.925,1.159-2.049,1.038a1.739,1.739,0,0,1-1.785-1.5c-.045-.2-.1-.4-.157-.6a.627.627,0,0,0-.588-.453h0a.55.55,0,0,0-.558.48,4.868,4.868,0,0,1-.362,1.631c-1.258,1.876-2.674,3.657-3.8,5.606a11.434,11.434,0,0,0-1.622,5.939q.359,21.754.747,43.508c.169,9.276.374,18.551.564,27.826.01.459.04.917.061,1.375a.018.018,0,0,1-.018.019Z" transform="translate(-2155.497 1762.818)" stroke="#a3a3a3" stroke-miterlimit="10" stroke-width="0.5"/>
            <path id="Path_11-3" data-name="Path 11" d="M2192.037-1664.918a.349.349,0,0,0-.01-.089.567.567,0,0,0-.9-.27,2.7,2.7,0,0,0-.273.23c-.1.1-.095.308-.11.471a1.8,1.8,0,0,1-2.272,1.716,2.011,2.011,0,0,1-1.544-1.24,6.935,6.935,0,0,1,.1-4.345c.324-1.009,1.2-.955,2.046-.922.735.029,1.356.193,1.549,1.038a2.4,2.4,0,0,0,.329.914.641.641,0,0,0,.188.157.568.568,0,0,0,.849-.356.356.356,0,0,0,.006-.094Z" transform="translate(-2157.544 1712.236)" fill="#db0046" stroke="#a3a3a3" stroke-width="1"/>
            <path id="Path_12-3" data-name="Path 12" d="M2277.12-1700.913l0,.011a.592.592,0,0,0,1.153.255c.019-.066.036-.135.05-.207.255-1.241.57-1.438,2.05-1.39,1.184.038,1.629.354,1.72,1.524a21.027,21.027,0,0,1-.026,3.5,1.527,1.527,0,0,1-1.632,1.491c-1.391.029-1.87-.277-2.156-1.38a1.535,1.535,0,0,0-.122-.473q-.091-.132-.189-.259a.731.731,0,0,0-1.209.062.566.566,0,0,0-.069.2" transform="translate(-2217.988 1734.295)" stroke="#a3a3a3" stroke-width="1"/>
            <path id="Path_13-3" data-name="Path 13" d="M2275.3-1667.524h0a.462.462,0,0,0,.853.234c.024-.037.048-.076.07-.114a1.372,1.372,0,0,0,.084-.316,2.107,2.107,0,0,1,3-1.566,1.612,1.612,0,0,1,.862.914,6.49,6.49,0,0,1-.094,4.568c-.47,1.131-1.455.958-2.38.888-.885-.067-1.105-.786-1.348-1.451-.092-.251-.029-.56-.132-.8-.081-.191-.083-.478-.469-.443a.7.7,0,0,0-.462.445" transform="translate(-2217.041 1712.298)" stroke="#a3a3a3" stroke-miterlimit="10" stroke-width="0.25"/>
            <path id="Path_14-3" data-name="Path 14" d="M2275.748-1633.479c.017.453-.047.977.635,1.045.7.07.691-.441.782-.9a1.923,1.923,0,0,1,1.931-1.672,1.764,1.764,0,0,1,2.1,1.411,6.118,6.118,0,0,1-.189,4.023c-.407.9-.925,1.159-2.048,1.038a1.738,1.738,0,0,1-1.785-1.5c-.046-.2-.1-.4-.158-.6a.627.627,0,0,0-.588-.454h0a.55.55,0,0,0-.558.48" transform="translate(-2217.357 1689.171)" stroke="#a3a3a3" stroke-miterlimit="10" stroke-width="0.25"/>
            <path id="Path_15-3" data-name="Path 15" d="M2189.323-1700.165c-.049-.244-.287-.641-.675-.6-.273.029-.447.328-.589.588-.179.325-.156.756-.322,1.091-.466.949-1.339.977-2.248.932-.792-.039-1.107-.531-1.377-1.19a5.768,5.768,0,0,1,.25-4.694,1.3,1.3,0,0,1,.221-.329,1.833,1.833,0,0,1,2.293-.174,3.239,3.239,0,0,1,1.031,1.234c.231.439.03,1.321.8,1.157.476-.1.415-.328.325-.8" transform="translate(-2155.594 1736.047)" stroke="#a3a3a3" stroke-width="1"/>
            <path id="Path_16-3" data-name="Path 16" d="M2190.812-1630.989a3.352,3.352,0,0,1-.227-1.24,1.677,1.677,0,0,0-.075-.266.421.421,0,0,0-.791,0c-.025.064-.047.128-.066.193a2.058,2.058,0,0,1-2.787,1.625,1.4,1.4,0,0,1-1.249-1.238,19.059,19.059,0,0,1-.028-3.5,1.666,1.666,0,0,1,1.792-1.664,2.051,2.051,0,0,1,2.3,1.64c.1.339.375.865.6.88.553.038.74-.47.758-.973" transform="translate(-2156.8 1690.557)" stroke="#a3a3a3" stroke-miterlimit="10" stroke-width="0.25"/>
          </g>
        </g>
      </g>
      <path id="Icon_ionic-ios-arrow-back-7" data-name="Icon ionic-ios-arrow-back" d="M15.321,18l8.937-8.93a1.688,1.688,0,0,0-2.391-2.384L11.742,16.8a1.685,1.685,0,0,0-.049,2.327L21.86,29.32a1.688,1.688,0,0,0,2.391-2.384Z" transform="translate(1426.75 12269.506)" fill="#fff"/>
      <g id="Ellipse_40" data-name="Ellipse 40" transform="translate(1478 12467)" fill="#99fffc" stroke="#000" stroke-width="2" stroke-dasharray="3">
        <circle cx="101.157" cy="101.157" r="101.157" stroke="none"/>
        <circle cx="101.157" cy="101.157" r="100.157" fill="none"/>
      </g>
      <text id="A-10" data-name="A" transform="translate(1578.58 12577)" fill="#284d4c" font-size="26" font-family="Montserrat-Regular, Montserrat" letter-spacing="0.351em"><tspan x="-9.321" y="0">A</tspan></text>
      <text id="YOU_RE_IN_TUNE_" data-name="YOU’RE IN TUNE!" transform="translate(1432 12749.699)" fill="#fff" stroke="#fff" stroke-width="1" font-size="20" font-family="Montserrat-Regular, Montserrat"><tspan x="60.77" y="19">YOU’RE IN TUNE!</tspan></text>
      <text id="E-5" data-name="E" transform="translate(1445 12903.199)" fill="#afafaf" font-size="22" font-family="Montserrat-Regular, Montserrat" letter-spacing="0.351em" opacity="0.669"><tspan x="-7.359" y="0">E</tspan></text>
      <text id="A-11" data-name="A" transform="translate(1497 12903.199)" fill="#fff" stroke="#fff" stroke-width="1" font-size="22" font-family="Montserrat-Regular, Montserrat" letter-spacing="0.351em"><tspan x="-7.887" y="0">A</tspan></text>
      <text id="D-3" data-name="D" transform="translate(1550 12903.199)" fill="#afafaf" font-size="22" font-family="Montserrat-Regular, Montserrat" letter-spacing="0.351em" opacity="0.669"><tspan x="-9.086" y="0">D</tspan></text>
      <text id="G-3" data-name="G" transform="translate(1604 12903.199)" fill="#afafaf" font-size="22" font-family="Montserrat-Regular, Montserrat" letter-spacing="0.351em" opacity="0.669"><tspan x="-8.503" y="0">G</tspan></text>
      <text id="B-3" data-name="B" transform="translate(1658 12903.199)" fill="#afafaf" font-size="22" font-family="Montserrat-Regular, Montserrat" letter-spacing="0.351em" opacity="0.669"><tspan x="-8.294" y="0">B</tspan></text>
      <text id="E-6" data-name="E" transform="translate(1711 12903.199)" fill="#afafaf" font-size="22" font-family="Montserrat-Regular, Montserrat" letter-spacing="0.351em" opacity="0.669"><tspan x="-7.359" y="0">E</tspan></text>
    </g>
    <g id="Group_277" data-name="Group 277" transform="translate(-1343 114)">
      <path id="Icon_ionic-ios-arrow-back-8" data-name="Icon ionic-ios-arrow-back" d="M15.321,18l8.937-8.93a1.688,1.688,0,0,0-2.391-2.384L11.742,16.8a1.685,1.685,0,0,0-.049,2.327L21.86,29.32a1.688,1.688,0,0,0,2.391-2.384Z" transform="translate(1531.749 12175.807)" fill="#fff"/>
      <g id="Group_276" data-name="Group 276" transform="translate(1744.233 12155)">
        <path id="Path_17-4" data-name="Path 17" d="M46.384,0A46.344,46.344,0,1,1,3.521,28.625,46.384,46.384,0,0,1,46.384,0Z" transform="translate(0 0)" fill="#a3a3a3" stroke="#fff" stroke-width="0.25"/>
        <g id="Group_16-4" data-name="Group 16" transform="translate(0.238 0)">
          <g id="Group_15-4" data-name="Group 15" transform="translate(0 0)" clip-path="url(#clip-path)">
            <path id="Path_10-4" data-name="Path 10" d="M2193.717-1618.35a.018.018,0,0,1-.017-.018q.339-14.889.675-29.777.428-20.275.809-40.551a21.289,21.289,0,0,0-.219-4.814,15.639,15.639,0,0,0-1.81-4.524c-1.068-1.824-2.45-3.462-3.64-5.218a3.347,3.347,0,0,1-.228-1.24,1.617,1.617,0,0,0-.075-.266.421.421,0,0,0-.792,0c-.024.064-.047.128-.066.193a2.057,2.057,0,0,1-2.786,1.625,1.4,1.4,0,0,1-1.248-1.238,19.038,19.038,0,0,1-.029-3.5,1.665,1.665,0,0,1,1.792-1.664,2.05,2.05,0,0,1,2.3,1.639c.1.339.375.865.6.88.554.038.74-.47.759-.973.1-2.569.194-5.138.254-7.708a.383.383,0,0,0-.01-.089.566.566,0,0,0-.9-.27,2.769,2.769,0,0,0-.273.23c-.1.1-.094.309-.11.471a1.8,1.8,0,0,1-2.278,1.716,2.005,2.005,0,0,1-1.535-1.233,6.943,6.943,0,0,1,.095-4.352c.326-1.009,1.205-.955,2.047-.922.735.029,1.356.193,1.549,1.037a2.4,2.4,0,0,0,.33.914.638.638,0,0,0,.18.153.571.571,0,0,0,.858-.36.353.353,0,0,0,0-.085c-.142-2.127-.316-4.253-.5-6.378a20.046,20.046,0,0,0-.281-2.277c-.05-.244-.287-.641-.676-.6-.272.029-.447.328-.589.589-.177.325-.156.756-.321,1.091-.467.949-1.339.977-2.249.932-.791-.039-1.106-.531-1.376-1.19a5.764,5.764,0,0,1,.251-4.694,1.3,1.3,0,0,1,.219-.329,1.834,1.834,0,0,1,2.294-.174,3.229,3.229,0,0,1,1.03,1.234c.232.439.031,1.329.8,1.157.833-.186.248-.889.158-1.358-.292-1.528-.581-3.058-.939-4.571-.321-1.352-.731-2.683-1.1-4.022-.1-.374-.242-.74-.326-1.118a.945.945,0,0,1,.831-1.158c1.079-.127,2.162-.247,3.246-.308a9.384,9.384,0,0,0,5.04-1.948,11.5,11.5,0,0,1,1.687-.991,4.861,4.861,0,0,1,3.814.125,2.329,2.329,0,0,0,1.45.005,5.361,5.361,0,0,1,5.621.787,9.758,9.758,0,0,0,5.75,2.086c.9.039,1.8.146,2.693.25.838.1,1.057.446.787,1.218a46.511,46.511,0,0,0-2.15,8.478c-.1.673-.347,1.326-.448,2v.011a.592.592,0,0,0,1.153.255c.019-.066.035-.136.05-.207.255-1.241.57-1.438,2.05-1.391,1.184.038,1.628.354,1.719,1.524a21.049,21.049,0,0,1-.025,3.5,1.528,1.528,0,0,1-1.633,1.491c-1.39.029-1.87-.277-2.155-1.38a1.54,1.54,0,0,0-.122-.473q-.09-.132-.188-.259a.732.732,0,0,0-1.21.062.56.56,0,0,0-.069.2c-.224,1.711-.344,3.438-.453,5.161q-.091,1.472-.052,2.948h0a.463.463,0,0,0,.854.233c.024-.038.047-.076.07-.115a1.4,1.4,0,0,0,.084-.316,2.108,2.108,0,0,1,3-1.566,1.607,1.607,0,0,1,.861.914,6.489,6.489,0,0,1-.094,4.568c-.469,1.131-1.454.958-2.38.887-.885-.067-1.106-.786-1.348-1.451-.092-.251-.03-.56-.132-.8-.081-.191-.083-.478-.469-.443a.7.7,0,0,0-.462.445,5.264,5.264,0,0,0-.059,1.226q.115,3.651.252,7.3c.017.454-.046.977.635,1.046.7.07.691-.441.782-.9a1.924,1.924,0,0,1,1.931-1.673,1.764,1.764,0,0,1,2.1,1.412,6.116,6.116,0,0,1-.189,4.023c-.408.9-.925,1.159-2.049,1.038a1.739,1.739,0,0,1-1.785-1.5c-.045-.2-.1-.4-.157-.6a.627.627,0,0,0-.588-.453h0a.55.55,0,0,0-.558.48,4.868,4.868,0,0,1-.362,1.631c-1.258,1.876-2.674,3.657-3.8,5.606a11.434,11.434,0,0,0-1.622,5.939q.359,21.754.747,43.508c.169,9.276.374,18.551.564,27.826.01.459.04.917.061,1.375a.018.018,0,0,1-.018.019Z" transform="translate(-2155.497 1762.818)" stroke="#a3a3a3" stroke-miterlimit="10" stroke-width="0.5"/>
            <path id="Path_11-4" data-name="Path 11" d="M2192.037-1664.918a.349.349,0,0,0-.01-.089.567.567,0,0,0-.9-.27,2.7,2.7,0,0,0-.273.23c-.1.1-.095.308-.11.471a1.8,1.8,0,0,1-2.272,1.716,2.011,2.011,0,0,1-1.544-1.24,6.935,6.935,0,0,1,.1-4.345c.324-1.009,1.2-.955,2.046-.922.735.029,1.356.193,1.549,1.038a2.4,2.4,0,0,0,.329.914.641.641,0,0,0,.188.157.568.568,0,0,0,.849-.356.356.356,0,0,0,.006-.094Z" transform="translate(-2157.544 1712.236)" fill="#db0046" stroke="#a3a3a3" stroke-width="1"/>
            <path id="Path_12-4" data-name="Path 12" d="M2277.12-1700.913l0,.011a.592.592,0,0,0,1.153.255c.019-.066.036-.135.05-.207.255-1.241.57-1.438,2.05-1.39,1.184.038,1.629.354,1.72,1.524a21.027,21.027,0,0,1-.026,3.5,1.527,1.527,0,0,1-1.632,1.491c-1.391.029-1.87-.277-2.156-1.38a1.535,1.535,0,0,0-.122-.473q-.091-.132-.189-.259a.731.731,0,0,0-1.209.062.566.566,0,0,0-.069.2" transform="translate(-2217.988 1734.295)" stroke="#a3a3a3" stroke-width="1"/>
            <path id="Path_13-4" data-name="Path 13" d="M2275.3-1667.524h0a.462.462,0,0,0,.853.234c.024-.037.048-.076.07-.114a1.372,1.372,0,0,0,.084-.316,2.107,2.107,0,0,1,3-1.566,1.612,1.612,0,0,1,.862.914,6.49,6.49,0,0,1-.094,4.568c-.47,1.131-1.455.958-2.38.888-.885-.067-1.105-.786-1.348-1.451-.092-.251-.029-.56-.132-.8-.081-.191-.083-.478-.469-.443a.7.7,0,0,0-.462.445" transform="translate(-2217.041 1712.298)" stroke="#a3a3a3" stroke-miterlimit="10" stroke-width="0.25"/>
            <path id="Path_14-4" data-name="Path 14" d="M2275.748-1633.479c.017.453-.047.977.635,1.045.7.07.691-.441.782-.9a1.923,1.923,0,0,1,1.931-1.672,1.764,1.764,0,0,1,2.1,1.411,6.118,6.118,0,0,1-.189,4.023c-.407.9-.925,1.159-2.048,1.038a1.738,1.738,0,0,1-1.785-1.5c-.046-.2-.1-.4-.158-.6a.627.627,0,0,0-.588-.454h0a.55.55,0,0,0-.558.48" transform="translate(-2217.357 1689.171)" stroke="#a3a3a3" stroke-miterlimit="10" stroke-width="0.25"/>
            <path id="Path_15-4" data-name="Path 15" d="M2189.323-1700.165c-.049-.244-.287-.641-.675-.6-.273.029-.447.328-.589.588-.179.325-.156.756-.322,1.091-.466.949-1.339.977-2.248.932-.792-.039-1.107-.531-1.377-1.19a5.768,5.768,0,0,1,.25-4.694,1.3,1.3,0,0,1,.221-.329,1.833,1.833,0,0,1,2.293-.174,3.239,3.239,0,0,1,1.031,1.234c.231.439.03,1.321.8,1.157.476-.1.415-.328.325-.8" transform="translate(-2155.594 1736.047)" stroke="#a3a3a3" stroke-width="1"/>
            <path id="Path_16-4" data-name="Path 16" d="M2190.812-1630.989a3.352,3.352,0,0,1-.227-1.24,1.677,1.677,0,0,0-.075-.266.421.421,0,0,0-.791,0c-.025.064-.047.128-.066.193a2.058,2.058,0,0,1-2.787,1.625,1.4,1.4,0,0,1-1.249-1.238,19.059,19.059,0,0,1-.028-3.5,1.666,1.666,0,0,1,1.792-1.664,2.051,2.051,0,0,1,2.3,1.64c.1.339.375.865.6.88.553.038.74-.47.758-.973" transform="translate(-2156.8 1690.557)" stroke="#a3a3a3" stroke-miterlimit="10" stroke-width="0.25"/>
          </g>
        </g>
      </g>
      <text id="Strum_string_to_begin_" data-name="Strum string to begin!" transform="translate(1537 12656)" fill="#fff" font-size="20" font-family="Montserrat-Regular, Montserrat"><tspan x="35.98" y="19">Strum string to begin!</tspan></text>
      <text id="E-7" data-name="E" transform="translate(1550 12809.5)" fill="#afafaf" font-size="22" font-family="Montserrat-Regular, Montserrat" letter-spacing="0.351em" opacity="0.669"><tspan x="-7.359" y="0">E</tspan></text>
      <text id="A-12" data-name="A" transform="translate(1602 12809.5)" fill="#fff" stroke="#fff" stroke-width="1" font-size="22" font-family="Montserrat-Regular, Montserrat" letter-spacing="0.351em"><tspan x="-7.887" y="0">A</tspan></text>
      <text id="D-4" data-name="D" transform="translate(1655 12809.5)" fill="#afafaf" font-size="22" font-family="Montserrat-Regular, Montserrat" letter-spacing="0.351em" opacity="0.669"><tspan x="-9.086" y="0">D</tspan></text>
      <text id="G-4" data-name="G" transform="translate(1709 12809.5)" fill="#afafaf" font-size="22" font-family="Montserrat-Regular, Montserrat" letter-spacing="0.351em" opacity="0.669"><tspan x="-8.503" y="0">G</tspan></text>
      <text id="B-4" data-name="B" transform="translate(1763 12809.5)" fill="#afafaf" font-size="22" font-family="Montserrat-Regular, Montserrat" letter-spacing="0.351em" opacity="0.669"><tspan x="-8.294" y="0">B</tspan></text>
      <text id="E-8" data-name="E" transform="translate(1816 12809.5)" fill="#afafaf" font-size="22" font-family="Montserrat-Regular, Montserrat" letter-spacing="0.351em" opacity="0.669"><tspan x="-7.359" y="0">E</tspan></text>
      <g id="Group_275" data-name="Group 275" transform="translate(1639 12191)">
        <g id="Component_1_14" data-name="Component 1 – 14" transform="translate(-21 214)" opacity="0.998">
          <circle id="Ellipse_4-6" data-name="Ellipse 4" cx="76" cy="76" r="76" transform="translate(0 0)" fill="none"/>
        </g>
        <text id="A-13" data-name="A" transform="translate(49.752 293.417)" fill="#fff" font-size="26" font-family="Montserrat-Regular, Montserrat" letter-spacing="0.351em"><tspan x="-9.321" y="0">A</tspan></text>
        <g id="Ellipse_3-5" data-name="Ellipse 3" transform="translate(-51 184)" fill="none" stroke="#fff" stroke-width="2" stroke-dasharray="3">
          <circle cx="101" cy="101" r="101" stroke="none"/>
          <circle cx="101" cy="101" r="100" fill="none"/>
        </g>
      </g>
    </g>
    <g id="Ellipse_2" data-name="Ellipse 2" transform="translate(298 10603)" fill="#3e3e3e" stroke="#707070" stroke-width="1">
      <circle cx="46" cy="46" r="46" stroke="none"/>
      <circle cx="46" cy="46" r="45.5" fill="none"/>
    </g>
    <g id="Group_286" data-name="Group 286">
      <rect id="Rectangle_143" data-name="Rectangle 143" width="201" height="21" rx="10.5" transform="translate(243 10491)" fill="#656565"/>
      <rect id="Rectangle_145" data-name="Rectangle 145" width="201" height="21" rx="10.5" transform="translate(1066 10491)" fill="#656565"/>
      <rect id="Rectangle_146" data-name="Rectangle 146" width="201" height="21" rx="10.5" transform="translate(656 10491)" fill="#656565"/>
      <rect id="Rectangle_147" data-name="Rectangle 147" width="201" height="21" rx="10.5" transform="translate(1478 10491)" fill="#656565"/>
    </g>
    <g id="Group_285" data-name="Group 285" transform="translate(1)">
      <rect id="Rectangle_148" data-name="Rectangle 148" width="201" height="21" rx="10.5" transform="translate(242 11343)" fill="#656565"/>
      <rect id="Rectangle_149" data-name="Rectangle 149" width="201" height="21" rx="10.5" transform="translate(1065 11343)" fill="#656565"/>
      <rect id="Rectangle_150" data-name="Rectangle 150" width="201" height="21" rx="10.5" transform="translate(655 11343)" fill="#656565"/>
      <rect id="Rectangle_151" data-name="Rectangle 151" width="201" height="21" rx="10.5" transform="translate(1477 11343)" fill="#656565"/>
    </g>
    <g id="Group_287" data-name="Group 287" transform="translate(0 1700)">
      <rect id="Rectangle_143-2" data-name="Rectangle 143" width="201" height="21" rx="10.5" transform="translate(243 10491)" fill="#656565"/>
      <rect id="Rectangle_145-2" data-name="Rectangle 145" width="201" height="21" rx="10.5" transform="translate(1066 10491)" fill="#656565"/>
      <rect id="Rectangle_146-2" data-name="Rectangle 146" width="201" height="21" rx="10.5" transform="translate(656 10491)" fill="#656565"/>
      <rect id="Rectangle_147-2" data-name="Rectangle 147" width="201" height="21" rx="10.5" transform="translate(1478 10491)" fill="#656565"/>
    </g>
  </g>
</svg>
