<svg id="Group_526" data-name="Group 526" xmlns="http://www.w3.org/2000/svg" width="97.627" height="131.94" viewBox="0 0 97.627 131.94">
  <g id="Group_524" data-name="Group 524">
    <path id="Path_4689" data-name="Path 4689" d="M528.847,722.53c-.287,2.285-.577,4.57-.856,6.855a2.2,2.2,0,0,0,.018.806,20.429,20.429,0,0,1-.367,12.674c-1.774,4.8-3.235,9.718-4.91,14.557a8.5,8.5,0,0,1-6.491,6c-1.329.276-1.461,1.29-1.714,2.159a52.491,52.491,0,0,1-6.095,13.156c-4.223,6.736-9.379,12.561-16.656,16.152a24.755,24.755,0,0,1-18.517,1.576c-11.346-3.342-18.745-11.262-24.118-21.3-1.752-3.27-2.739-6.946-4.12-10.42-.175-.44-.594-1.089-.937-1.113-3.313-.23-4.841-2.5-5.772-5.193-1.529-4.422-2.772-8.942-4.243-13.386-1.271-3.841-2.586-7.658-1.746-11.791.414-2.035.567-3.957-.663-5.852a5.314,5.314,0,0,1-.4-2.591c-.47-16.058,3.495-30.976,12.939-43.962,7.512-10.331,17.94-15.645,31.122-14.2a14.323,14.323,0,0,1,4.008.984,4.3,4.3,0,0,0,3.607-.11c9.258-3.7,17.745-1.788,25.629,3.791,6.881,4.868,11.1,11.718,14.021,19.437C526.455,700.976,528.049,711.639,528.847,722.53Zm-86.073,14.915c.314,2.277.452,4.6.979,6.824,1.162,4.924,2.549,9.795,3.788,14.7.794,3.145,1.17,6.434,2.288,9.454,3.542,9.563,9.517,17.305,18.524,22.307,8.508,4.725,17.157,4.855,25.307-.86,9.439-6.619,14.838-16.086,18.144-26.914,1.205-3.946,2.438-7.891,3.871-11.758s2.688-7.7,2.029-11.919c-.58-3.7-.961-7.442-1.613-11.133-.391-2.216-1.259-4.346-1.69-6.558a58.618,58.618,0,0,0-6.006-17.6c-5.272-9.459-13.188-14.611-24.172-14.65a58.92,58.92,0,0,0-17.685,2.3c-6.148,1.892-11.32,5.159-14.974,10.567-2.732,4.044-4.071,8.612-5.234,13.3A147.149,147.149,0,0,0,442.774,737.445Zm-2.952-5.7a23.25,23.25,0,0,0,.668-2.911,91.936,91.936,0,0,1,4.273-20.187c3.89-11.95,12.469-18.607,24.5-21.14,3.125-.658,6.326-.98,9.505-1.354,1.354-.159,2.059-.744,1.965-2.1-.261-3.788-.5-7.58-.895-11.356a2.538,2.538,0,0,0-1.3-1.72,12.227,12.227,0,0,0-3.673-.938c-12.065-1.168-21.427,3.641-28.37,13.279a64.053,64.053,0,0,0-9.326,20.331,71.942,71.942,0,0,0-2.582,20.459C434.617,727.741,436.836,729.736,439.822,731.747Zm85.62-8.478c-.375-3.557-.682-6.3-.951-9.045a78.774,78.774,0,0,0-6.888-26.437c-4.343-9.127-10.852-15.958-21.092-18.27a19.2,19.2,0,0,0-11.876.911c-1.222.513-1.424,1.207-1.311,2.426.347,3.725.666,7.462.751,11.2.033,1.471.4,1.882,1.827,1.959a30.781,30.781,0,0,1,11.681,2.764c6.461,3.066,10.924,8.115,14.195,14.313a57.333,57.333,0,0,1,5.207,14.585c.92,4.2,2.045,8.346,3.091,12.514.155.615.38,1.213.572,1.819a8.118,8.118,0,0,0,2.246-.792,3.784,3.784,0,0,0,1.455-1.928C524.876,727.065,525.179,724.79,525.442,723.269Zm-81.367,37.02a10.063,10.063,0,0,0-.018-1.988c-.674-2.834-1.293-5.689-2.145-8.472-1.144-3.737-2.568-7.379-2.3-11.413.191-2.857-.779-4-3.861-4.825a14.68,14.68,0,0,0,.3,6.68c1.652,4.956,3.138,9.968,4.769,14.931C441.414,757.008,441.642,759.1,444.074,760.289Zm72.342-1.194a2.9,2.9,0,0,0,2.886-2.265q2.61-7.475,5.018-15.02a22.024,22.024,0,0,0,1.152-4.953c.2-2.52-.1-2.641-2.381-1.776a2.4,2.4,0,0,1-.479.132c-1.362.213-1.783,1-1.663,2.344a54.171,54.171,0,0,1,.24,5.945c-.078,3.782-1.8,7.112-3.074,10.566C517.5,755.727,516.98,757.418,516.416,759.1Z" transform="translate(-431.22 -665.625)" fill="#505050"/>
    <path id="Path_4690" data-name="Path 4690" d="M501.448,795.975a28.66,28.66,0,0,1-3.661-1.062,3.39,3.39,0,0,1-2.259-4.126c.923-6.278,1.894-12.549,2.856-18.821.058-.379.086-.87.329-1.091a18.512,18.512,0,0,1,1.948-1.4c.4.707,1.209,1.457,1.14,2.114-.341,3.234-.909,6.445-1.41,9.662-.449,2.889-.956,5.769-1.356,8.665-.237,1.718.236,2.252,1.989,2.518,2.4.363,4.393-.8,6.441-1.743.248-.114.475-.434.7-.42.811.052,1.916-.079,2.355.384.721.76.341,1.8-.563,2.407A16.947,16.947,0,0,1,501.448,795.975Z" transform="translate(-452.787 -700.491)" fill="#505050"/>
    <path id="Path_4691" data-name="Path 4691" d="M498.235,825.522a36.557,36.557,0,0,1-12.417-1.893,1.481,1.481,0,0,1-.312-.109c-1.012-.578-2.591-.889-2.009-2.516.546-1.524,1.823-1.151,3.067-.725a32.556,32.556,0,0,0,14.017,1.786,75.719,75.719,0,0,0,9.518-1.928c1.091-.26,2.037-.424,2.518.728.51,1.221-.2,1.965-1.325,2.406A31.75,31.75,0,0,1,498.235,825.522Z" transform="translate(-448.729 -717.421)" fill="#505050"/>
    <path id="Path_4692" data-name="Path 4692" d="M535.552,812.165a43.991,43.991,0,0,1-1.9,5.178,2.429,2.429,0,0,1-2.146.8c-1-.227-1.179-1.25-.7-2.162,2.114-4.073.561-7.417-1.992-10.624-1.749-2.2-3.447-4.437-5.07-6.728a1.755,1.755,0,0,1,.345-2.642c1.053-.769,1.8-.092,2.379.675,2.227,2.939,4.471,5.87,6.579,8.893A14.081,14.081,0,0,1,535.552,812.165Z" transform="translate(-462.134 -709.278)" fill="#505050"/>
    <path id="Path_4693" data-name="Path 4693" d="M470.653,812.793a15.857,15.857,0,0,1,3.662-9.365c1.682-2.251,3.4-4.474,5.131-6.69.591-.758,1.291-1.54,2.352-.811a1.842,1.842,0,0,1,.352,2.791c-1.386,1.988-2.911,3.879-4.368,5.817-.7.925-1.4,1.843-2.044,2.8-1.743,2.622-2.221,5.38-.7,8.275.535,1.022.634,1.975-.5,2.543a1.68,1.68,0,0,1-2.5-1.126C471.435,815.4,470.952,813.721,470.653,812.793Z" transform="translate(-444.459 -709.274)" fill="#505050"/>
    <path id="Path_4694" data-name="Path 4694" d="M470.026,751.082a27.666,27.666,0,0,1,10.586,2.653c1.148.5,1.7,1.342,1.129,2.506-.555,1.139-1.5,1.005-2.545.531a22.133,22.133,0,0,0-13.9-1.672c-1.19.245-2.4.391-3.6.579-1.012.158-2.086.315-2.441-.984-.4-1.455.638-2.08,1.774-2.278C464.012,751.894,467.024,751.517,470.026,751.082Z" transform="translate(-440.602 -694.315)" fill="#505050"/>
    <path id="Path_4695" data-name="Path 4695" d="M527.966,751.135c2.838.4,5.677.789,8.512,1.209a1.669,1.669,0,0,1,1.052.42c.42.6,1,1.365.9,1.971-.066.431-1.121,1.01-1.726,1a21.054,21.054,0,0,1-4.09-.592,22.317,22.317,0,0,0-13.907,1.564c-1.108.48-2.081.719-2.671-.511-.562-1.172.044-1.978,1.187-2.474A27.075,27.075,0,0,1,527.966,751.135Z" transform="translate(-459.625 -694.333)" fill="#505050"/>
    <path id="Path_4696" data-name="Path 4696" d="M476.842,766.375a2.751,2.751,0,0,1-2.577,2.5,2.584,2.584,0,0,1-2.388-2.629,2.275,2.275,0,0,1,2.438-2.317A2.441,2.441,0,0,1,476.842,766.375Z" transform="translate(-444.869 -698.629)" fill="#505050"/>
    <path id="Path_4697" data-name="Path 4697" d="M532.486,768.876a2.727,2.727,0,0,1-2.543-2.529,2.41,2.41,0,0,1,2.388-2.415,2.3,2.3,0,0,1,2.583,2.346A2.607,2.607,0,0,1,532.486,768.876Z" transform="translate(-464.365 -698.629)" fill="#505050"/>
  </g>
  <path id="Path_4705" data-name="Path 4705" d="M533.781,771.4a4.116,4.116,0,0,1-3.838-3.818,3.637,3.637,0,0,1,3.6-3.645,3.478,3.478,0,0,1,3.9,3.54A3.935,3.935,0,0,1,533.781,771.4Z" transform="translate(-484.63 -713.888)" fill="#d85f5f"/>
</svg>
