<svg xmlns="http://www.w3.org/2000/svg" width="219.089" height="219.02" viewBox="0 0 219.089 219.02">
  <path id="Path_1098" data-name="Path 1098" d="M-1710.1,3618.649h-16.678c-.243-.484-.712-.382-1.118-.417a111.255,111.255,0,0,1-17.658-3.005c-42.142-10.562-74.786-46.8-80.964-89.815-.368-2.565-.3-5.205-1.184-7.693v-17.106c.394-.185.383-.556.408-.9a95.1,95.1,0,0,1,1.848-12.887A109.63,109.63,0,0,1-1696,3401.9c71.035,14.585,108.8,94.214,74.63,158.166-17.28,32.337-44.559,51.385-80.821,57.418C-1704.822,3617.924-1707.536,3617.792-1710.1,3618.649Zm11.284-152.436a51.7,51.7,0,0,0-20.57,4.174c-11.924,5.152-20.178,14.7-28.269,24.249-3.737,4.412-2.608,11.278,1.456,15.468,5.37,5.536,13.564,5.06,19.2-1.087a155.926,155.926,0,0,1,11.959-11.906c8.294-7.28,22.981-7.488,31.485-.5,12.413,10.207,13.587,26.857,2.666,38.654-8.715,9.414-17.858,18.408-27.124,27.275-5.249,5.022-5.732,12.89-.987,18.031a12.5,12.5,0,0,0,18.141.463c10.216-9.728,20.376-19.53,29.758-30.073,10.279-11.551,14.471-25.178,12.446-40.515C-1651.447,3489.311-1669.038,3466.483-1698.82,3466.214Zm-39.694,85.93c13.293-.186,24.378-3.807,33.764-11.952a175.043,175.043,0,0,0,14.679-14.626,12.039,12.039,0,0,0,2.494-13.121,12.514,12.514,0,0,0-20.573-4.4c-4.394,4.368-8.5,9.03-13.179,13.106-8.4,7.319-23.006,7.586-31.486.655-12.461-10.183-13.723-26.84-2.838-38.646,8.7-9.432,17.842-18.424,27.124-27.275,5.34-5.092,5.833-13,1.007-18.194a12.562,12.562,0,0,0-18.151-.341c-9.832,9.41-19.547,18.941-28.756,28.97-10.336,11.257-14.984,24.474-13.572,39.746C-1785.6,3532.039-1763.631,3552.091-1738.514,3552.144Z" transform="translate(1827.707 -3399.63)" fill="#0188fe"/>
</svg>
