<svg id="Layer_1" data-name="Layer 1" xmlns="http://www.w3.org/2000/svg" viewBox="0 0 260.58 262.13"><defs><style>.cls-1{fill:#d95f5f;stroke:#fff;}</style></defs><path id="Path_852" data-name="Path 852" class="cls-1" d="M133.51,7.09c20.54.11,39.81,4.34,57,16.06,3.22,2.2,5.28,1.32,7.95-1.42A268.92,268.92,0,0,1,219.29,2.18c4.8-4,8-2.41,9.25,3.81,1.17,5.89,1.89,11.86,2.71,17.8.5,3.59,2.21,5.35,6,5.74,5.52.57,11,1.85,16.45,2.72,6.3,1,8.76,4.5,5.24,9.66-5.34,7.82-11.72,15-18.06,22-2.45,2.72-4.43,4.52-2,8.42,30.85,49.33,18.88,107.34-17.83,146.12C193,248.18,158.74,265,117,261.72c-30.59-2.42-55.89-17.18-77.12-38.59-28.15-28.4-43-62.55-39.88-103,2.65-34.82,20.54-61.33,47.87-82C67.14,23.51,89,14.38,112.27,8.58,119.05,6.89,126.41,7.52,133.51,7.09Zm51.57,63.25,1.5-1.11a42.21,42.21,0,0,1,.94-29.92c2-4.88.17-6.73-3.37-9C163.79,17.14,141,15.09,118,17.56c-29.83,3.21-54.64,18-76.3,38C18.06,77.36,6.59,104.65,9.27,136.85c3.48,41.76,24.13,73.77,58.49,97,24.48,16.54,51.61,23.4,80.66,16.37,35.52-8.59,63.39-28.81,82-60.47,21.25-36.22,22.48-73.18,1.79-110.34-2.67-4.77-5.31-6.11-11.09-4.6-6.92,1.82-14.43,1.39-21.69,1.93-2.15.16-4.3.34-6.54.52.23,1.55.16,2.07.38,2.4,1,1.47,2,2.92,3.09,4.33,9.29,12.3,15.91,25.82,17.13,41.32,2.73,34.86-12.36,61.25-40.55,80.3-21.8,14.74-45.81,19.55-71.08,9.9-24.65-9.41-42.11-26.92-52.91-50.89-13.7-30.4-8-62.56,15.7-86.05a99.26,99.26,0,0,1,45.8-25.93c26.3-6.86,49.68-2.36,70.52,15.16A32.57,32.57,0,0,0,185.08,70.34Zm.1,15.92c-9.57,9.42-18.82,18.3-27.66,27.57-1,1-.12,4.62.81,6.58,9.92,20.85-5.46,46.78-28.53,47.9-13.69.66-27.11-8.24-33-21.85-5.45-12.71-2.49-26.2,7.76-35.25,11.52-10.19,27.51-12.77,39.56-5.92,3.39,1.93,5.48,1.74,8.1-1,6.82-7,13.66-14,20.84-20.7,4.61-4.28,3.61-7-.94-10.47-24.08-18.24-49.53-18.8-75.91-6-40.9,19.88-56.11,58-37.1,96.68C72.76,191.51,95,209.75,127,210.49c39.12.92,76.75-36.63,77.32-75.71C204.61,116.27,198,100.19,185.18,86.26Zm-37.35,37.31c-5.61,5.4-10.89,11-16.79,15.85-1.86,1.53-5.42,1-8.2,1.4.44-2.74,0-6.2,1.5-8.1,3.84-4.84,8.58-9,12.92-13.41,4.11-4.21,3.67-5.83-1.95-7.56-11.88-3.64-26.68,3.85-30.77,15.6-3.7,10.58,4.08,25.64,15.42,29.86,9.15,3.4,20.45-.4,27.16-9.14C153.17,140.2,153.6,131.81,147.83,123.57Zm71-108.6c-14.64,9.38-29.86,32.25-23.09,46.93,6.61-7.09,12.64-13.8,18.93-20.25,7.49-7.66,8.9-15.93,4.16-26.67Zm26.5,27.23c-10-5.44-15.25-4.66-22.28,3.15-3.57,4-7.29,7.8-10.87,11.75-2.56,2.82-5,5.75-7.94,9.11,15,2.32,36.58-10.81,41.09-24Z"/></svg>