<svg id="Layer_1" data-name="Layer 1" xmlns="http://www.w3.org/2000/svg" viewBox="0 0 113.42 100.81"><defs><style>.cls-1{fill:#c22126;stroke:#fff;}</style></defs><g id="Group_6" data-name="Group 6"><path id="Path_36" data-name="Path 36" class="cls-1" d="M14.17,60.06a7.73,7.73,0,0,1-.47-1.85c0-9.21-.14-18.43.09-27.65.16-6.36.66-12.74,1.33-19.08C15.69,6.06,19,3,24.86,2.39c7.48-.77,15-1.49,22.5-1.8,9.51-.4,19-.34,28.56-.53C79.63,0,83.35-.3,87.06-.36a12.73,12.73,0,0,1,7.45,1.79A9.09,9.09,0,0,1,98.41,8,55.1,55.1,0,0,1,99,16.07c0,8.21-.13,16.42,0,24.63,0,3.07.56,6.13.8,9.21a22.56,22.56,0,0,1-.53,8.54,4.6,4.6,0,0,1-3,3.42c1,2,2,3.93,3,5.86a72.18,72.18,0,0,0,11,15.38c3.45,3.76,3.57,8.14,2.75,12.63-.52,2.82-2.77,4.28-6.34,4.42q-8.16.33-16.33.5c-20.81.42-41.61,0-62.42-.2-8.45-.1-16.9-.13-25.35-.19C.48,100.25.18,100,.05,98a36.36,36.36,0,0,1,4-18.65c2.72-5.57,5.84-11,8.79-16.45.5-.92,1-1.84,1.53-2.75Zm38.6,1.69v0c1,0,2,0,3,0a257.1,257.1,0,0,0,38.62-2.35c.68-.1,1-.3,1-.92.2-2.19.61-4.37.65-6.55C96.15,47,96,42.18,96,37.32c0-1.86.1-3.72.22-5.58.25-4.32.62-8.65.77-13a28.34,28.34,0,0,0-1.12-9.69,7.72,7.72,0,0,0-4.57-4.94A26.27,26.27,0,0,0,80.45,2.22c-4.85,0-9.7.33-14.56.48-6.91.21-13.82.37-20.73.59s-13.7,1.07-20.52,2a1.33,1.33,0,0,0-.82.38,65,65,0,0,0-4.19,5.72c-1.83,3-2.22,6.43-2.39,9.89-.61,12-.6,24-.45,36.07a1.28,1.28,0,0,0,.91,1.4c1.73.64,3.4,1.42,5.18,1.9A45,45,0,0,0,34.78,62c6,0,12-.17,18-.27ZM93,62.31l-5.21.53C77.4,63.91,67,64.43,56.48,64.47c-6.53,0-13,.17-19.57.12-3.68,0-7.36-.23-11-.52a25.77,25.77,0,0,1-8.78-2.39l-.29.44C13,69.18,9.21,76.22,5.51,83.32a28.64,28.64,0,0,0-3,8.66,7.85,7.85,0,0,0-.11,1.18c-.09,3.2,1.16,4.41,4.57,4.41H60.74c3.43,0,6.85,0,10.27.13,8.87.2,17.73.8,26.6.24a92.14,92.14,0,0,0,9.23-.92c3.38-.57,4.81-2.9,3.64-5.92a35.15,35.15,0,0,0-3.3-6.5c-2.9-4.48-6.09-8.8-9-13.29-1.87-2.89-3.43-6-5.16-9Z"/><path id="Path_37" data-name="Path 37" class="cls-1" d="M58.58,87.63c3.69,0,7.38,0,11.07,0a1.33,1.33,0,0,1,1.4,1.25,1.4,1.4,0,0,1-.23.82,1.87,1.87,0,0,1-1.31.6c-4,0-8.05,0-12.07,0H47.53a1.33,1.33,0,0,1-1.3-2c.27-.62.78-.7,1.36-.7Z"/></g></svg>