<?xml version="1.0" encoding="utf-8"?>
<!-- Generator: Adobe Illustrator 25.4.1, SVG Export Plug-In . SVG Version: 6.00 Build 0)  -->
<svg version="1.1" id="Layer_1" xmlns="http://www.w3.org/2000/svg" xmlns:xlink="http://www.w3.org/1999/xlink" x="0px" y="0px"
	 viewBox="0 0 1024 1024" style="enable-background:new 0 0 1024 1024;" xml:space="preserve">
<style type="text/css">
	.st0{fill:#FFFFFF;}
</style>
<g>
	<path class="st0" d="M42,257c298.33,0,596.67,0,895,0c0,157,0,314,0,471c-298.33,0-596.67,0-895,0C42,571,42,414,42,257z
		 M404,259.16c2.23,5.48,3.79,10.36,6.12,14.84c9.85,18.95,20.06,37.71,29.88,56.67c10.1,19.51,19.86,39.2,29.85,58.77
		c7.6,14.89,15.43,29.66,23,44.57c7.7,15.16,15.04,30.5,22.82,45.62c10.96,21.31,22.26,42.44,33.26,63.73
		c9.66,18.69,19.04,37.53,28.65,56.25c11.71,22.8,23.71,45.46,35.23,68.35c8.9,17.68,17.21,35.65,25.91,53.43
		c0.77,1.57,2.47,2.7,3.74,4.03c1.11-1.55,2.66-2.96,3.25-4.69c3.02-8.75,5.48-17.7,8.72-26.36c5.49-14.69,11.49-29.19,17.15-43.81
		c9.57-24.7,19.06-49.44,28.49-74.19c0.48-1.27,0.69-3.1,0.14-4.23c-6.28-12.78-12.64-25.52-19.18-38.17
		c-8.95-17.34-18.16-34.55-27.09-51.89c-6.14-11.92-11.89-24.04-18.01-35.97c-5.58-10.89-11.52-21.59-17.12-32.47
		c-9.91-19.25-19.65-38.6-29.53-57.87c-10.06-19.61-20.21-39.16-30.31-58.75c-5.84-11.34-11.54-22.76-17.58-34
		c-0.92-1.71-3.23-3.52-5.08-3.75c-5.59-0.68-11.28-0.82-16.93-0.79c-27.48,0.16-54.96,0.46-82.45,0.66
		C426.16,259.23,415.35,259.16,404,259.16z M935.65,493.51c0-76.32-0.02-152.65,0.07-228.97c0-4.02-1.04-5.51-5.32-5.51
		c-17.65,0.01-35.3-0.5-52.94-0.53c-16.48-0.02-32.96,0.5-49.44,0.42c-4.76-0.02-5.89,1.67-5.88,6.14
		c0.14,42.49,0.08,84.99,0.08,127.48c0,109.49,0.01,218.97-0.08,328.46c0,4.27,1.21,6.01,5.7,5.81c7.28-0.32,14.58-0.11,21.87-0.11
		c27,0,53.99-0.07,80.99,0.07c4.09,0.02,5-1.51,5-5.3C935.63,645.49,935.65,569.5,935.65,493.51z M332.79,492.79
		c0-44.16-0.04-88.33,0.01-132.49c0.04-32.16,0.22-64.31,0.33-96.47c0.01-3.76-2.83-4.22-5.48-4.23c-10.8-0.07-21.6,0.13-32.4,0.12
		c-22.16-0.02-44.33-0.09-66.49-0.18c-3.9-0.02-5.86,1.34-5.46,5.67c0.35,3.8-0.01,7.66-0.01,11.49
		c-0.01,90.83-0.02,181.66,0,272.49c0.02,56.16,0.1,112.33,0.15,168.49c0.01,8.94,0.02,8.92,9.18,8.92
		c31.96-0.02,63.92,0,95.88-0.07c2.93-0.01,4.88-1.09,4.76-4.79c-0.34-10.64-0.44-21.3-0.45-31.95
		C332.78,624.11,332.8,558.45,332.79,492.79z M44.21,399.24c24.99-55.29,60.45-102.2,108.84-139.7c-1.74-0.43-2.69-0.86-3.65-0.87
		c-9.3-0.11-18.6-0.25-27.9-0.19c-23.98,0.16-47.96,0.49-71.94,0.55c-4.08,0.01-5.43,1.2-5.41,5.41c0.16,30,0.07,60,0.07,90
		C44.21,369.37,44.21,384.3,44.21,399.24z"/>
	<path d="M404,259.16c11.35,0,22.16,0.07,32.96-0.01c27.48-0.2,54.96-0.51,82.45-0.66c5.65-0.03,11.33,0.11,16.93,0.79
		c1.85,0.23,4.16,2.03,5.08,3.75c6.04,11.24,11.74,22.66,17.58,34c10.09,19.59,20.25,39.14,30.31,58.75
		c9.88,19.27,19.62,38.61,29.53,57.87c5.6,10.88,11.54,21.58,17.12,32.47c6.12,11.93,11.87,24.05,18.01,35.97
		c8.93,17.35,18.14,34.56,27.09,51.89c6.53,12.65,12.89,25.39,19.18,38.17c0.56,1.13,0.34,2.96-0.14,4.23
		c-9.44,24.75-18.93,49.49-28.49,74.19c-5.66,14.62-11.66,29.12-17.15,43.81c-3.24,8.66-5.7,17.61-8.72,26.36
		c-0.6,1.73-2.14,3.13-3.25,4.69c-1.27-1.33-2.96-2.45-3.74-4.03c-8.7-17.78-17.02-35.75-25.91-53.43
		c-11.52-22.89-23.53-45.55-35.23-68.35c-9.61-18.72-18.99-37.56-28.65-56.25c-11-21.29-22.3-42.42-33.26-63.73
		c-7.78-15.12-15.12-30.46-22.82-45.62c-7.57-14.91-15.4-29.68-23-44.57c-9.99-19.57-19.75-39.26-29.85-58.77
		c-9.82-18.96-20.03-37.72-29.88-56.67C407.79,269.52,406.23,264.64,404,259.16z"/>
	<path d="M935.65,493.51c0,75.99-0.02,151.98,0.07,227.97c0,3.8-0.91,5.33-5,5.3c-27-0.14-53.99-0.08-80.99-0.07
		c-7.29,0-14.59-0.21-21.87,0.11c-4.5,0.2-5.71-1.55-5.7-5.81c0.09-109.49,0.07-218.97,0.08-328.46c0-42.49,0.06-84.99-0.08-127.48
		c-0.01-4.47,1.12-6.16,5.88-6.14c16.48,0.08,32.96-0.44,49.44-0.42c17.65,0.02,35.3,0.53,52.94,0.53c4.28,0,5.32,1.49,5.32,5.51
		C935.63,340.86,935.65,417.19,935.65,493.51z"/>
	<path d="M332.79,492.79c0,65.66-0.01,131.32,0.02,196.98c0.01,10.65,0.11,21.31,0.45,31.95c0.12,3.7-1.84,4.79-4.76,4.79
		c-31.96,0.07-63.92,0.05-95.88,0.07c-9.16,0.01-9.17,0.03-9.18-8.92c-0.06-56.16-0.14-112.33-0.15-168.49
		c-0.03-90.83-0.01-181.66,0-272.49c0-3.83,0.36-7.69,0.01-11.49c-0.4-4.33,1.56-5.68,5.46-5.67c22.16,0.09,44.33,0.16,66.49,0.18
		c10.8,0.01,21.6-0.19,32.4-0.12c2.66,0.02,5.5,0.47,5.48,4.23c-0.11,32.16-0.29,64.31-0.33,96.47
		C332.75,404.46,332.79,448.63,332.79,492.79z"/>
	<path d="M44.21,399.24c0-14.94,0-29.87,0-44.81c0.01-30,0.09-60-0.07-90c-0.02-4.21,1.33-5.4,5.41-5.41
		c23.98-0.06,47.96-0.39,71.94-0.55c9.3-0.06,18.6,0.08,27.9,0.19c0.96,0.01,1.92,0.44,3.65,0.87
		C104.66,297.04,69.2,343.95,44.21,399.24z"/>
</g>
</svg>
