<svg id="Layer_1" data-name="Layer 1" xmlns="http://www.w3.org/2000/svg" viewBox="0 0 126.81 120.1"><defs><style>.cls-1{fill:#c22126;stroke:#fff;stroke-miterlimit:4;stroke-width:0.9px;}</style></defs><g id="Group_5" data-name="Group 5"><path id="Path_27" data-name="Path 27" class="cls-1" d="M31.47,28.06c.3,2.75.47,5.38,1,8a3.64,3.64,0,0,0,2,2c2.76,1.4,5.61,2.63,8.43,3.91,13.32,6,26.72,11.94,39.95,18.19,6.75,3.19,13.21,7,19.8,10.54.64.35,1.32.62,2.17,1a18.24,18.24,0,0,0,.29-2.34c0-4.73-.11-9.46-.21-14.19-.06-2.49-.8-3-3.13-2.13a16.51,16.51,0,0,1-18.45-4.66,6.08,6.08,0,0,1,5.08-10.11,15.63,15.63,0,0,0,10.76-2.86,25.46,25.46,0,0,0,3-2.72c3.93-4.06,11.82-4.39,15.89-.63s4.1,10.58-.05,15a15,15,0,0,1-8,4.21c-2.05.46-2.71,1.13-2.7,3.21,0,5.62.07,11.23.22,16.85a7.34,7.34,0,0,0,5.28,6.65c4.8,1.43,8.78,4,11.35,8.35,4,6.78,4.13,13.79.94,20.91-3,6.76-8.06,11.21-15.35,12.89-7.85,1.8-18.77-1.23-23.51-8.25-3.62-5.37-4-11.1-2.31-17.16C86.3,86,92.06,80.31,100.35,77c1.27-.51,2.56-1,3.84-1.47l.18-.46c-2-1.23-4-2.59-6.06-3.69C90.46,67.31,82.6,63.2,74.67,59.24c-5.88-2.93-11.85-5.68-17.81-8.43-7.47-3.45-15-6.81-22.48-10.21-.49-.22-1-.38-1.89-.71L32.74,47l.35,10c.08,2.23.35,2.58,2.58,2.73a37.52,37.52,0,0,1,11,2.33C52.81,64.4,58,68,60.22,74.46A43.15,43.15,0,0,1,62,84.1c.53,5.26.27,10.51-2.2,15.36a33.53,33.53,0,0,1-9.87,11.68c-7.92,6-16.81,8.37-26.57,6.43-8.86-1.76-16-6.34-20.36-14.47C-.77,96-.82,88.34,1.92,80.85c3.17-8.68,9.43-14.6,17.83-18.23a70.53,70.53,0,0,1,7.9-2.54c2.5-.76,3-1.33,2.88-3.95-.37-7.61-.89-15.2-1.1-22.81a11.43,11.43,0,0,0-3.18-8c-2.6-2.8-1.65-7.48,1.9-10.06a47.61,47.61,0,0,1,12-5.91c2.49-.9,4.44-2.15,5.41-4.87,1.13-3.18,4.15-4,7.08-4.68a15.69,15.69,0,0,1,8.89.67c2.95,1,3.48,3.45,1.29,5.66a13.85,13.85,0,0,1-8.17,3.8,45.65,45.65,0,0,1-7.75.57c-4.69-.15-8.8,1.62-12.79,3.66a26.3,26.3,0,0,0-5.6,4c-2.33,2.13-1.68,4.81-.29,6.93.32.48,1.32.59,2,.67s1.51-.31,2.15-.11c6,1.88,11.83.95,17.63-.85,2.08-.64,4.12-1.38,6.17-2.08A7.54,7.54,0,0,0,60.83,19c2.62-5.45,11.66-6.49,16-3.41,2.65,1.87,2.49,5.6-.48,6.87a45.71,45.71,0,0,1-8.9,2.93,10.67,10.67,0,0,1-5.23-.82,6.22,6.22,0,0,0-4.15-.07,116.71,116.71,0,0,1-13.62,3.73c-3.55.61-7.28.18-10.94.18A16,16,0,0,1,31.47,28.06Zm28.34,56.5c0-1.08-.05-2.34-.12-3.59-.34-5.63-2.56-10.35-7.2-13.63A29.74,29.74,0,0,0,28,62.47c-3.69.82-7.18,2.62-10.7,4.11a13.68,13.68,0,0,0-4.24,2.54,70.8,70.8,0,0,0-6.62,7.44c-5.74,7.5-6.25,18.94-1.34,27,3.32,5.45,8.34,8.7,14.23,10.7,10.76,3.67,20.64,1.43,29.52-5.14C57,103.14,60.88,95,59.81,84.56Zm40.34-46.19-.37.4c.75,1.21,1.54,2.4,2.23,3.64a1.29,1.29,0,0,1-.15,1.05c-.07.11-.69.06-.91-.11-.93-.69-1.77-1.49-2.7-2.18a3.46,3.46,0,0,0-1.69-.81c-2.91,0-5.84,0-8.73.34-2.73.28-4,2.24-3.37,4.79a5.85,5.85,0,0,0,3.34,4.2C91.4,51.21,95,52.55,99,51.12a46.23,46.23,0,0,1,8-1.73c5.13-.81,9-3.35,11.17-8.11a6.36,6.36,0,0,0-2.93-8.49c-.23-.11-.47-.2-.71-.29a11.64,11.64,0,0,0-11.37,2.67c-.81.71-.64,1.66,0,2.52A25.56,25.56,0,0,1,104.67,40a1,1,0,0,1-.1.93,1.1,1.1,0,0,1-.94,0,7.16,7.16,0,0,1-1-.75l-2.49-1.75Zm24.95,58c-.17-1.19-.26-2.39-.53-3.56-1.77-7.79-7.88-13.23-16.24-12.45a11.08,11.08,0,0,1-2.9-.65c-1.18-.25-2.64-1-3.52-.57a46.68,46.68,0,0,0-8.55,5.08c-5.1,4-7.54,9.62-8.16,16-.57,5.84,1.65,10.47,6.32,14,2.58,1.94,5.67,2.45,8.66,3.21a18,18,0,0,0,5.59.89c11-.89,19.62-10.83,19.33-21.92ZM61.15,3.13c-3.34-1.42-6.77-2-10.19-.47a8.74,8.74,0,0,0-3,2.58,2.46,2.46,0,0,0-.24,2.29,3.48,3.48,0,0,0,2.38,1,16.5,16.5,0,0,0,3.56-.49c3.18-.57,5.84-1.95,7.45-4.93ZM75.93,18.29c-.63-.35-1.25-.67-1.84-1-2.3-1.41-4.59-2-7-.05a24.37,24.37,0,0,1-2.46,1.57c-1.14.72-1.9,2.23-1.56,3.12a3.09,3.09,0,0,0,3.21,1.43,35.63,35.63,0,0,0,4.07-.9c2.28-.67,4.49-1.5,5.53-4.13Z"/><path id="Path_28" data-name="Path 28" class="cls-1" d="M33.56,65.24c5.1,0,10.12.57,14.69,3.25,4.82,2.83,7.5,7.07,8.7,12.46,2,9.08-.73,16.89-6.49,23.72-5.37,6.35-12.61,8.69-20.73,8.42a26,26,0,0,1-14.91-5,23.25,23.25,0,0,1-9-14.22C4.3,87,6.19,80.93,10.93,75.77c1.85-2,3.75-4,5.77-5.83A16.62,16.62,0,0,1,26.17,66C28.61,65.7,31.06,65.5,33.56,65.24ZM55,84.76c-.21-1.3-.38-2.63-.64-4a15.07,15.07,0,0,0-4.74-8.58,16.5,16.5,0,0,0-7.35-3.41c-2.53-.63-4.87-1.87-7.76-1.27-3.51.72-7.19.5-10.57,2-4.24,1.94-8.71,3.53-11,8.07a.91.91,0,0,1-.18.21c-7.82,8.62-5.11,22.24,4,28.53a22.57,22.57,0,0,0,18.2,3.8c4.09-.86,8.14-2,11.4-4.8C52.65,100,55.13,93,55,84.76Z"/><path id="Path_29" data-name="Path 29" class="cls-1" d="M121.49,96.86c-.51,2.77-.82,5.59-1.55,8.29a12.51,12.51,0,0,1-9.3,9.22c-5.42,1.49-10.63,1.52-15.51-2A15.5,15.5,0,0,1,89.62,93a20.14,20.14,0,0,1,7.81-9.34c5.22-3.25,10.41-2.26,15.42.44a15.27,15.27,0,0,1,8,9.52,23.89,23.89,0,0,1,.45,3.15ZM105,113a15.36,15.36,0,0,0,7.72-2.47c5.54-4,5.94-9.84,5.61-15.83-.15-2.8-2.07-4.92-4.19-6.65C109.5,84.28,104.43,83,99,86.24A16.65,16.65,0,0,0,91.88,95c-1.6,4.27-1.45,8.38,1.41,12.09S99.81,113.51,105,113Z"/><path id="Path_30" data-name="Path 30" class="cls-1" d="M35.72,87.24c.07,3-2.52,5.84-5.33,5.91-2.29.06-4.26-2.17-4.31-4.9A5,5,0,0,1,31,83.1h0C33.81,83.06,35.67,84.68,35.72,87.24Zm-5.08,3.44a24.52,24.52,0,0,0,2.06-3.1c.18-.36-.21-1.17-.57-1.54a1.46,1.46,0,0,0-1.38-.24,39.09,39.09,0,0,0-2.93,2.68Z"/><path id="Path_31" data-name="Path 31" class="cls-1" d="M17.31,89.61a2.82,2.82,0,0,1-2.63-3,.41.41,0,0,1,0-.11c0-4.69,2.35-8.13,5.78-11a16.77,16.77,0,0,1,2.85-2A2.21,2.21,0,0,1,26.2,74a87.76,87.76,0,0,0-6.9,6.6C17.17,83.06,16.85,86.26,17.31,89.61Z"/><path id="Path_32" data-name="Path 32" class="cls-1" d="M39.73,101.63a18,18,0,0,0,5-15.07,2.27,2.27,0,0,1,2.25,2c.45,4.4-.07,8.59-3.34,12A4.12,4.12,0,0,1,39.73,101.63Z"/><path id="Path_33" data-name="Path 33" class="cls-1" d="M101.31,99.42a4.48,4.48,0,0,1,4.33-4.62h.18a3.77,3.77,0,0,1,3.72,3.56c.08,2.27-2.42,5-4.53,5A4,4,0,0,1,101.31,99.42Zm6.42-.78-1.56-1.27-2.28,2.12,1.06,1.26Z"/><path id="Path_34" data-name="Path 34" class="cls-1" d="M102.27,89.08l-6.14,8.53a2.31,2.31,0,0,1-1-3,11.36,11.36,0,0,1,3.3-5.21C99.51,88.49,100.46,88.41,102.27,89.08Z"/><path id="Path_35" data-name="Path 35" class="cls-1" d="M112.88,98.69a1.79,1.79,0,0,1,2,1.53c.63,3.47-3.72,8.6-7.59,8.55.75-1,1.38-1.88,2-2.73a19.82,19.82,0,0,0,2.44-3.19A22.78,22.78,0,0,0,112.88,98.69Z"/></g></svg>