<svg xmlns="http://www.w3.org/2000/svg" width="1552.021" height="590.893" viewBox="0 0 1552.021 590.893">
  <g id="Group_319" data-name="Group 319" transform="translate(15198.498 -9485.933)">
    <path id="Path_1254" data-name="Path 1254" d="M-32.648,0h2.706V-6.49h7.348V0h2.706V-15.4h-2.706V-9h-7.348v-6.4h-2.706ZM-8.58.264A7.89,7.89,0,0,0-.506-7.7v-.044a7.817,7.817,0,0,0-8.03-7.92A7.89,7.89,0,0,0-16.61-7.7v.044A7.817,7.817,0,0,0-8.58.264Zm.044-2.508A5.258,5.258,0,0,1-13.772-7.7v-.044A5.2,5.2,0,0,1-8.58-13.178,5.276,5.276,0,0,1-3.344-7.7v.044A5.185,5.185,0,0,1-8.536-2.244ZM2.772,0H5.434V-11l4.818,7.216h.088l4.862-7.26V0h2.706V-15.4H15.026L10.34-8.118,5.654-15.4H2.772Zm19.1,0H33.4V-2.42H24.574V-6.556H32.3v-2.42H24.574v-4h8.712V-15.4H21.868Z" transform="translate(-14419 9505.637)"/>
    <path id="Path_1255" data-name="Path 1255" d="M-36.9.18c2.5,0,4.3-1.4,4.3-3.564V-3.42c0-1.926-1.3-2.952-4.1-3.564-2.772-.594-3.42-1.26-3.42-2.448v-.036c0-1.134,1.044-2.034,2.682-2.034A5.534,5.534,0,0,1-33.8-10.134l.828-1.1A6.574,6.574,0,0,0-37.4-12.78c-2.394,0-4.14,1.458-4.14,3.438v.036c0,2.07,1.332,3.006,4.23,3.636,2.646.558,3.276,1.224,3.276,2.394v.036C-34.038-2-35.154-1.1-36.846-1.1a6,6,0,0,1-4.32-1.782l-.882,1.044A7.373,7.373,0,0,0-36.9.18ZM-29.7,0h1.422V-5.67h7.272V0h1.422V-12.6h-1.422V-7h-7.272v-5.6H-29.7Zm12.6,0h1.458l1.494-3.33H-7.29L-5.814,0h1.53l-5.742-12.69h-1.332Zm3.51-4.626,2.88-6.408,2.862,6.408ZM-1.8,0H-.378V-4.9h3.6L6.876,0H8.622L4.752-5.148c1.98-.36,3.42-1.584,3.42-3.672v-.036A3.48,3.48,0,0,0,7.2-11.34,4.968,4.968,0,0,0,3.618-12.6H-1.8ZM-.378-6.174v-5.112H3.51c2.034,0,3.222.936,3.222,2.484v.036c0,1.62-1.35,2.592-3.24,2.592ZM11.34,0h1.422V-12.6H11.34Zm5.112,0h1.386V-10.332L25.974,0h1.134V-12.6H25.722V-2.5L17.784-12.6H16.452Zm20.07.216A7.635,7.635,0,0,0,41.58-1.71V-6.732h-5.2v1.278h3.834v3.132a5.933,5.933,0,0,1-3.636,1.26c-3.06,0-4.986-2.232-4.986-5.238v-.036A4.922,4.922,0,0,1,36.378-11.5a5.36,5.36,0,0,1,3.834,1.44l.918-1.08a6.639,6.639,0,0,0-4.7-1.674A6.323,6.323,0,0,0,30.114-6.3v.036A6.179,6.179,0,0,0,36.522.216Z" transform="translate(-14006.686 9590.844)"/>
    <path id="Path_1256" data-name="Path 1256" d="M-63.45,0h4.374c3.96,0,6.7-2.754,6.7-6.3v-.036c0-3.546-2.736-6.264-6.7-6.264H-63.45Zm4.374-11.286A4.9,4.9,0,0,1-53.856-6.3v.036a4.877,4.877,0,0,1-5.22,4.95h-2.952v-9.972ZM-49.248,0h1.422V-12.6h-1.422Zm9.432.18c2.5,0,4.3-1.4,4.3-3.564V-3.42c0-1.926-1.3-2.952-4.1-3.564-2.772-.594-3.42-1.26-3.42-2.448v-.036c0-1.134,1.044-2.034,2.682-2.034a5.534,5.534,0,0,1,3.636,1.368l.828-1.1A6.574,6.574,0,0,0-40.32-12.78c-2.394,0-4.14,1.458-4.14,3.438v.036c0,2.07,1.332,3.006,4.23,3.636,2.646.558,3.276,1.224,3.276,2.394v.036C-36.954-2-38.07-1.1-39.762-1.1a6,6,0,0,1-4.32-1.782l-.882,1.044A7.373,7.373,0,0,0-39.816.18Zm12.96.036A6.561,6.561,0,0,0-21.816-2l-.936-.918A5.47,5.47,0,0,1-26.82-1.1,4.972,4.972,0,0,1-31.7-6.3v-.036A4.94,4.94,0,0,1-26.82-11.5a5.476,5.476,0,0,1,3.96,1.728l.972-1.044a6.558,6.558,0,0,0-4.914-2A6.348,6.348,0,0,0-33.174-6.3v.036A6.285,6.285,0,0,0-26.856.216Zm13.014,0A6.384,6.384,0,0,0-7.4-6.3v-.036a6.324,6.324,0,0,0-6.408-6.48A6.384,6.384,0,0,0-20.25-6.3v.036A6.324,6.324,0,0,0-13.842.216Zm.036-1.314a5.01,5.01,0,0,1-4.968-5.2v-.036A4.95,4.95,0,0,1-13.842-11.5,5.01,5.01,0,0,1-8.874-6.3v.036A4.95,4.95,0,0,1-13.806-1.1ZM-.792.09H.468L5.886-12.6H4.356L-.144-1.746-4.626-12.6H-6.21ZM8.37,0h9.2V-1.3H9.792v-4.41h6.876V-7H9.792v-4.3h7.686v-1.3H8.37ZM20.43,0h1.422V-4.9h3.6L29.106,0h1.746l-3.87-5.148c1.98-.36,3.42-1.584,3.42-3.672v-.036a3.48,3.48,0,0,0-.972-2.484,4.968,4.968,0,0,0-3.582-1.26H20.43Zm1.422-6.174v-5.112H25.74c2.034,0,3.222.936,3.222,2.484v.036c0,1.62-1.35,2.592-3.24,2.592ZM33.57,0h1.422V-12.6H33.57Zm5.112,0h1.386V-10.332L48.2,0h1.134V-12.6H47.952V-2.5L40.014-12.6H38.682Zm20.07.216A7.635,7.635,0,0,0,63.81-1.71V-6.732h-5.2v1.278h3.834v3.132a5.933,5.933,0,0,1-3.636,1.26c-3.06,0-4.986-2.232-4.986-5.238v-.036A4.922,4.922,0,0,1,58.608-11.5a5.36,5.36,0,0,1,3.834,1.44l.918-1.08a6.639,6.639,0,0,0-4.7-1.674A6.323,6.323,0,0,0,52.344-6.3v.036A6.179,6.179,0,0,0,58.752.216Z" transform="translate(-14753.332 9589.844)"/>
    <path id="Path_1257" data-name="Path 1257" d="M-31.446,0h1.44V-11.286h4.23V-12.6h-9.9v1.314h4.23Zm13.374.2c3.15,0,5.256-1.908,5.256-5.58V-12.6h-1.422v7.326c0,2.754-1.476,4.158-3.8,4.158-2.394,0-3.852-1.53-3.852-4.248V-12.6H-23.31v7.326C-23.31-1.71-21.186.2-18.072.2ZM-9.45,0h1.386V-10.332L.072,0H1.206V-12.6H-.18V-2.5L-8.118-12.6H-9.45ZM4.9,0H6.318V-12.6H4.9Zm5.112,0h1.386V-10.332L19.53,0h1.134V-12.6H19.278V-2.5L11.34-12.6H10.008Zm20.07.216A7.635,7.635,0,0,0,35.136-1.71V-6.732h-5.2v1.278h3.834v3.132a5.933,5.933,0,0,1-3.636,1.26c-3.06,0-4.986-2.232-4.986-5.238v-.036A4.922,4.922,0,0,1,29.934-11.5a5.36,5.36,0,0,1,3.834,1.44l.918-1.08a6.639,6.639,0,0,0-4.7-1.674A6.323,6.323,0,0,0,23.67-6.3v.036A6.179,6.179,0,0,0,30.078.216Z" transform="translate(-15101.29 9590.844)"/>
    <path id="Path_1258" data-name="Path 1258" d="M-92.5-4.886A4.787,4.787,0,0,0-87.626.084,4.589,4.589,0,0,0-83.1-2.842H-84.63a3.079,3.079,0,0,1-3,1.82A3.539,3.539,0,0,1-91.2-4.886a3.544,3.544,0,0,1,3.57-3.878,3.07,3.07,0,0,1,3,1.834H-83.1a4.593,4.593,0,0,0-4.522-2.954A4.811,4.811,0,0,0-92.5-4.886ZM-74.97,0H-73.7V-9.758H-74.97v4.284h-4.97V-9.758h-1.274V0h1.274V-4.424h4.97Zm12.754-4.886a4.805,4.805,0,0,0-4.9-4.984,4.813,4.813,0,0,0-4.9,4.984A4.813,4.813,0,0,0-67.116.1,4.805,4.805,0,0,0-62.216-4.886Zm-8.5,0a3.557,3.557,0,0,1,3.6-3.878,3.557,3.557,0,0,1,3.6,3.878,3.564,3.564,0,0,1-3.6,3.878A3.564,3.564,0,0,1-70.714-4.886Zm19.5,0a4.805,4.805,0,0,0-4.9-4.984,4.813,4.813,0,0,0-4.9,4.984A4.813,4.813,0,0,0-56.112.1,4.805,4.805,0,0,0-51.212-4.886Zm-8.5,0a3.557,3.557,0,0,1,3.6-3.878,3.557,3.557,0,0,1,3.6,3.878,3.564,3.564,0,0,1-3.6,3.878A3.564,3.564,0,0,1-59.71-4.886ZM-43.19-2.66c0-3.612-5.264-2.044-5.264-4.564,0-1.05.826-1.6,1.876-1.568a1.767,1.767,0,0,1,1.89,1.414h1.4c-.154-1.484-1.372-2.506-3.234-2.506-1.932,0-3.234,1.092-3.234,2.7,0,3.626,5.278,1.946,5.278,4.578,0,.924-.728,1.624-1.96,1.624A1.807,1.807,0,0,1-48.454-2.6h-1.358C-49.784-.994-48.4.1-46.438.1-44.324.1-43.19-1.274-43.19-2.66Zm7.126-7.112h-5.25V0h5.25V-1.05H-40.04V-4.41h3.556V-5.46H-40.04V-8.722h3.976Zm8.05,6.09V0h1.274V-3.682l3.178-6.076h-1.414l-2.408,4.942-2.408-4.942h-1.414Zm15.12-1.2a4.805,4.805,0,0,0-4.9-4.984,4.813,4.813,0,0,0-4.9,4.984A4.813,4.813,0,0,0-17.794.1,4.805,4.805,0,0,0-12.894-4.886Zm-8.5,0a3.557,3.557,0,0,1,3.6-3.878,3.557,3.557,0,0,1,3.6,3.878,3.564,3.564,0,0,1-3.6,3.878A3.564,3.564,0,0,1-21.392-4.886ZM-11.242-3.6A3.408,3.408,0,0,0-7.574.1,3.418,3.418,0,0,0-3.892-3.6v-6.16H-5.166v6.174c0,1.792-.952,2.562-2.394,2.562A2.231,2.231,0,0,1-9.968-3.584V-9.758h-1.274Zm14.7-3.29c0,1.092-.63,1.876-2.072,1.876H-.49v-3.7H1.386C2.842-8.708,3.458-7.994,3.458-6.888Zm-5.222-2.87V0H-.49V-3.99H1.05L3.374,0H4.9L2.45-4.088a2.752,2.752,0,0,0,2.324-2.8c0-1.6-1.092-2.87-3.388-2.87ZM10.486,0H11.76V-9.758H10.486Zm9.842-9.772v7.756L15.2-9.772H13.93V0H15.2V-7.77L20.328,0H21.6V-9.772ZM30.114-2.66c0-3.612-5.264-2.044-5.264-4.564,0-1.05.826-1.6,1.876-1.568a1.767,1.767,0,0,1,1.89,1.414h1.4c-.154-1.484-1.372-2.506-3.234-2.506-1.932,0-3.234,1.092-3.234,2.7,0,3.626,5.278,1.946,5.278,4.578,0,.924-.728,1.624-1.96,1.624A1.807,1.807,0,0,1,24.85-2.6H23.492C23.52-.994,24.906.1,26.866.1,28.98.1,30.114-1.274,30.114-2.66Zm1.274-6.062h2.674V0h1.274V-8.722H38V-9.758H31.388Zm13.4,1.834c0,1.092-.63,1.876-2.072,1.876H40.838v-3.7h1.876C44.17-8.708,44.786-7.994,44.786-6.888Zm-5.222-2.87V0h1.274V-3.99h1.54L44.7,0h1.526l-2.45-4.088a2.752,2.752,0,0,0,2.324-2.8c0-1.6-1.092-2.87-3.388-2.87ZM48.048-3.6A3.408,3.408,0,0,0,51.716.1,3.418,3.418,0,0,0,55.4-3.6v-6.16H54.124v6.174c0,1.792-.952,2.562-2.394,2.562a2.231,2.231,0,0,1-2.408-2.562V-9.758H48.048ZM57.526,0H58.8V-7.238L62.034,0h.9l3.22-7.224V0h1.274V-9.688H66.066L62.482-1.68,58.9-9.688H57.526Zm17.3-9.772H69.58V0h5.25V-1.05H70.854V-4.41H74.41V-5.46H70.854V-8.722H74.83Zm8.33,0v7.756L78.036-9.772H76.762V0h1.274V-7.77L83.16,0h1.274V-9.772ZM86-8.722h2.674V0H89.95V-8.722h2.66V-9.758H86Z" transform="translate(-15106 9695.836)"/>
    <path id="Path_1259" data-name="Path 1259" d="M-63.308-8.722h2.674V0h1.274V-8.722h2.66V-9.758h-6.608ZM-55.16-3.6A3.408,3.408,0,0,0-51.492.1,3.418,3.418,0,0,0-47.81-3.6v-6.16h-1.274v6.174c0,1.792-.952,2.562-2.394,2.562a2.231,2.231,0,0,1-2.408-2.562V-9.758H-55.16Zm15.876-6.174v7.756l-5.124-7.756h-1.274V0h1.274V-7.77L-39.284,0h1.274V-9.772Zm9.842,0v7.756l-5.124-7.756H-35.84V0h1.274V-7.77L-29.442,0h1.274V-9.772ZM-26,0h1.274V-9.758H-26Zm9.842-9.772v7.756L-21.28-9.772h-1.274V0h1.274V-7.77L-16.156,0h1.274V-9.772Zm7.868-.1a4.813,4.813,0,0,0-4.9,4.984,4.8,4.8,0,0,0,4.9,4.97A4.733,4.733,0,0,0-3.5-4.284v-.98H-8.75v1.036h3.892a3.29,3.29,0,0,1-3.43,3.164,3.54,3.54,0,0,1-3.6-3.822,3.544,3.544,0,0,1,3.6-3.836A3.113,3.113,0,0,1-5.32-6.93h1.526A4.614,4.614,0,0,0-8.288-9.87ZM8.26-2.66C8.26-6.272,3-4.7,3-7.224c0-1.05.826-1.6,1.876-1.568a1.767,1.767,0,0,1,1.89,1.414h1.4C8.008-8.862,6.79-9.884,4.928-9.884c-1.932,0-3.234,1.092-3.234,2.7,0,3.626,5.278,1.946,5.278,4.578,0,.924-.728,1.624-1.96,1.624A1.807,1.807,0,0,1,3-2.6H1.638C1.666-.994,3.052.1,5.012.1,7.126.1,8.26-1.274,8.26-2.66Zm7.126-7.112h-5.25V0h5.25V-1.05H11.41V-4.41h3.556V-5.46H11.41V-8.722h3.976Zm1.33,1.05H19.39V0h1.274V-8.722h2.66V-9.758H16.716Zm7.574,0h2.674V0h1.274V-8.722H30.9V-9.758H24.29ZM32.466,0H33.74V-9.758H32.466Zm9.842-9.772v7.756L37.184-9.772H35.91V0h1.274V-7.77L42.308,0h1.274V-9.772Zm7.868-.1a4.813,4.813,0,0,0-4.9,4.984,4.8,4.8,0,0,0,4.9,4.97,4.733,4.733,0,0,0,4.788-4.368v-.98h-5.25v1.036h3.892a3.29,3.29,0,0,1-3.43,3.164,3.54,3.54,0,0,1-3.6-3.822,3.544,3.544,0,0,1,3.6-3.836A3.113,3.113,0,0,1,53.144-6.93H54.67A4.614,4.614,0,0,0,50.176-9.87Zm12.81,7.21c0-3.612-5.264-2.044-5.264-4.564,0-1.05.826-1.6,1.876-1.568a1.767,1.767,0,0,1,1.89,1.414h1.4c-.154-1.484-1.372-2.506-3.234-2.506-1.932,0-3.234,1.092-3.234,2.7C56.42-3.556,61.7-5.236,61.7-2.6c0,.924-.728,1.624-1.96,1.624A1.807,1.807,0,0,1,57.722-2.6H56.364C56.392-.994,57.778.1,59.738.1,61.852.1,62.986-1.274,62.986-2.66Z" transform="translate(-15105.049 9764.602)"/>
    <path id="Path_1026" data-name="Path 1026" d="M534.877-1238.332l.561-77.668,592.64.647" transform="translate(-15634.698 10802.933)" fill="none" stroke="#36a3a0" stroke-linecap="round" stroke-linejoin="round" stroke-miterlimit="10" stroke-width="2" stroke-dasharray="3"/>
    <path id="Path_1027" data-name="Path 1027" d="M2095.778-1230.3l-.338-67.379-308.088.562" transform="translate(-16112.353 10794.896)" fill="none" stroke="#72b789" stroke-linecap="round" stroke-linejoin="round" stroke-miterlimit="10" stroke-width="2" stroke-dasharray="3"/>
    <path id="Path_1260" data-name="Path 1260" d="M0,0,.305,70.467" transform="translate(-15100.408 9605.968)" fill="none" stroke="#969696" stroke-linecap="round" stroke-width="1" stroke-dasharray="3"/>
    <path id="Path_1261" data-name="Path 1261" d="M0,0V39.866" transform="translate(-15100.408 9707.598)" fill="none" stroke="#000" stroke-linecap="round" stroke-width="1" stroke-dasharray="3"/>
    <path id="Path_1262" data-name="Path 1262" d="M-36.582,0h1.274V-7.238L-32.074,0h.9l3.22-7.224V0h1.274V-9.688h-1.358L-31.626-1.68-35.21-9.688h-1.372Zm14.434-3.682V0h1.274V-3.682L-17.7-9.758H-19.11l-2.408,4.942-2.408-4.942H-25.34ZM-11.34-5.124V-8.708h1.876c1.456,0,2.072.672,2.072,1.806,0,1.092-.616,1.778-2.072,1.778ZM-6.09-6.9c0-1.6-1.078-2.856-3.374-2.856h-3.15V0h1.274V-4.074h1.876C-7.042-4.074-6.09-5.418-6.09-6.9Zm6.8.014c0,1.092-.63,1.876-2.072,1.876H-3.234v-3.7h1.876C.1-8.708.714-7.994.714-6.888Zm-5.222-2.87V0h1.274V-3.99h1.54L.63,0H2.156L-.294-4.088a2.752,2.752,0,0,0,2.324-2.8c0-1.6-1.092-2.87-3.388-2.87ZM13.328-4.886a4.805,4.805,0,0,0-4.9-4.984,4.813,4.813,0,0,0-4.9,4.984A4.813,4.813,0,0,0,8.428.1,4.805,4.805,0,0,0,13.328-4.886Zm-8.5,0a3.557,3.557,0,0,1,3.6-3.878,3.557,3.557,0,0,1,3.6,3.878,3.564,3.564,0,0,1-3.6,3.878A3.564,3.564,0,0,1,4.83-4.886ZM15.008,0h1.274V-4.4h3.444V-5.432H16.282v-3.29h4.242V-9.758H15.008Zm7.056,0h1.274V-9.758H22.064Zm3.444-9.758V0H30.2V-1.036H26.782V-9.758Zm11.3-.014h-5.25V0h5.25V-1.05H32.83V-4.41h3.556V-5.46H32.83V-8.722h3.976Z" transform="translate(-14137.338 9687.413)"/>
    <path id="Path_1263" data-name="Path 1263" d="M-47.25-9.772H-52.5V0h5.25V-1.05h-3.976V-4.41h3.556V-5.46h-3.556V-8.722h3.976Zm4.97.014h-3.038V0h3.038c3.206,0,5.18-1.834,5.18-4.858S-39.074-9.758-42.28-9.758ZM-44.044-1.05V-8.722h1.764A3.52,3.52,0,0,1-38.4-4.858c0,2.38-1.33,3.808-3.878,3.808ZM-35.42,0h1.274V-9.758H-35.42Zm2.842-8.722H-29.9V0h1.274V-8.722h2.66V-9.758h-6.608ZM-20.664,0h1.274V-7.238L-16.156,0h.9l3.22-7.224V0h1.274V-9.688h-1.358L-15.708-1.68l-3.584-8.008h-1.372ZM-6.23-3.682V0h1.274V-3.682l3.178-6.076H-3.192L-5.6-4.816-8.008-9.758H-9.422ZM4.578-5.124V-8.708H6.454c1.456,0,2.072.672,2.072,1.806,0,1.092-.616,1.778-2.072,1.778ZM9.828-6.9c0-1.6-1.078-2.856-3.374-2.856H3.3V0H4.578V-4.074H6.454C8.876-4.074,9.828-5.418,9.828-6.9Zm6.8.014c0,1.092-.63,1.876-2.072,1.876H12.684v-3.7H14.56C16.016-8.708,16.632-7.994,16.632-6.888ZM11.41-9.758V0h1.274V-3.99h1.54L16.548,0h1.526l-2.45-4.088a2.752,2.752,0,0,0,2.324-2.8c0-1.6-1.092-2.87-3.388-2.87ZM29.246-4.886a4.805,4.805,0,0,0-4.9-4.984,4.813,4.813,0,0,0-4.9,4.984A4.813,4.813,0,0,0,24.346.1,4.805,4.805,0,0,0,29.246-4.886Zm-8.5,0a3.557,3.557,0,0,1,3.6-3.878,3.557,3.557,0,0,1,3.6,3.878,3.564,3.564,0,0,1-3.6,3.878A3.564,3.564,0,0,1,20.748-4.886ZM30.926,0H32.2V-4.4h3.444V-5.432H32.2v-3.29h4.242V-9.758H30.926Zm7.056,0h1.274V-9.758H37.982Zm3.444-9.758V0h4.69V-1.036H42.7V-9.758Zm11.3-.014h-5.25V0h5.25V-1.05H48.748V-4.41H52.3V-5.46H48.748V-8.722h3.976Z" transform="translate(-14138.061 9763.592)"/>
    <path id="Path_1028" data-name="Path 1028" d="M2183.877-1051.816l.065-82.423h59.534" transform="translate(-16317.803 10723.229)" fill="none" stroke="#969696" stroke-miterlimit="10" stroke-width="1" stroke-dasharray="3"/>
    <path id="Path_1264" data-name="Path 1264" d="M0,0V39.866" transform="translate(-14134.719 9702.542)" fill="none" stroke="#969696" stroke-linecap="round" stroke-width="1" stroke-dasharray="3"/>
    <path id="Path_1265" data-name="Path 1265" d="M-64.806-2.66c0-3.612-5.264-2.044-5.264-4.564,0-1.05.826-1.6,1.876-1.568A1.767,1.767,0,0,1-66.3-7.378h1.4c-.154-1.484-1.372-2.506-3.234-2.506-1.932,0-3.234,1.092-3.234,2.7,0,3.626,5.278,1.946,5.278,4.578,0,.924-.728,1.624-1.96,1.624A1.807,1.807,0,0,1-70.07-2.6h-1.358C-71.4-.994-70.014.1-68.054.1-65.94.1-64.806-1.274-64.806-2.66Zm1.4-2.226A4.787,4.787,0,0,0-58.534.084a4.589,4.589,0,0,0,4.522-2.926h-1.526a3.079,3.079,0,0,1-3,1.82A3.539,3.539,0,0,1-62.1-4.886a3.544,3.544,0,0,1,3.57-3.878,3.07,3.07,0,0,1,3,1.834h1.526a4.593,4.593,0,0,0-4.522-2.954A4.811,4.811,0,0,0-63.406-4.886Zm20.608,0A4.805,4.805,0,0,0-47.7-9.87a4.813,4.813,0,0,0-4.9,4.984A4.813,4.813,0,0,0-47.7.1,4.805,4.805,0,0,0-42.8-4.886Zm-8.5,0a3.557,3.557,0,0,1,3.6-3.878,3.557,3.557,0,0,1,3.6,3.878,3.564,3.564,0,0,1-3.6,3.878A3.564,3.564,0,0,1-51.3-4.886Zm9.7,0A4.787,4.787,0,0,0-36.722.084,4.589,4.589,0,0,0-32.2-2.842h-1.526a3.079,3.079,0,0,1-3,1.82,3.539,3.539,0,0,1-3.57-3.864,3.544,3.544,0,0,1,3.57-3.878,3.07,3.07,0,0,1,3,1.834H-32.2a4.593,4.593,0,0,0-4.522-2.954A4.811,4.811,0,0,0-41.594-4.886ZM-30.31,0h1.274V-9.758H-30.31Zm10,0h1.344l-3.514-9.7h-1.47L-27.482,0h1.344l.784-2.17H-21.1Zm-1.148-3.206H-24.99l1.764-4.928Zm4.032-6.552V0h4.69V-1.036h-3.416V-9.758ZM-7.644,0H-6.37V-7.238L-3.136,0h.9L.98-7.224V0H2.254V-9.688H.9L-2.688-1.68-6.272-9.688H-7.644ZM9.66-9.772H4.41V0H9.66V-1.05H5.684V-4.41H9.24V-5.46H5.684V-8.722H9.66Zm4.97.014H11.592V0H14.63c3.206,0,5.18-1.834,5.18-4.858S17.836-9.758,14.63-9.758ZM12.866-1.05V-8.722H14.63a3.52,3.52,0,0,1,3.878,3.864c0,2.38-1.33,3.808-3.878,3.808ZM21.49,0h1.274V-9.758H21.49Zm10,0H32.83L29.316-9.7h-1.47L24.318,0h1.344l.784-2.17H30.7ZM30.338-3.206H26.81l1.764-4.928ZM40.082.014,41.5,0l2.352-7.854L46.116,0h1.428l2.828-9.758H49L46.858-1.512l-2.24-8.246H43.19L40.838-1.484,38.71-9.758H37.352ZM58.324,0h1.344L56.154-9.7h-1.47L51.156,0H52.5l.784-2.17H57.54ZM57.176-3.206H53.648l1.764-4.928Zm4.032-6.552V0H65.9V-1.036H62.482V-9.758Zm6.048,0V0h4.69V-1.036H68.53V-9.758Z" transform="translate(-14318.074 9687.413)"/>
    <path id="Path_1266" data-name="Path 1266" d="M-92.5-4.886A4.787,4.787,0,0,0-87.626.084,4.589,4.589,0,0,0-83.1-2.842H-84.63a3.079,3.079,0,0,1-3,1.82A3.539,3.539,0,0,1-91.2-4.886a3.544,3.544,0,0,1,3.57-3.878,3.07,3.07,0,0,1,3,1.834H-83.1a4.593,4.593,0,0,0-4.522-2.954A4.811,4.811,0,0,0-92.5-4.886ZM-74.97,0H-73.7V-9.758H-74.97v4.284h-4.97V-9.758h-1.274V0h1.274V-4.424h4.97Zm12.754-4.886a4.805,4.805,0,0,0-4.9-4.984,4.813,4.813,0,0,0-4.9,4.984A4.813,4.813,0,0,0-67.116.1,4.805,4.805,0,0,0-62.216-4.886Zm-8.5,0a3.557,3.557,0,0,1,3.6-3.878,3.557,3.557,0,0,1,3.6,3.878,3.564,3.564,0,0,1-3.6,3.878A3.564,3.564,0,0,1-70.714-4.886Zm19.5,0a4.805,4.805,0,0,0-4.9-4.984,4.813,4.813,0,0,0-4.9,4.984A4.813,4.813,0,0,0-56.112.1,4.805,4.805,0,0,0-51.212-4.886Zm-8.5,0a3.557,3.557,0,0,1,3.6-3.878,3.557,3.557,0,0,1,3.6,3.878,3.564,3.564,0,0,1-3.6,3.878A3.564,3.564,0,0,1-59.71-4.886ZM-43.19-2.66c0-3.612-5.264-2.044-5.264-4.564,0-1.05.826-1.6,1.876-1.568a1.767,1.767,0,0,1,1.89,1.414h1.4c-.154-1.484-1.372-2.506-3.234-2.506-1.932,0-3.234,1.092-3.234,2.7,0,3.626,5.278,1.946,5.278,4.578,0,.924-.728,1.624-1.96,1.624A1.807,1.807,0,0,1-48.454-2.6h-1.358C-49.784-.994-48.4.1-46.438.1-44.324.1-43.19-1.274-43.19-2.66Zm7.126-7.112h-5.25V0h5.25V-1.05H-40.04V-4.41h3.556V-5.46H-40.04V-8.722h3.976Zm8.05,6.09V0h1.274V-3.682l3.178-6.076h-1.414l-2.408,4.942-2.408-4.942h-1.414Zm15.12-1.2a4.805,4.805,0,0,0-4.9-4.984,4.813,4.813,0,0,0-4.9,4.984A4.813,4.813,0,0,0-17.794.1,4.805,4.805,0,0,0-12.894-4.886Zm-8.5,0a3.557,3.557,0,0,1,3.6-3.878,3.557,3.557,0,0,1,3.6,3.878,3.564,3.564,0,0,1-3.6,3.878A3.564,3.564,0,0,1-21.392-4.886ZM-11.242-3.6A3.408,3.408,0,0,0-7.574.1,3.418,3.418,0,0,0-3.892-3.6v-6.16H-5.166v6.174c0,1.792-.952,2.562-2.394,2.562A2.231,2.231,0,0,1-9.968-3.584V-9.758h-1.274Zm14.7-3.29c0,1.092-.63,1.876-2.072,1.876H-.49v-3.7H1.386C2.842-8.708,3.458-7.994,3.458-6.888Zm-5.222-2.87V0H-.49V-3.99H1.05L3.374,0H4.9L2.45-4.088a2.752,2.752,0,0,0,2.324-2.8c0-1.6-1.092-2.87-3.388-2.87ZM10.486,0H11.76V-9.758H10.486Zm9.842-9.772v7.756L15.2-9.772H13.93V0H15.2V-7.77L20.328,0H21.6V-9.772ZM30.114-2.66c0-3.612-5.264-2.044-5.264-4.564,0-1.05.826-1.6,1.876-1.568a1.767,1.767,0,0,1,1.89,1.414h1.4c-.154-1.484-1.372-2.506-3.234-2.506-1.932,0-3.234,1.092-3.234,2.7,0,3.626,5.278,1.946,5.278,4.578,0,.924-.728,1.624-1.96,1.624A1.807,1.807,0,0,1,24.85-2.6H23.492C23.52-.994,24.906.1,26.866.1,28.98.1,30.114-1.274,30.114-2.66Zm1.274-6.062h2.674V0h1.274V-8.722H38V-9.758H31.388Zm13.4,1.834c0,1.092-.63,1.876-2.072,1.876H40.838v-3.7h1.876C44.17-8.708,44.786-7.994,44.786-6.888Zm-5.222-2.87V0h1.274V-3.99h1.54L44.7,0h1.526l-2.45-4.088a2.752,2.752,0,0,0,2.324-2.8c0-1.6-1.092-2.87-3.388-2.87ZM48.048-3.6A3.408,3.408,0,0,0,51.716.1,3.418,3.418,0,0,0,55.4-3.6v-6.16H54.124v6.174c0,1.792-.952,2.562-2.394,2.562a2.231,2.231,0,0,1-2.408-2.562V-9.758H48.048ZM57.526,0H58.8V-7.238L62.034,0h.9l3.22-7.224V0h1.274V-9.688H66.066L62.482-1.68,58.9-9.688H57.526Zm17.3-9.772H69.58V0h5.25V-1.05H70.854V-4.41H74.41V-5.46H70.854V-8.722H74.83Zm8.33,0v7.756L78.036-9.772H76.762V0h1.274V-7.77L83.16,0h1.274V-9.772ZM86-8.722h2.674V0H89.95V-8.722h2.66V-9.758H86Z" transform="translate(-14318.604 9763.592)"/>
    <path id="Path_1267" data-name="Path 1267" d="M-63.308-8.722h2.674V0h1.274V-8.722h2.66V-9.758h-6.608ZM-55.16-3.6A3.408,3.408,0,0,0-51.492.1,3.418,3.418,0,0,0-47.81-3.6v-6.16h-1.274v6.174c0,1.792-.952,2.562-2.394,2.562a2.231,2.231,0,0,1-2.408-2.562V-9.758H-55.16Zm15.876-6.174v7.756l-5.124-7.756h-1.274V0h1.274V-7.77L-39.284,0h1.274V-9.772Zm9.842,0v7.756l-5.124-7.756H-35.84V0h1.274V-7.77L-29.442,0h1.274V-9.772ZM-26,0h1.274V-9.758H-26Zm9.842-9.772v7.756L-21.28-9.772h-1.274V0h1.274V-7.77L-16.156,0h1.274V-9.772Zm7.868-.1a4.813,4.813,0,0,0-4.9,4.984,4.8,4.8,0,0,0,4.9,4.97A4.733,4.733,0,0,0-3.5-4.284v-.98H-8.75v1.036h3.892a3.29,3.29,0,0,1-3.43,3.164,3.54,3.54,0,0,1-3.6-3.822,3.544,3.544,0,0,1,3.6-3.836A3.113,3.113,0,0,1-5.32-6.93h1.526A4.614,4.614,0,0,0-8.288-9.87ZM8.26-2.66C8.26-6.272,3-4.7,3-7.224c0-1.05.826-1.6,1.876-1.568a1.767,1.767,0,0,1,1.89,1.414h1.4C8.008-8.862,6.79-9.884,4.928-9.884c-1.932,0-3.234,1.092-3.234,2.7,0,3.626,5.278,1.946,5.278,4.578,0,.924-.728,1.624-1.96,1.624A1.807,1.807,0,0,1,3-2.6H1.638C1.666-.994,3.052.1,5.012.1,7.126.1,8.26-1.274,8.26-2.66Zm7.126-7.112h-5.25V0h5.25V-1.05H11.41V-4.41h3.556V-5.46H11.41V-8.722h3.976Zm1.33,1.05H19.39V0h1.274V-8.722h2.66V-9.758H16.716Zm7.574,0h2.674V0h1.274V-8.722H30.9V-9.758H24.29ZM32.466,0H33.74V-9.758H32.466Zm9.842-9.772v7.756L37.184-9.772H35.91V0h1.274V-7.77L42.308,0h1.274V-9.772Zm7.868-.1a4.813,4.813,0,0,0-4.9,4.984,4.8,4.8,0,0,0,4.9,4.97,4.733,4.733,0,0,0,4.788-4.368v-.98h-5.25v1.036h3.892a3.29,3.29,0,0,1-3.43,3.164,3.54,3.54,0,0,1-3.6-3.822,3.544,3.544,0,0,1,3.6-3.836A3.113,3.113,0,0,1,53.144-6.93H54.67A4.614,4.614,0,0,0,50.176-9.87Zm12.81,7.21c0-3.612-5.264-2.044-5.264-4.564,0-1.05.826-1.6,1.876-1.568a1.767,1.767,0,0,1,1.89,1.414h1.4c-.154-1.484-1.372-2.506-3.234-2.506-1.932,0-3.234,1.092-3.234,2.7C56.42-3.556,61.7-5.236,61.7-2.6c0,.924-.728,1.624-1.96,1.624A1.807,1.807,0,0,1,57.722-2.6H56.364C56.392-.994,57.778.1,59.738.1,61.852.1,62.986-1.274,62.986-2.66Z" transform="translate(-14317.652 9839.77)"/>
    <path id="Path_1268" data-name="Path 1268" d="M-24.346-4.886A4.787,4.787,0,0,0-19.474.084a4.589,4.589,0,0,0,4.522-2.926h-1.526a3.079,3.079,0,0,1-3,1.82,3.539,3.539,0,0,1-3.57-3.864,3.544,3.544,0,0,1,3.57-3.878,3.07,3.07,0,0,1,3,1.834h1.526a4.593,4.593,0,0,0-4.522-2.954A4.811,4.811,0,0,0-24.346-4.886ZM-6.818,0h1.274V-9.758H-6.818v4.284h-4.97V-9.758h-1.274V0h1.274V-4.424h4.97ZM5.936-4.886a4.805,4.805,0,0,0-4.9-4.984,4.813,4.813,0,0,0-4.9,4.984A4.813,4.813,0,0,0,1.036.1,4.805,4.805,0,0,0,5.936-4.886Zm-8.5,0a3.557,3.557,0,0,1,3.6-3.878,3.557,3.557,0,0,1,3.6,3.878,3.564,3.564,0,0,1-3.6,3.878A3.564,3.564,0,0,1-2.562-4.886Zm15.4-2c0,1.092-.63,1.876-2.072,1.876H8.89v-3.7h1.876C12.222-8.708,12.838-7.994,12.838-6.888ZM7.616-9.758V0H8.89V-3.99h1.54L12.754,0H14.28L11.83-4.088a2.752,2.752,0,0,0,2.324-2.8c0-1.6-1.092-2.87-3.388-2.87Zm11.55,0H16.128V0h3.038c3.206,0,5.18-1.834,5.18-4.858S22.372-9.758,19.166-9.758ZM17.4-1.05V-8.722h1.764a3.52,3.52,0,0,1,3.878,3.864c0,2.38-1.33,3.808-3.878,3.808Z" transform="translate(-14314.471 9915.948)"/>
    <path id="Path_1269" data-name="Path 1269" d="M0,0V39.866" transform="translate(-14313.011 9854.898)" fill="none" stroke="#969696" stroke-linecap="round" stroke-width="1" stroke-dasharray="3"/>
    <path id="Path_1270" data-name="Path 1270" d="M0,0V39.866" transform="translate(-14313.011 9778.721)" fill="none" stroke="#969696" stroke-linecap="round" stroke-width="1" stroke-dasharray="3"/>
    <path id="Path_1271" data-name="Path 1271" d="M0,0V39.866" transform="translate(-14313.011 9702.542)" fill="none" stroke="#969696" stroke-linecap="round" stroke-width="1" stroke-dasharray="3"/>
    <path id="Path_1029" data-name="Path 1029" d="M1863.877-1057.168l.263-89.277h240.054" transform="translate(-16177.479 10728.58)" fill="none" stroke="#969696" stroke-miterlimit="10" stroke-width="1" stroke-dasharray="3"/>
    <path id="Path_1272" data-name="Path 1272" d="M-81.172-2.66c0-3.612-5.264-2.044-5.264-4.564,0-1.05.826-1.6,1.876-1.568a1.767,1.767,0,0,1,1.89,1.414h1.4c-.154-1.484-1.372-2.506-3.234-2.506-1.932,0-3.234,1.092-3.234,2.7,0,3.626,5.278,1.946,5.278,4.578,0,.924-.728,1.624-1.96,1.624A1.807,1.807,0,0,1-86.436-2.6h-1.358C-87.766-.994-86.38.1-84.42.1-82.306.1-81.172-1.274-81.172-2.66Zm11.2-2.226a4.805,4.805,0,0,0-4.9-4.984,4.813,4.813,0,0,0-4.9,4.984A4.813,4.813,0,0,0-74.872.1,4.805,4.805,0,0,0-69.972-4.886Zm-8.5,0a3.557,3.557,0,0,1,3.6-3.878,3.557,3.557,0,0,1,3.6,3.878,3.564,3.564,0,0,1-3.6,3.878A3.564,3.564,0,0,1-78.47-4.886ZM-68.292,0h1.274V-7.238L-63.784,0h.9l3.22-7.224V0h1.274V-9.688h-1.358L-63.336-1.68-66.92-9.688h-1.372Zm17.3-9.772h-5.25V0h5.25V-1.05h-3.976V-4.41h3.556V-5.46h-3.556V-8.722h3.976Zm11.256,4.886a4.805,4.805,0,0,0-4.9-4.984,4.813,4.813,0,0,0-4.9,4.984A4.813,4.813,0,0,0-44.632.1,4.805,4.805,0,0,0-39.732-4.886Zm-8.5,0a3.557,3.557,0,0,1,3.6-3.878,3.557,3.557,0,0,1,3.6,3.878,3.564,3.564,0,0,1-3.6,3.878A3.564,3.564,0,0,1-48.23-4.886Zm16.576-4.886v7.756l-5.124-7.756h-1.274V0h1.274V-7.77L-31.654,0h1.274V-9.772Zm8.694,0h-5.25V0h5.25V-1.05h-3.976V-4.41h3.556V-5.46h-3.556V-8.722h3.976Zm8.274,7.112c0-3.612-5.264-2.044-5.264-4.564,0-1.05.826-1.6,1.876-1.568a1.767,1.767,0,0,1,1.89,1.414h1.4c-.154-1.484-1.372-2.506-3.234-2.506-1.932,0-3.234,1.092-3.234,2.7,0,3.626,5.278,1.946,5.278,4.578,0,.924-.728,1.624-1.96,1.624A1.807,1.807,0,0,1-19.95-2.6h-1.358C-21.28-.994-19.894.1-17.934.1-15.82.1-14.686-1.274-14.686-2.66Zm14.6-7.112h-5.25V0h5.25V-1.05H-4.06V-4.41H-.5V-5.46H-4.06V-8.722H-.084Zm1.932.014V0h4.69V-1.036H3.122V-9.758Zm12.39,7.1c0-3.612-5.264-2.044-5.264-4.564,0-1.05.826-1.6,1.876-1.568a1.767,1.767,0,0,1,1.89,1.414h1.4c-.154-1.484-1.372-2.506-3.234-2.506-1.932,0-3.234,1.092-3.234,2.7,0,3.626,5.278,1.946,5.278,4.578,0,.924-.728,1.624-1.96,1.624A1.807,1.807,0,0,1,8.974-2.6H7.616C7.644-.994,9.03.1,10.99.1,13.1.1,14.238-1.274,14.238-2.66Zm7.126-7.112h-5.25V0h5.25V-1.05H17.388V-4.41h3.556V-5.46H17.388V-8.722h3.976Zm2.2,3.192,1.344-3.178H23.492L22.666-6.58ZM32.7-2.66c0-3.612-5.264-2.044-5.264-4.564,0-1.05.826-1.6,1.876-1.568a1.767,1.767,0,0,1,1.89,1.414h1.4c-.154-1.484-1.372-2.506-3.234-2.506-1.932,0-3.234,1.092-3.234,2.7,0,3.626,5.278,1.946,5.278,4.578,0,.924-.728,1.624-1.96,1.624A1.807,1.807,0,0,1,27.44-2.6H26.082C26.11-.994,27.5.1,29.456.1,31.57.1,32.7-1.274,32.7-2.66Zm6.888-2.464V-8.708h1.876c1.456,0,2.072.672,2.072,1.806,0,1.092-.616,1.778-2.072,1.778ZM44.842-6.9c0-1.6-1.078-2.856-3.374-2.856h-3.15V0h1.274V-4.074h1.876C43.89-4.074,44.842-5.418,44.842-6.9Zm6.8.014c0,1.092-.63,1.876-2.072,1.876H47.7v-3.7h1.876C51.03-8.708,51.646-7.994,51.646-6.888Zm-5.222-2.87V0H47.7V-3.99h1.54L51.562,0h1.526l-2.45-4.088a2.752,2.752,0,0,0,2.324-2.8c0-1.6-1.092-2.87-3.388-2.87ZM64.26-4.886a4.805,4.805,0,0,0-4.9-4.984,4.813,4.813,0,0,0-4.9,4.984A4.813,4.813,0,0,0,59.36.1,4.805,4.805,0,0,0,64.26-4.886Zm-8.5,0a3.557,3.557,0,0,1,3.6-3.878,3.557,3.557,0,0,1,3.6,3.878,3.564,3.564,0,0,1-3.6,3.878A3.564,3.564,0,0,1,55.762-4.886ZM65.94,0h1.274V-4.4h3.444V-5.432H67.214v-3.29h4.242V-9.758H65.94ZM73,0H74.27V-9.758H73ZM76.44-9.758V0h4.69V-1.036H77.714V-9.758Zm11.3-.014h-5.25V0h5.25V-1.05H83.762V-4.41h3.556V-5.46H83.762V-8.722h3.976Z" transform="translate(-13881.985 9687.413)"/>
    <path id="Path_1273" data-name="Path 1273" d="M-92.5-4.886A4.787,4.787,0,0,0-87.626.084,4.589,4.589,0,0,0-83.1-2.842H-84.63a3.079,3.079,0,0,1-3,1.82A3.539,3.539,0,0,1-91.2-4.886a3.544,3.544,0,0,1,3.57-3.878,3.07,3.07,0,0,1,3,1.834H-83.1a4.593,4.593,0,0,0-4.522-2.954A4.811,4.811,0,0,0-92.5-4.886ZM-74.97,0H-73.7V-9.758H-74.97v4.284h-4.97V-9.758h-1.274V0h1.274V-4.424h4.97Zm12.754-4.886a4.805,4.805,0,0,0-4.9-4.984,4.813,4.813,0,0,0-4.9,4.984A4.813,4.813,0,0,0-67.116.1,4.805,4.805,0,0,0-62.216-4.886Zm-8.5,0a3.557,3.557,0,0,1,3.6-3.878,3.557,3.557,0,0,1,3.6,3.878,3.564,3.564,0,0,1-3.6,3.878A3.564,3.564,0,0,1-70.714-4.886Zm19.5,0a4.805,4.805,0,0,0-4.9-4.984,4.813,4.813,0,0,0-4.9,4.984A4.813,4.813,0,0,0-56.112.1,4.805,4.805,0,0,0-51.212-4.886Zm-8.5,0a3.557,3.557,0,0,1,3.6-3.878,3.557,3.557,0,0,1,3.6,3.878,3.564,3.564,0,0,1-3.6,3.878A3.564,3.564,0,0,1-59.71-4.886ZM-43.19-2.66c0-3.612-5.264-2.044-5.264-4.564,0-1.05.826-1.6,1.876-1.568a1.767,1.767,0,0,1,1.89,1.414h1.4c-.154-1.484-1.372-2.506-3.234-2.506-1.932,0-3.234,1.092-3.234,2.7,0,3.626,5.278,1.946,5.278,4.578,0,.924-.728,1.624-1.96,1.624A1.807,1.807,0,0,1-48.454-2.6h-1.358C-49.784-.994-48.4.1-46.438.1-44.324.1-43.19-1.274-43.19-2.66Zm7.126-7.112h-5.25V0h5.25V-1.05H-40.04V-4.41h3.556V-5.46H-40.04V-8.722h3.976Zm8.05,6.09V0h1.274V-3.682l3.178-6.076h-1.414l-2.408,4.942-2.408-4.942h-1.414Zm15.12-1.2a4.805,4.805,0,0,0-4.9-4.984,4.813,4.813,0,0,0-4.9,4.984A4.813,4.813,0,0,0-17.794.1,4.805,4.805,0,0,0-12.894-4.886Zm-8.5,0a3.557,3.557,0,0,1,3.6-3.878,3.557,3.557,0,0,1,3.6,3.878,3.564,3.564,0,0,1-3.6,3.878A3.564,3.564,0,0,1-21.392-4.886ZM-11.242-3.6A3.408,3.408,0,0,0-7.574.1,3.418,3.418,0,0,0-3.892-3.6v-6.16H-5.166v6.174c0,1.792-.952,2.562-2.394,2.562A2.231,2.231,0,0,1-9.968-3.584V-9.758h-1.274Zm14.7-3.29c0,1.092-.63,1.876-2.072,1.876H-.49v-3.7H1.386C2.842-8.708,3.458-7.994,3.458-6.888Zm-5.222-2.87V0H-.49V-3.99H1.05L3.374,0H4.9L2.45-4.088a2.752,2.752,0,0,0,2.324-2.8c0-1.6-1.092-2.87-3.388-2.87ZM10.486,0H11.76V-9.758H10.486Zm9.842-9.772v7.756L15.2-9.772H13.93V0H15.2V-7.77L20.328,0H21.6V-9.772ZM30.114-2.66c0-3.612-5.264-2.044-5.264-4.564,0-1.05.826-1.6,1.876-1.568a1.767,1.767,0,0,1,1.89,1.414h1.4c-.154-1.484-1.372-2.506-3.234-2.506-1.932,0-3.234,1.092-3.234,2.7,0,3.626,5.278,1.946,5.278,4.578,0,.924-.728,1.624-1.96,1.624A1.807,1.807,0,0,1,24.85-2.6H23.492C23.52-.994,24.906.1,26.866.1,28.98.1,30.114-1.274,30.114-2.66Zm1.274-6.062h2.674V0h1.274V-8.722H38V-9.758H31.388Zm13.4,1.834c0,1.092-.63,1.876-2.072,1.876H40.838v-3.7h1.876C44.17-8.708,44.786-7.994,44.786-6.888Zm-5.222-2.87V0h1.274V-3.99h1.54L44.7,0h1.526l-2.45-4.088a2.752,2.752,0,0,0,2.324-2.8c0-1.6-1.092-2.87-3.388-2.87ZM48.048-3.6A3.408,3.408,0,0,0,51.716.1,3.418,3.418,0,0,0,55.4-3.6v-6.16H54.124v6.174c0,1.792-.952,2.562-2.394,2.562a2.231,2.231,0,0,1-2.408-2.562V-9.758H48.048ZM57.526,0H58.8V-7.238L62.034,0h.9l3.22-7.224V0h1.274V-9.688H66.066L62.482-1.68,58.9-9.688H57.526Zm17.3-9.772H69.58V0h5.25V-1.05H70.854V-4.41H74.41V-5.46H70.854V-8.722H74.83Zm8.33,0v7.756L78.036-9.772H76.762V0h1.274V-7.77L83.16,0h1.274V-9.772ZM86-8.722h2.674V0H89.95V-8.722h2.66V-9.758H86Z" transform="translate(-13881.985 9763.592)"/>
    <path id="Path_1274" data-name="Path 1274" d="M-63.308-8.722h2.674V0h1.274V-8.722h2.66V-9.758h-6.608ZM-55.16-3.6A3.408,3.408,0,0,0-51.492.1,3.418,3.418,0,0,0-47.81-3.6v-6.16h-1.274v6.174c0,1.792-.952,2.562-2.394,2.562a2.231,2.231,0,0,1-2.408-2.562V-9.758H-55.16Zm15.876-6.174v7.756l-5.124-7.756h-1.274V0h1.274V-7.77L-39.284,0h1.274V-9.772Zm9.842,0v7.756l-5.124-7.756H-35.84V0h1.274V-7.77L-29.442,0h1.274V-9.772ZM-26,0h1.274V-9.758H-26Zm9.842-9.772v7.756L-21.28-9.772h-1.274V0h1.274V-7.77L-16.156,0h1.274V-9.772Zm7.868-.1a4.813,4.813,0,0,0-4.9,4.984,4.8,4.8,0,0,0,4.9,4.97A4.733,4.733,0,0,0-3.5-4.284v-.98H-8.75v1.036h3.892a3.29,3.29,0,0,1-3.43,3.164,3.54,3.54,0,0,1-3.6-3.822,3.544,3.544,0,0,1,3.6-3.836A3.113,3.113,0,0,1-5.32-6.93h1.526A4.614,4.614,0,0,0-8.288-9.87ZM8.26-2.66C8.26-6.272,3-4.7,3-7.224c0-1.05.826-1.6,1.876-1.568a1.767,1.767,0,0,1,1.89,1.414h1.4C8.008-8.862,6.79-9.884,4.928-9.884c-1.932,0-3.234,1.092-3.234,2.7,0,3.626,5.278,1.946,5.278,4.578,0,.924-.728,1.624-1.96,1.624A1.807,1.807,0,0,1,3-2.6H1.638C1.666-.994,3.052.1,5.012.1,7.126.1,8.26-1.274,8.26-2.66Zm7.126-7.112h-5.25V0h5.25V-1.05H11.41V-4.41h3.556V-5.46H11.41V-8.722h3.976Zm1.33,1.05H19.39V0h1.274V-8.722h2.66V-9.758H16.716Zm7.574,0h2.674V0h1.274V-8.722H30.9V-9.758H24.29ZM32.466,0H33.74V-9.758H32.466Zm9.842-9.772v7.756L37.184-9.772H35.91V0h1.274V-7.77L42.308,0h1.274V-9.772Zm7.868-.1a4.813,4.813,0,0,0-4.9,4.984,4.8,4.8,0,0,0,4.9,4.97,4.733,4.733,0,0,0,4.788-4.368v-.98h-5.25v1.036h3.892a3.29,3.29,0,0,1-3.43,3.164,3.54,3.54,0,0,1-3.6-3.822,3.544,3.544,0,0,1,3.6-3.836A3.113,3.113,0,0,1,53.144-6.93H54.67A4.614,4.614,0,0,0,50.176-9.87Zm12.81,7.21c0-3.612-5.264-2.044-5.264-4.564,0-1.05.826-1.6,1.876-1.568a1.767,1.767,0,0,1,1.89,1.414h1.4c-.154-1.484-1.372-2.506-3.234-2.506-1.932,0-3.234,1.092-3.234,2.7C56.42-3.556,61.7-5.236,61.7-2.6c0,.924-.728,1.624-1.96,1.624A1.807,1.807,0,0,1,57.722-2.6H56.364C56.392-.994,57.778.1,59.738.1,61.852.1,62.986-1.274,62.986-2.66Z" transform="translate(-13881.034 9839.77)"/>
    <path id="Path_1275" data-name="Path 1275" d="M-24.346-4.886A4.787,4.787,0,0,0-19.474.084a4.589,4.589,0,0,0,4.522-2.926h-1.526a3.079,3.079,0,0,1-3,1.82,3.539,3.539,0,0,1-3.57-3.864,3.544,3.544,0,0,1,3.57-3.878,3.07,3.07,0,0,1,3,1.834h1.526a4.593,4.593,0,0,0-4.522-2.954A4.811,4.811,0,0,0-24.346-4.886ZM-6.818,0h1.274V-9.758H-6.818v4.284h-4.97V-9.758h-1.274V0h1.274V-4.424h4.97ZM5.936-4.886a4.805,4.805,0,0,0-4.9-4.984,4.813,4.813,0,0,0-4.9,4.984A4.813,4.813,0,0,0,1.036.1,4.805,4.805,0,0,0,5.936-4.886Zm-8.5,0a3.557,3.557,0,0,1,3.6-3.878,3.557,3.557,0,0,1,3.6,3.878,3.564,3.564,0,0,1-3.6,3.878A3.564,3.564,0,0,1-2.562-4.886Zm15.4-2c0,1.092-.63,1.876-2.072,1.876H8.89v-3.7h1.876C12.222-8.708,12.838-7.994,12.838-6.888ZM7.616-9.758V0H8.89V-3.99h1.54L12.754,0H14.28L11.83-4.088a2.752,2.752,0,0,0,2.324-2.8c0-1.6-1.092-2.87-3.388-2.87Zm11.55,0H16.128V0h3.038c3.206,0,5.18-1.834,5.18-4.858S22.372-9.758,19.166-9.758ZM17.4-1.05V-8.722h1.764a3.52,3.52,0,0,1,3.878,3.864c0,2.38-1.33,3.808-3.878,3.808Z" transform="translate(-13877.853 9915.948)"/>
    <path id="Path_1276" data-name="Path 1276" d="M0,0V39.866" transform="translate(-13876.393 9854.899)" fill="none" stroke="#969696" stroke-linecap="round" stroke-width="1" stroke-dasharray="3"/>
    <path id="Path_1277" data-name="Path 1277" d="M0,0V39.866" transform="translate(-13876.393 9778.721)" fill="none" stroke="#969696" stroke-linecap="round" stroke-width="1" stroke-dasharray="3"/>
    <path id="Path_1278" data-name="Path 1278" d="M0,0V39.866" transform="translate(-13876.393 9702.542)" fill="none" stroke="#969696" stroke-linecap="round" stroke-width="1" stroke-dasharray="3"/>
    <path id="Path_1030" data-name="Path 1030" d="M2595.331-1051.816l-.065-82.423h-59.534" transform="translate(-16472.096 10723.229)" fill="none" stroke="#969696" stroke-miterlimit="10" stroke-width="1" stroke-dasharray="3"/>
    <path id="Path_1279" data-name="Path 1279" d="M-47.25-9.772H-52.5V0h5.25V-1.05h-3.976V-4.41h3.556V-5.46h-3.556V-8.722h3.976Zm4.97.014h-3.038V0h3.038c3.206,0,5.18-1.834,5.18-4.858S-39.074-9.758-42.28-9.758ZM-44.044-1.05V-8.722h1.764A3.52,3.52,0,0,1-38.4-4.858c0,2.38-1.33,3.808-3.878,3.808ZM-35.42,0h1.274V-9.758H-35.42Zm2.842-8.722H-29.9V0h1.274V-8.722h2.66V-9.758h-6.608ZM-20.664,0h1.274V-7.238L-16.156,0h.9l3.22-7.224V0h1.274V-9.688h-1.358L-15.708-1.68l-3.584-8.008h-1.372ZM-6.23-3.682V0h1.274V-3.682l3.178-6.076H-3.192L-5.6-4.816-8.008-9.758H-9.422ZM4.578-5.124V-8.708H6.454c1.456,0,2.072.672,2.072,1.806,0,1.092-.616,1.778-2.072,1.778ZM9.828-6.9c0-1.6-1.078-2.856-3.374-2.856H3.3V0H4.578V-4.074H6.454C8.876-4.074,9.828-5.418,9.828-6.9Zm6.8.014c0,1.092-.63,1.876-2.072,1.876H12.684v-3.7H14.56C16.016-8.708,16.632-7.994,16.632-6.888ZM11.41-9.758V0h1.274V-3.99h1.54L16.548,0h1.526l-2.45-4.088a2.752,2.752,0,0,0,2.324-2.8c0-1.6-1.092-2.87-3.388-2.87ZM29.246-4.886a4.805,4.805,0,0,0-4.9-4.984,4.813,4.813,0,0,0-4.9,4.984A4.813,4.813,0,0,0,24.346.1,4.805,4.805,0,0,0,29.246-4.886Zm-8.5,0a3.557,3.557,0,0,1,3.6-3.878,3.557,3.557,0,0,1,3.6,3.878,3.564,3.564,0,0,1-3.6,3.878A3.564,3.564,0,0,1,20.748-4.886ZM30.926,0H32.2V-4.4h3.444V-5.432H32.2v-3.29h4.242V-9.758H30.926Zm7.056,0h1.274V-9.758H37.982Zm3.444-9.758V0h4.69V-1.036H42.7V-9.758Zm11.3-.014h-5.25V0h5.25V-1.05H48.748V-4.41H52.3V-5.46H48.748V-8.722h3.976Z" transform="translate(-13699.201 9763.592)"/>
    <path id="Path_1280" data-name="Path 1280" d="M-24.052-2.66c0-3.612-5.264-2.044-5.264-4.564,0-1.05.826-1.6,1.876-1.568a1.767,1.767,0,0,1,1.89,1.414h1.4c-.154-1.484-1.372-2.506-3.234-2.506-1.932,0-3.234,1.092-3.234,2.7,0,3.626,5.278,1.946,5.278,4.578,0,.924-.728,1.624-1.96,1.624A1.807,1.807,0,0,1-29.316-2.6h-1.358C-30.646-.994-29.26.1-27.3.1-25.186.1-24.052-1.274-24.052-2.66Zm7.126-7.112h-5.25V0h5.25V-1.05H-20.9V-4.41h3.556V-5.46H-20.9V-8.722h3.976Zm1.33,1.05h2.674V0h1.274V-8.722h2.66V-9.758H-15.6Zm7.574,0h2.674V0h1.274V-8.722h2.66V-9.758H-8.022ZM.154,0H1.428V-9.758H.154ZM10-9.772v7.756L4.872-9.772H3.6V0H4.872V-7.77L10,0H11.27V-9.772Zm7.868-.1a4.813,4.813,0,0,0-4.9,4.984,4.8,4.8,0,0,0,4.9,4.97,4.733,4.733,0,0,0,4.788-4.368v-.98H17.4v1.036h3.892a3.29,3.29,0,0,1-3.43,3.164,3.54,3.54,0,0,1-3.6-3.822,3.544,3.544,0,0,1,3.6-3.836A3.113,3.113,0,0,1,20.832-6.93h1.526A4.614,4.614,0,0,0,17.864-9.87Zm12.81,7.21c0-3.612-5.264-2.044-5.264-4.564,0-1.05.826-1.6,1.876-1.568a1.767,1.767,0,0,1,1.89,1.414h1.4c-.154-1.484-1.372-2.506-3.234-2.506-1.932,0-3.234,1.092-3.234,2.7,0,3.626,5.278,1.946,5.278,4.578,0,.924-.728,1.624-1.96,1.624A1.807,1.807,0,0,1,25.41-2.6H24.052C24.08-.994,25.466.1,27.426.1,29.54.1,30.674-1.274,30.674-2.66Z" transform="translate(-13698.181 9687.413)"/>
    <path id="Path_1281" data-name="Path 1281" d="M0,0V39.866" transform="translate(-13695.86 9702.542)" fill="none" stroke="#969696" stroke-linecap="round" stroke-width="1" stroke-dasharray="3"/>
    <path id="Path_1031" data-name="Path 1031" d="M2775.51-1057.168l-.261-89.277H2536.877" transform="translate(-16472.598 10728.58)" fill="none" stroke="#969696" stroke-miterlimit="10" stroke-width="1" stroke-dasharray="3"/>
    <path id="Path_1282" data-name="Path 1282" d="M-92.5-4.886A4.787,4.787,0,0,0-87.626.084,4.589,4.589,0,0,0-83.1-2.842H-84.63a3.079,3.079,0,0,1-3,1.82A3.539,3.539,0,0,1-91.2-4.886a3.544,3.544,0,0,1,3.57-3.878,3.07,3.07,0,0,1,3,1.834H-83.1a4.593,4.593,0,0,0-4.522-2.954A4.811,4.811,0,0,0-92.5-4.886ZM-74.97,0H-73.7V-9.758H-74.97v4.284h-4.97V-9.758h-1.274V0h1.274V-4.424h4.97Zm12.754-4.886a4.805,4.805,0,0,0-4.9-4.984,4.813,4.813,0,0,0-4.9,4.984A4.813,4.813,0,0,0-67.116.1,4.805,4.805,0,0,0-62.216-4.886Zm-8.5,0a3.557,3.557,0,0,1,3.6-3.878,3.557,3.557,0,0,1,3.6,3.878,3.564,3.564,0,0,1-3.6,3.878A3.564,3.564,0,0,1-70.714-4.886Zm19.5,0a4.805,4.805,0,0,0-4.9-4.984,4.813,4.813,0,0,0-4.9,4.984A4.813,4.813,0,0,0-56.112.1,4.805,4.805,0,0,0-51.212-4.886Zm-8.5,0a3.557,3.557,0,0,1,3.6-3.878,3.557,3.557,0,0,1,3.6,3.878,3.564,3.564,0,0,1-3.6,3.878A3.564,3.564,0,0,1-59.71-4.886ZM-43.19-2.66c0-3.612-5.264-2.044-5.264-4.564,0-1.05.826-1.6,1.876-1.568a1.767,1.767,0,0,1,1.89,1.414h1.4c-.154-1.484-1.372-2.506-3.234-2.506-1.932,0-3.234,1.092-3.234,2.7,0,3.626,5.278,1.946,5.278,4.578,0,.924-.728,1.624-1.96,1.624A1.807,1.807,0,0,1-48.454-2.6h-1.358C-49.784-.994-48.4.1-46.438.1-44.324.1-43.19-1.274-43.19-2.66Zm7.126-7.112h-5.25V0h5.25V-1.05H-40.04V-4.41h3.556V-5.46H-40.04V-8.722h3.976Zm8.05,6.09V0h1.274V-3.682l3.178-6.076h-1.414l-2.408,4.942-2.408-4.942h-1.414Zm15.12-1.2a4.805,4.805,0,0,0-4.9-4.984,4.813,4.813,0,0,0-4.9,4.984A4.813,4.813,0,0,0-17.794.1,4.805,4.805,0,0,0-12.894-4.886Zm-8.5,0a3.557,3.557,0,0,1,3.6-3.878,3.557,3.557,0,0,1,3.6,3.878,3.564,3.564,0,0,1-3.6,3.878A3.564,3.564,0,0,1-21.392-4.886ZM-11.242-3.6A3.408,3.408,0,0,0-7.574.1,3.418,3.418,0,0,0-3.892-3.6v-6.16H-5.166v6.174c0,1.792-.952,2.562-2.394,2.562A2.231,2.231,0,0,1-9.968-3.584V-9.758h-1.274Zm14.7-3.29c0,1.092-.63,1.876-2.072,1.876H-.49v-3.7H1.386C2.842-8.708,3.458-7.994,3.458-6.888Zm-5.222-2.87V0H-.49V-3.99H1.05L3.374,0H4.9L2.45-4.088a2.752,2.752,0,0,0,2.324-2.8c0-1.6-1.092-2.87-3.388-2.87ZM10.486,0H11.76V-9.758H10.486Zm9.842-9.772v7.756L15.2-9.772H13.93V0H15.2V-7.77L20.328,0H21.6V-9.772ZM30.114-2.66c0-3.612-5.264-2.044-5.264-4.564,0-1.05.826-1.6,1.876-1.568a1.767,1.767,0,0,1,1.89,1.414h1.4c-.154-1.484-1.372-2.506-3.234-2.506-1.932,0-3.234,1.092-3.234,2.7,0,3.626,5.278,1.946,5.278,4.578,0,.924-.728,1.624-1.96,1.624A1.807,1.807,0,0,1,24.85-2.6H23.492C23.52-.994,24.906.1,26.866.1,28.98.1,30.114-1.274,30.114-2.66Zm1.274-6.062h2.674V0h1.274V-8.722H38V-9.758H31.388Zm13.4,1.834c0,1.092-.63,1.876-2.072,1.876H40.838v-3.7h1.876C44.17-8.708,44.786-7.994,44.786-6.888Zm-5.222-2.87V0h1.274V-3.99h1.54L44.7,0h1.526l-2.45-4.088a2.752,2.752,0,0,0,2.324-2.8c0-1.6-1.092-2.87-3.388-2.87ZM48.048-3.6A3.408,3.408,0,0,0,51.716.1,3.418,3.418,0,0,0,55.4-3.6v-6.16H54.124v6.174c0,1.792-.952,2.562-2.394,2.562a2.231,2.231,0,0,1-2.408-2.562V-9.758H48.048ZM57.526,0H58.8V-7.238L62.034,0h.9l3.22-7.224V0h1.274V-9.688H66.066L62.482-1.68,58.9-9.688H57.526Zm17.3-9.772H69.58V0h5.25V-1.05H70.854V-4.41H74.41V-5.46H70.854V-8.722H74.83Zm8.33,0v7.756L78.036-9.772H76.762V0h1.274V-7.77L83.16,0h1.274V-9.772ZM86-8.722h2.674V0H89.95V-8.722h2.66V-9.758H86Z" transform="translate(-14880.595 9924.371)"/>
    <path id="Path_1283" data-name="Path 1283" d="M-63.308-8.722h2.674V0h1.274V-8.722h2.66V-9.758h-6.608ZM-55.16-3.6A3.408,3.408,0,0,0-51.492.1,3.418,3.418,0,0,0-47.81-3.6v-6.16h-1.274v6.174c0,1.792-.952,2.562-2.394,2.562a2.231,2.231,0,0,1-2.408-2.562V-9.758H-55.16Zm15.876-6.174v7.756l-5.124-7.756h-1.274V0h1.274V-7.77L-39.284,0h1.274V-9.772Zm9.842,0v7.756l-5.124-7.756H-35.84V0h1.274V-7.77L-29.442,0h1.274V-9.772ZM-26,0h1.274V-9.758H-26Zm9.842-9.772v7.756L-21.28-9.772h-1.274V0h1.274V-7.77L-16.156,0h1.274V-9.772Zm7.868-.1a4.813,4.813,0,0,0-4.9,4.984,4.8,4.8,0,0,0,4.9,4.97A4.733,4.733,0,0,0-3.5-4.284v-.98H-8.75v1.036h3.892a3.29,3.29,0,0,1-3.43,3.164,3.54,3.54,0,0,1-3.6-3.822,3.544,3.544,0,0,1,3.6-3.836A3.113,3.113,0,0,1-5.32-6.93h1.526A4.614,4.614,0,0,0-8.288-9.87ZM8.26-2.66C8.26-6.272,3-4.7,3-7.224c0-1.05.826-1.6,1.876-1.568a1.767,1.767,0,0,1,1.89,1.414h1.4C8.008-8.862,6.79-9.884,4.928-9.884c-1.932,0-3.234,1.092-3.234,2.7,0,3.626,5.278,1.946,5.278,4.578,0,.924-.728,1.624-1.96,1.624A1.807,1.807,0,0,1,3-2.6H1.638C1.666-.994,3.052.1,5.012.1,7.126.1,8.26-1.274,8.26-2.66Zm7.126-7.112h-5.25V0h5.25V-1.05H11.41V-4.41h3.556V-5.46H11.41V-8.722h3.976Zm1.33,1.05H19.39V0h1.274V-8.722h2.66V-9.758H16.716Zm7.574,0h2.674V0h1.274V-8.722H30.9V-9.758H24.29ZM32.466,0H33.74V-9.758H32.466Zm9.842-9.772v7.756L37.184-9.772H35.91V0h1.274V-7.77L42.308,0h1.274V-9.772Zm7.868-.1a4.813,4.813,0,0,0-4.9,4.984,4.8,4.8,0,0,0,4.9,4.97,4.733,4.733,0,0,0,4.788-4.368v-.98h-5.25v1.036h3.892a3.29,3.29,0,0,1-3.43,3.164,3.54,3.54,0,0,1-3.6-3.822,3.544,3.544,0,0,1,3.6-3.836A3.113,3.113,0,0,1,53.144-6.93H54.67A4.614,4.614,0,0,0,50.176-9.87Zm12.81,7.21c0-3.612-5.264-2.044-5.264-4.564,0-1.05.826-1.6,1.876-1.568a1.767,1.767,0,0,1,1.89,1.414h1.4c-.154-1.484-1.372-2.506-3.234-2.506-1.932,0-3.234,1.092-3.234,2.7C56.42-3.556,61.7-5.236,61.7-2.6c0,.924-.728,1.624-1.96,1.624A1.807,1.807,0,0,1,57.722-2.6H56.364C56.392-.994,57.778.1,59.738.1,61.852.1,62.986-1.274,62.986-2.66Z" transform="translate(-14879.644 10000.549)"/>
    <path id="Path_1284" data-name="Path 1284" d="M-43.505-6.888c0,1.092-.63,1.876-2.072,1.876h-1.876v-3.7h1.876C-44.121-8.708-43.505-7.994-43.505-6.888Zm-5.222-2.87V0h1.274V-3.99h1.54L-43.589,0h1.526l-2.45-4.088a2.752,2.752,0,0,0,2.324-2.8c0-1.6-1.092-2.87-3.388-2.87Zm13.762-.014h-5.25V0h5.25V-1.05h-3.976V-4.41h3.556V-5.46h-3.556V-8.722h3.976Zm1.456,4.886A4.787,4.787,0,0,0-28.637.084a4.589,4.589,0,0,0,4.522-2.926h-1.526a3.079,3.079,0,0,1-3,1.82,3.539,3.539,0,0,1-3.57-3.864,3.544,3.544,0,0,1,3.57-3.878,3.07,3.07,0,0,1,3,1.834h1.526a4.593,4.593,0,0,0-4.522-2.954A4.811,4.811,0,0,0-33.509-4.886Zm20.608,0A4.805,4.805,0,0,0-17.8-9.87a4.813,4.813,0,0,0-4.9,4.984A4.813,4.813,0,0,0-17.8.1,4.805,4.805,0,0,0-12.9-4.886Zm-8.5,0a3.557,3.557,0,0,1,3.6-3.878,3.557,3.557,0,0,1,3.6,3.878,3.564,3.564,0,0,1-3.6,3.878A3.564,3.564,0,0,1-21.4-4.886Zm15.4-2c0,1.092-.63,1.876-2.072,1.876H-9.947v-3.7h1.876C-6.615-8.708-6-7.994-6-6.888Zm-5.222-2.87V0h1.274V-3.99h1.54L-6.083,0h1.526l-2.45-4.088a2.752,2.752,0,0,0,2.324-2.8c0-1.6-1.092-2.87-3.388-2.87Zm11.55,0H-2.709V0H.329c3.206,0,5.18-1.834,5.18-4.858S3.535-9.758.329-9.758ZM-1.435-1.05V-8.722H.329A3.52,3.52,0,0,1,4.207-4.858c0,2.38-1.33,3.808-3.878,3.808Zm18.7-1.61C17.269-6.272,12-4.7,12-7.224c0-1.05.826-1.6,1.876-1.568a1.767,1.767,0,0,1,1.89,1.414h1.4c-.154-1.484-1.372-2.506-3.234-2.506C12-9.884,10.7-8.792,10.7-7.182c0,3.626,5.278,1.946,5.278,4.578,0,.924-.728,1.624-1.96,1.624A1.807,1.807,0,0,1,12-2.6H10.647C10.675-.994,12.061.1,14.021.1,16.135.1,17.269-1.274,17.269-2.66Zm11.2-2.226a4.805,4.805,0,0,0-4.9-4.984,4.813,4.813,0,0,0-4.9,4.984A4.813,4.813,0,0,0,23.569.1,4.805,4.805,0,0,0,28.469-4.886Zm-8.5,0a3.557,3.557,0,0,1,3.6-3.878,3.557,3.557,0,0,1,3.6,3.878,3.564,3.564,0,0,1-3.6,3.878A3.564,3.564,0,0,1,19.971-4.886ZM36.547-9.772v7.756L31.423-9.772H30.149V0h1.274V-7.77L36.547,0h1.274V-9.772Zm7.868-.1a4.813,4.813,0,0,0-4.9,4.984,4.8,4.8,0,0,0,4.9,4.97A4.733,4.733,0,0,0,49.2-4.284v-.98h-5.25v1.036h3.892a3.29,3.29,0,0,1-3.43,3.164,3.54,3.54,0,0,1-3.6-3.822,3.544,3.544,0,0,1,3.6-3.836A3.113,3.113,0,0,1,47.383-6.93h1.526A4.614,4.614,0,0,0,44.415-9.87Z" transform="translate(-14878.045 9695.836)"/>
    <path id="Path_1285" data-name="Path 1285" d="M-24.346-4.886A4.787,4.787,0,0,0-19.474.084a4.589,4.589,0,0,0,4.522-2.926h-1.526a3.079,3.079,0,0,1-3,1.82,3.539,3.539,0,0,1-3.57-3.864,3.544,3.544,0,0,1,3.57-3.878,3.07,3.07,0,0,1,3,1.834h1.526a4.593,4.593,0,0,0-4.522-2.954A4.811,4.811,0,0,0-24.346-4.886ZM-6.818,0h1.274V-9.758H-6.818v4.284h-4.97V-9.758h-1.274V0h1.274V-4.424h4.97ZM5.936-4.886a4.805,4.805,0,0,0-4.9-4.984,4.813,4.813,0,0,0-4.9,4.984A4.813,4.813,0,0,0,1.036.1,4.805,4.805,0,0,0,5.936-4.886Zm-8.5,0a3.557,3.557,0,0,1,3.6-3.878,3.557,3.557,0,0,1,3.6,3.878,3.564,3.564,0,0,1-3.6,3.878A3.564,3.564,0,0,1-2.562-4.886Zm15.4-2c0,1.092-.63,1.876-2.072,1.876H8.89v-3.7h1.876C12.222-8.708,12.838-7.994,12.838-6.888ZM7.616-9.758V0H8.89V-3.99h1.54L12.754,0H14.28L11.83-4.088a2.752,2.752,0,0,0,2.324-2.8c0-1.6-1.092-2.87-3.388-2.87Zm11.55,0H16.128V0h3.038c3.206,0,5.18-1.834,5.18-4.858S22.372-9.758,19.166-9.758ZM17.4-1.05V-8.722h1.764a3.52,3.52,0,0,1,3.878,3.864c0,2.38-1.33,3.808-3.878,3.808Z" transform="translate(-14876.462 10076.727)"/>
    <path id="Path_1286" data-name="Path 1286" transform="translate(-14875.804 9686.358)" fill="none"/>
    <path id="Path_1287" data-name="Path 1287" d="M-35.889,0h1.274V-4.4h3.444V-5.432h-3.444v-3.29h4.242V-9.758h-5.516Zm7.056,0h1.274V-9.758h-1.274Zm9.842-9.772v7.756l-5.124-7.756h-1.274V0h1.274V-7.77L-18.991,0h1.274V-9.772Zm6.482.014h-3.038V0h3.038c3.206,0,5.18-1.834,5.18-4.858S-9.3-9.758-12.509-9.758ZM-14.273-1.05V-8.722h1.764A3.52,3.52,0,0,1-8.631-4.858c0,2.38-1.33,3.808-3.878,3.808Zm18.7-1.61C4.431-6.272-.833-4.7-.833-7.224c0-1.05.826-1.6,1.876-1.568a1.767,1.767,0,0,1,1.89,1.414h1.4C4.179-8.862,2.961-9.884,1.1-9.884c-1.932,0-3.234,1.092-3.234,2.7,0,3.626,5.278,1.946,5.278,4.578,0,.924-.728,1.624-1.96,1.624A1.807,1.807,0,0,1-.833-2.6H-2.191C-2.163-.994-.777.1,1.183.1,3.3.1,4.431-1.274,4.431-2.66Zm11.2-2.226a4.805,4.805,0,0,0-4.9-4.984,4.813,4.813,0,0,0-4.9,4.984A4.813,4.813,0,0,0,10.731.1,4.805,4.805,0,0,0,15.631-4.886Zm-8.5,0a3.557,3.557,0,0,1,3.6-3.878,3.557,3.557,0,0,1,3.6,3.878,3.564,3.564,0,0,1-3.6,3.878A3.564,3.564,0,0,1,7.133-4.886ZM23.709-9.772v7.756L18.585-9.772H17.311V0h1.274V-7.77L23.709,0h1.274V-9.772Zm7.868-.1a4.813,4.813,0,0,0-4.9,4.984,4.8,4.8,0,0,0,4.9,4.97,4.733,4.733,0,0,0,4.788-4.368v-.98h-5.25v1.036h3.892a3.29,3.29,0,0,1-3.43,3.164,3.54,3.54,0,0,1-3.6-3.822,3.544,3.544,0,0,1,3.6-3.836A3.113,3.113,0,0,1,34.545-6.93h1.526A4.614,4.614,0,0,0,31.577-9.87Z" transform="translate(-14877.114 9772.014)"/>
    <path id="Path_1288" data-name="Path 1288" d="M-50.358-9.758V0h4.69V-1.036h-3.416V-9.758Zm11.3-.014h-5.25V0h5.25V-1.05h-3.976V-4.41h3.556V-5.46h-3.556V-8.722h3.976ZM-30.576,0h1.344l-3.514-9.7h-1.47L-37.744,0H-36.4l.784-2.17h4.256Zm-1.148-3.206h-3.528l1.764-4.928Zm9.254-3.682c0,1.092-.63,1.876-2.072,1.876h-1.876v-3.7h1.876C-23.086-8.708-22.47-7.994-22.47-6.888Zm-5.222-2.87V0h1.274V-3.99h1.54L-22.554,0h1.526l-2.45-4.088a2.752,2.752,0,0,0,2.324-2.8c0-1.6-1.092-2.87-3.388-2.87Zm14.91-.014v7.756l-5.124-7.756H-19.18V0h1.274V-7.77L-12.782,0h1.274V-9.772Zm6.706,4.886A4.787,4.787,0,0,0-1.2.084,4.589,4.589,0,0,0,3.318-2.842H1.792a3.079,3.079,0,0,1-3,1.82,3.539,3.539,0,0,1-3.57-3.864A3.544,3.544,0,0,1-1.2-8.764a3.07,3.07,0,0,1,3,1.834H3.318A4.593,4.593,0,0,0-1.2-9.884,4.811,4.811,0,0,0-6.076-4.886ZM11.452,0h1.274V-9.758H11.452v4.284H6.482V-9.758H5.208V0H6.482V-4.424h4.97ZM24.206-4.886a4.805,4.805,0,0,0-4.9-4.984,4.813,4.813,0,0,0-4.9,4.984A4.813,4.813,0,0,0,19.306.1,4.805,4.805,0,0,0,24.206-4.886Zm-8.5,0a3.557,3.557,0,0,1,3.6-3.878,3.557,3.557,0,0,1,3.6,3.878,3.564,3.564,0,0,1-3.6,3.878A3.564,3.564,0,0,1,15.708-4.886Zm15.4-2c0,1.092-.63,1.876-2.072,1.876H27.16v-3.7h1.876C30.492-8.708,31.108-7.994,31.108-6.888Zm-5.222-2.87V0H27.16V-3.99H28.7L31.024,0H32.55L30.1-4.088a2.752,2.752,0,0,0,2.324-2.8c0-1.6-1.092-2.87-3.388-2.87Zm11.55,0H34.4V0h3.038c3.206,0,5.18-1.834,5.18-4.858S40.642-9.758,37.436-9.758ZM35.672-1.05V-8.722h1.764a3.52,3.52,0,0,1,3.878,3.864c0,2.38-1.33,3.808-3.878,3.808ZM50.638-2.66c0-3.612-5.264-2.044-5.264-4.564,0-1.05.826-1.6,1.876-1.568a1.767,1.767,0,0,1,1.89,1.414h1.4c-.154-1.484-1.372-2.506-3.234-2.506-1.932,0-3.234,1.092-3.234,2.7,0,3.626,5.278,1.946,5.278,4.578,0,.924-.728,1.624-1.96,1.624A1.807,1.807,0,0,1,45.374-2.6H44.016C44.044-.994,45.43.1,47.39.1,49.5.1,50.638-1.274,50.638-2.66Z" transform="translate(-14878.414 9848.192)"/>
    <path id="Path_1289" data-name="Path 1289" d="M0,0V39.866" transform="translate(-14875.002 10015.678)" fill="none" stroke="#969696" stroke-linecap="round" stroke-width="1" stroke-dasharray="3"/>
    <path id="Path_1290" data-name="Path 1290" d="M0,0V39.866" transform="translate(-14875.002 9939.5)" fill="none" stroke="#969696" stroke-linecap="round" stroke-width="1" stroke-dasharray="3"/>
    <path id="Path_1291" data-name="Path 1291" d="M0,0V39.866" transform="translate(-14875.002 9863.321)" fill="none" stroke="#969696" stroke-linecap="round" stroke-width="1" stroke-dasharray="3"/>
    <path id="Path_1292" data-name="Path 1292" d="M0,0V39.866" transform="translate(-14875.002 9787.143)" fill="none" stroke="#969696" stroke-linecap="round" stroke-width="1" stroke-dasharray="3"/>
    <path id="Path_1293" data-name="Path 1293" d="M0,0V39.866" transform="translate(-14875.002 9710.965)" fill="none" stroke="#969696" stroke-linecap="round" stroke-width="1" stroke-dasharray="3"/>
    <path id="Path_1032" data-name="Path 1032" d="M934.767-1044.6l.065-92.4h59.534" transform="translate(-15810.055 10724.439)" fill="none" stroke="#969696" stroke-miterlimit="10" stroke-width="1" stroke-dasharray="3"/>
    <path id="Path_1294" data-name="Path 1294" d="M-53.711,0h1.274V-7.238L-49.2,0h.9l3.22-7.224V0h1.274V-9.688h-1.358L-48.755-1.68l-3.584-8.008h-1.372Zm14.434-3.682V0H-38V-3.682l3.178-6.076h-1.414l-2.408,4.942-2.408-4.942h-1.414Zm12.572-6.076h-3.038V0h3.038c3.206,0,5.18-1.834,5.18-4.858S-23.5-9.758-26.705-9.758ZM-28.469-1.05V-8.722h1.764a3.52,3.52,0,0,1,3.878,3.864c0,2.38-1.33,3.808-3.878,3.808ZM-19.845,0h1.274V-9.758h-1.274Zm9.786-2.66c0-3.612-5.264-2.044-5.264-4.564,0-1.05.826-1.6,1.876-1.568a1.767,1.767,0,0,1,1.89,1.414h1.4c-.154-1.484-1.372-2.506-3.234-2.506-1.932,0-3.234,1.092-3.234,2.7,0,3.626,5.278,1.946,5.278,4.578,0,.924-.728,1.624-1.96,1.624A1.807,1.807,0,0,1-15.323-2.6h-1.358c.028,1.61,1.414,2.7,3.374,2.7C-11.193.1-10.059-1.274-10.059-2.66Zm1.4-2.226A4.787,4.787,0,0,0-3.787.084,4.589,4.589,0,0,0,.735-2.842H-.791a3.079,3.079,0,0,1-3,1.82,3.539,3.539,0,0,1-3.57-3.864,3.544,3.544,0,0,1,3.57-3.878,3.07,3.07,0,0,1,3,1.834H.735A4.593,4.593,0,0,0-3.787-9.884,4.811,4.811,0,0,0-8.659-4.886Zm20.608,0a4.805,4.805,0,0,0-4.9-4.984,4.813,4.813,0,0,0-4.9,4.984A4.813,4.813,0,0,0,7.049.1,4.805,4.805,0,0,0,11.949-4.886Zm-8.5,0a3.557,3.557,0,0,1,3.6-3.878,3.557,3.557,0,0,1,3.6,3.878,3.564,3.564,0,0,1-3.6,3.878A3.564,3.564,0,0,1,3.451-4.886ZM17.283-1.344,14.217-9.758H12.859L16.541,0h1.47l3.682-9.758H20.349Zm11.06-8.428h-5.25V0h5.25V-1.05H24.367V-4.41h3.556V-5.46H24.367V-8.722h3.976ZM35.5-6.888c0,1.092-.63,1.876-2.072,1.876H31.549v-3.7h1.876C34.881-8.708,35.5-7.994,35.5-6.888Zm-5.222-2.87V0h1.274V-3.99h1.54L35.413,0h1.526l-2.45-4.088a2.752,2.752,0,0,0,2.324-2.8c0-1.6-1.092-2.87-3.388-2.87Zm13.762-.014h-5.25V0h5.25V-1.05H40.061V-4.41h3.556V-5.46H40.061V-8.722h3.976Zm4.97.014H45.969V0h3.038c3.206,0,5.18-1.834,5.18-4.858S52.213-9.758,49.007-9.758ZM47.243-1.05V-8.722h1.764a3.52,3.52,0,0,1,3.878,3.864c0,2.38-1.33,3.808-3.878,3.808Z" transform="translate(-14627.372 9695.836)"/>
    <path id="Path_1295" data-name="Path 1295" d="M-78.9,0h1.344l-3.514-9.7h-1.47L-86.072,0h1.344l.784-2.17h4.256Zm-1.148-3.206H-83.58l1.764-4.928Zm9.576.462c0,1.064-.756,1.694-2.016,1.694h-2.254V-4.494h2.212C-71.288-4.494-70.476-3.822-70.476-2.744Zm-.252-4.382c0,.994-.686,1.582-1.876,1.582h-2.142V-8.708h2.114C-71.386-8.708-70.728-8.092-70.728-7.126ZM-69.2-2.618a2.436,2.436,0,0,0-1.932-2.408A2.283,2.283,0,0,0-69.426-7.28c0-1.358-1.036-2.478-3.094-2.478h-3.5V0h3.64C-70.364,0-69.2-1.148-69.2-2.618Zm11.088-2.268a4.805,4.805,0,0,0-4.9-4.984,4.813,4.813,0,0,0-4.9,4.984A4.813,4.813,0,0,0-63.014.1,4.805,4.805,0,0,0-58.114-4.886Zm-8.5,0a3.557,3.557,0,0,1,3.6-3.878,3.557,3.557,0,0,1,3.6,3.878,3.564,3.564,0,0,1-3.6,3.878A3.564,3.564,0,0,1-66.612-4.886ZM-56.462-3.6A3.408,3.408,0,0,0-52.794.1a3.418,3.418,0,0,0,3.682-3.7v-6.16h-1.274v6.174c0,1.792-.952,2.562-2.394,2.562a2.231,2.231,0,0,1-2.408-2.562V-9.758h-1.274Zm8.876-5.124h2.674V0h1.274V-8.722h2.66V-9.758h-6.608Zm11.312,0H-33.6V0h1.274V-8.722h2.66V-9.758h-6.608ZM-21.854,0h1.274V-9.758h-1.274v4.284h-4.97V-9.758H-28.1V0h1.274V-4.424h4.97Zm8.68-9.772h-5.25V0h5.25V-1.05H-17.15V-4.41h3.556V-5.46H-17.15V-8.722h3.976ZM-.952,0H.392L-3.122-9.7h-1.47L-8.12,0h1.344l.784-2.17h4.256ZM-2.1-3.206H-5.628l1.764-4.928ZM7.154-6.888c0,1.092-.63,1.876-2.072,1.876H3.206v-3.7H5.082C6.538-8.708,7.154-7.994,7.154-6.888ZM1.932-9.758V0H3.206V-3.99h1.54L7.07,0H8.6L6.146-4.088a2.752,2.752,0,0,0,2.324-2.8c0-1.6-1.092-2.87-3.388-2.87Zm7.91,1.036h2.674V0H13.79V-8.722h2.66V-9.758H9.842ZM18.018,0h1.274V-9.758H18.018ZM27.8-2.66c0-3.612-5.264-2.044-5.264-4.564,0-1.05.826-1.6,1.876-1.568a1.767,1.767,0,0,1,1.89,1.414h1.4c-.154-1.484-1.372-2.506-3.234-2.506-1.932,0-3.234,1.092-3.234,2.7,0,3.626,5.278,1.946,5.278,4.578,0,.924-.728,1.624-1.96,1.624A1.807,1.807,0,0,1,22.54-2.6H21.182C21.21-.994,22.6.1,24.556.1,26.67.1,27.8-1.274,27.8-2.66Zm1.274-6.062h2.674V0h1.274V-8.722h2.66V-9.758H29.078Zm7.84,11.1h1.26l3.836-15.568H40.74ZM54-2.66c0-3.612-5.264-2.044-5.264-4.564,0-1.05.826-1.6,1.876-1.568A1.767,1.767,0,0,1,52.5-7.378h1.4c-.154-1.484-1.372-2.506-3.234-2.506-1.932,0-3.234,1.092-3.234,2.7,0,3.626,5.278,1.946,5.278,4.578,0,.924-.728,1.624-1.96,1.624A1.807,1.807,0,0,1,48.734-2.6H47.376C47.4-.994,48.79.1,50.75.1,52.864.1,54-1.274,54-2.66ZM65.2-4.886A4.805,4.805,0,0,0,60.3-9.87a4.813,4.813,0,0,0-4.9,4.984A4.813,4.813,0,0,0,60.3.1,4.805,4.805,0,0,0,65.2-4.886Zm-8.5,0a3.557,3.557,0,0,1,3.6-3.878,3.557,3.557,0,0,1,3.6,3.878,3.564,3.564,0,0,1-3.6,3.878A3.564,3.564,0,0,1,56.7-4.886ZM73.276-9.772v7.756L68.152-9.772H66.878V0h1.274V-7.77L73.276,0H74.55V-9.772Zm7.868-.1a4.813,4.813,0,0,0-4.9,4.984,4.8,4.8,0,0,0,4.9,4.97,4.733,4.733,0,0,0,4.788-4.368v-.98h-5.25v1.036h3.892a3.29,3.29,0,0,1-3.43,3.164,3.54,3.54,0,0,1-3.6-3.822,3.544,3.544,0,0,1,3.6-3.836A3.113,3.113,0,0,1,84.112-6.93h1.526A4.614,4.614,0,0,0,81.144-9.87Z" transform="translate(-14628.693 9772.015)"/>
    <path id="Path_1296" data-name="Path 1296" d="M-92.5-4.886A4.787,4.787,0,0,0-87.626.084,4.589,4.589,0,0,0-83.1-2.842H-84.63a3.079,3.079,0,0,1-3,1.82A3.539,3.539,0,0,1-91.2-4.886a3.544,3.544,0,0,1,3.57-3.878,3.07,3.07,0,0,1,3,1.834H-83.1a4.593,4.593,0,0,0-4.522-2.954A4.811,4.811,0,0,0-92.5-4.886ZM-74.97,0H-73.7V-9.758H-74.97v4.284h-4.97V-9.758h-1.274V0h1.274V-4.424h4.97Zm12.754-4.886a4.805,4.805,0,0,0-4.9-4.984,4.813,4.813,0,0,0-4.9,4.984A4.813,4.813,0,0,0-67.116.1,4.805,4.805,0,0,0-62.216-4.886Zm-8.5,0a3.557,3.557,0,0,1,3.6-3.878,3.557,3.557,0,0,1,3.6,3.878,3.564,3.564,0,0,1-3.6,3.878A3.564,3.564,0,0,1-70.714-4.886Zm19.5,0a4.805,4.805,0,0,0-4.9-4.984,4.813,4.813,0,0,0-4.9,4.984A4.813,4.813,0,0,0-56.112.1,4.805,4.805,0,0,0-51.212-4.886Zm-8.5,0a3.557,3.557,0,0,1,3.6-3.878,3.557,3.557,0,0,1,3.6,3.878,3.564,3.564,0,0,1-3.6,3.878A3.564,3.564,0,0,1-59.71-4.886ZM-43.19-2.66c0-3.612-5.264-2.044-5.264-4.564,0-1.05.826-1.6,1.876-1.568a1.767,1.767,0,0,1,1.89,1.414h1.4c-.154-1.484-1.372-2.506-3.234-2.506-1.932,0-3.234,1.092-3.234,2.7,0,3.626,5.278,1.946,5.278,4.578,0,.924-.728,1.624-1.96,1.624A1.807,1.807,0,0,1-48.454-2.6h-1.358C-49.784-.994-48.4.1-46.438.1-44.324.1-43.19-1.274-43.19-2.66Zm7.126-7.112h-5.25V0h5.25V-1.05H-40.04V-4.41h3.556V-5.46H-40.04V-8.722h3.976Zm8.05,6.09V0h1.274V-3.682l3.178-6.076h-1.414l-2.408,4.942-2.408-4.942h-1.414Zm15.12-1.2a4.805,4.805,0,0,0-4.9-4.984,4.813,4.813,0,0,0-4.9,4.984A4.813,4.813,0,0,0-17.794.1,4.805,4.805,0,0,0-12.894-4.886Zm-8.5,0a3.557,3.557,0,0,1,3.6-3.878,3.557,3.557,0,0,1,3.6,3.878,3.564,3.564,0,0,1-3.6,3.878A3.564,3.564,0,0,1-21.392-4.886ZM-11.242-3.6A3.408,3.408,0,0,0-7.574.1,3.418,3.418,0,0,0-3.892-3.6v-6.16H-5.166v6.174c0,1.792-.952,2.562-2.394,2.562A2.231,2.231,0,0,1-9.968-3.584V-9.758h-1.274Zm14.7-3.29c0,1.092-.63,1.876-2.072,1.876H-.49v-3.7H1.386C2.842-8.708,3.458-7.994,3.458-6.888Zm-5.222-2.87V0H-.49V-3.99H1.05L3.374,0H4.9L2.45-4.088a2.752,2.752,0,0,0,2.324-2.8c0-1.6-1.092-2.87-3.388-2.87ZM10.486,0H11.76V-9.758H10.486Zm9.842-9.772v7.756L15.2-9.772H13.93V0H15.2V-7.77L20.328,0H21.6V-9.772ZM30.114-2.66c0-3.612-5.264-2.044-5.264-4.564,0-1.05.826-1.6,1.876-1.568a1.767,1.767,0,0,1,1.89,1.414h1.4c-.154-1.484-1.372-2.506-3.234-2.506-1.932,0-3.234,1.092-3.234,2.7,0,3.626,5.278,1.946,5.278,4.578,0,.924-.728,1.624-1.96,1.624A1.807,1.807,0,0,1,24.85-2.6H23.492C23.52-.994,24.906.1,26.866.1,28.98.1,30.114-1.274,30.114-2.66Zm1.274-6.062h2.674V0h1.274V-8.722H38V-9.758H31.388Zm13.4,1.834c0,1.092-.63,1.876-2.072,1.876H40.838v-3.7h1.876C44.17-8.708,44.786-7.994,44.786-6.888Zm-5.222-2.87V0h1.274V-3.99h1.54L44.7,0h1.526l-2.45-4.088a2.752,2.752,0,0,0,2.324-2.8c0-1.6-1.092-2.87-3.388-2.87ZM48.048-3.6A3.408,3.408,0,0,0,51.716.1,3.418,3.418,0,0,0,55.4-3.6v-6.16H54.124v6.174c0,1.792-.952,2.562-2.394,2.562a2.231,2.231,0,0,1-2.408-2.562V-9.758H48.048ZM57.526,0H58.8V-7.238L62.034,0h.9l3.22-7.224V0h1.274V-9.688H66.066L62.482-1.68,58.9-9.688H57.526Zm17.3-9.772H69.58V0h5.25V-1.05H70.854V-4.41H74.41V-5.46H70.854V-8.722H74.83Zm8.33,0v7.756L78.036-9.772H76.762V0h1.274V-7.77L83.16,0h1.274V-9.772ZM86-8.722h2.674V0H89.95V-8.722h2.66V-9.758H86Z" transform="translate(-14629.308 9924.371)"/>
    <path id="Path_1297" data-name="Path 1297" d="M-63.308-8.722h2.674V0h1.274V-8.722h2.66V-9.758h-6.608ZM-55.16-3.6A3.408,3.408,0,0,0-51.492.1,3.418,3.418,0,0,0-47.81-3.6v-6.16h-1.274v6.174c0,1.792-.952,2.562-2.394,2.562a2.231,2.231,0,0,1-2.408-2.562V-9.758H-55.16Zm15.876-6.174v7.756l-5.124-7.756h-1.274V0h1.274V-7.77L-39.284,0h1.274V-9.772Zm9.842,0v7.756l-5.124-7.756H-35.84V0h1.274V-7.77L-29.442,0h1.274V-9.772ZM-26,0h1.274V-9.758H-26Zm9.842-9.772v7.756L-21.28-9.772h-1.274V0h1.274V-7.77L-16.156,0h1.274V-9.772Zm7.868-.1a4.813,4.813,0,0,0-4.9,4.984,4.8,4.8,0,0,0,4.9,4.97A4.733,4.733,0,0,0-3.5-4.284v-.98H-8.75v1.036h3.892a3.29,3.29,0,0,1-3.43,3.164,3.54,3.54,0,0,1-3.6-3.822,3.544,3.544,0,0,1,3.6-3.836A3.113,3.113,0,0,1-5.32-6.93h1.526A4.614,4.614,0,0,0-8.288-9.87ZM8.26-2.66C8.26-6.272,3-4.7,3-7.224c0-1.05.826-1.6,1.876-1.568a1.767,1.767,0,0,1,1.89,1.414h1.4C8.008-8.862,6.79-9.884,4.928-9.884c-1.932,0-3.234,1.092-3.234,2.7,0,3.626,5.278,1.946,5.278,4.578,0,.924-.728,1.624-1.96,1.624A1.807,1.807,0,0,1,3-2.6H1.638C1.666-.994,3.052.1,5.012.1,7.126.1,8.26-1.274,8.26-2.66Zm7.126-7.112h-5.25V0h5.25V-1.05H11.41V-4.41h3.556V-5.46H11.41V-8.722h3.976Zm1.33,1.05H19.39V0h1.274V-8.722h2.66V-9.758H16.716Zm7.574,0h2.674V0h1.274V-8.722H30.9V-9.758H24.29ZM32.466,0H33.74V-9.758H32.466Zm9.842-9.772v7.756L37.184-9.772H35.91V0h1.274V-7.77L42.308,0h1.274V-9.772Zm7.868-.1a4.813,4.813,0,0,0-4.9,4.984,4.8,4.8,0,0,0,4.9,4.97,4.733,4.733,0,0,0,4.788-4.368v-.98h-5.25v1.036h3.892a3.29,3.29,0,0,1-3.43,3.164,3.54,3.54,0,0,1-3.6-3.822,3.544,3.544,0,0,1,3.6-3.836A3.113,3.113,0,0,1,53.144-6.93H54.67A4.614,4.614,0,0,0,50.176-9.87Zm12.81,7.21c0-3.612-5.264-2.044-5.264-4.564,0-1.05.826-1.6,1.876-1.568a1.767,1.767,0,0,1,1.89,1.414h1.4c-.154-1.484-1.372-2.506-3.234-2.506-1.932,0-3.234,1.092-3.234,2.7C56.42-3.556,61.7-5.236,61.7-2.6c0,.924-.728,1.624-1.96,1.624A1.807,1.807,0,0,1,57.722-2.6H56.364C56.392-.994,57.778.1,59.738.1,61.852.1,62.986-1.274,62.986-2.66Z" transform="translate(-14628.356 10000.549)"/>
    <path id="Path_1298" data-name="Path 1298" d="M-24.346-4.886A4.787,4.787,0,0,0-19.474.084a4.589,4.589,0,0,0,4.522-2.926h-1.526a3.079,3.079,0,0,1-3,1.82,3.539,3.539,0,0,1-3.57-3.864,3.544,3.544,0,0,1,3.57-3.878,3.07,3.07,0,0,1,3,1.834h1.526a4.593,4.593,0,0,0-4.522-2.954A4.811,4.811,0,0,0-24.346-4.886ZM-6.818,0h1.274V-9.758H-6.818v4.284h-4.97V-9.758h-1.274V0h1.274V-4.424h4.97ZM5.936-4.886a4.805,4.805,0,0,0-4.9-4.984,4.813,4.813,0,0,0-4.9,4.984A4.813,4.813,0,0,0,1.036.1,4.805,4.805,0,0,0,5.936-4.886Zm-8.5,0a3.557,3.557,0,0,1,3.6-3.878,3.557,3.557,0,0,1,3.6,3.878,3.564,3.564,0,0,1-3.6,3.878A3.564,3.564,0,0,1-2.562-4.886Zm15.4-2c0,1.092-.63,1.876-2.072,1.876H8.89v-3.7h1.876C12.222-8.708,12.838-7.994,12.838-6.888ZM7.616-9.758V0H8.89V-3.99h1.54L12.754,0H14.28L11.83-4.088a2.752,2.752,0,0,0,2.324-2.8c0-1.6-1.092-2.87-3.388-2.87Zm11.55,0H16.128V0h3.038c3.206,0,5.18-1.834,5.18-4.858S22.372-9.758,19.166-9.758ZM17.4-1.05V-8.722h1.764a3.52,3.52,0,0,1,3.878,3.864c0,2.38-1.33,3.808-3.878,3.808Z" transform="translate(-14625.175 10076.728)"/>
    <path id="Path_1299" data-name="Path 1299" d="M-50.358-9.758V0h4.69V-1.036h-3.416V-9.758Zm11.3-.014h-5.25V0h5.25V-1.05h-3.976V-4.41h3.556V-5.46h-3.556V-8.722h3.976ZM-30.576,0h1.344l-3.514-9.7h-1.47L-37.744,0H-36.4l.784-2.17h4.256Zm-1.148-3.206h-3.528l1.764-4.928Zm9.254-3.682c0,1.092-.63,1.876-2.072,1.876h-1.876v-3.7h1.876C-23.086-8.708-22.47-7.994-22.47-6.888Zm-5.222-2.87V0h1.274V-3.99h1.54L-22.554,0h1.526l-2.45-4.088a2.752,2.752,0,0,0,2.324-2.8c0-1.6-1.092-2.87-3.388-2.87Zm14.91-.014v7.756l-5.124-7.756H-19.18V0h1.274V-7.77L-12.782,0h1.274V-9.772Zm6.706,4.886A4.787,4.787,0,0,0-1.2.084,4.589,4.589,0,0,0,3.318-2.842H1.792a3.079,3.079,0,0,1-3,1.82,3.539,3.539,0,0,1-3.57-3.864A3.544,3.544,0,0,1-1.2-8.764a3.07,3.07,0,0,1,3,1.834H3.318A4.593,4.593,0,0,0-1.2-9.884,4.811,4.811,0,0,0-6.076-4.886ZM11.452,0h1.274V-9.758H11.452v4.284H6.482V-9.758H5.208V0H6.482V-4.424h4.97ZM24.206-4.886a4.805,4.805,0,0,0-4.9-4.984,4.813,4.813,0,0,0-4.9,4.984A4.813,4.813,0,0,0,19.306.1,4.805,4.805,0,0,0,24.206-4.886Zm-8.5,0a3.557,3.557,0,0,1,3.6-3.878,3.557,3.557,0,0,1,3.6,3.878,3.564,3.564,0,0,1-3.6,3.878A3.564,3.564,0,0,1,15.708-4.886Zm15.4-2c0,1.092-.63,1.876-2.072,1.876H27.16v-3.7h1.876C30.492-8.708,31.108-7.994,31.108-6.888Zm-5.222-2.87V0H27.16V-3.99H28.7L31.024,0H32.55L30.1-4.088a2.752,2.752,0,0,0,2.324-2.8c0-1.6-1.092-2.87-3.388-2.87Zm11.55,0H34.4V0h3.038c3.206,0,5.18-1.834,5.18-4.858S40.642-9.758,37.436-9.758ZM35.672-1.05V-8.722h1.764a3.52,3.52,0,0,1,3.878,3.864c0,2.38-1.33,3.808-3.878,3.808ZM50.638-2.66c0-3.612-5.264-2.044-5.264-4.564,0-1.05.826-1.6,1.876-1.568a1.767,1.767,0,0,1,1.89,1.414h1.4c-.154-1.484-1.372-2.506-3.234-2.506-1.932,0-3.234,1.092-3.234,2.7,0,3.626,5.278,1.946,5.278,4.578,0,.924-.728,1.624-1.96,1.624A1.807,1.807,0,0,1,45.374-2.6H44.016C44.044-.994,45.43.1,47.39.1,49.5.1,50.638-1.274,50.638-2.66Z" transform="translate(-14627.126 9848.192)"/>
    <path id="Path_1300" data-name="Path 1300" d="M0,0V39.866" transform="translate(-14623.716 10015.678)" fill="none" stroke="#969696" stroke-linecap="round" stroke-width="1" stroke-dasharray="3"/>
    <path id="Path_1301" data-name="Path 1301" d="M0,0V39.866" transform="translate(-14623.716 9939.5)" fill="none" stroke="#969696" stroke-linecap="round" stroke-width="1" stroke-dasharray="3"/>
    <path id="Path_1302" data-name="Path 1302" d="M0,0V39.866" transform="translate(-14623.716 9863.321)" fill="none" stroke="#969696" stroke-linecap="round" stroke-width="1" stroke-dasharray="3"/>
    <path id="Path_1303" data-name="Path 1303" d="M0,0V39.866" transform="translate(-14623.716 9787.144)" fill="none" stroke="#969696" stroke-linecap="round" stroke-width="1" stroke-dasharray="3"/>
    <path id="Path_1304" data-name="Path 1304" d="M0,0V39.866" transform="translate(-14623.716 9710.965)" fill="none" stroke="#969696" stroke-linecap="round" stroke-width="1" stroke-dasharray="3"/>
    <path id="Path_1033" data-name="Path 1033" d="M1346.221-1044.6l-.065-92.4h-59.534" transform="translate(-15964.347 10724.439)" fill="none" stroke="#969696" stroke-miterlimit="10" stroke-width="1" stroke-dasharray="3"/>
    <path id="Path_1034" data-name="Path 1034" d="M1147.877-1230.3l.189-67.379,248.82.562" transform="translate(-15903.506 10794.896)" fill="none" stroke="#ceb43a" stroke-linecap="round" stroke-linejoin="round" stroke-miterlimit="10" stroke-width="2" stroke-dasharray="3"/>
    <path id="Path_1305" data-name="Path 1305" transform="translate(-14912.87 9998.044)" fill="none"/>
  </g>
</svg>
