<svg id="Layer_1" data-name="Layer 1" xmlns="http://www.w3.org/2000/svg" viewBox="0 0 80.59 113.31"><defs><style>.cls-1{fill:#c22126;stroke:#fff;}</style></defs><path id="Path_19" data-name="Path 19" class="cls-1" d="M78.36,14.64a21.82,21.82,0,0,0-6.84-6.41c-4.35-2.5-8.78-4.89-13.2-7.3A7.5,7.5,0,0,0,54.7,0c-3.35.15-5.91,1.9-8.26,4.09-1.6,1.49-2.94,3.27-5,4.22a1.06,1.06,0,0,0-.69,1.32,1.23,1.23,0,0,0,.12.26c1,1.4.21,2.42-.54,3.56C27.2,33.21,14.59,53.3,2.12,73.48.56,76-.46,78.29.21,81.52,1.39,87.18,1,93.05,1.4,98.82a34.67,34.67,0,0,0,2.41,11.59c1.26,2.85,2.8,3.42,5.76,2.5a126.43,126.43,0,0,0,21.68-9.62,5.45,5.45,0,0,0,2.24-2.17c6.88-11.65,13.58-23.4,20.74-34.88C62.38,53.17,70,39.75,78.58,27,81.34,22.85,81.26,18.71,78.36,14.64ZM3.28,77.8A3.23,3.23,0,0,1,4,76c12.47-20.6,25.46-40.88,38.75-61,1.42-2.14,1.45-2.12,3.58-.7,1.68,1.11,3.35,2.24,5,3.3.9.55,1.22,1,.55,2.08C39.1,39.9,28.18,61.21,15,81.17a9.09,9.09,0,0,0-1.21,2.12c-.61,2-1.51,1.81-2.94.75-2-1.5-4.17-2.8-6.27-4.19C3.84,79.34,3.18,78.77,3.28,77.8ZM54,21.64c.34-.55.56-1.3,1.51-1.33.45.24,1,.47,1.44.77,1.63,1.07,3.22,2.21,4.88,3.22,1,.61,1,1.14.39,2.09-13.18,20.7-25,42.19-37,63.58-.7,1.24-1.29,1.55-2.56.73-2.06-1.33-4.2-2.52-6.36-3.7-.8-.44-.88-.82-.43-1.6,1.18-2,2.11-4.17,3.42-6.08,9.93-14.42,18-30,27.06-44.9,2.57-4.25,5.09-8.54,7.65-12.78ZM9,110.08A2.07,2.07,0,0,1,6.28,109a2,2,0,0,1-.14-.53c-.58-2.06-1.19-4.1-1.67-6.18-.13-.58-.81-1.34.06-1.86a2.2,2.2,0,0,1,2.33-.07c2.31,1.26,4.66,2.47,7,3.72,1.53.82,3,1.67,4.89,2.69C15.24,107.94,12.13,109.07,9,110.08Zm20.09-8.9q-2.67,1.39-5.32,2.84c-1.1.59-2.24,1-3.39.27-4.62-2.9-9.7-5-14.32-7.92A3.93,3.93,0,0,1,4,92.52c.12-3,0-6,0-9.34,1.84,1.06,3.67,2.1,5.49,3.17q9.84,5.73,19.67,11.49c.62.36,1.36.58,1.36,1.59s-.71,1.36-1.43,1.74ZM70.4,33.88q-18.5,30.71-37,61.43c-.76,1.26-1.31,1.34-2.36.49-1.3-1-3.57-1.42-3.88-3s1.31-2.86,2.11-4.28c11.24-19.87,22.2-39.9,34.47-59.18,1.61-2.53,1.57-2.56,3.63-.51.94.93,1.89,1.85,2.81,2.8.3.3.55.66.83,1-.24.45-.42.85-.64,1.23ZM77.63,21c.05,2.37-1.37,4.14-2.5,6-2,3.36-1.94,3.23-4.82.64C65.15,23,59.23,19.36,53.51,15.48q-3.59-2.43-7.25-4.76C45.2,10,45.18,9.47,46.1,8.58c1.63-1.56,3-3.37,5-4.5a6,6,0,0,1,6.23-.32c4.55,2.42,9.09,4.86,13.5,7.52a17,17,0,0,1,5.7,5.92A6.68,6.68,0,0,1,77.63,21Z"/></svg>